<?xml version="1.0" encoding="UTF-8" standalone="no"?>
<!-- Created with Inkscape (http://www.inkscape.org/) -->

<svg
   xmlns:dc="http://purl.org/dc/elements/1.1/"
   xmlns:cc="http://creativecommons.org/ns#"
   xmlns:rdf="http://www.w3.org/1999/02/22-rdf-syntax-ns#"
   xmlns:svg="http://www.w3.org/2000/svg"
   xmlns="http://www.w3.org/2000/svg"
   xmlns:sodipodi="http://sodipodi.sourceforge.net/DTD/sodipodi-0.dtd"
   xmlns:inkscape="http://www.inkscape.org/namespaces/inkscape"
   width="40.531616mm"
   height="65.511894mm"
   viewBox="0 0 100 100"
   version="1.1"
   id="svg1660"
   inkscape:version="0.92.5 (2060ec1f9f, 2020-04-08)"
   sodipodi:docname="BO.svg">
  <defs
     id="defs1654" />
  <sodipodi:namedview
     id="base"
     pagecolor="#ffffff"
     bordercolor="#666666"
     borderopacity="1.0"
     inkscape:pageopacity="0.0"
     inkscape:pageshadow="2"
     inkscape:zoom="0.35"
     inkscape:cx="320.88093"
     inkscape:cy="575.23059"
     inkscape:document-units="mm"
     inkscape:current-layer="layer1"
     showgrid="false"
     fit-margin-top="0"
     fit-margin-left="0"
     fit-margin-right="0"
     fit-margin-bottom="0"
     inkscape:window-width="960"
     inkscape:window-height="1015"
     inkscape:window-x="0"
     inkscape:window-y="0"
     inkscape:window-maximized="0" />
  <metadata
     id="metadata1657">
    <rdf:RDF>
      <cc:Work
         rdf:about="">
        <dc:format>image/svg+xml</dc:format>
        <dc:type
           rdf:resource="http://purl.org/dc/dcmitype/StillImage" />
        <dc:title></dc:title>
      </cc:Work>
    </rdf:RDF>
  </metadata>
  <g
     inkscape:label="Layer 1"
     inkscape:groupmode="layer"
     id="layer1"
     transform="translate(-4.68061,-235.51787)">
    <path
       style="fill:#000000;stroke-width:0.65278256"
       d="m 44.275286,375.22469 c 0.97709,-1.43552 0,0 1.18907,-3.22867 0.2712,-0.7364 0.75581,-3.06701 0.75581,-5.3364 0,-2.26936 0.57301,-8.80935 1.27337,-14.53327 0.70034,-5.72391 1.44934,-12.75713 1.66443,-15.62936 0.21514,-2.87225 0.69632,-6.78996 1.06941,-8.70606 0.48042,-2.46727 0.45182,-6.94342 -0.098,-15.34037 -0.68169,-10.41043 -0.98404,-12.31326 -2.47897,-15.60037 -1.2384,-2.72306 -2.27078,-4.01336 -3.7866,-4.73268 -3.18298,-1.51043 -4.20184,-1.23504 -7.20919,1.9486 -1.52617,1.61563 -2.96695,2.93754 -3.20173,2.93754 -0.23487,0 -0.99833,0.72652 -1.69682,1.61449 -0.98367,1.25053 -1.81419,1.58928 -3.68423,1.50268 -1.32788,-0.0614 -2.84795,0.0197 -3.37798,0.1806 -0.61802,0.18751 -1.04499,-0.24129 -1.19036,-1.19595 -0.15568,-1.02291 0.4519,-2.13094 1.94285,-3.54267 1.46592,-1.38803 1.74612,-1.89272 0.86397,-1.55625 -3.02129,1.15244 -8.00434,1.86445 -10.12503,1.44678 -1.27594,-0.25133 -2.77872,-1.13766 -3.41657,-2.01512 -1.09867,-1.51132 -2.41355,-7.03505 -1.44877,-6.08614 0.26093,0.25664 1.09672,0.12706 1.85734,-0.28802 1.48158,-0.80851 6.97784,-0.95688 8.16925,-0.22057 0.39638,0.245 0.7207,1.39553 0.7207,2.55677 0,1.90604 0.24976,2.17803 2.56827,2.79688 l 2.56829,0.68552 -0.36784,-3.10583 c -0.29715,-2.50893 -0.10066,-3.48096 1.02202,-5.0577 0.76441,-1.07356 1.38985,-2.25395 1.38985,-2.62312 0,-0.36917 0.58752,-0.85767 1.30558,-1.0856 0.71805,-0.22797 1.30557,-0.68832 1.30557,-1.02315 0,-0.99335 1.30303,-0.6995 3.34462,0.75425 1.52977,1.08928 2.27181,1.23839 3.6946,0.74241 4.57589,-1.59517 9.52082,1.74767 7.8876,5.33216 -0.60082,1.3187 -0.56889,1.88892 0.15444,2.75622 0.50159,0.60146 1.2553,1.8586 1.67492,2.79367 0.65038,1.44921 0.77251,1.50744 0.82757,0.39453 0.13249,-2.67613 1.25668,-12.56315 1.69295,-14.88872 0.53329,-2.8427 -0.47419,-3.1976 -3.1352,-1.10445 -0.95086,0.74796 -2.64821,1.30558 -3.97401,1.30558 -1.27286,0 -3.08224,0.34989 -4.02086,0.77756 -1.38766,0.63227 -2.09486,0.58433 -3.78421,-0.25654 -1.14269,-0.56879 -3.01801,-1.38904 -4.16734,-1.82277 -2.29833,-0.86735 -3.65411,-2.57585 -4.37996,-5.51942 -0.26111,-1.05891 -1.21111,-2.60772 -2.1111,-3.44181 -2.4148,-2.23798 -1.68088,-3.15273 2.35089,-2.93004 1.88248,0.10412 3.76054,-0.0881 4.1735,-0.42702 0.41294,-0.33885 1.48519,-0.71769 2.38279,-0.84184 1.06684,-0.14754 1.971,-0.93729 2.61112,-2.28061 0.53854,-1.13018 1.89718,-2.55201 3.01922,-3.15963 1.90126,-1.02959 2.18183,-1.03142 4.12414,-0.0271 1.14627,0.59275 2.43136,0.95271 2.85582,0.79989 0.42446,-0.15272 1.25643,-0.0291 1.84885,0.2748 1.27385,0.65354 2.36988,-1.31628 1.1514,-2.06934 -0.51599,-0.31891 -0.36877,-0.68887 0.46749,-1.17472 1.08091,-0.62798 1.00173,-0.71147 -0.69131,-0.72903 -1.0516,-0.01 -2.89486,0.33554 -4.09612,0.76992 -1.60213,0.57935 -2.67867,0.60311 -4.04027,0.0891 -1.19033,-0.44928 -2.25057,-0.47992 -2.95555,-0.0854 -0.60464,0.33837 -2.27723,0.41622 -3.71683,0.17295 -1.94907,-0.32928 -2.77114,-0.8464 -3.21926,-2.02499 -0.47321,-1.24468 -0.92807,-1.50088 -2.1294,-1.19936 -2.06362,0.51794 -3.05164,-0.84144 -2.87803,-3.95977 0.11646,-2.08938 0.53902,-2.81279 2.35979,-4.03887 1.21994,-0.82151 2.99714,-1.49363 3.94934,-1.49363 0.95219,0 2.04497,-0.3137 2.4284,-0.69713 0.49433,-0.49433 1.86309,-0.48572 4.70504,0.0296 2.54436,0.46137 4.40755,0.50311 5.10234,0.11423 0.77436,-0.43334 -0.75445,-0.75109 -5.22728,-1.08643 -5.58532,-0.41874 -6.3217,-0.61698 -6.3217,-1.70189 0,-1.27771 2.15385,-3.83907 3.22829,-3.83907 0.33944,0 1.01289,-0.80781 1.49654,-1.79514 0.59726,-1.21927 1.28926,-1.72546 2.15715,-1.5779 3.54163,0.60217 10.327,0.71599 9.11119,0.15285 -0.71806,-0.3326 -2.22883,-0.62537 -3.35726,-0.65061 -2.25027,-0.0503 -2.95547,-1.0612 -2.37886,-3.41003 0.54819,-2.233 1.46229,-3.16368 3.10735,-3.16368 1.03964,0 2.03313,-0.9309 3.48341,-3.26391 1.11592,-1.79515 2.48171,-3.26391 3.03509,-3.26391 0.55339,0 1.00615,0.24084 1.00615,0.53521 0,0.29436 0.88126,1.52228 1.95835,2.7287 1.07708,1.20642 1.95834,2.56387 1.95834,3.01657 0,1.75506 1.42664,1.56136 3.30424,-0.44862 l 1.96254,-2.10091 1.60971,1.51222 c 0.95878,0.90075 1.60968,2.24252 1.60968,3.31827 0,0.99331 0.24351,1.95658 0.54135,2.1406 0.49596,0.30653 4.52995,-0.72748 7.56018,-1.93786 1.03916,-0.41508 1.18737,-0.26903 0.88809,0.87529 -0.22007,0.8418 -0.007,1.50826 0.54787,1.72158 1.46274,0.56131 1.0648,1.66969 -1.51079,4.20781 -1.3298,1.31045 -2.43139,2.81296 -2.44792,3.33887 -0.0424,1.35122 -4.84646,3.9161 -7.3587,3.92891 -1.82351,0.01 -2.28362,0.37778 -3.4271,2.74447 -0.72645,1.50357 -1.3208,2.9367 -1.3208,3.18473 0,0.80327 4.10603,2.1782 6.06019,2.0293 1.04511,-0.0797 2.82762,-0.85217 3.96113,-1.71673 2.56399,-1.95566 5.64546,-3.19859 5.64546,-2.27714 0,0.36172 -0.66094,0.90233 -1.46875,1.20136 -1.38613,0.51311 -1.35156,0.56946 0.61448,1.00159 1.19559,0.26281 2.65586,0.15149 3.4271,-0.2613 1.08538,-0.58086 1.34387,-0.52646 1.34387,0.28294 0,0.55117 -0.22032,1.00662 -0.48959,1.01212 -0.26927,0.005 -0.92878,0.28765 -1.46557,0.62702 -0.83725,0.52929 -0.79084,0.75694 0.32638,1.60119 1.05422,0.79666 1.10398,0.98814 0.26118,1.00495 -0.57264,0.0123 -1.57287,-0.56675 -2.22271,-1.2848 -1.62512,-1.79576 -3.16849,-1.64272 -7.30578,0.72439 -3.284,1.87893 -3.85203,1.99741 -7.63446,1.59234 l -4.08644,-0.43763 -0.76799,2.5633 c -1.07743,3.59618 -0.9672,4.4922 0.60326,4.90287 0.7542,0.19713 1.19386,0.64562 0.97706,0.9964 -0.7295,1.18034 0.33209,2.56464 2.2629,2.95081 3.04225,0.60844 2.41237,2.43556 -1.50356,4.36149 l -3.37687,1.6608 -0.78917,5.51981 c -0.43405,3.0359 -0.71092,5.5985 -0.61529,5.69469 0.0957,0.0962 1.02539,-0.26922 2.06616,-0.81196 1.04074,-0.54276 2.37876,-0.98866 2.97338,-0.99085 0.80347,-0.002 1.19806,-0.8542 1.53641,-3.31438 0.2672,-1.94278 0.83187,-3.42601 1.36681,-3.59031 0.50136,-0.15395 1.4256,-0.4795 2.0539,-0.72338 1.60507,-0.62302 3.36668,-0.9522 6.18776,-1.15628 1.33886,-0.0967 2.90492,-0.56667 3.48013,-1.04405 0.78319,-0.65001 1.33409,-0.68799 2.19362,-0.15124 0.71216,0.44474 1.49723,0.4922 2.06853,0.12508 0.50642,-0.32545 1.72029,-0.42386 2.69745,-0.21859 1.12144,0.23537 2.51155,-0.0609 3.76916,-0.80392 1.62537,-0.96014 2.20003,-1.02831 3.11917,-0.37005 1.35773,0.97235 1.6667,1.09435 5.20663,2.05585 1.99456,0.54175 2.77432,1.09347 2.77432,1.96303 0,0.66526 0.41807,1.36997 0.92905,1.56604 0.77382,0.29695 0.7193,0.76797 -0.32638,2.81901 -0.6905,1.35435 -1.25546,2.97121 -1.25546,3.593 0,0.62178 -0.55774,1.52118 -1.23946,1.99868 -1.14481,0.80185 -1.63322,2.24163 -1.44684,4.26495 0.0851,0.92305 3.07234,1.12292 3.61678,0.24203 0.43886,-0.71008 2.98777,-1.42264 2.98209,-0.83364 -0.007,0.6656 -3.88578,2.71318 -5.14048,2.71318 -1.47137,0 -2.68879,-1.26126 -2.68879,-2.78567 0,-0.89106 -0.32641,-1.11538 -1.2134,-0.83387 -0.70049,0.2223 -1.56209,-0.035 -2.03826,-0.60878 -0.47457,-0.5718 -1.88122,-0.99392 -3.31211,-0.99392 -1.99126,0 -2.57833,0.28711 -2.94422,1.43996 -0.33899,1.06809 -0.0974,1.67872 0.93517,2.36435 1.77055,1.17561 1.7422,2.04421 -0.12434,3.81256 -1.85747,1.75969 -5.09499,2.37076 -8.92773,1.6851 -2.28483,-0.40874 -3.12659,-0.92029 -3.78911,-2.30259 -0.46848,-0.97741 -1.27636,-1.77714 -1.79532,-1.77714 -0.51895,0 -0.94356,-0.38522 -0.94356,-0.85607 0,-0.47084 -0.66094,-1.56675 -1.46875,-2.43533 -0.80781,-0.86858 -1.39533,-1.80523 -1.30557,-2.08144 0.24006,-0.739 -0.73146,-0.6209 -4.22027,0.51298 -7.19408,2.33811 -6.71384,1.81639 -6.71384,7.29365 0,4.38699 0.1167,4.84135 1.14237,4.44458 2.17645,-0.84199 4.73265,-1.16389 4.72766,-0.59532 -0.002,0.31415 -1.17777,1.24091 -2.61114,2.05943 -2.05625,1.17427 -2.60005,1.86289 -2.57742,3.26392 0.0498,3.08118 2.42938,20.44449 2.86107,20.8762 0.15864,0.15864 1.40922,-0.29932 2.77919,-1.01753 2.5561,-1.34006 10.81363,-4.09419 11.18337,-3.72995 0.6038,0.59479 -3.19045,3.10279 -5.92069,3.91359 -4.06021,1.20575 -8.22081,3.55226 -8.61754,4.86015 -0.81685,2.69287 -1.71612,19.65829 -1.84486,34.80434 -0.0785,9.24321 0.35163,13.1688 0.0222,14.8048 -2.87395,0.074 -8.12699,0.0418 -10.26971,-0.0633 z"
       id="BO"
       inkscape:connector-curvature="0"
       sodipodi:nodetypes="csssccssccscccccccccccsscscscsccccccscscccsccccccccccscccccccscscsccssssccssssscssccsccccccccsccscccsccccccccccccccsccccccccccccccsccsccccssccscccscsssccscccsccccsscc">
      <title
         id="title1447">borovice lesní</title>
    </path>
  </g>
</svg>
