<?xml version="1.0" encoding="UTF-8" standalone="no"?>
<!-- Created with Inkscape (http://www.inkscape.org/) -->

<svg
   xmlns:dc="http://purl.org/dc/elements/1.1/"
   xmlns:cc="http://creativecommons.org/ns#"
   xmlns:rdf="http://www.w3.org/1999/02/22-rdf-syntax-ns#"
   xmlns:svg="http://www.w3.org/2000/svg"
   xmlns="http://www.w3.org/2000/svg"
   xmlns:sodipodi="http://sodipodi.sourceforge.net/DTD/sodipodi-0.dtd"
   xmlns:inkscape="http://www.inkscape.org/namespaces/inkscape"
   width="40.531616mm"
   height="65.511894mm"
   viewBox="0 0 100 100"
   version="1.1"
   id="svg1660"
   inkscape:version="0.92.5 (2060ec1f9f, 2020-04-08)"
   sodipodi:docname="BR.svg">
  <defs
     id="defs1654" />
  <sodipodi:namedview
     id="base"
     pagecolor="#ffffff"
     bordercolor="#666666"
     borderopacity="1.0"
     inkscape:pageopacity="0.0"
     inkscape:pageshadow="2"
     inkscape:zoom="0.35"
     inkscape:cx="320.88093"
     inkscape:cy="575.23059"
     inkscape:document-units="mm"
     inkscape:current-layer="layer1"
     showgrid="false"
     fit-margin-top="0"
     fit-margin-left="0"
     fit-margin-right="0"
     fit-margin-bottom="0"
     inkscape:window-width="960"
     inkscape:window-height="1015"
     inkscape:window-x="0"
     inkscape:window-y="0"
     inkscape:window-maximized="0" />
  <metadata
     id="metadata1657">
    <rdf:RDF>
      <cc:Work
         rdf:about="">
        <dc:format>image/svg+xml</dc:format>
        <dc:type
           rdf:resource="http://purl.org/dc/dcmitype/StillImage" />
        <dc:title></dc:title>
      </cc:Work>
    </rdf:RDF>
  </metadata>
  <g
     inkscape:label="Layer 1"
     inkscape:groupmode="layer"
     id="layer1"
     transform="translate(-4.68061,-235.51787)">
    <path
       style="fill:#000000;stroke-width:0.51158828"
       d="m 55.135802,363.59362 c 0.20478,-6.1922 0.46398,-11.72748 0.57587,-12.30063 0.51103,-2.61725 0.70794,-4.44551 0.96633,-8.97171 0.15248,-2.67305 0.60849,-7.96799 1.01309,-11.76653 0.4046,-3.79855 0.66124,-7.48198 0.57027,-8.18541 -0.0908,-0.70343 -0.19466,-1.54766 -0.23068,-1.87606 -0.0952,-0.86929 -4.89194,-1.7897 -6.37957,-1.22409 -0.91923,0.34949 -1.85931,0.16996 -3.78642,-0.72283 -1.41002,-0.65325 -2.71433,-1.43157 -2.89851,-1.72957 -0.1843,-0.298 -0.73037,-0.41939 -1.21374,-0.26975 -0.75364,0.2333 -0.74606,0.18716 0.0531,-0.32414 0.7241,-0.46319 1.12362,-0.44229 1.79055,0.0938 2.27845,1.83098 4.46977,2.52749 6.51171,2.06975 1.20646,-0.27046 2.59427,-0.2613 3.44437,0.0227 0.78304,0.26164 1.76147,0.34609 2.17423,0.18776 1.06546,-0.40885 0.92735,-3.38581 -0.22674,-4.8872 -1.0629,-1.38276 -2.04186,-1.65727 -6.27182,-1.75863 -2.2454,-0.0538 -3.17848,-0.33052 -4.13067,-1.22506 -0.67651,-0.63556 -1.37012,-1.01551 -1.54132,-0.84431 -0.44353,0.44354 -4.47293,-0.30334 -4.47293,-0.82907 0,-0.45453 1.67139,-0.27654 2.55988,0.27256 0.65169,0.40277 0.64278,0.0833 -0.0395,-1.41385 -0.30196,-0.66277 -1.26518,-1.47535 -2.1405,-1.80573 -1.87602,-0.70812 -1.7366,-1.15295 0.24228,-0.77279 0.87374,0.16785 1.76943,0.91074 2.41281,2.00116 0.56277,0.95383 1.33616,1.73423 1.71868,1.73423 0.38249,0 1.19305,0.52966 1.80121,1.17702 0.85252,0.90749 1.51729,1.12896 2.9029,0.9672 1.68893,-0.19715 2.60295,-1.12104 1.10908,-1.12104 -0.37847,0 -1.10479,-0.46044 -1.61407,-1.02318 -0.50928,-0.56275 -0.68823,-1.02317 -0.39772,-1.02317 0.29054,0 0.81273,0.34278 1.16043,0.76175 0.34771,0.41897 0.84559,0.62988 1.10635,0.4687 0.26078,-0.16126 0.94205,0.30179 1.51393,1.02881 0.5719,0.72701 1.40784,1.32186 1.85766,1.32186 0.44982,0 1.23886,0.38101 1.75342,0.84667 0.88042,0.7968 0.93557,0.77775 0.93557,-0.32332 0,-0.64347 -0.44307,-1.88779 -0.98459,-2.76513 -0.54153,-0.87731 -1.24511,-2.63149 -1.56352,-3.89817 -0.91906,-3.65612 -4.02264,-5.11976 -11.26479,-5.31256 -2.16061,-0.0574 -3.27562,-0.39951 -4.80358,-1.47343 -2.47129,-1.7369 -4.07959,-1.77047 -5.73049,-0.11949 -1.30193,1.30196 -2.0603,1.69299 -1.48825,0.76739 0.17369,-0.28137 0.0148,-0.51999 -0.3535,-0.53028 -0.36833,-0.01 0.52714,-0.59782 1.98995,-1.30565 2.58011,-1.24848 2.71016,-1.26106 4.34851,-0.42057 0.92888,0.47652 2.18271,1.25088 2.78629,1.72079 1.07753,0.83889 4.78585,0.88198 4.78585,0.0557 0,-0.2025 -1.20864,-0.91592 -2.68586,-1.5854 -1.47722,-0.66948 -3.37647,-1.68724 -4.2206,-2.26169 -0.84411,-0.57446 -2.07917,-1.09028 -2.74458,-1.14623 -0.66538,-0.0561 -1.63716,-0.48854 -2.15952,-0.96125 -0.78968,-0.71466 -1.27545,-0.76828 -2.88291,-0.31823 -1.06325,0.29768 -2.50871,0.68711 -3.21214,0.86541 l -1.27897,0.32416 1.27897,-0.76806 c 2.11825,-1.27205 4.97775,-1.55062 6.39368,-0.62285 0.68428,0.44835 1.52552,0.81519 1.86945,0.81519 0.87942,0 -1.96037,-2.86208 -4.52999,-4.56553 -1.87597,-1.24363 -2.57821,-1.41015 -5.50785,-1.30592 -1.87656,0.0667 -3.50075,-0.11197 -3.68192,-0.40507 -0.21144,-0.34228 0.47916,-0.43393 1.98816,-0.26385 2.82584,0.31852 4.34411,-0.33416 3.4062,-1.46429 -1.3352,-1.6088 -3.28072,-2.22812 -4.98211,-1.5859 -1.27616,0.48168 -1.72026,0.46275 -2.23862,-0.0955 -0.53065,-0.57147 -0.48898,-0.64098 0.23216,-0.38761 1.39664,0.49062 1.516,-0.44721 0.15001,-1.17829 -1.21471,-0.65008 -3.16215,-3.92354 -2.64305,-4.44267 0.14507,-0.14502 0.73052,0.65096 1.30089,1.76902 0.9762,1.91351 2.40942,3.04712 3.04675,2.4098 0.15667,-0.15662 0.28489,-1.0681 0.28489,-2.02535 0,-0.95725 0.19985,-1.61698 0.44403,-1.46605 0.24425,0.15102 0.37713,1.05074 0.29539,1.99955 -0.13742,1.59467 0.0341,1.81763 2.26739,2.94828 2.05031,1.038 2.4116,1.09817 2.38671,0.39746 -0.0528,-1.48514 -2.77055,-5.92972 -3.94199,-6.44658 -0.6295,-0.27776 -1.14456,-0.65908 -1.14456,-0.84739 0,-0.67758 2.30445,0.27806 3.17202,1.31541 1.13499,1.35712 1.20812,0.18388 0.0942,-1.51578 -0.76057,-1.16078 -0.76057,-1.26098 0,-1.26098 0.45443,0 0.82624,0.28143 0.82624,0.62541 0,0.34398 0.36414,0.10557 0.80922,-0.52993 0.58259,-0.83174 0.71986,-1.75925 0.49007,-3.31126 -0.245,-1.65442 -0.19072,-1.95056 0.23241,-1.27314 0.49805,0.79715 0.69708,0.72275 2.05289,-0.76739 0.82575,-0.90757 1.50813,-1.3788 1.51635,-1.0472 0.007,0.33163 -0.31322,0.93117 -0.71436,1.33232 -0.85499,0.85501 -2.45816,4.51215 -2.12429,4.84599 0.39453,0.39455 2.54157,0.34665 3.87685,-0.0864 1.00099,-0.32473 1.14964,-0.27865 0.68396,0.21203 -0.32725,0.34479 -1.6594,0.7469 -2.96036,0.89352 -2.62284,0.29564 -3.52194,1.29229 -3.25474,3.60785 0.10609,0.91904 0.41636,1.3225 0.92683,1.20515 0.42207,-0.0971 1.17114,-0.25664 1.6646,-0.35469 0.49344,-0.098 1.12655,-0.32001 1.40685,-0.49326 0.2803,-0.17324 0.50968,-0.0777 0.50968,0.21216 0,0.28994 -0.7445,0.72008 -1.65444,0.95586 -1.45908,0.37808 -1.67207,0.6587 -1.8039,2.3766 -0.12928,1.68476 0.0982,2.16439 1.68442,3.55073 1.00867,0.88157 3.65174,3.25308 5.87351,5.27006 4.99418,4.5338 7.34553,5.54542 6.1963,2.66586 -0.2672,-0.66946 -0.97433,-2.49445 -1.57144,-4.05555 -0.91104,-2.38184 -1.65592,-3.28292 -4.63145,-5.60261 -1.95023,-1.52036 -3.45387,-2.85628 -3.34144,-2.96869 0.11226,-0.11234 1.02273,0.41977 2.02297,1.18267 1.57121,1.19845 1.862,1.27388 2.13796,0.55473 0.32031,-0.83476 0.13816,-2.23066 -0.53998,-4.14063 -0.35819,-1.00866 -0.35187,-1.00908 0.4458,-0.0302 0.4764,0.58467 0.80725,1.95218 0.80454,3.32532 -0.005,1.91906 0.25128,2.55886 1.43971,3.61123 0.79439,0.70344 1.96358,2.66026 2.5982,4.34851 2.09335,5.56866 2.53663,6.29015 4.83689,7.87277 1.73334,1.19258 2.39879,1.41772 2.77919,0.94033 0.83798,-1.05174 0.19885,-3.10869 -1.42699,-4.5925 -0.88333,-0.80616 -1.23718,-1.40688 -0.82871,-1.40688 0.39204,0 1.00751,0.35508 1.36767,0.78906 0.99863,1.2033 1.63754,0.11912 1.22515,-2.07906 -0.20996,-1.11914 -1.14166,-2.81511 -2.20993,-4.02272 -1.48672,-1.6806 -1.5975,-1.93262 -0.56798,-1.29213 2.15947,1.34346 3.58113,4.80617 3.58113,8.72254 0,3.25769 0.0849,3.50207 1.63835,4.71786 0.9011,0.70523 1.7644,1.20472 1.91845,1.11002 0.1542,-0.0947 0.16481,-4.87689 0.0247,-10.62711 l -0.25582,-10.45491 -2.46114,-2.12877 c -1.8415,-1.59279 -2.8969,-2.12875 -4.19189,-2.12875 -1.47177,0 -2.29337,-0.56631 -5.49107,-3.78484 -2.68146,-2.69892 -4.37284,-3.96834 -5.89505,-4.42441 -1.17408,-0.35176 -2.7225,-1.29928 -3.44092,-2.10559 -0.98797,-1.1088 -1.60174,-1.39184 -2.51907,-1.16161 -0.66706,0.16745 -1.36664,0.0555 -1.55464,-0.24864 -0.22329,-0.36121 0.36968,-0.55303 1.70933,-0.55303 1.39553,0 2.2331,0.28616 2.62042,0.89527 0.46643,0.7335 0.51338,0.61795 0.25987,-0.63948 -0.36154,-1.79336 -2.5939,-3.83074 -4.20136,-3.83437 -0.61648,-0.002 -1.25472,-0.21912 -1.41832,-0.48384 -0.17666,-0.28547 0.43568,-0.36231 1.50458,-0.18891 1.52727,0.24784 1.80148,0.14578 1.79852,-0.66979 -0.005,-1.30492 -2.83922,-3.13858 -5.50741,-3.56284 -1.20208,-0.19126 -2.30302,-0.53752 -2.44654,-0.7697 -0.28585,-0.46255 2.05447,-0.25303 3.48104,0.31165 1.34912,0.53401 1.17693,-2.01077 -0.22427,-3.31627 -0.61579,-0.57371 -0.88168,-1.04312 -0.59087,-1.04312 0.82459,0 2.40652,1.97264 2.48993,3.10493 0.0414,0.56153 0.83449,1.80434 1.7625,2.76182 0.92804,0.95747 1.71415,2.25467 1.74696,2.88267 0.0994,1.9023 1.12473,1.6341 1.82127,-0.47635 0.49038,-1.48588 0.51217,-2.25424 0.0863,-3.04971 -0.31302,-0.58486 -0.56911,-1.54965 -0.56911,-2.14399 0,-0.66632 -0.5889,-1.41471 -1.53609,-1.95208 -0.84484,-0.47932 -1.67161,-1.29172 -1.83726,-1.80533 -0.47118,-1.46087 0.21687,-1.66366 0.76378,-0.22511 0.27897,0.73373 1.05335,1.42683 1.80489,1.61545 0.72393,0.18176 1.31625,0.55619 1.31625,0.83221 0,0.27601 0.20996,0.50185 0.46665,0.50185 0.25664,0 0.62346,-0.92844 0.81517,-2.06319 0.25728,-1.52287 0.12434,-2.40533 -0.50748,-3.36971 -0.47085,-0.71859 -0.73499,-1.42763 -0.58698,-1.57564 0.49902,-0.499 2.36216,3.15967 2.07298,4.07073 -0.25647,0.80807 -0.13545,0.83852 1.15667,0.29098 2.9163,-1.23584 3.03803,-1.71105 0.91615,-3.57721 -1.0666,-0.93806 -2.59301,-1.98225 -3.39201,-2.32037 -0.9484,-0.40137 -1.45272,-0.99286 -1.45272,-1.70381 0,-0.79114 -0.54659,-1.30375 -1.99822,-1.87395 -1.78002,-0.69922 -2.01892,-1.00198 -2.18778,-2.7726 -0.10411,-1.09319 -0.0353,-1.98764 0.15297,-1.98764 0.54898,0 0.91504,1.35386 0.64515,2.38601 -0.18454,0.70599 0.17197,1.10865 1.38894,1.56797 2.05176,0.77445 2.68566,0.40351 2.26256,-1.32397 -0.31721,-1.29516 -0.29288,-1.31366 0.58803,-0.4475 0.76879,0.75588 0.81475,1.07042 0.28126,1.92465 -0.79209,1.26833 -0.27608,3.56666 0.80076,3.56666 0.43973,0 1.25115,0.40286 1.80309,0.89528 0.96801,0.86355 0.99209,0.8545 0.67976,-0.25581 -0.17813,-0.63309 -0.46719,-1.66905 -0.64246,-2.30214 -0.17542,-0.63308 -1.12798,-2.47341 -2.11713,-4.0896 -1.65903,-2.71068 -1.77309,-3.15456 -1.47103,-5.72465 0.19688,-1.6748 0.12287,-2.91243 -0.18504,-3.10283 -0.28185,-0.17421 -0.51246,-0.56153 -0.51246,-0.86074 0,-0.33008 0.31891,-0.27937 0.81092,0.12896 0.63291,0.52527 0.75294,1.32327 0.54676,3.6353 -0.30115,3.37726 0.34807,4.27886 1.79472,2.49235 0.69329,-0.85618 0.94033,-0.95238 0.94033,-0.3662 0,0.43728 -0.49608,1.1425 -1.1024,1.56719 l -1.1024,0.77215 1.32358,1.73529 c 0.72798,0.95441 1.7023,3.20993 2.1652,5.01224 0.4629,1.80231 1.0233,3.46492 1.24533,3.69469 0.22205,0.22977 1.81569,0.70875 3.54148,1.06439 l 3.1378,0.6466 v -3.00824 c 0,-1.65453 0.33759,-3.66108 0.7502,-4.459 1.00818,-1.94959 0.49211,-6.66749 -0.83221,-7.60812 -0.51765,-0.36767 -0.94119,-0.91881 -0.94119,-1.22476 0,-0.30593 -0.86328,-1.33965 -1.91846,-2.29713 l -1.91845,-1.74088 2.1236,1.33742 c 1.16798,0.73561 2.23993,1.78236 2.38214,2.32615 0.29663,1.13429 2.9123,1.42498 2.9123,0.32366 0,-0.92799 -1.06335,-1.89288 -2.08603,-1.89288 -0.47203,0 -1.17419,-0.38301 -1.56036,-0.85113 -0.63903,-0.77468 -0.59477,-0.79394 0.49277,-0.21435 0.65719,0.35025 1.32946,0.50222 1.49392,0.33775 0.16457,-0.16453 0.85539,0.0656 1.53535,0.51102 1.83294,1.20098 2.05222,0.42721 0.37501,-1.32338 -0.80588,-0.8412 -1.23506,-1.52943 -0.95367,-1.52943 0.57691,0 3.26094,2.66831 3.26094,3.24185 0,0.20465 0.34977,1.20921 0.77724,2.23229 l 0.77722,1.86019 1.26913,-1.72021 c 1.65651,-2.24528 1.60936,-2.69311 -0.52144,-4.95215 -0.98481,-1.04406 -1.79055,-2.1676 -1.79055,-2.49672 0,-0.32913 -0.51799,-0.98474 -1.15108,-1.45695 -0.81221,-0.60581 -0.88753,-0.7795 -0.2558,-0.59005 0.70584,0.21169 0.89528,-0.0397 0.89528,-1.18756 0,-0.80084 -0.34532,-1.74266 -0.76738,-2.09294 -0.42204,-0.35028 -0.76738,-0.89005 -0.76738,-1.1995 0,-0.30945 0.48604,-0.0766 1.08007,0.51743 0.68211,0.68211 1.14052,1.89049 1.24412,3.27962 0.16876,2.26377 1.10385,4.5647 1.85497,4.5647 0.56837,0 0.53724,-1.17331 -0.0738,-2.78045 -0.32417,-0.85264 -0.32417,-1.31227 0,-1.31227 0.27443,0 0.49892,0.2584 0.49892,0.57423 0,0.39674 0.2371,0.37737 0.7674,-0.0626 0.90882,-0.75427 0.91013,-0.74674 0.26106,1.51639 -0.43798,1.52717 -0.007,4.30416 0.86944,5.59997 0.2823,0.41746 2.19473,-2.17732 2.19194,-2.97403 -0.007,-1.95954 -1.13299,-4.59345 -2.34372,-5.48158 -1.33967,-0.98267 -3.11742,-3.77925 -2.39872,-3.77339 0.21835,0.002 0.78899,0.69242 1.26832,1.53476 0.82592,1.45152 1.94223,2.06724 1.94223,1.07132 0,-0.25313 -0.92086,-1.68577 -2.04635,-3.18366 -1.12549,-1.4979 -2.03903,-2.95986 -2.03007,-3.2488 0.01,-0.28895 0.29668,-0.16632 0.63948,0.27249 0.34277,0.43882 1.23646,1.57307 1.98598,2.52055 l 1.36279,1.72269 0.60002,-2.22837 c 0.33001,-1.22561 0.47664,-3.28071 0.32582,-4.5669 -0.19417,-1.6565 -0.14754,-1.96552 0.16037,-1.05955 0.23907,0.70343 0.45762,2.02716 0.48567,2.94163 0.04,1.30378 0.27154,1.66266 1.07272,1.66266 0.65499,0 1.29578,-0.59674 1.78529,-1.66266 0.5441,-1.18478 0.67417,-1.29506 0.45252,-0.38369 -0.4157,1.70949 -1.66841,3.06953 -2.82723,3.06953 -0.51915,0 -0.94388,0.24381 -0.94388,0.54178 0,0.29798 0.23019,0.3995 0.51158,0.2256 0.28136,-0.17391 0.5116,0.0427 0.5116,0.4814 0,0.43866 -0.34534,0.79757 -0.7674,0.79757 -0.94344,0 -0.98398,1.63624 -0.10313,4.16438 l 0.64882,1.86222 0.92072,-2.22606 c 0.50637,-1.22433 0.78605,-2.44395 0.62144,-2.71026 -0.16457,-0.26631 -0.0831,-1.02344 0.18109,-1.68252 0.46189,-1.15277 0.48138,-1.14033 0.51259,0.32731 l 0.0326,1.52562 1.29743,-1.90931 c 1.4125,-2.0787 2.01361,-2.45296 1.53924,-0.95837 -0.17764,0.5597 0.0345,1.23024 0.51612,1.62977 1.03657,0.86029 1.73627,-0.0583 1.77081,-2.32493 0.0197,-1.30263 0.10313,-1.39779 0.55064,-0.62916 0.59844,1.02792 0.1426,2.93132 -0.88534,3.69673 -0.37931,0.28245 -0.8329,1.57325 -1.00795,2.86843 -0.28541,2.11151 -0.20503,2.38449 0.7765,2.64119 0.88252,0.23078 1.29077,-0.0978 2.10559,-1.69502 0.55594,-1.08972 1.01585,-2.9689 1.02202,-4.17595 0.0123,-2.24805 1.45543,-6.12447 2.52827,-6.78752 0.32982,-0.20384 0.007,0.79607 -0.71413,2.22202 -1.40584,2.77429 -1.80328,6.72807 -0.67431,6.708 1.02919,-0.0175 2.76505,-1.64763 3.66694,-3.44185 1.01666,-2.02256 1.53149,-2.21016 0.70199,-0.25579 -0.71228,1.67816 -2.93255,4.21742 -3.69723,4.22844 -1.41485,0.0202 -2.02309,1.05493 -2.07939,3.5367 -0.0326,1.427 0.0696,2.59367 0.22673,2.5926 0.15692,-0.001 0.71586,-1.04803 1.24172,-2.32662 0.52584,-1.27859 1.07519,-2.20557 1.22076,-2.06 0.14556,0.14559 -0.24302,1.44517 -0.8638,2.88799 -0.6207,1.44281 -0.99996,2.95826 -0.84285,3.36769 0.15716,0.40943 -0.10707,1.34373 -0.58697,2.07622 -1.24607,1.90176 -0.14162,1.27548 2.03007,-1.15134 1.01797,-1.13743 2.01887,-2.74894 2.22424,-3.58111 0.40427,-1.63816 3.79207,-7.00587 3.79207,-6.00828 0,0.33387 -0.65835,1.59697 -1.46303,2.80692 -0.80463,1.20994 -1.61607,2.83816 -1.80316,3.61828 l -0.34018,1.41836 2.95427,-1.62119 c 1.62485,-0.89167 3.52978,-1.96846 4.23324,-2.39285 l 1.27895,-0.77165 -0.96273,1.08931 c -0.52952,0.59912 -1.45038,1.23494 -2.04636,1.41294 -0.59598,0.17808 -2.23467,1.02073 -3.64155,1.87275 -3.17495,1.9228 -9.62458,8.6695 -8.78425,9.18885 0.32466,0.20064 0.81092,0.14423 1.08059,-0.12548 0.26964,-0.26965 1.03151,-0.49027 1.69304,-0.49027 0.89101,0 1.39667,-0.4641 1.9509,-1.79058 0.45108,-1.07956 1.1009,-1.78744 1.63655,-1.78272 0.52727,0.004 0.66945,0.16068 0.34983,0.38369 -0.29624,0.20673 -1.06816,1.24715 -1.71538,2.31206 -0.8559,1.40829 -1.42484,1.85747 -2.08664,1.64743 -0.55784,-0.17712 -1.02937,0.0227 -1.21871,0.5159 -0.2218,0.57786 -0.56326,0.6769 -1.21164,0.35134 -1.22788,-0.61651 -2.6202,-0.13515 -4.88209,1.6882 -1.75303,1.41304 -1.90402,1.74395 -1.90402,4.1727 -3e-5,2.38841 0.097,2.61257 1.02589,2.36966 0.56425,-0.14754 1.37784,0.0237 1.80799,0.38081 1.191,0.98846 2.78366,-0.13863 4.58413,-3.24415 0.94437,-1.62891 2.12513,-2.9051 3.06953,-3.3176 2.874,-1.25539 3.06842,-1.4669 3.14767,-3.4242 0.0535,-1.3256 0.49437,-2.34658 1.40685,-3.25906 0.73081,-0.73081 1.32874,-1.08189 1.32874,-0.78018 0,0.30172 -0.46043,0.96526 -1.02318,1.47454 -0.56274,0.50928 -1.02318,1.46649 -1.02318,2.12711 0,1.11073 0.13545,1.05126 1.79872,-0.7898 1.10909,-1.22764 2.384,-2.07686 3.32533,-2.21501 2.06632,-0.30328 1.91959,-0.0387 -0.51974,0.93739 -1.97293,0.78939 -2.72905,1.72342 -1.40687,1.73784 0.3517,0.004 1.13013,0.13864 1.72983,0.29959 0.73794,0.19804 1.47167,-0.0936 2.27018,-0.90226 l 1.17982,-1.19486 -0.80108,1.27897 c -0.67209,1.07301 -1.19337,1.27897 -3.23708,1.27897 -1.82768,0 -2.57784,0.23705 -3.00388,0.94925 -0.3123,0.52208 -1.20094,1.76236 -1.9747,2.75618 -2.30142,2.95585 -1.80412,3.49325 1.2881,1.39201 1.05012,-0.71359 1.9093,-1.08949 1.9093,-0.83536 0,0.7177 -3.9515,3.15886 -4.97211,3.07167 -2.30245,-0.19671 -3.35825,0.2261 -5.32074,2.13063 -2.11514,2.05267 -3.18655,2.48817 -3.77582,1.53477 -0.49208,-0.79622 -2.29969,-0.60163 -2.63959,0.28416 -0.16802,0.43764 -0.0567,2.45202 0.24741,4.47638 0.30403,2.02437 0.70671,5.39416 0.89483,7.48844 l 0.34208,3.80776 2.24805,-2.52881 c 4.7366,-5.3281 4.88248,-5.43648 6.83683,-5.07892 0.98484,0.1802 2.36611,0.38501 3.06953,0.45522 1.46447,0.14618 3.79516,1.28402 3.41297,1.66622 -0.14088,0.14076 -0.7208,0.008 -1.28914,-0.29724 -0.56837,-0.30417 -1.74227,-0.55304 -2.60871,-0.55304 -0.86643,0 -2.01396,-0.27391 -2.55003,-0.6087 -0.7691,-0.48032 -1.15325,-0.46052 -1.82125,0.0938 -0.77317,0.64167 -0.73545,0.76081 0.4349,1.37402 0.70481,0.36929 1.42459,1.1223 1.59949,1.67335 0.17493,0.55106 1.11158,1.28889 2.08149,1.63962 2.33213,0.8433 2.27792,1.51742 -0.0641,0.7986 -1.11898,-0.34342 -2.10396,-1.09513 -2.54009,-1.93851 -0.79704,-1.54132 -3.39123,-2.52089 -3.75845,-1.4192 -0.12238,0.36691 -1.32667,1.83472 -2.67636,3.26182 -1.87969,1.98751 -2.53858,3.12402 -2.81565,4.85665 -0.19886,1.24405 -1.01474,3.70221 -1.81293,5.46256 -1.11841,2.46661 -1.45124,3.96584 -1.45124,6.53718 0,1.83513 0.14705,3.33657 0.32649,3.33657 0.17961,0 1.32548,-0.92085 2.5465,-2.04637 1.22102,-1.12548 2.54318,-2.04634 2.93813,-2.04634 0.94859,0 3.39747,-3.24416 3.39747,-4.50083 0,-0.54341 0.68697,-1.76739 1.52661,-2.71998 0.83959,-0.95259 1.53026,-1.48762 1.53475,-1.18896 0.005,0.29865 -0.45226,1.03722 -1.01501,1.64126 -0.56274,0.60404 -1.02317,1.47521 -1.02317,1.93596 0,0.46073 -0.47435,1.50387 -1.05414,2.31809 l -1.05414,1.48042 3.19565,-0.18098 c 2.716,-0.1539 3.35415,-0.38101 4.25157,-1.51355 1.44936,-1.82911 4.01714,-9.3021 3.62297,-10.54396 -0.18109,-0.57017 0.0407,-1.5541 0.51175,-2.27327 0.64792,-0.98885 0.70624,-1.5008 0.26488,-2.32546 -0.33862,-0.63274 -0.36709,-1.05749 -0.0708,-1.05749 0.91647,0 1.15298,2.04154 0.40924,3.53241 -0.4648,0.93171 -0.56815,1.73466 -0.27936,2.17058 0.83478,1.26004 2.9866,-2.01636 2.98956,-4.55192 0.002,-1.26799 0.24253,-2.17425 0.57807,-2.17425 0.36665,0 0.46413,0.55706 0.26861,1.53477 -0.16876,0.84411 -0.22032,1.53476 -0.11448,1.53476 0.38947,0 2.18353,-3.40011 2.53683,-4.80776 0.20034,-0.79862 0.49754,-1.31894 0.66021,-1.15627 0.16259,0.16261 0.92697,-0.0307 1.69845,-0.42962 1.90767,-0.98648 4.60665,-5.30436 4.60665,-7.36975 0,-0.90833 0.27284,-2.15436 0.60629,-2.76896 0.3335,-0.61458 0.76745,-1.9232 0.96436,-2.908 l 0.35804,-1.79056 0.0407,1.79056 c 0.0222,0.9848 -0.28832,2.3661 -0.6904,3.06953 -1.24646,2.18044 -0.89549,2.7567 0.8066,1.32445 1.62262,-1.36533 2.86234,-1.55336 5.07664,-0.76998 0.97662,0.34551 0.76089,0.39185 -0.91248,0.19599 -2.82784,-0.33095 -3.77917,0.22183 -5.51154,3.20266 -0.78048,1.34295 -1.72088,2.91101 -2.08973,3.48456 -0.63417,0.9861 -0.55569,1.04744 1.44194,1.1271 1.16192,0.0464 2.32376,0.29541 2.58186,0.55348 0.28456,0.2846 -0.44151,0.40106 -1.84519,0.29597 -3.23132,-0.24191 -5.59763,0.89862 -7.44988,3.59076 -0.85943,1.24916 -1.56263,2.36032 -1.56263,2.46922 0,0.10885 0.92597,0.0675 2.0577,-0.0922 1.54566,-0.21798 2.30861,-0.67209 3.06615,-1.82495 0.55466,-0.84412 1.00487,-1.18945 1.00048,-0.76738 -0.0173,1.60531 -1.8025,3.15016 -3.8562,3.33602 -1.64941,0.14926 -2.40926,0.62605 -4.21323,2.64364 -2.73434,3.05814 -3.90007,4.7165 -3.55678,5.0598 0.14532,0.1454 0.57937,-0.0499 0.96458,-0.43371 1.0928,-1.08893 3.52076,-2.58425 3.77814,-2.32687 0.12755,0.1276 -0.79321,0.95477 -2.04633,1.83806 -1.27935,0.90178 -2.59904,2.37332 -3.0096,3.35589 -0.40214,0.96245 -0.98487,1.90671 -1.29494,2.09834 -0.31008,0.19163 -0.56379,0.93086 -0.56379,1.6427 v 1.29427 l 1.57403,-1.32445 c 0.86567,-0.72845 1.76672,-1.32445 2.00229,-1.32445 0.23562,0 1.24829,-1.46626 2.25049,-3.25837 1.65165,-2.95344 4.09947,-5.40306 4.74953,-4.75302 0.14088,0.14075 -0.32942,0.63923 -1.04464,1.10787 -1.17578,0.77041 -3.90424,4.73769 -3.90424,5.67692 0,0.20996 0.51797,-0.0764 1.15108,-0.63614 1.71338,-1.51516 3.79336,-2.72646 6.04721,-3.52165 2.89845,-1.02265 2.47204,-0.4344 -0.70296,0.96975 -1.49229,0.65997 -3.50667,1.88132 -4.47641,2.71415 -0.96971,0.83282 -2.83159,2.00597 -4.13754,2.607 -2.71331,1.24875 -4.53204,3.27777 -4.53204,5.05614 v 1.22037 l 2.02598,-1.03356 c 1.11429,-0.56847 2.28979,-1.03359 2.61223,-1.03359 0.32241,0 1.02441,-0.55708 1.55999,-1.23794 1.67494,-2.12936 5.39902,-3.8754 8.31862,-3.90021 1.44176,-0.0116 3.57425,-0.2069 4.73887,-0.43252 1.42375,-0.27584 2.59701,-0.19834 3.58113,0.23651 1.5707,0.69407 1.10289,0.91707 -0.55962,0.26675 -0.55006,-0.21514 -2.50019,-0.0767 -4.33362,0.30758 -1.83346,0.38433 -3.91579,0.57256 -4.6274,0.4183 -1.56506,-0.33928 -6.13827,2.4488 -6.91473,4.21559 -0.32108,0.73062 -0.95118,1.14912 -1.73016,1.14912 -0.67384,0 -1.97598,0.46401 -2.89361,1.03115 -1.7406,1.07576 -5.35878,4.91496 -5.35878,5.68612 0,0.24473 -0.23488,0.44497 -0.52174,0.44497 -0.28699,0 -1.45709,0.59043 -2.60022,1.31208 -1.29933,0.82022 -3.03504,1.38329 -4.63021,1.50204 -2.8049,0.20883 -4.01438,0.91208 -4.01438,2.3342 0,0.5117 -0.19417,1.0503 -0.43124,1.19689 -0.45116,0.27883 0.51621,7.55522 1.3809,10.38697 0.54737,1.79257 2.17793,4.75644 2.61388,4.75128 0.1505,-10e-4 0.67673,-0.63487 1.16973,-1.40686 4.73248,-7.41076 8.30818,-9.51891 11.10175,-6.5453 0.93518,0.99543 1.50594,1.19107 2.77502,0.95119 2.07029,-0.39133 2.73888,-0.95185 3.93725,-3.30084 1.08227,-2.12142 1.27219,-4.23308 0.46699,-5.19209 -1.17515,-1.39963 -3.09733,-4.59034 -2.89013,-4.79752 0.21637,-0.21647 1.50253,1.29941 2.73934,3.22893 0.51695,0.80644 0.61399,0.55004 0.6395,-1.68966 0.0264,-2.31126 0.22945,-2.80807 1.6291,-3.98584 0.87944,-0.74002 1.72034,-1.22412 1.86864,-1.07582 0.14828,0.14831 -0.34102,0.75001 -1.0874,1.33714 -1.27069,0.99951 -2.05087,4.04031 -0.84549,3.29535 0.28137,-0.17384 0.5116,-0.0723 0.5116,0.2256 0,0.29798 -0.34533,0.54178 -0.7674,0.54178 -0.74825,0 -1.10531,2.04946 -0.4681,2.68669 0.32468,0.32469 2.96149,-0.39321 4.48275,-1.22046 0.51979,-0.28267 1.04333,-0.4157 1.16341,-0.29561 0.43585,0.43582 -1.20989,1.37604 -3.09373,1.76743 -1.65565,0.344 -2.02859,0.68898 -2.63807,2.44031 -0.86784,2.49377 -0.86599,2.29547 -0.0222,2.29547 1.46683,0 6.42708,-2.56651 6.98884,-3.61611 0.32256,-0.60277 0.45412,-1.81989 0.29234,-2.70473 -0.16185,-0.88483 -0.0982,-1.91824 0.14088,-2.29647 0.63797,-1.00804 0.67024,4.40653 0.0333,5.59656 -0.43004,0.80355 -0.34628,0.97438 0.47786,0.97438 1.45657,0 2.61799,-0.53527 2.61631,-1.20581 -0.002,-0.915 2.67014,-6.97959 3.07567,-6.97959 0.1996,0 -0.17319,1.09352 -0.82814,2.43004 -1.6308,3.3277 -1.59125,4.1478 0.18381,3.81486 0.77377,-0.14523 1.9824,-0.62721 2.68582,-1.07131 1.19907,-0.75699 1.23531,-0.75227 0.5799,0.0754 -0.38449,0.48552 -1.65069,1.13607 -2.81373,1.44563 -1.16307,0.30956 -2.52097,0.92554 -3.01757,1.36885 -0.4966,0.44328 -2.02292,0.87298 -3.3918,0.95486 -3.08739,0.18465 -8.13821,2.33455 -9.56384,4.07082 -0.58791,0.71597 -1.39365,1.36717 -1.79058,1.44709 -0.39692,0.0799 -1.11295,0.31538 -1.59117,0.52322 -0.59534,0.25875 -1.50478,-0.13264 -2.88437,-1.24131 l -2.0149,-1.6192 -2.0405,1.04099 c -3.17481,1.61967 -3.12692,2.45367 0.18035,3.14026 2.53104,0.52544 4.81516,2.02285 4.81516,3.15667 0,0.22832 0.51799,0.41864 1.15107,0.42295 0.63309,0.004 1.49407,0.22469 1.91328,0.48973 0.5543,0.35044 1.15211,0.10829 2.19154,-0.88749 1.18789,-1.13809 1.58928,-1.26949 2.37627,-0.778 0.52083,0.32527 1.46989,0.45462 2.10907,0.28748 0.85474,-0.22353 1.05631,-0.13264 0.76207,0.34339 -0.26695,0.43193 -1.03487,0.54576 -2.3081,0.34218 -1.51032,-0.24152 -2.10129,-0.0917 -2.83519,0.71936 -1.28056,1.415 -4.12675,0.9034 -5.98757,-1.07628 -0.81709,-0.86925 -2.30065,-1.69297 -3.58113,-1.98838 -3.54302,-0.81736 -3.0307,-1.04101 -6.53466,2.85264 -1.71858,1.9097 -1.79094,2.14906 -1.80002,5.9545 -0.005,2.18063 0.0555,3.96481 0.13471,3.96481 0.0794,0 0.54407,-0.20315 1.03265,-0.45141 0.48858,-0.24829 1.57845,-0.65652 2.42191,-0.90718 0.88926,-0.26431 1.81448,-1.04185 2.20218,-1.85073 0.36771,-0.76725 0.91442,-1.39498 1.21488,-1.39498 0.37534,0 0.36776,0.21518 -0.0247,0.6875 -0.45286,0.54564 -0.16012,0.81048 1.41857,1.28346 1.09404,0.32778 2.35858,0.45422 2.81008,0.28095 0.48288,-0.18523 0.82094,-0.0524 0.82094,0.32256 0,0.46001 -0.6772,0.55738 -2.43146,0.3496 -1.78759,-0.21171 -2.97299,-0.0319 -4.47641,0.67878 -1.12472,0.53169 -2.43138,0.97453 -2.90366,0.98409 -1.73684,0.0352 -2.46661,1.48329 -2.46661,4.89473 v 3.26954 l 3.33273,-0.31121 c 3.29779,-0.30796 10.5868,0.90474 11.73355,1.95214 0.91107,0.83215 2.75933,0.47861 3.09941,-0.59288 0.1811,-0.57025 0.88716,-1.40248 1.56925,-1.8494 0.68211,-0.44692 1.24016,-1.23295 1.24016,-1.74674 0,-0.51378 0.25489,-1.09167 0.5664,-1.28419 1.02811,-0.63543 -0.0965,2.00203 -1.48696,3.48708 l -1.31719,1.40688 h 1.20619 c 0.79074,0 2.1013,-0.93805 3.80473,-2.72329 1.42918,-1.49779 3.00139,-2.87186 3.49379,-3.05348 1.45109,-0.53517 1.02407,0.36421 -0.63947,1.34688 -1.73808,1.0267 -1.94907,1.69576 -0.6395,2.02773 0.4924,0.12471 0.19935,0.16377 -0.65132,0.0866 -1.20622,-0.10944 -1.67415,0.12993 -2.12612,1.08761 -0.56798,1.20358 -0.53207,1.22799 1.80723,1.22799 1.83269,0 2.53508,0.23749 3.02574,1.02316 0.35145,0.56276 0.43146,1.02318 0.17764,1.02318 -0.25366,0 -0.59371,-0.34531 -0.75566,-0.76737 -0.22921,-0.59749 -1.24189,-0.76739 -4.57376,-0.76739 -2.35362,0 -4.43602,0.15662 -4.62753,0.34821 -0.1917,0.19161 0.28808,1.02713 1.06579,1.85688 1.25112,1.33482 1.28142,1.43998 0.26298,0.91274 -0.63309,-0.32774 -1.15108,-0.79657 -1.15108,-1.04186 0,-0.68907 -8.46154,-2.98637 -11.76654,-3.19459 -0.70343,-0.0443 -2.57786,0.0876 -4.16539,0.29312 l -2.88639,0.37374 -0.0575,2.40013 c -0.26927,11.24502 -0.66067,20.27767 -1.10852,25.58306 -0.57762,6.84286 -0.28111,10.75799 0.88489,11.68385 0.41277,0.32778 0.52986,0.7224 0.2632,0.8872 -0.26414,0.16321 -0.0123,1.14185 0.0585,2.34212 0.0703,1.2003 -0.51246,2.05557 -0.63476,1.28093 -0.18455,-1.16961 -0.28923,-1.72924 -1.24964,-1.48818 -1.39745,0.35072 -2.87625,-1.00253 -1.6216,-1.48399 0.42024,-0.16126 0.90011,-0.0731 1.06643,0.19604 0.68156,1.10279 1.10543,0.36918 0.82577,-1.42921 -0.16407,-1.05514 -0.30502,-3.58751 -0.31316,-5.62746 -0.01,-2.43236 -0.21613,-3.70902 -0.59958,-3.70902 -1.04437,0 -1.18989,-1.48791 -0.21243,-2.1725 1.24409,-0.8714 2.08089,-6.5245 0.96579,-6.5245 -0.39421,0 -0.71672,-0.46042 -0.71672,-1.02318 0,-0.56275 0.29599,-1.02317 0.65775,-1.02317 0.45708,0 0.65776,-0.86772 0.65776,-2.84394 0,-1.81465 -0.18997,-2.72645 -0.52514,-2.51935 -0.28884,0.17847 -0.46152,0.63741 -0.3837,1.01981 0.0777,0.38238 -0.0888,0.71036 -0.37014,0.7288 -0.74248,0.0488 -0.64919,-1.12815 0.15544,-1.96117 0.66385,-0.68722 0.64614,-1.11744 -0.13915,-3.37694 -0.33897,-0.97529 -0.31992,-0.9797 0.40642,-0.0946 0.69556,0.84758 0.77897,0.64674 0.95644,-2.30215 0.15494,-2.57516 0.0123,-3.41319 -0.70281,-4.12971 -1.01012,-1.01208 -0.76182,-2.25468 0.51829,-2.59372 0.76311,-0.20209 0.76523,-0.23174 0.0197,-0.2849 -1.04958,-0.0748 -1.15989,-2.61729 -0.11349,-2.61729 0.9252,0 0.66106,-3.14945 -0.36819,-4.38957 -0.65492,-0.78915 -0.61399,-0.83859 0.4218,-0.50985 1.03682,0.3291 1.14705,0.19472 1.14705,-1.39833 0,-1.83793 -1.16102,-3.41786 -1.77802,-2.41952 -0.1838,0.29755 -0.19491,0.98 -0.0247,1.51655 0.17024,0.53656 0.0928,1.10949 -0.17196,1.27319 -0.68788,0.42513 -0.2633,3.95603 0.53669,4.46338 0.50447,0.31991 0.44881,0.42724 -0.22452,0.43313 -0.4924,0.004 -0.91163,0.0654 -0.93164,0.13575 -0.42653,1.50042 -0.73752,9.57283 -0.39416,10.23177 0.34178,0.65592 0.26777,0.89528 -0.2769,0.89528 -0.56318,0 -0.78457,0.8684 -0.91328,3.58239 -0.0982,2.0708 0.0461,3.67336 0.34173,3.79796 0.29483,0.12412 0.21761,0.42175 -0.18257,0.70215 -0.50775,0.35595 -0.53541,0.58469 -0.10313,0.85189 0.43924,0.27145 0.42071,0.57054 -0.072,1.16435 -0.44311,0.53391 -0.70905,2.85305 -0.80143,6.9888 -0.076,3.40435 -0.31891,7.51346 -0.5397,9.13135 -0.3029,2.21945 -0.24524,2.94164 0.23488,2.94164 0.34995,0 0.80093,0.26649 1.00226,0.59217 0.25074,0.40574 0.0197,0.50136 -0.73721,0.30369 -0.89609,-0.23431 -1.10324,-0.0654 -1.10324,0.89996 0,0.65364 0.28778,1.30521 0.63951,1.44792 0.48818,0.1981 0.49603,0.36177 0.0331,0.69185 -0.33352,0.23782 -0.53961,1.27424 -0.45797,2.30318 -2.93506,-0.28695 0,0 -0.48633,-9.01117 z m 6.45763,-48.00286 c 0.21341,-0.798 0.16974,-1.40686 -0.10091,-1.40686 -0.26242,0 -0.33182,-0.57883 -0.1542,-1.28628 0.40146,-1.59962 -2.07051,-6.74158 -3.45175,-7.17998 -1.0822,-0.34345 -1.22458,-1.28062 -0.33039,-2.17479 0.47746,-0.47748 0.42429,-0.61391 -0.23932,-0.61391 -0.65605,0 -0.75992,-0.25216 -0.44955,-1.09122 0.64878,-1.75382 -0.35044,-6.83934 -1.18068,-6.00909 -0.34637,0.3464 -0.35244,3.40736 -0.0123,6.57663 0.28656,2.67558 1.88497,7.17434 2.54907,7.17434 0.17295,0 0.17246,-0.23024 -0.002,-0.5116 -0.52231,-0.84506 0.18948,-0.57794 1.22847,0.4611 1.08765,1.08767 2.03177,3.45637 1.16383,2.91995 -0.79767,-0.49299 -1.28674,0.6537 -0.62094,1.45591 0.43428,0.52328 0.42882,0.79315 -0.0222,1.07156 -0.42214,0.2609 -0.32168,0.5291 0.33615,0.89723 0.90049,0.50393 0.89797,0.54214 -0.0622,0.94803 -0.96961,0.4099 -0.97005,0.41914 -0.0123,0.29939 0.58954,-0.0739 1.13776,-0.68958 1.36262,-1.53041 z m -1.58163,-4.42167 c 0,-0.25127 -0.34534,-0.58935 -0.76738,-0.75133 -0.77981,-0.29924 -1.04775,0.24571 -0.42633,0.86713 0.48892,0.48892 1.19371,0.42055 1.19371,-0.11582 z m -3.06953,-20.06931 c 0,-1.6538 -0.1811,-3.00688 -0.40273,-3.00688 -0.22155,0 -0.43741,-0.46045 -0.4798,-1.02319 -0.0424,-0.56274 0.13891,-1.02318 0.40273,-1.02318 0.26389,0 0.4798,-0.35891 0.4798,-0.79757 0,-0.5019 -0.2371,-0.65516 -0.6395,-0.41338 -0.43451,0.26105 -0.41445,0.10673 0.0627,-0.4814 0.38619,-0.47609 0.48362,-0.86558 0.21662,-0.86558 -0.2671,0 -0.38427,-0.69065 -0.26039,-1.53477 0.1352,-0.92128 -0.002,-1.53476 -0.34438,-1.53476 -0.31333,0 -0.57372,0.0576 -0.57863,0.1278 -0.005,0.0704 -0.1468,1.64792 -0.31497,3.50571 -0.24079,2.65766 -0.13989,3.5302 0.47277,4.09269 0.69689,0.6398 0.69477,0.809 -0.0197,1.61019 -0.58056,0.65062 -0.62028,0.89528 -0.14532,0.89528 0.52288,0 0.52621,0.15334 0.0173,0.76739 -0.52549,0.63317 -0.47785,0.76737 0.27243,0.76737 0.86705,0 0.86765,0.046 0.0123,0.99095 -1.06073,1.17207 -0.61105,2.47448 0.52796,1.5292 0.47156,-0.39137 0.72183,-1.64161 0.72183,-3.60595 z m 2.34794,-0.27022 c 0.70886,-0.46444 2.02447,-0.8232 2.92364,-0.79721 1.00024,0.0288 2.54587,-0.53693 3.98179,-1.45769 1.29082,-0.82772 2.57367,-1.50495 2.85076,-1.50495 0.86377,0 3.32871,-4.22653 4.02745,-6.90575 0.76204,-2.92196 0.63025,-3.32685 -0.69319,-2.12919 -0.58155,0.5263 -1.81325,0.84954 -3.23733,0.84954 -3.75102,0 -6.74406,1.31975 -9.37719,4.13476 -2.31267,2.47245 -2.36297,2.59722 -2.25491,5.59191 0.0607,1.68466 0.1959,3.06303 0.30036,3.06303 0.10436,0 0.76982,-0.38001 1.47862,-0.84445 z m -2.98959,-12.07316 c 0.0222,-0.35171 0.27388,-1.38458 0.55917,-2.29525 0.37792,-1.20649 0.3554,-1.7493 -0.0831,-2.00047 -0.33098,-0.18967 -0.43724,-0.16241 -0.23611,0.0603 0.20107,0.22279 0.092,0.89278 -0.24253,1.48888 -0.724,1.29013 -0.99236,3.38596 -0.43356,3.38596 0.2176,0 0.41389,-0.28778 0.43615,-0.63949 z m -1.40471,-1.72827 c 0,-1.1422 0.61562,-2.93219 1.60043,-4.65345 1.67914,-2.93484 1.67206,-3.67089 -0.0775,-8.07065 -0.22377,-0.56274 -0.54138,-1.3685 -0.70579,-1.79056 -0.16432,-0.42205 -0.53062,-1.17026 -0.81379,-1.66267 -0.28316,-0.4924 -0.70633,-1.29815 -0.9404,-1.79055 -0.23414,-0.4924 -0.92468,-1.12253 -1.53475,-1.40029 -1.32013,-0.60101 -1.50103,-1.39237 -0.21391,-0.93594 1.41379,0.50138 2.68586,1.77869 2.68586,2.6969 0,0.82257 0.92444,2.06937 1.53435,2.06937 0.16851,0 0.24524,-0.8633 0.17024,-1.91846 l -0.13643,-1.91844 0.44834,1.7515 c 0.25037,0.97799 0.2552,2.25962 0.0123,2.902 -0.31021,0.81587 -0.21687,1.33362 0.3211,1.78004 0.41721,0.34624 0.72356,0.99716 0.68076,1.4465 -0.14631,1.53556 0.0397,2.1564 0.55162,1.84013 0.28178,-0.17421 0.5116,-2.45533 0.5116,-5.07809 v -4.76192 l -2.04638,-1.35421 c -1.12549,-0.74481 -2.04636,-1.5634 -2.04636,-1.81908 0,-0.73013 -10.28338,-5.45535 -12.72041,-5.84506 -1.22048,-0.19515 -2.06841,-0.15198 -1.91431,0.0973 0.15223,0.24618 -0.80929,1.00441 -2.13658,1.68493 -2.3477,1.20372 -2.6637,1.79776 -1.91895,3.60739 0.22526,0.54735 -0.0452,1.25294 -0.7501,1.95801 -0.60624,0.60625 -0.98738,1.40176 -0.84692,1.76777 0.14038,0.36602 -0.002,0.92375 -0.31854,1.23941 -0.42416,0.42418 -0.42162,0.57394 0.01,0.57394 0.32103,0 0.72597,-0.23022 0.89989,-0.51159 0.17369,-0.28139 0.82059,-0.51558 1.43705,-0.52043 0.67653,-0.006 1.57721,-0.66161 2.27195,-1.65546 0.63309,-0.90564 1.15108,-1.35278 1.15108,-0.99362 0,1.19659 -2.21037,3.69776 -3.04019,3.44017 -0.99797,-0.30977 -1.59868,0.11234 -2.76375,1.94169 -0.7558,1.18678 -0.82111,1.72932 -0.36546,3.03631 0.58912,1.68999 1.94934,3.44833 2.66759,3.44833 0.82452,0 0.4271,-1.89245 -0.59087,-2.81374 -0.56277,-0.50928 -1.0232,-1.16356 -1.0232,-1.45396 0,-0.29042 0.7031,0.14559 1.56246,0.96891 0.98715,0.94574 1.47268,1.84033 1.31862,2.42948 -0.16678,0.63806 0.24056,1.2271 1.28981,1.86525 0.84354,0.51298 2.68583,2.22536 4.09401,3.80529 2.53188,2.84073 3.92492,3.47517 4.90321,2.23311 0.61436,-0.78 1.24617,-3.11609 1.46856,-5.42996 0.27702,-2.88244 -1.91088,-5.9401 -3.27463,-4.57638 -0.36448,0.3645 -0.98089,0.35133 -1.98077,-0.0423 l -1.45166,-0.57148 1.37382,0.1808 c 2.31162,0.30438 2.87403,-0.4402 1.46525,-1.93979 -0.67476,-0.71826 -1.08794,-1.30593 -0.91817,-1.30593 0.16974,0 1.46182,1.20863 2.87119,2.68583 l 2.56249,2.68584 -0.21637,-2.30214 -0.21638,-2.30216 0.66844,2.30216 c 0.36764,1.26617 0.50174,2.64747 0.29799,3.06953 -0.20379,0.42206 -0.65312,2.34675 -0.99858,4.27706 l -0.6281,3.50968 2.24102,1.96808 c 2.84319,2.49695 3.51997,2.52684 3.51997,0.15546 z m 3.06953,-3.25972 c 0,-0.28137 -0.24376,-0.51158 -0.54177,-0.51158 -0.29799,0 -0.39952,0.23021 -0.2255,0.51158 0.17393,0.28137 0.41772,0.5116 0.54179,0.5116 0.1241,0 0.22551,-0.23024 0.22551,-0.5116 z m 1.31734,-3.45748 c -0.51964,-0.51963 -1.46051,0.76561 -1.04849,1.43225 0.28206,0.45642 0.5141,0.39 0.87202,-0.24959 0.26821,-0.47929 0.34763,-1.01148 0.17665,-1.18266 z m 0.72902,-2.54124 c 0,-1.6036 -0.245,-1.4181 -0.71594,0.54201 -0.22846,0.95089 -0.16506,1.33658 0.18381,1.12089 0.29266,-0.1808 0.5321,-0.92917 0.5321,-1.6629 z m 0.5116,-4.74463 c 0,-0.28137 -0.23019,-0.51159 -0.5116,-0.51159 -0.28139,0 -0.5116,0.23022 -0.5116,0.51159 0,0.28137 0.23019,0.5116 0.5116,0.5116 0.28136,0 0.5116,-0.23024 0.5116,-0.5116 z m -2.29685,-15.06023 c -0.21736,-8.78595 -0.49663,-9.74115 -3.43029,-11.72786 l -1.8902,-1.28008 -0.59361,1.79866 c -0.35812,1.08515 -0.47906,3.25298 -0.30488,5.46498 0.54491,6.91952 0.73622,7.70008 2.16992,8.85343 0.74825,0.60192 1.2036,1.34818 1.0119,1.65838 -0.36483,0.59026 1.84656,3.13049 2.7252,3.13049 0.32183,0 0.43586,-2.8874 0.31196,-7.898 z m -22.86137,6.19293 c 0.23932,-1.23436 -0.76167,-1.05091 -1.08868,0.1995 -0.17492,0.66946 -0.0572,0.97981 0.32402,0.85289 0.3296,-0.10964 0.67367,-0.58329 0.76466,-1.0524 z m 17.61978,-3.02713 c -0.74113,-0.80016 -1.1716,-2.16481 -1.41216,-4.47639 -0.88767,-8.53108 -1.18194,-9.67991 -2.94274,-11.48945 l -1.5141,-1.55606 0.30421,2.86413 c 0.20774,1.95632 0.053,3.60169 -0.48871,5.19121 -0.4361,1.2799 -0.72178,3.44425 -0.63483,4.8097 l 0.1579,2.48261 3.3253,1.65099 c 3.94596,1.95911 4.63976,2.07238 3.20496,0.52326 z m 17.18829,-7.03433 c 0.49882,0 1.11974,-0.66381 1.45721,-1.55791 0.5565,-1.47434 0.52822,-1.53958 -0.52735,-1.21637 -1.42873,0.43753 -2.31241,1.15372 -2.99336,2.42608 -0.45794,0.85566 -0.40682,0.9626 0.32557,0.68156 0.47782,-0.18329 1.25986,-0.33336 1.73793,-0.33336 z m -9.94752,-3.38006 c 0.52939,-0.20315 0.81346,-0.95505 0.82143,-2.17425 0.007,-1.02504 0.23142,-2.78459 0.49944,-3.91007 0.56926,-2.3908 -0.29918,-7.92962 -1.24325,-7.92962 -0.82684,0 -1.82633,1.0762 -1.82633,1.96655 0,0.4063 -0.7995,1.45379 -1.77666,2.32772 -0.97717,0.87395 -1.91883,2.20542 -2.09252,2.95885 -0.26577,1.1525 -0.075,1.49436 1.20166,2.15459 0.94205,0.48714 1.83101,1.56821 2.34417,2.85075 0.89268,2.23102 0.87403,2.21522 2.07206,1.75548 z m 4.91749,-5.92869 c 0.0123,-1.05596 0.0706,-1.08438 0.54306,-0.27277 0.67604,1.16126 1.48775,0.66693 1.48775,-0.90605 0,-0.67023 0.23019,-1.36086 0.51158,-1.53476 0.28138,-0.17382 0.5116,-0.86453 0.5116,-1.53477 0,-0.67023 -0.23019,-1.36086 -0.5116,-1.53476 -0.28136,-0.17382 -0.51276,-1.0508 -0.51422,-1.94865 l -0.002,-1.63246 -1.20479,1.99031 c -1.01483,1.67657 -1.11809,2.21998 -0.65492,3.44708 0.50092,1.32706 0.38069,1.62999 -1.35052,3.40291 -1.32827,1.3603 -1.89968,2.40174 -1.89803,3.45938 l 0.002,1.5132 1.53239,-1.63492 c 0.84282,-0.89921 1.53941,-2.16538 1.54797,-2.81374 z m -14.16237,-1.50886 c -0.51977,-0.88996 -1.17526,-1.58981 -1.45662,-1.55522 -0.9856,0.12124 -0.8276,2.43956 0.23167,3.39812 0.57607,0.52133 1.07119,1.54528 1.10028,2.27546 0.0439,1.10064 0.13989,1.0004 0.56134,-0.58634 0.41641,-1.56744 0.33739,-2.20685 -0.43658,-3.53202 z m 12.97508,-0.0538 c 0.72607,-0.79371 0.93618,-1.46871 0.67678,-2.17425 -0.32839,-0.89313 -0.5172,-0.74684 -1.48576,1.15109 -1.21162,2.37412 -0.84778,2.83429 0.80898,1.02316 z m 0.22945,-5.31219 c 0.0585,-0.80649 -0.17591,-1.98769 -0.5209,-2.62487 -0.44136,-0.8154 -0.48452,-1.67499 -0.14557,-2.90222 0.36912,-1.33685 0.29868,-2.00462 -0.30184,-2.86198 -0.77436,-1.10557 -0.79925,-1.09002 -2.18728,1.36745 -0.77219,1.36715 -1.54553,3.09419 -1.71853,3.83783 -0.3088,1.32747 -0.27996,1.34429 1.58555,0.92355 2.22592,-0.50203 2.74302,-0.23883 1.42466,0.7252 -0.68309,0.49948 -0.82111,0.95381 -0.50348,1.65738 0.46872,1.03824 0.59976,1.55754 0.69284,2.74575 0.0997,1.27149 1.55543,-1.2218 1.67465,-2.86809 z m -7.49889,134.36038 c -0.17369,-0.28137 0.0562,-0.51158 0.51158,-0.51158 0.45527,0 0.68549,0.23022 0.5116,0.51158 -0.17369,0.28138 -0.40411,0.51159 -0.5116,0.51159 -0.10757,0 -0.33767,-0.23022 -0.51158,-0.51159 z m 39.7219,-105.25928 c -0.55825,-1.30458 -0.54562,-1.33466 0.1737,-0.41382 0.42663,0.54619 0.77569,1.17928 0.77569,1.40688 0,0.77756 -0.34701,0.41457 -0.94939,-0.99306 z"
       id="BR"
       inkscape:connector-curvature="0"
       sodipodi:nodetypes="cscscccccccccccccccsccsccsccsssccsscsccccccccccssccscccscsccccccccccccsccsccscssscscsccccccccccsccccccccccccccccccscccssccsccssccccscsccccccccscccccsccccsscccccccsccsscsccsccccscscssscccccccsccscccssscccccssccccsccscscsscsscccccccsscscccscsscssscsssccccsccccccssccccccssccscccccccscccccccccccsccccccccsccccccscsccccccccscccscccccsccccccscccccccccccsscssccsssccccccscccscscccsccccccscccccccscccccccccscsccscccscccccsccscccccsccscsscsscsccsccscccccccssccccssccccscsccccscccccccscsccccccccccscscccscccscccsccsccscccsccccccscscscccsccccsccsccccccscssssccccccccccsccscccccccscccccscsccscccccscccscccscscsccccccccccccscssccscsccccscscccccccsscsccsccscccsccccccscccsscccccccsccscccccccscccssccscscccscccccccsccccccsccccsscssccccccccccssssscsccsscsccccccscccccccccsccccscccsscccccccscsccccccccsccccccsccscccsccccscsccacscacscac">
      <title
         id="title1462">bříza bělokorá, bradavičnatá</title>
    </path>
  </g>
</svg>
