<?xml version="1.0" encoding="UTF-8" standalone="no"?>
<!-- Created with Inkscape (http://www.inkscape.org/) -->

<svg
   xmlns:dc="http://purl.org/dc/elements/1.1/"
   xmlns:cc="http://creativecommons.org/ns#"
   xmlns:rdf="http://www.w3.org/1999/02/22-rdf-syntax-ns#"
   xmlns:svg="http://www.w3.org/2000/svg"
   xmlns="http://www.w3.org/2000/svg"
   xmlns:sodipodi="http://sodipodi.sourceforge.net/DTD/sodipodi-0.dtd"
   xmlns:inkscape="http://www.inkscape.org/namespaces/inkscape"
   width="40.531616mm"
   height="65.511894mm"
   viewBox="0 0 100 100"
   version="1.1"
   id="svg1660"
   inkscape:version="0.92.5 (2060ec1f9f, 2020-04-08)"
   sodipodi:docname="HB.svg">
  <defs
     id="defs1654" />
  <sodipodi:namedview
     id="base"
     pagecolor="#ffffff"
     bordercolor="#666666"
     borderopacity="1.0"
     inkscape:pageopacity="0.0"
     inkscape:pageshadow="2"
     inkscape:zoom="0.98994949"
     inkscape:cx="153.80239"
     inkscape:cy="276.77495"
     inkscape:document-units="mm"
     inkscape:current-layer="layer1"
     showgrid="false"
     fit-margin-top="0"
     fit-margin-left="0"
     fit-margin-right="0"
     fit-margin-bottom="0"
     inkscape:window-width="960"
     inkscape:window-height="1015"
     inkscape:window-x="0"
     inkscape:window-y="0"
     inkscape:window-maximized="0" />
  <metadata
     id="metadata1657">
    <rdf:RDF>
      <cc:Work
         rdf:about="">
        <dc:format>image/svg+xml</dc:format>
        <dc:type
           rdf:resource="http://purl.org/dc/dcmitype/StillImage" />
        <dc:title></dc:title>
      </cc:Work>
    </rdf:RDF>
  </metadata>
  <g
     inkscape:label="Layer 1"
     inkscape:groupmode="layer"
     id="layer1"
     transform="translate(-4.68061,-235.51787)">
    <path
       style="fill:#000000;stroke-width:0.45536631"
       d="m 49.124789,369.64712 c 0,-0.15248 0.768423,-0.6382 1.707629,-1.0794 0.609481,-0.28632 0.808902,-0.61905 1.17907,-1.12748 0.855302,-1.17474 1.080815,-3.99898 1.080815,-3.99898 1.06615,-8.3479 0.814771,-16.48503 -0.620016,-20.07093 -0.42254,-1.05603 -1.784164,-3.68266 -3.025847,-5.83694 -1.241665,-2.15429 -2.536822,-4.70435 -2.87811,-5.66677 -0.622614,-1.75579 -4.558701,-6.41324 -10.324044,-12.21612 -2.655042,-2.67234 -3.316432,-3.11025 -4.697436,-3.11025 -1.84867,0 -3.128991,-0.5837 -4.717864,-2.15084 -0.832465,-0.82105 -1.418919,-1.03347 -2.276838,-0.82465 -0.635557,0.15473 -2.180131,0.35984 -3.432398,0.45586 -1.25225,0.096 -1.662089,0.0787 -0.910721,-0.0386 2.376883,-0.37087 2.816564,-0.60886 2.036386,-1.10224 -0.36867,-0.23315 -1.233817,-0.42704 -1.922555,-0.43089 -0.688737,-0.003 -1.25225,-0.21188 -1.25225,-0.46233 0,-0.25044 0.300465,-0.45537 0.667689,-0.45537 0.536371,0 0.485083,-0.30949 -0.260742,-1.5736 -0.848229,-1.43764 -1.980538,-2.20987 -2.978156,-2.03112 -0.213774,0.0382 -0.798508,0.0293 -1.299408,-0.0203 -0.633164,-0.0625 -0.71402,-0.16763 -0.265303,-0.34497 0.472261,-0.18663 0.227887,-0.61944 -0.910721,-1.613 -0.855905,-0.74686 -1.043881,-1.02383 -0.417755,-0.61549 0.626125,0.40834 2.193985,1.23261 3.484133,1.8317 1.461894,0.67884 2.467945,1.47436 2.670102,2.11129 0.493431,1.55464 2.516944,3.0756 4.546876,3.41759 1.001801,0.16884 2.077607,0.51372 2.390669,0.76653 0.416327,0.3362 0.569399,0.23064 0.569916,-0.39302 4.47e-4,-0.5514 0.281997,-0.28955 0.796889,0.74114 0.695468,1.39216 1.056789,1.6238 2.856184,1.83098 2.44046,0.28098 4.091981,1.37577 7.191783,4.76747 1.261131,1.37988 2.394748,2.50889 2.519113,2.50889 0.124433,0 0.127015,-1.15561 0.0052,-2.56805 -0.173862,-2.02762 -0.525821,-2.93623 -1.672535,-4.31776 -0.798783,-0.96236 -1.707284,-1.75343 -2.018884,-1.75795 -0.311617,-0.005 -1.501926,-0.93033 -2.645147,-2.05736 -1.14322,-1.12704 -1.869529,-2.04916 -1.614019,-2.04916 0.25551,0 1.335825,0.8709 2.400703,1.93531 2.383751,2.38273 2.839834,1.57916 1.077562,-1.89852 -0.644816,-1.2725 -1.075118,-2.3136 -0.956244,-2.3136 0.377826,0 2.412475,3.8222 2.702149,5.07611 0.153176,0.66305 0.997067,2.0656 1.875329,3.11681 1.48401,1.77625 1.596843,2.13163 1.596843,5.02954 v 3.11823 l 2.479734,2.14086 c 1.891731,1.63319 2.917764,3.04142 4.327028,5.93881 2.267888,4.66265 4.889868,8.82137 5.561705,8.82137 0.325471,0 0.402076,-0.59813 0.218696,-1.70762 -0.15524,-0.93919 -0.284509,-4.78346 -0.287263,-8.54279 l -0.0052,-6.83519 -1.935309,-1.99498 c -1.064413,-1.09725 -2.754968,-2.35064 -3.756768,-2.78529 -1.07023,-0.46437 -2.384903,-1.57731 -3.187559,-2.69845 -0.751367,-1.04949 -2.044578,-2.7484 -2.873825,-3.77534 -0.829246,-1.02695 -1.804713,-2.44149 -2.167704,-3.14345 -0.84952,-1.6428 -1.749347,-2.0988 -6.996063,-3.54533 -4.055838,-1.11822 -4.418984,-1.31839 -5.862548,-3.23176 -1.773201,-2.35027 -3.204442,-3.12868 -5.805719,-3.15759 -1.016549,-0.0121 -2.246047,-0.33921 -2.732198,-0.72872 -0.853874,-0.68408 -0.850105,-0.69182 0.110665,-0.22768 1.13804,0.54976 4.245569,0.65173 4.235105,0.13906 -0.01549,-0.75001 -0.887831,-1.65774 -2.114954,-2.20027 -1.051935,-0.46509 -1.123342,-0.5814 -0.382593,-0.62318 0.818282,-0.0461 0.778284,-0.16781 -0.394074,-1.19876 -0.717635,-0.63105 -1.200394,-1.25177 -1.072812,-1.37935 0.239832,-0.23985 2.780079,2.23722 5.028088,4.90305 0.896712,1.06338 1.35937,1.33774 1.532837,0.90902 0.149216,-0.36883 0.602322,0.17673 1.134563,1.3661 1.497623,3.34672 3.984706,5.39972 3.364244,2.77704 -0.291223,-1.23099 -0.280827,-1.22753 0.611961,0.20297 0.667,1.06872 1.367561,1.53823 2.637573,1.7677 0.951132,0.17193 2.08795,0.37612 2.526238,0.45393 1.134667,0.20143 0.992781,-0.29954 -0.569209,-2.00969 -2.468359,-2.7025 -1.427301,-2.15658 1.62185,0.85051 1.643381,1.6207 3.538846,3.91986 4.212146,5.10926 0.6733,1.18938 1.353965,2.16273 1.512596,2.16299 0.481177,6.9e-4 0.812621,-1.86976 0.596884,-3.36865 l -0.203258,-1.41224 0.444501,1.35701 c 0.244478,0.74634 0.324215,2.1092 0.177201,3.02858 -0.240158,1.50189 -0.07056,1.88493 1.66992,3.7732 1.065462,1.1559 2.873911,2.51599 4.0188,3.02241 1.144873,0.50644 2.448928,1.25323 2.897903,1.65956 0.448976,0.40631 0.931822,0.62325 1.072984,0.48209 0.469198,-0.4692 -1.644052,-4.00904 -5.189955,-8.69355 -1.927253,-2.54612 -4.398365,-6.06371 -5.491365,-7.81686 -1.092983,-1.75317 -2.525686,-3.7702 -3.183789,-4.48229 -1.370419,-1.48287 -5.347812,-3.64834 -5.981596,-3.25666 -0.233704,0.1444 -1.096906,-0.0902 -1.918218,-0.52131 -0.821329,-0.43116 -2.596096,-0.93779 -3.943917,-1.12587 -1.347838,-0.18808 -2.679774,-0.59105 -2.959879,-0.8955 -0.391698,-0.42571 -0.299018,-0.47559 0.40144,-0.216 0.5009,0.18563 1.935308,0.48484 3.187576,0.66489 1.25225,0.18006 2.737878,0.57784 3.301407,0.88395 1.332109,0.72361 1.292868,0.36013 -0.167976,-1.55502 -0.785754,-1.03016 -1.572541,-1.56341 -2.306784,-1.56341 -1.230858,0 -2.657091,-0.63784 -3.94908,-1.76614 -0.465033,-0.4061 -1.694531,-0.77581 -2.732198,-0.82155 -2.48094,-0.10946 -7.474347,-0.79908 -7.745278,-1.06977 -0.436636,-0.43627 4.540457,-0.0804 5.774395,0.41282 1.687354,0.67454 2.133335,0.64643 2.133335,-0.13441 0,-0.35579 -0.612391,-0.78139 -1.360868,-0.94577 -0.748493,-0.16436 -1.482856,-0.49627 -1.631935,-0.73749 -0.165911,-0.26849 0.229367,-0.31496 1.019338,-0.11979 1.237794,0.30578 2.672804,1.16353 6.025258,3.60153 1.829669,1.33056 4.206931,1.61438 3.18243,0.37994 -0.340169,-0.40989 -1.462152,-1.10689 -2.493296,-1.54889 -2.004599,-0.85927 -4.953945,-3.23265 -5.662612,-4.55679 -0.462727,-0.86463 -0.228248,-0.83216 3.767731,0.52196 0.813963,0.27584 1.967733,0.6122 2.563946,0.74749 1.720141,0.39035 0.962715,-0.87535 -1.15618,-1.93205 -1.004415,-0.5009 -2.423645,-1.34703 -3.153843,-1.88028 -0.730215,-0.53325 -2.454675,-1.12236 -3.832167,-1.30913 -2.119223,-0.28736 -2.802229,-0.63687 -4.439809,-2.27194 -1.064431,-1.0628 -1.934552,-2.21546 -1.933605,-2.56148 9.76e-4,-0.34603 0.408891,0.0387 0.906556,0.85497 1.199327,1.96704 3.258984,3.1613 6.100951,3.53754 1.49215,0.19754 2.733834,0.68892 3.464203,1.37094 1.283264,1.19827 3.642936,2.23124 3.642936,1.5947 0,-1.22365 -1.173821,-3.11332 -2.977088,-4.79259 -1.11756,-1.04073 -2.031946,-2.17503 -2.031946,-2.52069 0,-0.48881 0.121335,-0.50704 0.546439,-0.0819 0.300551,0.30054 1.338923,0.54644 2.307524,0.54644 1.611868,0 1.735578,-0.0868 1.460224,-1.02459 -1.087372,-3.70303 -3.018394,-5.53024 -6.285931,-5.94801 -0.959238,-0.12271 -2.220456,-0.67053 -2.80271,-1.21752 -0.582255,-0.54701 -1.886465,-1.18056 -2.898264,-1.40789 -1.923347,-0.43214 -5.713848,-2.69688 -4.513781,-2.69688 0.379961,0 0.945384,0.30671 1.256519,0.68161 0.570741,0.6877 4.997005,2.21559 5.361785,1.8508 0.355453,-0.35543 -1.228757,-2.25389 -3.148421,-3.77299 -2.368329,-1.87413 -1.716251,-1.9523 0.746324,-0.0895 1.625602,1.22968 4.327372,4.6128 4.327372,5.41867 0,0.1697 1.066323,0.55477 2.369621,0.85561 1.303297,0.30083 2.768976,0.89954 3.257089,1.33046 0.863598,0.76243 0.879346,0.74156 0.585508,-0.77708 -0.166083,-0.85832 -0.799591,-2.08782 -1.407801,-2.7322 -2.042995,-2.16447 -4.128862,-4.83944 -3.058219,-3.92192 0.89129,0.76383 1.105666,0.79668 1.485678,0.22768 0.428186,-0.64117 0.329637,-2.40915 -0.240123,-4.30788 -0.15025,-0.50089 0.03614,-0.29599 0.414296,0.45537 0.445825,0.88575 0.600688,2.03231 0.440439,3.26073 -0.213947,1.63993 -0.06471,2.1024 1.109711,3.44003 0.746272,0.84995 1.500755,2.14898 1.676614,2.88671 1.132516,4.75087 2.403147,7.74917 3.559585,8.3995 1.079662,0.60715 1.263162,0.60715 1.651573,0 0.385141,-0.60203 0.437789,-0.59949 0.443933,0.0215 0.0069,0.64067 3.128268,4.07687 3.704017,4.07687 0.506975,0 -1.055618,-8.03512 -1.902539,-9.78318 -1.955687,-4.03654 -4.817481,-9.21416 -5.892788,-10.66135 -1.319389,-1.77566 -5.091113,-4.29388 -5.48257,-3.66047 -0.146463,0.23692 -0.63289,-0.33811 -1.081004,-1.27785 -0.792122,-1.6611 -0.791348,-1.68759 0.0284,-0.95291 0.463725,0.41563 2.072615,1.58181 3.575333,2.59153 l 2.732198,1.83584 0.143881,-1.11016 c 0.07917,-0.61058 -0.364798,-2.08478 -0.986448,-3.276 -0.621633,-1.19121 -1.262336,-2.78057 -1.42379,-3.53193 -0.161435,-0.75136 -0.821982,-2.18576 -1.467865,-3.18757 l -1.17432,-1.82146 1.188828,1.09154 c 1.122568,1.03067 1.679799,2.2716 2.321465,5.16974 0.152487,0.68874 0.478268,1.25225 0.723934,1.25225 0.611083,0 0.56353,-2.11394 -0.07487,-3.33134 l -0.521622,-0.99464 1.044363,0.91075 1.044361,0.91073 -0.29604,-1.90782 c -0.162813,-1.04932 -0.141816,-2.00298 0.04647,-2.11927 0.658499,-0.40652 0.589157,3.64278 -0.09018,5.26877 -0.486375,1.16407 -0.565888,2.01538 -0.27384,2.93157 0.226373,0.71014 0.534857,2.2186 0.685537,3.35217 0.292702,2.20212 2.723093,6.4365 3.088528,5.38104 0.116517,-0.33636 -0.16746,-1.10026 -0.630978,-1.69756 -0.46345,-0.59743 -0.842687,-1.30257 -0.842687,-1.5671 0,-0.26455 0.299173,-0.0833 0.664815,0.40292 0.600153,0.79794 0.619068,0.71366 0.194497,-0.86639 -0.258677,-0.96268 -0.37244,-1.84822 -0.252791,-1.96787 0.119615,-0.11962 0.356176,0.41364 0.525615,1.1851 0.169353,0.77143 0.496305,1.28629 0.726377,1.14409 0.230074,-0.14216 0.418324,0.13339 0.418324,0.61258 0,0.47912 0.512276,1.42388 1.138419,2.09948 1.34505,1.45133 1.521149,2.12436 0.25637,0.97974 -1.013968,-0.91764 -1.850167,-0.60473 -1.850167,0.69234 0,0.72555 1.906962,5.00471 2.62205,5.88378 0.442005,0.54339 1.433444,-1.60507 1.189396,-2.57742 -0.159715,-0.63645 -0.0642,-1.06479 0.23749,-1.06479 0.760576,0 0.605748,-1.6554 -0.233325,-2.49447 -0.680493,-0.68049 -0.644988,-0.71469 0.455361,-0.43853 0.7772,0.19506 1.193424,0.11411 1.193424,-0.23207 0,-0.29239 -0.183432,-0.41823 -0.407636,-0.27967 -0.224221,0.13854 -0.531586,-0.0711 -0.683058,-0.46573 -0.367568,-0.95785 -0.350426,-1.78075 0.02926,-1.40113 0.16746,0.16746 0.679806,-0.0351 1.138419,-0.45006 0.969186,-0.87711 1.074103,-0.55267 0.264633,0.8183 -0.458684,0.77686 -0.454983,1.00531 0.01893,1.17652 0.442366,0.15972 0.460868,0.36592 0.07469,0.8313 -0.623406,0.75117 -0.123573,1.72206 0.71989,1.39838 0.334162,-0.12822 0.675657,-0.0289 0.75887,0.22073 0.08313,0.24964 0.941151,0.63202 1.90655,0.84976 1.297669,0.29267 1.622039,0.26266 1.24423,-0.11514 -0.281068,-0.28107 -0.511037,-0.81251 -0.511037,-1.181 0,-0.36848 -0.339137,-1.04469 -0.753622,-1.5027 -0.432074,-0.47742 -0.534203,-0.83276 -0.239383,-0.83276 0.28284,0 0.837885,0.62583 1.233421,1.39075 0.395554,0.76491 1.105598,1.8407 1.577877,2.39067 0.472296,0.54997 1.280957,1.49236 1.797038,2.09418 0.516079,0.60183 0.938326,1.26507 0.938326,1.47383 0,0.20877 0.680116,0.66376 1.511375,1.01107 1.052641,0.43983 1.667338,1.09819 2.025252,2.16911 0.482846,1.44477 0.497819,1.40014 0.248023,-0.73921 -0.398032,-3.40899 -0.810985,-4.15403 -3.289309,-5.93453 -1.246897,-0.89582 -2.978138,-2.61847 -3.84721,-3.82814 -1.537879,-2.14065 -4.087729,-3.91082 -4.905375,-3.40548 -0.222982,0.13786 -0.534599,-0.39538 -0.692491,-1.18486 -0.157822,-0.78948 -0.616556,-1.53522 -1.019235,-1.65721 -0.402678,-0.12203 -1.39811,-0.51088 -2.212073,-0.86422 l -1.479948,-0.64244 -0.06695,2.38331 -0.06695,2.3833 -0.276266,-2.57242 c -0.169181,-1.57474 -0.613028,-2.94454 -1.14458,-3.53189 -1.102741,-1.21852 -0.635557,-1.77807 0.519866,-0.62265 1.986596,1.9866 4.222438,3.03533 4.222438,1.98056 0,-0.23125 -0.556456,-1.08176 -1.236571,-1.89003 -1.110865,-1.32018 -1.134409,-1.41491 -0.231587,-0.93174 0.552756,0.29582 1.377768,1.30003 1.833351,2.23156 1.490586,3.0477 2.115592,3.8063 3.891633,4.72348 l 1.75229,0.9049 -0.841569,-1.43212 c -0.462847,-0.78768 -2.232899,-2.944 -3.93342,-4.79182 -2.254704,-2.45003 -3.272597,-3.96829 -3.759384,-5.60747 -0.469335,-1.58046 -1.241287,-2.76674 -2.600209,-3.99588 l -1.932709,-1.7481 -0.302306,1.58362 c -0.2889,1.51335 -0.302169,1.4927 -0.299294,-0.46551 0.0016,-1.12703 -0.01549,-2.28959 -0.03924,-2.58347 -0.02323,-0.29389 -0.788129,-1.52337 -1.699796,-2.73219 -1.34228,-1.77983 -1.420468,-1.98135 -0.411043,-1.05946 0.68557,0.62612 1.616445,1.8556 2.068605,2.7322 0.452159,0.87658 1.354344,2.09055 2.004839,2.69772 1.089541,1.01698 1.183287,1.03492 1.189707,0.22768 0.0035,-0.48193 0.214979,-1.18363 0.469198,-1.55931 0.344472,-0.50905 0.389564,-0.3698 0.176995,0.5467 -0.194344,0.83786 0.08089,2.00347 0.86334,3.65764 0.631719,1.33534 1.280476,2.95339 1.441671,3.59566 0.161264,0.64227 1.404117,2.37741 2.762058,3.8559 l 2.468979,2.68814 0.0035,-1.63967 c 0.0052,-2.19702 -0.715965,-4.13232 -2.560143,-6.87276 -0.843961,-1.25411 -1.525402,-2.51576 -1.514335,-2.80364 0.01033,-0.2879 0.406998,0.20835 0.879863,1.10279 0.472846,0.89444 1.180344,1.89234 1.572215,2.21755 0.827059,0.68641 2.536822,5.9128 2.536822,7.75461 0,0.69119 0.376931,1.7454 0.837644,2.3427 0.460696,0.5973 1.35968,2.23849 1.99775,3.6471 0.860999,1.9008 1.709934,2.93942 3.292664,4.02835 1.172891,0.80698 2.243276,1.3565 2.378604,1.22115 0.135276,-0.13527 0.351528,-1.55984 0.480419,-3.16556 0.346383,-4.31501 -1.099883,-8.0603 -3.112503,-8.0603 -0.448114,0 -1.389712,-0.53231 -2.092407,-1.18292 l -1.277654,-1.18293 1.313658,0.95524 c 1.294898,0.94158 2.55696,1.25679 2.55696,0.63864 0,-0.17414 -0.562223,-0.94258 -1.249359,-1.70763 -0.761161,-0.84745 -0.505376,-0.69848 0.654557,0.3812 1.04715,0.97473 2.146518,2.3579 2.443024,3.07373 0.815528,1.96886 1.500187,1.60734 1.200257,-0.6338 -0.367569,-2.74652 -2.975731,-7.43742 -4.642276,-8.34931 -0.75135,-0.41111 -1.786316,-1.39021 -2.299917,-2.17577 -0.540536,-0.82674 -1.252715,-1.37356 -1.690934,-1.29833 -0.854735,0.14681 -5.567489,-2.10757 -5.191676,-2.48336 0.133727,-0.13373 1.073861,0.22392 2.089328,0.79465 1.015465,0.57073 2.000571,0.88341 2.189131,0.69485 0.18856,-0.18857 -0.01205,-0.54114 -0.444689,-0.78354 -0.433125,-0.24239 -1.022522,-0.87982 -1.309752,-1.41653 -0.291704,-0.54505 0.705381,0.0919 2.2588,1.44307 1.529567,1.33039 2.896905,2.78392 3.038498,3.23007 0.141643,0.44617 0.557041,0.92616 0.923182,1.06667 2.003152,0.76868 -0.66294,-5.2598 -3.172758,-7.17412 -0.894251,-0.68209 -1.619682,-1.58833 -1.612074,-2.01387 0.01205,-0.69933 0.05507,-0.70327 0.442073,-0.0409 0.235529,0.40298 1.181859,1.30752 2.102958,2.01006 l 1.674721,1.27738 -0.238471,-2.11564 c -0.131146,-1.16361 -0.08537,-2.02099 0.101887,-1.90528 0.393247,0.24304 0.901893,-2.45235 0.902134,-4.78057 1.37e-4,-1.36082 -0.498353,-2.11744 -3.410231,-5.17612 -1.875725,-1.97028 -3.409061,-3.81451 -3.407408,-4.0983 0.0016,-0.28379 0.364815,-0.003 0.807026,0.62244 1.817862,2.57393 4.699433,5.21755 5.05683,4.63927 0.413057,-0.66834 1.419005,2.29448 1.419005,4.17937 0,1.51109 0.182863,1.50026 1.909131,-0.11307 0.859175,-0.80297 1.536381,-1.99623 1.744407,-3.07373 l 0.340015,-1.76122 0.05232,1.76769 c 0.04303,1.45415 -0.220813,2.02534 -1.48771,3.22019 -2.016887,1.90216 -2.825135,3.57928 -3.162207,6.56153 -0.193104,1.70857 -0.06575,2.93954 0.423916,4.0983 l 0.699943,1.65621 0.886006,-1.8044 c 0.487303,-0.99242 1.425924,-2.36795 2.085817,-3.05674 0.659892,-0.68879 1.350161,-2.0284 1.533902,-2.97695 l 0.334077,-1.7246 0.05232,1.50988 c 0.02874,0.83043 -0.159715,1.90624 -0.419028,2.39067 -0.606178,1.13265 -0.138718,1.11047 1.825005,-0.0866 0.959927,-0.58518 1.356891,-0.69359 1.010233,-0.27589 -0.314078,0.37845 -1.583779,1.12375 -2.821538,1.65622 -2.353632,1.01251 -3.089493,1.92481 -3.686067,4.56996 -0.297315,1.31821 -0.119098,2.03798 1.045395,4.22285 0.772072,1.44857 1.528912,2.62627 1.681863,2.61711 0.546543,-0.0327 4.672016,-5.72889 5.518456,-7.61947 0.474395,-1.05961 0.965003,-1.92656 1.090229,-1.92656 0.125293,0 -0.167632,0.87089 -0.650788,1.93531 -1.047581,2.30786 -1.11515,3.07372 -0.271172,3.07372 0.345005,0 0.882392,0.30737 1.194165,0.68304 0.930341,1.12099 2.117554,0.80084 2.757256,-0.74354 0.325009,-0.78463 1.067616,-1.99312 1.650217,-2.6855 l 1.0593,-1.25891 -2.00057,-2.66504 c -2.67148,-3.55881 -4.057168,-6.30178 -3.720079,-7.36389 0.163677,-0.51572 -0.01549,-1.10522 -0.443743,-1.46072 -0.395003,-0.32784 -0.93974,-1.02274 -1.210498,-1.54424 -0.435447,-0.83864 -0.340961,-0.81666 0.817801,0.19023 1.817932,1.57971 1.998508,1.90077 1.711677,3.04362 -0.277455,1.10545 1.658385,5.05772 3.1293,6.3889 0.862992,0.781 0.87745,0.76177 0.591289,-0.78689 -0.182502,-0.98767 -0.02737,-2.33619 0.410749,-3.56918 0.677021,-1.90562 0.664849,-2.03154 -0.316693,-3.27822 -0.561412,-0.71306 -1.328131,-1.41324 -1.703808,-1.55595 -0.73727,-0.28005 -3.387359,-3.99176 -3.911872,-5.47898 -0.176668,-0.50091 0.527576,0.31875 1.564986,1.82147 1.835164,2.65828 3.166959,3.54824 2.896131,1.9353 -0.253822,-1.51177 0.32764,-0.79227 0.81128,1.00387 0.266695,0.99042 0.956911,2.3736 1.533834,3.07373 0.576921,0.70013 1.184835,1.64454 1.350903,2.0987 0.166081,0.45417 0.525957,0.68733 0.79971,0.51815 0.35172,-0.21739 0.402334,0.45586 0.17252,2.29524 -0.308397,2.46833 -0.280205,2.57876 0.545615,2.13679 0.478973,-0.25634 1.581027,-1.74002 2.449047,-3.29707 0.868019,-1.55705 2.315165,-3.67389 3.21587,-4.70408 0.900706,-1.03018 1.867826,-2.2829 2.149147,-2.7838 0.503689,-0.89684 0.511709,-0.89597 0.525338,0.0582 0.0069,0.53293 0.32122,1.7046 0.696897,2.60372 0.961993,2.30236 0.813275,2.66998 -0.258694,0.63945 -0.495803,-0.93919 -1.001919,-1.70761 -1.124695,-1.70761 -0.587145,0 -3.110303,3.22627 -4.273523,5.46439 -0.715931,1.37748 -1.754886,2.91386 -2.30883,3.41418 -3.11961,2.81764 -2.962704,8.05567 0.381957,12.75133 0.891962,1.25225 1.96257,3.30139 2.37912,4.55366 l 0.757338,2.27684 0.6907,-1.63634 c 0.905833,-2.14599 1.707492,-5.9446 1.707492,-8.09082 0,-1.37171 -0.269572,-1.91271 -1.35166,-2.71275 -0.743417,-0.54963 -1.591577,-1.45905 -1.884797,-2.02093 -0.34249,-0.65635 0.06729,-0.41106 1.145907,0.686 1.703789,1.73282 2.545912,2.12665 2.545912,1.19064 0,-0.28436 0.498248,-0.97876 1.107233,-1.54315 1.671399,-1.549 2.276544,-4.37532 1.634978,-7.6363 -0.290737,-1.47785 -0.411956,-2.80369 -0.269331,-2.9463 0.142681,-0.14268 0.263876,0.13338 0.269436,0.61347 0.0086,0.77309 0.113245,0.74275 0.912632,-0.26563 0.537177,-0.6776 0.809864,-1.53792 0.673678,-2.12538 -0.125809,-0.54284 -0.03716,-1.46496 0.196941,-2.04916 0.422336,-1.05369 0.425963,-1.05234 0.454592,0.16936 0.01549,0.67734 0.541152,1.74383 1.167277,2.36996 0.626145,0.62613 1.138418,1.45512 1.138418,1.84217 0,1.08177 1.196303,0.83558 2.211578,-0.45512 0.501363,-0.63739 1.471219,-2.58536 2.155242,-4.32882 1.313294,-3.34738 2.014352,-4.13119 0.919498,-1.02803 -0.978046,2.77213 -2.350522,5.28082 -3.416399,6.24476 -0.527557,0.47712 -0.959183,1.0355 -0.959183,1.24088 0,0.53182 2.757718,-0.0439 4.037473,-0.84296 0.85682,-0.53497 1.037255,-0.54691 0.88067,-0.0583 -0.108257,0.33795 -1.105513,0.92459 -2.216014,1.30367 -1.110502,0.37907 -2.298148,0.86637 -2.639207,1.08292 -0.365726,0.23219 -0.739335,0.20647 -0.910723,-0.0627 -0.803462,-1.26175 -4.161239,2.3485 -4.161239,4.47413 0,0.29028 -0.717201,1.70842 -1.593777,3.15143 -1.958526,3.22407 -2.020365,3.84616 -0.341529,3.43489 3.554612,-0.87077 6.219256,-4.38139 6.134961,-8.08264 -0.02909,-1.27865 0.130287,-2.09331 0.37958,-1.93926 0.236388,0.14611 0.429805,0.56091 0.429805,0.9218 0,0.86551 0.411159,0.82794 1.540041,-0.14078 0.925407,-0.79405 0.925853,-0.79235 0.126157,0.47539 -0.785925,1.24578 -0.778712,1.30075 0.346424,2.63787 l 1.14905,1.36558 1.382228,-2.18251 c 1.117303,-1.76418 1.331822,-2.50083 1.119263,-3.84338 -0.144566,-0.9135 -0.08657,-1.76992 0.129087,-1.90318 0.215593,-0.13321 0.425361,0.5943 0.466135,1.61679 0.04081,1.02247 0.248812,2.03372 0.462291,2.2472 0.523846,0.52384 2.345625,-1.23495 3.089599,-2.98277 0.33137,-0.77849 1.241151,-2.13265 2.02174,-3.00924 l 1.419228,-1.59378 -1.5027,2.33241 c -0.82649,1.28282 -1.844457,2.96061 -2.262139,3.72841 -0.41769,0.7678 -1.591733,1.8206 -2.608975,2.33957 -2.651631,1.35276 -4.374919,5.03293 -2.356723,5.03293 0.482723,0 1.302383,-0.53992 1.821451,-1.19984 0.519095,-0.6599 0.936972,-1.01851 0.928643,-0.79688 -0.02253,0.60026 -1.657653,2.45207 -2.165071,2.45207 -0.736119,0 -1.322439,1.04796 -1.601135,2.8618 l -0.264801,1.72336 1.681552,-0.28651 c 4.27908,-0.72911 4.972291,-1.06676 5.795565,-2.82281 0.43925,-0.93694 1.07648,-1.86738 1.416047,-2.06766 0.339545,-0.20028 0.617983,-0.61012 0.618723,-0.91074 6.97e-4,-0.31222 0.670616,-0.56067 1.562287,-0.57943 0.858515,-0.0181 2.650926,-0.58561 3.983118,-1.26122 1.734805,-0.87979 2.099105,-0.97185 1.283744,-0.32444 -0.626124,0.49719 -1.753151,1.12775 -2.504512,1.4013 -2.797187,1.01832 -4.583383,2.1919 -5.612337,3.68747 l -1.058699,1.53878 1.969414,0.27342 c 1.083191,0.15043 2.607628,0.6126 3.387638,1.02714 1.296238,0.68888 1.564429,0.69259 3.118421,0.0434 0.935103,-0.39072 2.038676,-0.63877 2.452406,-0.55124 0.41371,0.0876 -0.45087,0.54436 -1.92127,1.01518 -2.407228,0.77079 -2.591277,0.91612 -1.848252,1.45942 0.609913,0.44599 0.653972,0.60222 0.169009,0.59897 -0.360927,-0.001 -1.529452,-0.69865 -2.596683,-1.54715 -2.176309,-1.73023 -3.302903,-1.81195 -7.990498,-0.57963 -3.37151,0.88634 -4.786413,1.82336 -5.117804,3.38922 -0.145089,0.68558 -0.555997,2.05128 -0.91308,3.0349 -0.754653,2.07878 -0.589983,2.42593 0.821586,1.73203 0.563133,-0.27681 1.508308,-0.63987 2.100377,-0.80678 0.942539,-0.26572 1.04705,-0.51011 0.839806,-1.96393 l -0.236708,-1.66046 0.619602,1.3661 c 0.673385,1.48468 0.898326,5.8927 0.281242,5.51132 -0.208701,-0.12891 -0.283105,-0.89097 -0.165396,-1.69331 0.163324,-1.11261 0.06418,-1.40142 -0.417465,-1.21704 -0.347344,0.13304 -1.703839,0.62234 -3.014434,1.08751 -2.020142,0.71698 -2.488049,1.10857 -3.073728,2.57229 -0.379963,0.94962 -0.690817,2.25496 -0.690817,2.9008 0,2.6776 -1.6322,4.56211 -6.070734,7.00914 -2.273275,1.2533 -6.133083,5.25568 -7.021312,7.28066 -0.772073,1.76018 -1.390953,10.47445 -0.743672,10.47171 0.926775,-0.003 3.362279,-1.86549 3.362279,-2.56994 0,-1.61567 2.239251,-4.63117 3.828488,-5.15566 1.573901,-0.51944 2.091271,-1.20533 2.091271,-2.77236 0,-0.47436 0.409064,-1.53341 0.909033,-2.35342 1.025809,-1.68249 1.237035,-0.74914 0.229387,1.01357 -1.072935,1.87691 -0.871758,2.37656 0.862768,2.1428 2.061313,-0.27778 2.552492,-0.63473 2.552492,-1.85496 0,-0.56349 0.300837,-1.42229 0.668565,-1.90844 0.726526,-0.96056 0.946759,-0.38922 0.265233,0.68812 -0.230089,0.36372 -0.306802,0.8418 -0.170391,1.0624 0.136314,0.22061 0.66657,-0.28189 1.178278,-1.11666 0.526308,-0.85857 1.014864,-1.27215 1.124892,-0.95222 0.150252,0.43681 0.419426,0.44576 1.182359,0.0393 0.892327,-0.4754 0.927415,-0.45304 0.362873,0.23131 -0.343731,0.41669 -0.902533,0.75761 -1.241772,0.75761 -0.339238,0 -0.963919,0.52977 -1.388178,1.17726 -0.610757,0.93216 -0.649619,1.25253 -0.186651,1.53868 0.474415,0.2932 0.472901,0.39865 -0.0086,0.55897 -0.326006,0.1086 -0.826343,1.23474 -1.111834,2.5024 -0.421211,1.87021 -0.399579,2.46586 0.1148,3.15893 0.607897,0.81915 0.679287,0.8018 1.743372,-0.42351 0.63093,-0.72654 1.109524,-1.00631 1.109524,-0.64859 0,0.34599 -0.512294,1.11033 -1.138418,1.69855 -0.626125,0.58822 -1.138418,1.31843 -1.138418,1.62272 0,0.30426 -0.419956,1.03698 -0.933247,1.62823 l -0.933254,1.07504 0.733656,-1.51166 c 0.711201,-1.46534 0.690734,-1.60337 -0.668425,-4.50781 -0.771144,-1.6479 -1.287949,-3.11033 -1.148438,-3.24982 0.13958,-0.13958 0.368155,0.18429 0.508131,0.71954 0.328601,1.2566 1.530855,0.84005 1.530855,-0.53041 0,-1.7946 -0.258111,-1.77833 -5.826942,0.36712 -2.896936,1.11608 -3.208607,1.45473 -3.918996,4.25829 -0.4081,1.61052 -0.921306,2.41517 -1.969988,3.08865 -0.77997,0.50089 -1.626323,1.35326 -1.880768,1.89414 -0.696223,1.47994 0.122544,6.33286 2.222006,13.17058 1.759176,5.72942 1.802718,6.02077 1.137541,7.61276 -0.380408,0.91045 -0.683059,2.32792 -0.672562,3.14992 l 0.01913,1.49458 0.866335,-1.59378 c 0.476477,-0.87659 1.006792,-2.51591 1.178452,-3.64294 0.171759,-1.12703 0.575332,-2.56853 0.897021,-3.2033 0.321684,-0.63478 0.734948,-1.95413 0.918378,-2.93189 0.540415,-2.88063 2.396867,-7.00115 4.338335,-9.62923 0.995553,-1.34763 1.649957,-2.45825 1.454217,-2.46805 -0.195754,-0.0103 0.25885,-0.28903 1.010196,-0.62051 0.751368,-0.33146 2.528997,-1.72537 3.950283,-3.09756 1.98135,-1.91288 2.655356,-2.9101 2.889233,-4.27471 0.167802,-0.97887 0.484858,-2.39452 0.704608,-3.14589 0.219765,-0.75135 0.730866,-2.49312 1.135803,-3.8706 0.404929,-1.37749 1.127815,-3.37317 1.606395,-4.43486 1.089798,-2.4176 1.085843,-2.91991 -0.0406,-5.12783 -0.500896,-0.98186 -0.910736,-2.1089 -0.910736,-2.50452 0,-0.39564 -0.413991,-1.53084 -0.919979,-2.52266 -0.506016,-0.99183 -0.819919,-1.80333 -0.697605,-1.80333 0.122369,0 0.514582,0.55768 0.87172,1.23929 l 0.649326,1.23931 0.778559,-1.80852 c 0.659266,-1.53137 0.701547,-2.19649 0.275962,-4.34042 -0.60353,-3.04024 -0.577901,-5.06241 0.03132,-2.4771 0.236095,1.0018 0.542312,2.48742 0.680495,3.30139 0.270479,1.59331 0.5705,1.78964 1.426615,0.93351 0.365587,-0.36557 0.546434,-0.3817 0.546434,-0.0487 0,0.27375 -0.306195,0.61523 -0.680438,0.75884 -1.045585,0.40123 -2.503872,3.09215 -2.502421,4.61767 6.98e-4,0.75135 0.408425,1.98083 0.906042,2.7322 0.49759,0.75135 0.909223,1.67347 0.914699,2.04914 0.04304,2.94319 3.254987,1.2047 4.124349,-2.23229 0.291274,-1.15152 0.677913,-3.52809 0.859199,-5.28124 l 0.329613,-3.18758 0.07366,3.10473 0.07366,3.10473 1.3661,-0.97274 c 0.751347,-0.53502 1.375344,-1.21495 1.386652,-1.51095 0.01207,-0.29601 0.304367,-1.15295 0.651307,-1.90429 l 0.630756,-1.3661 -0.266272,1.54694 c -0.257999,1.49908 -0.227662,1.53727 0.980647,1.23401 0.81674,-0.205 1.1459,-0.14956 0.95418,0.16058 -0.16092,0.26049 -0.51556,0.47362 -0.78793,0.47362 -0.272359,0 -1.591966,0.72799 -2.932493,1.61779 -2.024286,1.34364 -2.519279,1.94341 -2.921168,3.53947 -0.349465,1.38782 -0.924729,2.22377 -2.070709,3.00899 -2.374867,1.62729 -3.632761,3.34254 -4.520065,6.16346 -0.877922,2.7912 -0.753586,3.29597 0.629577,2.55574 0.50589,-0.27074 1.496779,-0.4961 2.201988,-0.50078 1.002558,-0.007 1.778739,-0.59976 3.559019,-2.71943 1.252269,-1.49099 2.579382,-2.83049 2.949168,-2.97664 0.641018,-0.25336 -0.744991,1.52166 -2.320979,2.97239 -1.208574,1.11252 -2.386796,3.18756 -1.809927,3.18756 0.284235,0 1.332379,-0.51486 2.329203,-1.14411 0.996831,-0.62928 1.812432,-0.98639 1.812432,-0.79359 0,0.19281 -0.938793,0.91761 -2.08621,1.61068 -1.827848,1.10405 -2.289232,1.20405 -3.725516,0.80745 -1.365584,-0.37705 -1.887742,-0.2991 -3.127017,0.46681 -1.543439,0.95391 -1.707139,1.26915 -2.215603,4.26622 -0.167803,0.98902 -0.595522,2.21287 -0.950491,2.71969 -0.950554,1.35708 -0.808081,1.62954 0.852069,1.62954 0.82363,0 2.232945,0.37497 3.131844,0.83324 1.52074,0.77533 1.758007,0.78324 3.413742,0.11377 0.978673,-0.39568 2.250322,-1.19754 2.825879,-1.78193 0.575543,-0.58439 1.17712,-0.93184 1.336837,-0.77212 0.159717,0.15971 0.07641,0.43293 -0.184998,0.60716 -0.261459,0.17422 -0.592801,0.63654 -0.736306,1.02737 -0.143541,0.39084 -1.093292,0.96 -2.110653,1.2648 -2.407737,0.72138 -2.608298,1.14289 -1.390795,2.92287 1.517091,2.21801 2.20717,2.61525 4.543112,2.61525 1.451665,0 2.333884,0.24568 2.759009,0.76832 0.55735,0.68518 0.526426,0.72507 -0.285763,0.36876 -0.500909,-0.21975 -1.810952,-0.3565 -2.911192,-0.30389 -2.138416,0.10223 -3.117166,-0.64924 -5.616181,-4.31209 -1.247185,-1.82803 -3.608067,-2.8435 -5.936343,-2.55337 -1.380163,0.17193 -2.420893,0.89302 -5.35055,3.70694 -4.32243,4.15168 -4.581401,5.03703 -1.474114,5.03966 1.189642,7e-4 2.572826,0.0155 3.073728,0.0338 0.500896,0.0175 1.218103,-0.40117 1.593776,-0.9304 0.37568,-0.52924 1.14243,-1.51331 1.703896,-2.18684 l 1.020834,-1.22458 -0.745982,1.59379 c -0.410266,0.87659 -1.043408,1.93947 -1.406951,2.36197 -0.97471,1.1328 -0.351669,1.80199 1.151945,1.23728 1.169648,-0.43926 1.19428,-0.42183 0.45782,0.3241 -0.705879,0.71494 -0.960216,0.728 -2.732201,0.14009 -2.920757,-0.969 -6.654703,-0.85874 -7.443347,0.21979 -0.830812,1.13621 -2.188632,6.14685 -3.639634,13.43103 l -0.308502,1.54879 1.758917,-1.05469 c 2.346079,-1.40672 3.352712,-2.2963 3.352712,-2.96278 0,-0.82832 1.800033,-2.95073 2.502535,-2.95073 0.353065,0 0.04799,0.56689 -0.716098,1.33108 -0.732093,0.73209 -1.331076,1.62911 -1.331076,1.9934 0,0.36428 -0.307363,0.91741 -0.68304,1.2292 -0.944594,0.78395 -0.856075,1.20096 0.34153,1.60878 1.619954,0.55166 4.408143,0.97957 4.543877,0.69737 0.286028,-0.59467 3.061939,-1.77747 2.96093,-1.26165 -0.0609,0.31117 0.660431,0.6357 1.716354,0.77218 1.324678,0.17124 1.601198,0.32536 1.013845,0.56528 -0.444168,0.18143 -1.697861,0.20786 -2.785991,0.0587 -1.383331,-0.1896 -2.089175,-0.0919 -2.346734,0.32484 -0.218781,0.35399 -0.146812,0.66984 0.177219,0.77786 0.30007,0.1 0.839723,0.75069 1.199261,1.44594 0.423618,0.81921 1.181459,1.38658 2.153401,1.61219 0.869586,0.20185 1.197656,0.42648 0.780812,0.53462 -1.233317,0.31993 -3.113518,-0.67802 -3.395702,-1.80233 -0.26314,-1.04835 -2.303861,-2.14622 -3.989458,-2.14622 -0.414452,0 -1.378954,-0.38032 -2.143314,-0.84517 -0.794086,-0.48291 -1.873746,-0.75264 -2.518941,-0.62931 -1.358029,0.25961 -5.212296,4.35891 -6.347356,6.75086 -0.687999,1.44984 -1.990538,5.99356 -2.044631,7.13236 -0.02427,0.50962 1.707542,0.41264 2.032928,-0.11393 0.15472,-0.25045 0.509984,-0.45537 0.789296,-0.45537 0.851193,0 -1.519015,2.21858 -2.528148,2.36642 -0.764465,0.11204 -1.181562,0.9421 -2.206924,4.39212 -1.183256,3.98124 -1.26917,4.84261 -1.339925,13.43331 -0.04167,5.04861 -0.0962,10.30632 -0.121505,11.68379 -0.02532,1.37748 0.62325,6.5205 0.745344,8.00014 -3.938464,0.0864 -10.103181,-0.13081 -12.869732,0.0255 z m 10.01482,-39.10436 c 0.953369,-1.4553 2.079672,-4.31902 4.146967,-10.5439 2.84629,-8.57057 2.451132,-14.02708 -1.162496,-16.05218 -1.337479,-0.74953 -2.180267,-1.74778 -3.279307,-3.88415 l -1.479207,-2.87535 -0.02204,1.69355 c -0.01207,0.93146 -0.534376,3.26291 -1.160501,5.18101 -1.406974,4.31012 -1.409745,5.21341 -0.03734,12.14999 0.605596,3.06089 1.240067,7.76807 1.409919,10.46042 0.16987,2.69236 0.444724,4.89519 0.610824,4.89519 0.166085,0 0.604043,-0.46106 0.973213,-1.02458 z m -5.648225,-20.03612 c 0.03011,-2.78614 0.364677,-4.746 1.294795,-7.58547 1.373395,-4.19268 1.319374,-6.13477 -0.200264,-7.19917 -0.49911,-0.34958 -0.907468,-0.93136 -0.907468,-1.29283 0,-1.0561 -0.895542,-0.7565 -1.355566,0.4535 -0.524634,1.37989 -2.021792,2.22249 -3.254044,1.83139 -0.634781,-0.20148 -1.283161,0.0338 -2.031946,0.73721 -0.979134,0.91984 -1.099677,1.41979 -1.099677,4.5612 v 3.52815 l 3.415256,3.9863 c 1.878392,2.19248 3.415239,4.15511 3.415239,4.36142 0,0.20628 0.153691,0.37507 0.341529,0.37507 0.187837,0 0.359806,-1.69054 0.382146,-3.75677 z m -8.464892,-9.69468 c 0,-1.19389 0.399391,-2.85018 0.945367,-3.92035 0.821139,-1.60957 0.871429,-2.04102 0.382731,-3.28327 -0.309466,-0.7866 -0.987963,-1.77477 -1.507778,-2.19593 -0.519831,-0.42116 -0.830829,-0.88007 -0.691112,-1.01977 0.139751,-0.13975 0.71371,0.17426 1.275553,0.69769 0.56186,0.52344 1.077855,0.87988 1.146681,0.79209 0.440886,-0.56247 1.224248,-4.50218 0.975295,-4.90501 -0.166944,-0.27024 -0.08674,-0.49134 0.178578,-0.49134 0.618501,0 0.624714,2.0705 0.01032,3.21971 -0.485892,0.90792 -0.718925,5.75865 -0.296901,6.18065 0.413486,0.41351 2.135572,-0.75371 2.135572,-1.44747 0,-0.36686 0.212122,-0.66704 0.471401,-0.66704 0.324508,0 0.324129,0.27517 -0.0014,0.8831 -0.497785,0.93014 0.05542,1.6855 0.867109,1.18388 0.547627,-0.33845 1.850304,-2.94038 1.850304,-3.69578 0,-0.31798 -0.530502,-1.20862 -1.178898,-1.97918 -1.548429,-1.84022 -1.066874,-1.80564 0.66528,0.0476 0.744707,0.79682 1.48024,2.12158 1.6345,2.9439 0.154208,0.82231 0.477458,1.61685 0.71822,1.76565 0.853567,0.52753 0.417961,-1.417 -0.971493,-4.33689 -0.774671,-1.62794 -1.656581,-4.29183 -1.959817,-5.91975 -0.462485,-2.48299 -0.710939,-2.98316 -1.541957,-3.10421 -0.54484,-0.0793 -1.401088,-0.66614 -1.902764,-1.30391 -0.523532,-0.66558 -1.157901,-1.033 -1.489017,-0.86241 -2.917885,1.5033 -4.397453,3.16721 -4.659831,5.24044 -0.09535,0.75383 -0.308019,1.58832 -0.472485,1.85444 -0.164534,0.26609 -0.483827,1.78874 -0.709683,3.38362 -0.366106,2.58519 -0.284544,3.23813 0.751798,6.01793 1.103997,2.96134 1.87908,5.16069 2.262311,6.41953 0.410097,1.34662 1.112741,0.40053 1.112741,-1.49809 z m 18.665087,1.72577 c -0.0036,-0.18784 -0.321498,-1.3661 -0.708391,-2.61835 -0.386916,-1.25227 -0.858283,-4.66895 -1.047498,-7.59264 -0.311047,-4.80674 -0.468062,-5.49484 -1.639405,-7.1851 -0.794614,-1.14661 -1.452668,-2.87204 -1.702168,-4.46313 -0.223726,-1.42662 -0.904303,-3.41866 -1.512408,-4.42677 -0.608106,-1.00808 -1.758247,-3.22208 -2.555859,-4.91998 -0.797596,-1.6979 -1.673155,-3.01363 -1.945686,-2.92384 -0.272515,0.0898 -0.6016,1.17162 -0.731283,2.40406 -0.129768,1.23242 -0.399598,2.49961 -0.599793,2.81597 -0.200195,0.31636 -0.06282,1.64831 0.305352,2.95989 0.36812,1.31157 0.810332,3.59397 0.98268,5.07197 0.353129,3.02839 2.618177,9.12705 3.914639,10.54023 0.470594,0.51295 0.988104,1.63997 1.150037,2.50451 0.161956,0.86455 0.654007,2.18664 1.093498,2.93799 0.439493,0.75135 0.949139,1.8784 1.132533,2.50452 0.487014,1.66261 1.583473,2.73219 2.800836,2.73219 0.587317,0 1.065616,-0.15369 1.062916,-0.34152 z m -23.218762,-4.46786 c 0,-0.3911 -1.229481,-1.94821 -2.732198,-3.4603 -1.502701,-1.51206 -2.732198,-2.96795 -2.732198,-3.23528 0,-0.26736 0.788198,0.36767 1.751533,1.41113 2.37838,2.57626 3.217935,2.45909 1.642468,-0.22924 -2.192643,-3.74149 -4.493438,-5.33433 -8.40302,-5.81746 -1.377493,-0.17021 -3.473205,-0.64289 -4.657163,-1.05035 -4.178327,-1.43804 -2.779045,0.53584 2.340947,3.30222 1.390608,0.75134 2.764004,1.84387 3.052008,2.4278 0.861017,1.74577 3.413776,4.11391 4.75134,4.40768 0.688015,0.15111 2.040174,0.87209 3.004781,1.60216 2.073321,1.56921 1.981502,1.53946 1.981502,0.64164 z m 16.449709,-3.50865 c -0.449733,-0.44637 -0.502037,-0.39407 -0.254923,0.25493 0.171072,0.44908 0.425635,0.70181 0.565834,0.56162 0.140266,-0.14027 2.91e-4,-0.50765 -0.310911,-0.81655 z m -16.684153,-6.13984 c 0.178389,-1.18964 0.534685,-2.55605 0.791761,-3.03645 0.337812,-0.63127 0.239951,-1.86938 -0.352888,-4.46514 -0.724846,-3.17365 -1.020423,-3.75015 -2.539611,-4.95336 -0.945607,-0.74894 -1.97522,-2.0695 -2.288042,-2.93458 -0.964281,-2.6667 -1.35789,-1.75505 -1.041178,2.41158 0.527525,6.9404 1.53201,10.73669 3.735152,14.11637 0.982645,1.50739 1.333416,1.27176 1.694806,-1.13842 z m -4.017596,-0.31305 c -0.138202,-0.36001 -0.471901,-1.47428 -0.741679,-2.47617 -0.776098,-2.88218 -3.673778,-6.19394 -6.249118,-7.14211 -1.204748,-0.44356 -2.385127,-0.97752 -2.623065,-1.18658 -0.586127,-0.51501 -2.982648,-0.48437 -2.982648,0.0382 0,0.23004 0.677276,0.83682 1.505042,1.34841 1.136542,0.70241 1.694358,1.53075 2.278265,3.3831 0.847266,2.68783 1.71441,3.68097 3.606243,4.13024 1.194302,0.28362 1.231702,0.23779 0.972113,-1.1911 -0.148528,-0.81733 -0.758683,-2.2501 -1.355945,-3.18393 -1.577034,-2.46563 -1.330714,-2.7745 0.280138,-0.35128 0.749216,1.12704 1.363087,2.45725 1.364155,2.95604 0.0011,0.49878 0.770384,1.64992 1.709572,2.55807 1.828327,1.76792 2.642721,2.17465 2.236927,1.11719 z m 26.287428,-6.12387 c 0.163845,-1.23487 0.713021,-3.44231 1.220463,-4.90542 1.344346,-3.87612 1.447988,-11.95515 0.185926,-14.4936 -0.496408,-0.99847 -1.247171,-1.88173 -1.668371,-1.96285 -0.93688,-0.18044 -7.569951,6.00112 -7.911016,7.3725 -0.362767,1.45869 3.39488,8.47292 4.539097,8.47292 0.547045,0 0.246544,-2.63892 -0.357586,-3.14033 -0.420253,-0.34877 -0.622304,-1.52751 -0.614471,-3.58485 0.01034,-2.50462 0.08485,-2.81536 0.411387,-1.69909 0.219828,0.75135 0.300118,1.91173 0.178421,2.57863 -0.140612,0.77014 0.04062,1.42986 0.496427,1.80819 0.570652,0.4736 0.671816,1.23702 0.49374,3.72589 -0.250178,3.49646 0.11514,5.69494 1.228774,7.39453 0.996174,1.52035 1.438917,1.13444 1.797209,-1.56652 z m -19.136917,-1.68303 c 0.670666,-2.26232 1.681829,-4.41395 1.948853,-4.14692 0.140095,0.14009 -0.07366,0.72328 -0.474895,1.29612 -0.401215,0.57282 -0.729492,1.30326 -0.729492,1.62322 0,0.93899 1.2528,0.66795 2.047005,-0.44284 l 0.732539,-1.02458 0.886902,1.13841 c 0.487803,0.62614 1.083982,1.37744 1.324845,1.66959 0.240881,0.29215 0.831879,0.42815 1.313366,0.30225 1.038028,-0.27144 0.849778,-1.69486 -0.411336,-3.11025 -0.446308,-0.50091 -1.137937,-1.7328 -1.536967,-2.73754 -0.483879,-1.21847 -1.181893,-2.02886 -2.095988,-2.43348 -0.753776,-0.33364 -1.678438,-1.20213 -2.054802,-1.92995 -0.842704,-1.6296 -2.495465,-1.85332 -2.207031,-0.29873 0.114279,0.61592 -0.02082,0.47969 -0.338586,-0.34153 -0.558625,-1.44343 -1.262094,-2.1281 -1.827465,-1.77867 -0.187219,0.11565 0.08037,0.92356 0.594715,1.79525 0.514307,0.87168 0.817818,1.89052 0.674453,2.26409 -0.158167,0.41203 0.0017,0.67921 0.408134,0.67921 0.821329,0 0.823154,-0.0883 -0.04801,2.33343 -0.67423,1.87412 -0.636331,5.23428 0.07194,6.38033 0.467476,0.75639 1.310353,0.15059 1.721844,-1.23741 z m -2.335595,-5.26761 c 0.03166,-2.00631 -0.535132,-4.60311 -1.239084,-5.67745 -0.722557,-1.10278 -2.855943,-2.71361 -3.173429,-2.39612 -0.0981,0.0981 -0.319896,1.42984 -0.492949,2.95951 l -0.314663,2.78121 2.105643,2.19757 c 2.204346,2.30058 3.079785,2.3386 3.114482,0.13528 z m 31.182566,-3.51446 c 3.97701,-2.30374 4.962994,-3.89761 4.46507,-7.21798 -0.177247,-1.18202 -0.818729,-3.12884 -1.425509,-4.32627 -0.606781,-1.19742 -1.005964,-2.17712 -0.887072,-2.17712 0.500503,0 2.531948,4.04069 2.538401,5.04903 0.0049,0.83458 0.400667,0.40384 1.645947,-1.79339 1.28454,-2.26652 1.585538,-3.22067 1.392072,-4.41286 -0.193759,-1.19398 -0.10705,-1.46743 0.403206,-1.27162 0.357523,0.13717 0.650052,0.17339 0.650052,0.0805 0,-0.0929 0.40982,-1.29024 0.910743,-2.66066 0.500895,-1.3704 0.910722,-3.02748 0.910722,-3.68239 0,-2.57277 -1.704565,-5.8803 -3.030464,-5.8803 -0.336846,0 -0.613729,0.3586 -0.615263,0.79688 -0.0014,0.43831 -0.316366,1.39817 -0.69958,2.13307 -0.383235,0.73488 -0.582191,1.63475 -0.442145,1.99971 0.198488,0.51725 0.117032,0.54929 -0.369723,0.14543 -0.481573,-0.39967 -0.808953,-0.31418 -1.431583,0.37381 -0.443964,0.49059 -1.50122,1.12102 -2.349449,1.40095 -1.771858,0.58477 -2.210335,1.24647 -2.672185,4.03261 -0.380254,2.29398 -1.342348,4.77139 -2.493796,6.4215 -1.835865,2.63096 -3.553579,10.01806 -2.329481,10.01806 0.228193,0 0.9454,-0.63047 1.593796,-1.40105 0.648378,-0.77055 1.178879,-1.16015 1.178879,-0.86574 0,0.29442 -0.580656,1.07855 -1.290353,1.74256 -1.696117,1.58689 -2.352568,2.87907 -2.352568,4.63085 v 1.4343 l 1.707615,-1.33344 c 0.939202,-0.73342 3.185888,-2.18978 4.992668,-3.23638 z m 1.076886,-16.26383 c 0.02185,-0.53048 0.129771,-0.63839 0.275115,-0.27512 0.131491,0.32872 0.115312,0.72147 -0.03597,0.87279 -0.151282,0.15128 -0.258953,-0.11772 -0.239177,-0.59767 z m 5.671201,-2.75246 c -0.173808,-1.15906 -0.417458,-2.43977 -0.541445,-2.84605 -0.192901,-0.63202 -0.160917,-0.64007 0.221034,-0.0556 0.492706,0.75378 1.226794,5.00904 0.864117,5.00904 -0.125299,0 -0.36989,-0.94833 -0.543706,-2.10737 z m -26.669797,15.23506 c 0.516303,-0.41854 1.173253,-0.83916 1.459914,-0.93471 1.361693,-0.4539 -1.915017,-5.36249 -3.579704,-5.36249 -0.986311,0 -1.015638,6.37175 -0.04509,9.79037 l 0.517113,1.82146 0.354523,-2.27682 c 0.223102,-1.43281 0.702523,-2.55894 1.293246,-3.03781 z m 3.833389,-3.8299 c 0.221294,-0.7309 0.565852,-1.73872 0.765671,-2.23963 0.199834,-0.50089 0.493121,-1.88902 0.651784,-3.08472 0.256768,-1.93517 0.143537,-2.36036 -1.03078,-3.87062 -1.393053,-1.79154 -2.400498,-3.41312 -1.61989,-2.60734 1.962744,2.02602 3.521809,4.62663 3.410404,5.68873 -0.07142,0.68144 0.261603,1.68426 0.766581,2.30787 0.877437,1.08361 0.909449,1.08792 1.837586,0.24797 0.843512,-0.76338 1.050749,-0.78436 1.936755,-0.19606 0.562978,0.3738 1.326223,1.7254 1.764335,3.12441 l 0.772179,2.46565 1.013809,-2.26563 c 0.752606,-1.68186 0.947759,-2.76629 0.757393,-4.20877 -0.315109,-2.38783 -1.42522,-4.62388 -2.458496,-4.95207 -1.734582,-0.55093 -2.892515,-1.30553 -4.522284,-2.94706 -1.212131,-1.22088 -1.988075,-1.6594 -2.645628,-1.49514 -0.545525,0.13631 -1.422961,-0.15507 -2.120979,-0.70405 -1.706009,-1.34194 -2.290363,-1.19068 -4.449703,1.15194 -1.597635,1.73324 -1.873436,2.29474 -1.621609,3.30141 0.166943,0.66716 0.416636,2.50059 0.554976,4.07432 0.243101,2.76554 0.318312,2.90728 2.24665,4.23402 2.259627,1.55466 2.63494,1.03423 1.086098,-1.5061 -0.499971,-0.82003 -0.893631,-2.00324 -0.874785,-2.62937 0.01997,-0.66454 0.133555,-0.8541 0.272721,-0.45536 0.131145,0.37567 0.644334,1.49055 1.140398,2.47749 0.496081,0.98696 0.901961,2.68888 0.901961,3.78207 0,2.27022 0.818402,2.44119 1.464853,0.30604 z m 2.572192,-2.67733 c -0.526563,-0.63449 -0.663164,-0.58063 -1.212359,0.47793 -0.8373,1.6139 -0.295574,2.33849 0.873962,1.16895 0.781846,-0.78185 0.836317,-1.04693 0.338397,-1.64688 z m 5.905108,-7.80243 c 0,-0.14922 -0.382006,-0.81515 -0.848916,-1.47995 -0.851567,-1.21247 -1.633158,-3.31094 -2.103852,-5.64853 -0.305988,-1.51962 -0.907177,-1.59693 -1.770674,-0.22768 -1.337374,2.12068 -1.327957,2.95086 0.03907,3.44957 0.840156,0.30651 0.990681,0.47514 0.445344,0.49894 -1.089678,0.0475 -0.629394,0.71295 1.620594,2.34286 1.782049,1.29091 2.618416,1.63102 2.618416,1.06479 z m -2.108482,-10.77142 c 0.68891,-2.57062 -0.01375,-7.62738 -1.060694,-7.62738 -0.617003,0 -1.377839,3.11694 -1.121554,4.59475 0.355504,2.05004 1.127596,4.05722 1.560668,4.05722 0.190867,0 0.470575,-0.46106 0.62158,-1.02459 z m 13.493943,-3.41523 c 9.07e-4,-0.18785 0.587389,-0.73416 1.30371,-1.21403 1.315505,-0.88129 1.44718,-1.99475 0.394919,-3.33963 -0.691459,-0.88377 -1.118404,-0.6884 -1.894263,0.86685 -0.802155,1.60796 -0.958997,4.02833 -0.261034,4.02833 0.250451,0 0.455945,-0.15369 0.456668,-0.34152 z m 7.739928,75.61209 c 0,-0.26343 0.307366,-0.73407 0.68304,-1.04586 0.375694,-0.31179 0.683053,-1.04245 0.683053,-1.62372 0,-0.58126 0.372186,-1.32459 0.827062,-1.65187 0.454883,-0.32726 1.375071,-1.51714 2.044843,-2.64416 1.433732,-2.41255 1.625754,-2.11266 0.304974,0.47632 -0.50679,0.99336 -1.32645,2.05907 -1.821465,2.36822 -1.318149,0.82319 -1.162631,1.86549 0.238369,1.59765 1.416563,-0.27079 1.509153,0.39302 0.113761,0.81617 -0.563531,0.1709 -1.485637,0.7327 -2.049154,1.24847 -0.56351,0.51578 -1.024574,0.72223 -1.024574,0.45878 z m -68.863148,-2.41366 c 0.82002,-0.49998 2.049502,-0.88754 2.732198,-0.86128 1.137575,0.0437 1.101725,0.0912 -0.429114,0.5692 -0.91869,0.28681 -1.823732,0.67515 -2.01119,0.86299 -0.187477,0.18784 -0.665297,0.34076 -1.061849,0.33983 -0.402214,-7e-4 -0.06178,-0.40363 0.769955,-0.91074 z m 12.075627,-1.48145 c -0.291601,-0.64 -1.56922,-1.67166 -2.942668,-2.37616 -1.426543,-0.73176 -1.911024,-1.12798 -1.175061,-0.96105 1.51332,0.34327 1.536795,0.15782 0.247543,-1.95639 -0.800849,-1.31324 -0.84095,-1.51567 -0.197648,-0.99764 0.443881,0.35744 1.123858,1.27956 1.511048,2.04915 0.387205,0.7696 1.318803,2.04749 2.070222,2.83977 0.751419,0.79226 1.284245,1.68638 1.184061,1.98694 -0.100165,0.30055 -0.414054,0.0375 -0.697497,-0.58462 z m 70.038178,-7.91838 c -1.268398,-0.55304 -1.617466,-0.56694 -1.928341,-0.0768 -0.237455,0.37447 -0.370651,-0.0835 -0.35573,-1.22289 0.02169,-1.65238 0.07005,-1.72544 0.522395,-0.787 0.274204,0.56898 0.969137,1.15259 1.544283,1.29695 0.575152,0.1444 1.284142,0.54973 1.575541,0.90083 0.626278,0.75461 0.627896,0.75476 -1.358148,-0.11118 z M 30.064011,273.59204 c -0.03546,-1.45656 -0.294613,-3.09588 -0.575715,-3.64293 -0.382249,-0.74389 -0.380253,-0.87211 0.0086,-0.50857 0.827456,0.77489 1.241683,3.0047 0.924817,4.97832 -0.272101,1.69486 -0.296919,1.63737 -0.357036,-0.82682 z m 51.221047,1.18413 c -0.156787,-0.44696 -0.413161,-1.12005 -0.569516,-1.49573 -0.227201,-0.54578 -0.165228,-0.57085 0.308211,-0.12461 0.433865,0.40886 0.753927,0.42442 1.195326,0.058 0.767098,-0.63663 0.761336,-0.34305 -0.02309,1.16875 -0.54372,1.04803 -0.663229,1.09964 -0.911029,0.39357 z M 34.624966,260.98555 c 0,-0.62612 0.103437,-0.88227 0.229677,-0.56921 0.126326,0.31308 0.126326,0.82535 0,1.13842 -0.126327,0.31306 -0.229677,0.057 -0.229677,-0.56921 z m 8.333643,-9.13763 c -0.16505,-0.26711 -0.202483,-0.58332 -0.08313,-0.70267 0.119442,-0.11944 0.338379,0.0991 0.486684,0.48565 0.307899,0.80241 0.04543,0.94356 -0.403557,0.21702 z m -18.299583,-5.43408 c 0,-1.12704 0.08881,-1.5881 0.197338,-1.02459 0.1086,0.56353 0.1086,1.48564 0,2.04915 -0.1086,0.56352 -0.197338,0.10241 -0.197338,-1.02456 z m 45.950391,-4.35393 c -0.329393,-1.48735 -0.519641,-3.72884 -0.422743,-4.98109 0.174842,-2.25954 0.176787,-2.25573 0.258242,0.50127 0.04509,1.52794 0.303807,3.41412 0.574805,4.1915 0.271002,0.7774 0.424315,1.76875 0.340687,2.20301 -0.08365,0.43426 -0.421578,-0.42736 -0.750991,-1.91469 z m 22.230543,2.09683 c 0,-0.24104 0.497443,-0.90761 1.105444,-1.48125 0.608002,-0.57366 1.306723,-1.76021 1.552717,-2.63679 0.435686,-1.55254 0.448319,-1.55985 0.488332,-0.28287 0.02804,0.89594 -0.46345,1.86933 -1.55271,3.07503 -0.876596,0.97027 -1.593783,1.56692 -1.593783,1.32588 z m -54.620212,-8.17197 c -0.27797,-0.51938 -0.979771,-1.06339 -1.559531,-1.20891 -0.579777,-0.14543 -2.571777,-1.83308 -4.426677,-3.75014 -1.8549,-1.91707 -2.847062,-3.02993 -2.204794,-2.47301 0.642269,0.55691 1.297532,1.01256 1.456145,1.01256 0.158683,0 0.363645,-1.07579 0.45562,-2.39067 l 0.167288,-2.39067 0.08416,2.75705 c 0.07487,2.44795 0.259382,2.94826 1.64641,4.46255 0.859192,0.93801 2.198115,1.88787 2.975385,2.11079 l 1.413222,0.40531 -0.293873,-1.56645 c -0.491881,-2.62193 0.161093,-1.74533 0.725724,0.97419 0.565268,2.72291 0.38046,3.58881 -0.439113,2.0574 z m 26.073515,-2.77657 c 0.390272,-0.62612 1.006688,-3.08509 1.369833,-5.46439 0.408965,-2.6795 0.674216,-3.63273 0.696934,-2.50452 0.05421,2.6953 -1.092005,7.50911 -1.991281,8.36242 -0.740644,0.70276 -0.74491,0.68051 -0.07555,-0.39351 z m -27.642803,-3.57367 -0.862481,-1.20766 1.06486,1.01192 c 0.585681,0.55656 0.9738,1.1 0.862498,1.20766 -0.111354,0.10773 -0.590516,-0.34771 -1.064877,-1.01192 z m 14.232729,-0.72869 c -1.620095,-1.10088 -3.951042,-4.34959 -3.120833,-4.34959 0.235563,0 0.727428,0.57844 1.093017,1.28542 0.776598,1.50175 1.988678,2.6115 2.40146,2.19871 0.158683,-0.15867 0.276903,-1.67355 0.262635,-3.36629 l -0.02598,-3.07772 0.379152,3.14984 c 0.208542,1.73241 0.499127,3.62787 0.64578,4.21214 0.327795,1.30607 0.365865,1.30729 -1.635274,-0.0525 z m 21.009906,-0.65292 c 0,-0.25045 0.204929,-0.58199 0.455376,-0.73679 0.250452,-0.15473 0.455361,-0.0766 0.455361,0.17393 0,0.25045 -0.204909,0.58202 -0.455361,0.73681 -0.250447,0.15472 -0.455376,0.0766 -0.455376,-0.17395 z M 42.741341,225.5396 c -0.145601,-1.61441 -0.03683,-2.53398 0.323683,-2.73566 0.298674,-0.16711 0.746754,-0.81449 0.995707,-1.43872 0.39218,-0.9833 0.456514,-1.01158 0.481521,-0.2117 0.01549,0.50779 -0.264958,1.34277 -0.624094,1.85549 -0.359136,0.51274 -0.721473,1.83905 -0.80522,2.94737 l -0.152315,2.01511 z m -15.532223,0.49658 c -0.566422,-0.72223 -0.550312,-0.73834 0.171935,-0.17193 0.758527,0.59487 0.999752,0.96881 0.624971,0.96881 -0.09449,0 -0.453174,-0.3586 -0.796889,-0.79689 z m 30.148219,-0.83484 c 0.02185,-0.53046 0.12977,-0.63837 0.275115,-0.27511 0.131487,0.32873 0.115307,0.72147 -0.03597,0.87279 -0.151283,0.15128 -0.258949,-0.11772 -0.239177,-0.59768 z m 15.937808,-0.91072 c 0.02185,-0.53048 0.129771,-0.63837 0.275115,-0.27512 0.131491,0.32871 0.115312,0.72146 -0.03597,0.87278 -0.151282,0.15129 -0.258953,-0.11772 -0.239177,-0.59766 z"
       id="HB"
       inkscape:connector-curvature="0"
       sodipodi:nodetypes="csssscsssccccccssscccccccccccccsccccsccsscsccssccccccccsccccccccccccsccccccccccccccccccccsccsccsccccscccccccccccccccccscscsccccsccscsccccccccscccccscccccsccccccccscccccccccccscccccsccsccsccscccccccccccscssscsccsccccccccccccsccccccccccccccccsccccccccscscsccscsscccscccsccccsccccccccccccccssccscscccsccscsccccccssccssscccccccccccccccccccsccscscccccsccscccscccscccccccccscsccscccccscsccsccccccccsccccscsccscccsccccccccccccccccsccccccscccccscccssscccscccccccsccccccscsccccccssccccsccccscsccccccccscscccccccsccccccccccccccccsccccsccccscscccccscccsccccscccscccccsccccccccccsscscccccccccccccscccccscccscccccccccscsscccscscccscssscccccccccsccssccsccccscccccccccccccccscscscccccccscscscsccccccsccccsccccsssccccscccscccccccccccscccccscccccscccscccccsscccscsccccsccccccsccscscssccccccccscscsccccccccccccsccccsscccccccssscccccccccccccscccccscccscccscccccccscsccccsscccsccccccccccccsccccccccccccccccccccccccccccccccscsscccccscsscccsccsssccsccscscccccccsccccccccccccccsccccccccaascaccccccccccscccscccccccc">
      <title
         id="title1634">habr obecný</title>
    </path>
  </g>
</svg>
