<?xml version="1.0" encoding="UTF-8" standalone="no"?>
<!-- Created with Inkscape (http://www.inkscape.org/) -->

<svg
   xmlns:dc="http://purl.org/dc/elements/1.1/"
   xmlns:cc="http://creativecommons.org/ns#"
   xmlns:rdf="http://www.w3.org/1999/02/22-rdf-syntax-ns#"
   xmlns:svg="http://www.w3.org/2000/svg"
   xmlns="http://www.w3.org/2000/svg"
   xmlns:sodipodi="http://sodipodi.sourceforge.net/DTD/sodipodi-0.dtd"
   xmlns:inkscape="http://www.inkscape.org/namespaces/inkscape"
   width="40.531616mm"
   height="65.511894mm"
   viewBox="0 0 100 100"
   version="1.1"
   id="svg1660"
   inkscape:version="0.92.5 (2060ec1f9f, 2020-04-08)"
   sodipodi:docname="JD.svg">
  <defs
     id="defs1654" />
  <sodipodi:namedview
     id="base"
     pagecolor="#ffffff"
     bordercolor="#666666"
     borderopacity="1.0"
     inkscape:pageopacity="0.0"
     inkscape:pageshadow="2"
     inkscape:zoom="0.35"
     inkscape:cx="320.88093"
     inkscape:cy="575.23059"
     inkscape:document-units="mm"
     inkscape:current-layer="layer1"
     showgrid="false"
     fit-margin-top="0"
     fit-margin-left="0"
     fit-margin-right="0"
     fit-margin-bottom="0"
     inkscape:window-width="960"
     inkscape:window-height="1015"
     inkscape:window-x="0"
     inkscape:window-y="0"
     inkscape:window-maximized="0" />
  <metadata
     id="metadata1657">
    <rdf:RDF>
      <cc:Work
         rdf:about="">
        <dc:format>image/svg+xml</dc:format>
        <dc:type
           rdf:resource="http://purl.org/dc/dcmitype/StillImage" />
        <dc:title></dc:title>
      </cc:Work>
    </rdf:RDF>
  </metadata>
  <g
     inkscape:label="Layer 1"
     inkscape:groupmode="layer"
     id="layer1"
     transform="translate(-4.68061,-235.51787)">
    <path
       style="fill:#000000;stroke-width:0.65278256"
       d="m 46.720599,368.9118 c 1.99341,-3.15775 4.52613,-10.83374 4.01453,-12.16694 -0.20898,-0.54483 0.0851,-3.92753 0.65356,-7.51711 0.56854,-3.58957 0.92959,-7.83541 0.80236,-9.43519 -0.12731,-1.59978 -0.041,-2.9087 0.19146,-2.9087 0.23265,0 0.54226,-1.02275 0.6882,-2.27279 l 0.26535,-2.27279 -2.41617,1.45682 c -2.75752,1.66263 -6.60583,6.07073 -8.16113,9.34831 -0.58113,1.22464 -1.3169,2.22663 -1.63502,2.22663 -0.75191,0 -0.72975,-0.45581 0.0975,-2.00127 0.87023,-1.62604 0.61633,-1.5937 -2.89974,0.36931 -3.18134,1.77612 -3.65105,1.91485 -3.65105,1.07831 0,-0.3045 1.23472,-1.11041 2.74381,-1.79092 1.50909,-0.68051 4.85243,-3.19244 7.42968,-5.58208 2.57722,-2.38964 5.45503,-4.84877 6.39513,-5.46476 0.94011,-0.61598 1.70929,-1.40975 1.70929,-1.76392 0,-0.97492 -8.84932,0.0923 -11.99967,1.44715 -3.51938,1.51354 -7.58379,2.22895 -7.58379,1.33488 0,-0.37529 0.47997,-0.68236 1.06663,-0.68236 0.58665,0 2.20018,-0.33962 3.58564,-0.75471 1.90545,-0.57089 2.35355,-0.95408 1.83968,-1.57323 -0.87085,-1.04933 1.35829,-1.48796 7.37732,-1.45161 5.63035,0.034 6.36698,-0.57265 6.36698,-5.2435 0,-2.83183 -0.17418,-3.46685 -0.78333,-2.85759 -0.43085,0.43084 -1.27614,0.78334 -1.87841,0.78334 -0.6023,0 -1.46079,0.44063 -1.90775,0.97917 -0.44693,0.53855 -1.4937,0.97918 -2.32613,0.97918 -0.83242,0 -1.69505,0.29375 -1.91695,0.65278 -0.64501,1.04366 -5.41876,0.80441 -5.66398,-0.28386 -0.15987,-0.70904 -0.90823,-0.45925 -3.07994,1.02788 -1.924,1.31751 -3.01799,1.72332 -3.32155,1.23214 -0.31507,-0.50978 -0.70745,-0.42538 -1.29092,0.27768 -0.46105,0.55554 -1.40915,1.01007 -2.10685,1.01007 -0.6977,0 -1.86188,0.31755 -2.58709,0.70567 -2.27859,1.21947 -2.09548,0.12882 0.51537,-3.06976 2.24366,-2.74869 2.3235,-2.95979 0.72581,-1.91905 -1.7611,1.1472 -1.79514,1.14319 -1.79514,-0.21127 0,-1.22866 -0.37366,-1.38064 -3.39447,-1.38064 -1.92141,0 -3.12536,-0.24151 -2.77432,-0.55654 1.52888,-1.37209 11.10792,-3.07318 22.7737,-4.04424 12.63939,-1.05211 12.1175,-0.85751 12.1175,-4.5186 0,-2.19847 -0.35542,-3.40282 -1.24073,-4.20402 -0.81223,-0.73503 -1.38919,-0.88271 -1.6705,-0.42755 -0.66859,1.08179 -1.65609,0.81871 -1.67807,-0.44707 -0.0197,-1.08797 -0.0516,-1.08797 -0.68522,0 -0.36596,0.6283 -0.94455,1.14237 -1.28574,1.14237 -0.34119,0 -0.62484,-0.51407 -0.63032,-1.14237 -0.007,-0.88762 -0.13471,-0.94538 -0.56978,-0.25899 -0.44286,0.69888 -0.85849,0.7235 -1.99007,0.11788 -1.09762,-0.58743 -1.64837,-0.58451 -2.36776,0.0126 -0.69193,0.57426 -1.16689,0.5876 -1.81347,0.051 -0.48185,-0.39988 -1.08099,-0.52211 -1.33148,-0.27163 -0.25047,0.25048 -0.6249,-0.19272 -0.83205,-0.98484 -0.20724,-0.79216 -0.87112,-1.44028 -1.47551,-1.44028 -0.60437,0 -1.42333,-0.32446 -1.81991,-0.72103 -0.39656,-0.39658 -2.38557,-0.70116 -4.42001,-0.67686 -2.62272,0.0313 -3.623,-0.18623 -3.43786,-0.74773 0.17197,-0.52175 4.25189,-1.18198 11.95965,-1.93538 6.43419,-0.62891 12.33667,-1.28972 13.11658,-1.46847 1.97406,-0.45241 3.07286,-4.11563 2.53229,-8.44222 -0.40131,-3.21207 -0.53511,-3.41892 -2.02681,-3.13377 -0.87842,0.16792 -1.59712,0.52688 -1.59712,0.79768 0,0.2708 -1.83595,0.69938 -4.0799,0.95239 -2.24393,0.25302 -4.58763,0.91826 -5.20819,1.47832 -0.62057,0.56006 -2.16275,1.13229 -3.4271,1.27162 -1.956,0.21556 -2.29882,0.0563 -2.29882,-1.06761 0,-1.59276 -1.41717,-1.70563 -3.58456,-0.28549 -1.80612,1.18341 -2.94326,0.76848 -2.94326,-1.07397 0,-0.80799 -0.44772,-1.26704 -1.23573,-1.26704 -0.67964,0 -1.4048,-0.44063 -1.61148,-0.97918 -0.2403,-0.62642 -1.24648,-0.97917 -2.79276,-0.97917 -1.32935,0 -2.88076,-0.4156 -3.44758,-0.92356 -0.56681,-0.50795 -2.05871,-1.21584 -3.31532,-1.57308 -1.97173,-0.56054 -1.47986,-0.66032 3.59029,-0.72825 4.69937,-0.063 5.61379,-0.22464 4.5695,-0.80793 -1.92768,-1.07667 -2.0037,-1.20905 -1.03722,-1.80636 0.67765,-0.41881 0.55924,-0.64878 -0.50849,-0.98766 -0.7655,-0.24297 -1.39183,-0.74714 -1.39183,-1.12039 0,-0.37324 0.3672,-0.53256 0.81598,-0.35402 0.44879,0.17853 2.07488,0.83354 3.61353,1.45557 2.67433,1.08116 2.85528,1.07871 4.10862,-0.0556 1.11232,-1.00662 1.69788,-1.08329 3.86202,-0.50565 1.40301,0.37449 2.78541,0.4658 3.07197,0.2029 0.2866,-0.26288 1.84294,-0.27945 3.45859,-0.0368 1.61563,0.24265 3.37815,0.23002 3.91669,-0.0281 2.22237,-1.06495 3.70183,-1.39071 5.71184,-1.25768 2.03093,0.13442 2.12155,0.0388 2.12155,-2.23726 0,-3.05034 -1.08732,-5.12641 -2.41754,-4.61595 -0.55653,0.21356 -1.37628,0.0858 -1.82166,-0.28381 -0.57227,-0.47493 -1.0502,-0.38248 -1.62915,0.31513 -1.22455,1.47548 -2.84233,1.26343 -2.42867,-0.31834 0.39396,-1.50655 0.2181,-1.56951 -1.62604,-0.58251 -1.23748,0.66229 -1.31552,0.58144 -0.92819,-0.96178 0.33485,-1.33411 0.21736,-1.60598 -0.56438,-1.306 -0.6992,0.26831 -0.98725,-0.0458 -0.98725,-1.0765 0,-1.09213 -0.20404,-1.28592 -0.81796,-0.77649 -0.44987,0.37337 -1.78216,0.6121 -2.96065,0.53051 -1.18988,-0.0824 -2.47412,0.25099 -2.88799,0.74969 -0.40993,0.49392 -1.61642,1.3485 -2.68112,1.89908 -1.90182,0.98347 -1.92901,0.97412 -1.54876,-0.53263 0.34958,-1.38524 0.30423,-1.42312 -0.46845,-0.39131 -1.12922,1.50795 -2.62287,1.50795 -2.04663,0 0.32316,-0.84561 0.0804,-0.76082 -0.93475,0.3264 -1.64938,1.76657 -2.09372,1.84545 -1.83866,0.32638 0.14112,-0.84026 -0.19664,-1.10124 -1.27696,-0.98686 -1.75051,0.18533 -1.92343,-0.97199 -0.32638,-2.18432 1.01703,-0.77203 0.88143,-0.86946 -1.23573,-0.88795 -1.49683,-0.0131 -2.51734,-0.38364 -2.75383,-0.99995 -0.20675,-0.53855 -0.8256,-0.97918 -1.37542,-0.97918 -0.54981,0 -0.99966,-0.31354 -0.99966,-0.69677 0,-0.38322 0.51407,-0.53715 1.14237,-0.34205 1.96511,0.61018 12.17511,0.91592 13.54525,0.40561 0.71806,-0.26745 1.95448,-0.19271 2.74758,0.16607 1.06241,0.48061 1.83568,0.3969 2.93751,-0.31804 1.11975,-0.72655 1.96546,-0.81186 3.3659,-0.33951 2.33069,0.78613 11.19471,-0.60997 12.56352,-1.97877 0.65709,-0.65709 0.81569,-1.66179 0.52493,-3.32534 -0.59699,-3.41553 -1.87358,-4.21304 -5.81988,-3.6358 -1.79514,0.26259 -4.17797,0.54619 -5.29515,0.63024 -2.33026,0.1753 -4.82298,1.35201 -4.82298,2.27672 0,0.9472 -2.13899,0.75704 -3.68791,-0.32786 -0.75198,-0.52671 -3.53455,-1.1321 -6.18347,-1.34531 -5.50965,-0.44345 -6.6704,-0.72606 -6.18801,-1.50659 0.1885,-0.30518 4.57882,-0.74735 9.75599,-0.9826 7.20028,-0.32717 10.77391,-0.82032 15.20204,-2.09787 6.20254,-1.78946 7.70191,-2.71545 7.06873,-4.3655 -0.42493,-1.10737 -2.69178,-1.00754 -4.98453,0.21951 -0.66995,0.35854 -1.4997,0.47785 -1.8439,0.26512 -0.34417,-0.21272 -1.22001,-0.0687 -1.94628,0.31995 -0.72627,0.38869 -2.86206,0.81079 -4.74617,0.938 -1.88411,0.12721 -5.26162,0.45213 -7.50555,0.72204 -3.60869,0.43406 -4.0799,0.36151 -4.0799,-0.62815 0,-0.76038 0.47059,-1.08076 1.46875,-0.99991 4.15451,0.33653 6.37734,-0.0938 7.67399,-1.48555 0.80552,-0.86462 1.54795,-1.19738 1.82058,-0.81598 0.81901,1.14577 2.74319,1.07268 6.56312,-0.2493 7.03298,-2.4339 9.44542,-4.61696 7.1161,-6.43946 -0.44879,-0.35114 -3.94541,-0.64597 -7.77028,-0.65518 -10.42137,-0.0251 -11.15031,-1.76899 -0.87909,-2.10309 5.73683,-0.18659 9.08846,-1.34285 9.35835,-3.22846 0.20305,-1.41937 0.0582,-1.49859 -1.95835,-1.07095 -2.56913,0.5448 -8.30947,0.47577 -9.25944,-0.11135 -0.87416,-0.54026 1.33071,-1.38333 3.81779,-1.45981 3.11633,-0.0958 7.507,-2.36386 7.507,-3.8778 0,-1.8705 1.11982,-2.29005 1.95366,-0.73198 0.39248,0.73336 1.92474,2.09794 3.40505,3.03241 2.23033,1.40796 2.51051,1.80028 1.63531,2.29006 -0.58085,0.32506 -1.95847,0.43205 -3.06134,0.23776 -1.91292,-0.33701 -1.98529,-0.27007 -1.57156,1.45392 0.55813,2.32585 0.1204,2.06098 4.75646,2.87762 5.24798,0.92441 4.96472,2.20016 -0.48283,2.17459 -3.69159,-0.0173 -4.02363,0.0973 -4.02363,1.38883 0,0.77424 0.3672,1.69581 0.81598,2.04791 1.56219,1.22566 7.32964,2.80348 11.749,3.21422 2.44671,0.2274 4.60352,0.66415 4.79288,0.97058 0.18948,0.30642 0.10658,0.58303 -0.18381,0.6147 -4.08535,0.44534 -8.5226,0.53763 -9.31719,0.19377 -2.06168,-0.89216 -5.24574,-0.76882 -5.24574,0.2032 0,0.64193 -0.41303,0.8079 -1.30557,0.52463 -1.39027,-0.44126 -1.59172,0.17176 -0.90189,2.74456 0.58572,2.18452 5.46576,3.47166 16.43105,4.3338 10.17139,0.79972 12.66192,2.02711 4.26694,2.10284 -2.57579,0.0232 -5.07268,0.35175 -5.54865,0.73004 -1.22591,0.97431 -4.98261,0.94021 -8.04602,-0.073 -1.43611,-0.47502 -3.34549,-0.77771 -4.24308,-0.67266 -0.89757,0.10506 -1.85226,0.21549 -2.12153,0.24539 -0.26927,0.0299 -0.48959,1.06873 -0.48959,2.30846 0,2.04864 0.22303,2.31601 2.44794,2.93388 1.34635,0.3739 6.48701,0.68146 11.4237,0.68346 5.16165,0.002 8.97576,0.26429 8.97576,0.61702 0,0.33736 -1.10159,0.70455 -2.44794,0.81598 -1.93166,0.15987 -2.44827,0.47398 -2.44948,1.48937 -0.001,1.09425 -0.42036,1.27329 -2.80107,1.1967 -2.48048,-0.0798 -2.75427,0.0525 -2.40239,1.16118 0.49149,1.54856 -0.49897,1.60727 -2.70708,0.16047 -1.27396,-0.83474 -1.78105,-0.90247 -2.16048,-0.28854 -0.65786,1.06443 -3.53648,0.32063 -4.99457,-1.29055 -1.69804,-1.87631 -2.3326,-1.51473 -2.10781,1.20108 0.17813,2.1529 0.47794,2.53724 2.48734,3.18891 1.9544,0.63384 8.91057,0.69109 22.84737,0.18802 0.89757,-0.0324 4.35986,0.15386 7.69395,0.41393 6.75051,0.52654 7.9739,1.7837 2.06626,2.12328 -1.93555,0.11124 -3.8672,0.49109 -4.29253,0.84408 -0.42534,0.353 -1.51459,0.45576 -2.4206,0.22837 -2.72202,-0.68319 -4.29206,0.28105 -6.02458,3.70007 -1.81261,3.57702 -3.33458,4.60314 -4.48793,3.02581 -0.53931,-0.73753 -1.06026,-0.84979 -1.86185,-0.40119 -1.48092,0.82877 -5.43991,-0.28576 -7.33322,-2.06444 -0.80414,-0.75545 -3.11265,-1.75725 -5.13004,-2.2262 -3.48521,-0.81016 -3.66798,-0.78973 -3.66798,0.41013 0,3.90522 3.14673,5.51728 12.5113,6.40955 3.62729,0.34561 6.96061,0.93175 7.40737,1.30254 0.44677,0.37078 3.1979,0.85811 6.1136,1.08296 2.9157,0.22483 5.3013,0.63454 5.3013,0.91043 0,0.86289 -1.52143,1.11907 -4.6312,0.77982 l -2.99924,-0.3272 0.299,2.03725 c 0.33961,2.31383 -0.62314,2.66335 -2.91479,1.05822 -1.68944,-1.18333 -3.46221,-0.64627 -3.46221,1.04888 0,0.67964 -0.27993,1.23572 -0.62206,1.23572 -0.96092,0 -4.07642,-1.43421 -6.09627,-2.80641 -2.02763,-1.37747 -5.03176,-1.0723 -5.03176,0.51114 0,0.94237 -2.64595,2.7602 -3.26389,2.24238 -0.48839,-0.40923 -0.8017,3.94318 -0.39801,5.52867 0.67925,2.66786 5.19666,4.22561 14.36441,4.95334 4.6298,0.3675 10.35795,0.66983 12.72925,0.67183 4.65884,0.004 9.20736,0.98474 9.20736,1.98539 0,0.34215 -1.1943,0.6221 -2.65403,0.6221 -1.45973,0 -3.24986,0.31886 -3.97805,0.70859 -1.3168,0.70471 -1.31594,0.7172 0.15667,2.28474 1.69038,1.79931 0.79374,2.04725 -2.06237,0.57029 -1.06981,-0.55321 -2.18116,-0.85996 -2.46965,-0.68165 -0.28852,0.17831 -1.60633,-0.41088 -2.9285,-1.30931 -1.40281,-0.95324 -2.33174,-1.28103 -2.23059,-0.78711 0.0952,0.46553 -0.26729,0.75199 -0.80584,0.63658 -0.78519,-0.16826 -0.81751,-0.0454 -0.16308,0.62014 1.0909,1.10961 1.03788,2.09925 -0.0893,1.66671 -0.64747,-0.24846 -0.80594,0.0325 -0.55648,0.98639 0.29693,1.13548 -0.27013,0.94026 -3.81428,-1.31312 -2.2897,-1.45579 -4.26406,-2.54589 -4.38751,-2.42245 -0.12336,0.12343 0.22624,1.09575 0.77685,2.16069 1.30865,2.53067 0.59871,3.14632 -1.48963,1.29176 -0.91334,-0.8111 -1.26635,-0.96066 -0.78448,-0.33236 0.73876,0.9632 0.73055,1.14237 -0.0523,1.14237 -0.51068,0 -1.21944,-0.29091 -1.57501,-0.64647 -0.40448,-0.40449 -1.40328,-0.42942 -2.66839,-0.0666 -1.5616,0.44785 -2.27997,0.33495 -3.15539,-0.49591 -1.0706,-1.01611 -1.11271,-0.88672 -0.75904,2.33264 0.51698,4.70623 1.24661,5.76235 4.83458,6.9979 3.08887,1.0637 16.91055,3.18614 17.70998,2.71953 0.2292,-0.13382 1.1512,0.0351 2.04877,0.37523 1.53675,0.58245 1.55982,0.6591 0.39567,1.31392 -0.67997,0.38247 -2.43223,0.78459 -3.8939,0.8936 -1.5226,0.11357 -2.99295,0.65687 -3.44287,1.27217 -0.62786,0.85865 -1.05777,0.92814 -2.14438,0.3466 -1.63408,-0.87454 -1.75986,-0.24791 -0.27872,1.38873 1.50404,1.66192 -0.0123,1.54024 -2.35029,-0.18866 -1.02841,-0.76035 -2.21003,-1.1722 -2.62583,-0.91523 -0.41577,0.25697 -1.31529,-0.039 -1.99893,-0.65765 -0.7302,-0.66082 -1.80227,-0.97861 -2.59871,-0.77034 -0.74564,0.19499 -2.15064,-0.0602 -3.12218,-0.56701 -2.94383,-1.53578 -3.39839,-1.22578 -3.39839,2.31756 0,2.95009 0.17986,3.3401 1.96484,4.26321 3.49549,1.80759 9.46118,3.39389 10.7974,2.87106 2.23317,-0.87377 3.55732,-0.65265 3.55732,0.59404 0,0.74995 0.84877,1.51676 2.31614,2.09252 1.2739,0.49983 2.63175,1.28904 3.01748,1.75379 0.91299,1.10011 -0.0173,1.03989 -2.06972,-0.13416 -2.3643,-1.35156 -3.9167,-1.22219 -3.9167,0.32639 0,0.71806 -0.29374,1.30556 -0.65277,1.30556 -0.35903,0 -0.65278,-0.85691 -0.65278,-1.90425 0,-1.75593 -0.25358,-1.95864 -3.25548,-2.60243 -1.7905,-0.384 -5.02176,-1.41589 -7.18059,-2.2931 l -3.92514,-1.59493 0.0247,3.38138 c 0.13151,18.73853 2.90314,37.93437 5.71381,39.57291 0.61417,0.35805 0.79944,0.16926 0.79944,0.16926 l -20.75675,0.0272 c -1.25833,-0.5958 0.0975,-2.24623 0.81033,-3.38091 z"
       id="JD"
       inkscape:connector-curvature="0"
       sodipodi:nodetypes="ccccsccscsccssccscssccsscscsccsccscccsscssccccscccccccscccscscscccscsscsscccccsccccccccsccccccsscscsccccccsccsscccccscscscscssccccscssccccsccccsscccccccscccccsccscccccsccssccccccccccccccccscscscsccccsscsccccssccccccccccsccccscsscccccccsccccccsccscccssssccccccc">
      <title
         id="title1415">jedle bělokorá</title>
    </path>
  </g>
</svg>
