<?xml version="1.0" encoding="UTF-8" standalone="no"?>
<!-- Created with Inkscape (http://www.inkscape.org/) -->

<svg
   xmlns:dc="http://purl.org/dc/elements/1.1/"
   xmlns:cc="http://creativecommons.org/ns#"
   xmlns:rdf="http://www.w3.org/1999/02/22-rdf-syntax-ns#"
   xmlns:svg="http://www.w3.org/2000/svg"
   xmlns="http://www.w3.org/2000/svg"
   xmlns:sodipodi="http://sodipodi.sourceforge.net/DTD/sodipodi-0.dtd"
   xmlns:inkscape="http://www.inkscape.org/namespaces/inkscape"
   width="40.531616mm"
   height="65.511894mm"
   viewBox="0 0 100 100"
   version="1.1"
   id="svg1660"
   inkscape:version="0.92.5 (2060ec1f9f, 2020-04-08)"
   sodipodi:docname="JS.svg">
  <defs
     id="defs1654" />
  <sodipodi:namedview
     id="base"
     pagecolor="#ffffff"
     bordercolor="#666666"
     borderopacity="1.0"
     inkscape:pageopacity="0.0"
     inkscape:pageshadow="2"
     inkscape:zoom="0.98994949"
     inkscape:cx="153.80239"
     inkscape:cy="276.77495"
     inkscape:document-units="mm"
     inkscape:current-layer="layer1"
     showgrid="false"
     fit-margin-top="0"
     fit-margin-left="0"
     fit-margin-right="0"
     fit-margin-bottom="0"
     inkscape:window-width="960"
     inkscape:window-height="1015"
     inkscape:window-x="0"
     inkscape:window-y="0"
     inkscape:window-maximized="0" />
  <metadata
     id="metadata1657">
    <rdf:RDF>
      <cc:Work
         rdf:about="">
        <dc:format>image/svg+xml</dc:format>
        <dc:type
           rdf:resource="http://purl.org/dc/dcmitype/StillImage" />
        <dc:title></dc:title>
      </cc:Work>
    </rdf:RDF>
  </metadata>
  <g
     inkscape:label="Layer 1"
     inkscape:groupmode="layer"
     id="layer1"
     transform="translate(-4.68061,-235.51787)">
    <path
       style="fill:#000000;stroke-width:0.44662929"
       d="m 53.354265,371.68296 c 0.938405,-0.0292 1.391779,-1.5082 1.795931,-2.86691 0.597198,-2.00767 1.002179,-8.19323 1.016191,-15.52037 0.01184,-6.52359 -0.95876,-9.70431 -3.940698,-12.90559 -1.860498,-1.99737 -1.942723,-2.03329 -4.019663,-1.75609 -2.572551,0.34334 -5.384331,2.47546 -6.09878,4.62462 -0.642201,1.93181 -2.186612,3.0057 -5.110783,3.55368 -1.720897,0.32249 -2.658473,0.78205 -3.349711,1.64191 -1.508946,1.87699 -2.043601,2.96512 -2.060668,4.19387 -0.01688,1.15608 -0.738487,2.2108 -1.514262,2.2108 -0.234589,0 -0.118333,-0.35172 0.258237,-0.78159 0.37662,-0.42988 0.781312,-1.38456 0.899307,-2.12149 0.117994,-0.73694 0.364973,-1.69162 0.548818,-2.12149 0.285702,-0.66804 0.08069,-0.7816 -1.410701,-0.7816 -0.95974,0 -1.986157,0.24118 -2.280941,0.53596 -0.381414,0.38141 -0.535955,0.3901 -0.535955,0.03 0,-0.62759 1.671623,-1.21806 3.012912,-1.06426 0.551687,0.0633 1.636326,-0.33589 2.410313,-0.887 0.773969,-0.55113 2.428762,-1.16353 3.67731,-1.36091 2.854488,-0.45122 4.33732,-1.54495 5.191606,-3.82928 0.835095,-2.233 3.300893,-4.39943 5.359552,-4.70887 0.859773,-0.12913 2.016761,-0.38019 2.571115,-0.55771 0.799933,-0.25616 1.306803,-0.002 2.456461,1.23295 1.343652,1.44307 2.971272,2.5697 3.712355,2.5697 0.495883,0 -0.782388,-12.87943 -1.377766,-13.88192 -1.579924,-2.66022 -3.810311,-4.6681 -6.719087,-6.04879 -1.923445,-0.91296 -3.908269,-2.28713 -5.025941,-3.47961 -2.167944,-2.31303 -4.633219,-3.35131 -5.752766,-2.42285 -0.935769,0.77603 -1.923361,3.15641 -1.923361,4.63583 0,0.63955 -0.301468,1.4643 -0.669935,1.83277 -0.368484,0.36847 -0.669953,1.07678 -0.669953,1.57405 0,1.05697 -1.349796,3.49837 -1.934182,3.49837 -0.220931,0 -0.07714,-0.49537 0.319616,-1.10085 1.136528,-1.73456 0.89718,-2.39038 -1.065209,-2.91881 -2.213875,-0.59613 -2.352311,-1.03987 -0.198346,-0.63578 1.292926,0.24256 1.791103,0.10736 2.679776,-0.72757 0.600388,-0.56402 1.091609,-1.5186 1.091609,-2.1213 0,-1.03899 -0.09841,-1.08008 -1.898175,-0.79254 -2.176433,0.34771 -1.86585,-0.23833 0.558271,-1.05344 1.60854,-0.54086 3.921722,-2.95567 3.364633,-3.51242 -0.172164,-0.17206 -1.231346,-0.29284 -2.353763,-0.2684 -1.697973,0.037 -2.235549,0.27421 -3.200656,1.41235 -0.637964,0.75237 -1.963858,1.76839 -2.946437,2.25787 -1.754506,0.87399 -3.349727,2.9011 -3.349727,4.2566 0,0.37805 -0.440091,0.9956 -0.97797,1.37237 -1.135466,0.7953 -1.764314,0.52032 -0.695172,-0.30401 0.394969,-0.30451 0.782258,-0.95564 0.860651,-1.44692 0.209351,-1.31189 -2.283321,-1.49092 -3.410869,-0.24499 -0.842944,0.93144 -2.029455,1.23568 -2.029455,0.52039 0,-0.217 0.452211,-0.51607 1.004929,-0.66461 0.992386,-0.26672 0.988199,-0.28389 -0.334976,-1.37594 -0.736934,-0.6082 -1.128865,-1.11305 -0.870931,-1.12189 0.257933,-0.008 0.692656,0.20765 0.966052,0.48105 0.615968,0.61596 4.539042,0.82955 5.599406,0.30485 1.215478,-0.60145 0.936021,-1.06092 -0.997637,-1.64025 -0.978578,-0.2932 -1.999779,-0.94518 -2.269326,-1.44884 -0.704743,-1.31681 -0.222536,-1.51285 0.607021,-0.24677 1.445003,2.20535 6.073663,1.70321 8.199877,-0.88961 0.529085,-0.64518 1.725269,-1.43547 2.658168,-1.7562 1.51082,-0.51939 2.010363,-0.47567 4.571115,0.40013 1.783034,0.60981 3.657155,1.67811 4.934517,2.8128 2.41958,2.1493 3.407763,2.71171 6.24554,3.55441 1.158236,0.34397 2.932999,1.33338 3.9439,2.19867 1.010908,0.86529 1.936834,1.57326 2.057635,1.57326 0.120862,0 -0.238004,-1.35664 -0.797304,-3.01475 -0.5593,-1.6581 -1.155178,-3.84064 -1.324173,-4.8501 -0.347988,-2.07861 -1.967551,-3.57942 -4.377205,-4.05624 -0.800607,-0.15834 -2.298243,-0.75672 -3.328104,-1.32954 -1.087828,-0.60508 -2.620812,-1.04152 -3.658336,-1.04152 -0.982225,0 -1.879321,-0.15074 -1.993534,-0.33495 -0.309486,-0.49921 4.307712,-0.0933 4.956226,0.43557 0.830114,0.67714 0.624594,-0.0645 -0.706262,-2.54877 -0.655554,-1.22367 -1.731076,-2.5235 -2.39004,-2.8885 -1.074003,-0.59491 -1.363199,-0.58495 -2.791439,0.096 -1.574611,0.75089 -2.075016,0.54137 -1.081026,-0.45264 0.385297,-0.3853 0.103815,-0.75331 -1.135634,-1.48457 -2.253577,-1.32964 -1.710701,-1.61085 0.691728,-0.35832 2.008845,1.04733 4.844544,1.5344 4.844544,0.83211 0,-0.22021 -0.521606,-0.7615 -1.159114,-1.20286 -1.968803,-1.36298 -4.946806,-4.89456 -4.502225,-5.33914 0.308625,-0.30863 2.409401,2.00369 2.76254,3.04074 0.138082,0.40546 0.760905,0.86518 1.384098,1.02158 0.767133,0.19254 1.410955,0.89202 1.993567,2.1659 0.473295,1.03482 1.162119,2.27164 1.530721,2.74847 0.368603,0.47683 0.670189,1.22352 0.670189,1.65932 0,1.33737 2.623513,3.94983 3.966557,3.94983 0.656836,0 1.653932,0.32198 2.215766,0.71551 1.256835,0.88032 1.49318,0.66872 1.654574,-1.48131 0.431329,-5.74564 -9.076396,-16.17386 -15.77857,-17.30618 -1.665664,-0.28142 -1.929253,-0.15834 -4.701567,2.19348 -1.714988,1.45493 -3.551668,2.60856 -4.414412,2.77272 -3.086781,0.58732 -4.772668,2.04064 -5.420186,4.67255 -0.15817,0.64311 -1.194935,2.27132 -2.303796,3.61824 -1.108879,1.34693 -2.016121,2.67984 -2.016121,2.96204 0,0.28219 -0.200978,0.51307 -0.44664,0.51307 -0.773514,0 -0.494969,-0.70149 1.116577,-2.81207 0.859772,-1.126 1.563199,-2.2603 1.563199,-2.52068 0,-0.60194 -3.872398,-0.6264 -4.242975,-0.0268 -0.354625,0.57378 -1.116577,0.57959 -1.116577,0.008 0,-0.5659 1.798075,-1.00948 4.353442,-1.074 1.321707,-0.0334 2.13273,-0.2834 2.338604,-0.72103 0.173362,-0.36847 0.549122,-1.12215 0.835027,-1.67485 0.467656,-0.90404 0.414837,-1.00493 -0.52608,-1.00493 -2.004085,0 -1.648751,-0.62326 0.691541,-1.21299 4.619225,-1.16403 7.046198,-1.94307 7.043413,-2.26085 -0.0016,-0.17737 -0.590698,-0.65694 -1.309199,-1.06572 -1.337981,-0.7612 -4.701736,-0.67484 -5.201347,0.13352 -0.131331,0.21251 -0.880114,0.36305 -1.663976,0.33456 -0.879406,-0.0319 -1.083102,-0.12627 -0.531921,-0.24634 0.491289,-0.10703 1.295222,-0.36951 1.786512,-0.58339 0.491288,-0.21388 1.445964,-0.50881 2.121487,-0.65543 2.363502,-0.51293 1.161917,-2.48267 -1.5145,-2.48267 -2.274526,0 -2.549441,-0.67511 -0.298953,-0.73413 1.597045,-0.0419 2.024611,0.1946 3.851314,2.13003 2.480722,2.6284 3.484283,2.73406 5.831006,0.61395 1.081363,-0.97696 2.18457,-1.56322 2.941592,-1.56322 1.534266,0 1.438587,-0.18373 -1.542893,-2.96318 -3.154488,-2.94073 -3.465021,-3.01102 -14.635118,-3.31261 -1.005503,-0.0272 -2.015158,0.40066 -3.245643,1.37522 -2.392234,1.89468 -2.805721,2.75355 -2.266238,4.70737 0.375743,1.36085 0.285382,1.80277 -0.650742,3.18223 -0.858473,1.26503 -1.087103,1.41245 -1.087103,0.70102 0,-0.49549 0.301485,-1.15109 0.669953,-1.4569 0.883236,-0.73301 0.883236,-1.96393 0,-1.625 -0.736158,0.28248 -0.891424,-0.18702 -0.282377,-0.85379 0.213166,-0.23336 0.513858,-1.09869 0.668196,-1.92296 0.22765,-1.21573 0.154457,-1.45025 -0.387558,-1.24226 -0.390935,0.15007 -0.668214,0.005 -0.668214,-0.34979 0,-0.33342 0.660128,-0.73006 1.466947,-0.88143 1.755502,-0.32933 3.445981,-1.434 3.445981,-2.25181 0,-0.71654 -2.054709,-1.56085 -3.527834,-1.44962 -0.589247,0.0446 -1.148413,-0.13943 -1.242572,-0.40878 -0.240648,-0.68831 3.506733,-0.0772 4.843447,0.78987 1.198312,0.77727 5.279504,1.37418 8.859549,1.29581 1.351046,-0.0295 3.109653,0.13792 3.907999,0.37215 1.788571,0.52483 1.84615,0.12357 0.348801,-2.43152 -1.56087,-2.66342 -4.540679,-3.33836 -5.858571,-1.327 -0.400996,0.61199 -0.923193,0.99276 -1.160449,0.84613 -0.239803,-0.14821 2.87e-4,-0.72606 0.540632,-1.30123 l 0.971994,-1.03464 -1.362862,-0.70476 c -0.74956,-0.38763 -1.925539,-0.71087 -2.613266,-0.71834 -0.981718,-0.0101 -1.09838,-0.10248 -0.542927,-0.42736 0.625337,-0.36571 3.788941,0.46419 7.666825,2.01121 0.493163,0.19674 0.7816,0.10635 0.7816,-0.24502 0,-0.30626 -0.351722,-0.82383 -0.7816,-1.15015 -0.429879,-0.32634 -0.554979,-0.59971 -0.278005,-0.60753 0.692437,-0.0196 1.16455,0.64197 2.858608,4.00545 0.963047,1.91208 2.584012,4.00848 4.74846,6.14116 1.80746,1.78094 3.438435,3.23806 3.624407,3.23806 1.045037,0 7.874826,4.83358 10.5203,7.44545 l 3.089599,3.05034 -0.258827,-2.90309 c -0.27863,-3.12523 -1.59556,-7.36325 -3.779184,-12.16173 -1.217201,-2.67477 -1.678831,-3.20323 -4.191338,-4.79799 -1.552919,-0.98569 -3.526922,-2.02011 -4.386678,-2.29871 -2.330012,-0.75498 -6.642653,-3.75368 -9.045606,-6.28965 -2.276686,-2.40271 -2.045119,-2.35042 -6.424405,-1.45089 -0.969647,0.19918 -1.765156,0.0493 -2.582999,-0.48654 -1.119006,-0.73321 -1.272417,-0.73351 -2.886088,-0.005 -0.98285,0.44321 -2.398125,1.69793 -3.343499,2.96421 -0.90157,1.20763 -1.913166,2.19569 -2.247974,2.19569 -0.334807,0 0.203477,-0.8122 1.196168,-1.80491 1.958405,-1.9584 1.88646,-2.34083 -0.570104,-3.02997 -1.493366,-0.41893 -1.45346,-0.43691 0.893246,-0.40216 1.351064,0.0199 3.241508,-0.27568 4.201011,-0.65706 l 1.744546,-0.69342 -1.074594,-0.67133 c -0.591036,-0.36923 -1.476569,-0.90647 -1.967858,-1.19386 -0.814398,-0.47638 -0.794682,-0.49575 0.223311,-0.21928 1.283929,0.34869 3.573023,1.8697 3.573023,2.37413 0,0.1874 0.464416,0.58929 1.032022,0.89307 0.848632,0.45417 1.364331,0.41934 2.902176,-0.19598 1.028595,-0.41156 2.194884,-0.6237 2.59176,-0.4714 0.615125,0.23605 0.677026,0.029 0.419598,-1.40342 -0.297062,-1.65299 -0.283102,-1.64297 0.858643,0.61667 0.638352,1.26333 1.606767,2.77837 2.152057,3.36674 1.480638,1.59765 5.713249,4.61255 7.23899,5.15639 0.736934,0.26267 1.705755,0.62556 2.152952,0.80644 0.731061,0.29567 0.780723,0.15648 0.492438,-1.3803 -0.70108,-3.737 -2.58278,-5.55663 -5.746181,-5.55663 -0.885938,0 -1.716728,-0.31356 -2.07088,-0.7816 -0.503156,-0.66493 -0.497991,-0.69826 0.03461,-0.22332 0.344328,0.30706 1.440057,0.56542 2.434924,0.57411 0.994867,0.008 2.311309,0.30306 2.92542,0.65412 1.679287,0.95997 1.842606,0.81787 1.02662,-0.89324 -0.765833,-1.606 -1.371774,-1.8308 -4.303812,-1.59677 -0.719699,0.0574 -1.653932,-0.24867 -2.16195,-0.70842 -0.492015,-0.44526 -1.429084,-1.04711 -2.082359,-1.33742 -0.653274,-0.29031 -0.886309,-0.5434 -0.517842,-0.56244 0.368467,-0.0191 1.373396,0.41333 2.233152,0.96082 1.587491,1.01088 4.488332,1.37974 4.439025,0.56445 -0.0152,-0.24566 -0.938335,-1.15008 -2.052194,-2.00984 -2.997465,-2.31369 -4.621266,-4.02158 -4.609804,-4.8485 0.0051,-0.42802 0.295138,-0.17542 0.693298,0.60552 0.653579,1.28192 3.305686,3.34971 4.29625,3.34971 0.28739,0 0.365125,-0.53187 0.199071,-1.36208 -0.149898,-0.74916 -0.100776,-1.25606 0.108879,-1.12647 0.20969,0.12964 0.513031,1.05981 0.674122,2.06716 0.189078,1.18241 0.745375,2.25439 1.569665,3.02465 1.518196,1.4187 2.718432,3.65332 2.727918,5.07893 0.0034,0.56489 0.201671,1.32856 0.439787,1.69702 0.308424,0.47727 0.434926,-0.0402 0.439787,-1.79878 0.0034,-1.49314 0.279456,-2.85794 0.696674,-3.45361 0.5276,-0.75323 0.576418,-1.19674 0.207597,-1.88588 -0.265227,-0.49558 -0.669058,-0.90105 -0.897417,-0.90105 -0.228376,0 -0.65054,-0.45221 -0.938166,-1.00491 -0.512441,-0.98471 -0.499291,-0.98313 0.654236,0.0778 2.554236,2.34937 0.505216,-2.48609 -2.328104,-5.49403 -1.803999,-1.9152 -5.255635,-4.29801 -6.225907,-4.29801 -0.343046,0 -1.134723,0.40197 -1.759301,0.89326 -0.624577,0.49129 -1.560701,0.8854 -2.080282,0.87577 -0.73663,-0.0135 -0.624999,-0.15648 0.50687,-0.64837 1.843888,-0.80144 1.826062,-1.26297 -0.0947,-2.45004 -0.850421,-0.52559 -2.178863,-1.75438 -2.95209,-2.73069 -1.652009,-2.08581 -3.78987,-3.11221 -6.915054,-3.31996 -2.796149,-0.18587 -3.953069,0.38876 -2.703796,1.34291 0.464703,0.35494 0.981296,0.70285 1.147957,0.77312 0.16661,0.0702 0.690868,0.93171 1.164888,1.91428 0.574543,1.19094 1.404523,2.04086 2.489634,2.54946 2.196993,1.02974 3.325504,2.58425 3.66286,5.04563 0.154794,1.12928 0.810736,2.95644 1.45768,4.06034 1.438722,2.45503 1.189195,3.05872 -0.309167,0.74794 -1.576501,-2.43131 -2.976246,-2.76993 -6.44537,-1.5592 -1.562524,0.54533 -3.694747,0.99151 -4.738298,0.99151 -1.333339,0 -2.204608,0.28866 -2.931042,0.9711 -1.107798,1.04073 -1.469395,0.42166 -0.386326,-0.66141 0.559638,-0.55964 0.561562,-0.76065 0.01351,-1.48344 -0.911276,-1.20332 -0.781027,-1.90775 0.147366,-0.79736 1.260364,1.50734 4.2265,1.7442 7.07216,0.56473 1.315226,-0.54514 2.384924,-1.1049 2.377108,-1.24392 -0.0084,-0.13909 -0.312541,-0.64739 -0.677176,-1.12964 -0.541526,-0.71624 -1.172957,-0.86926 -3.447162,-0.83541 -1.939736,0.0289 -2.445543,-0.0642 -1.667639,-0.30688 0.614111,-0.19156 1.662963,-0.36833 2.330788,-0.39281 0.946488,-0.0348 1.158186,-0.21686 0.960145,-0.82611 -0.139771,-0.42989 0.620255,0.16712 1.688874,1.32652 2.098311,2.27668 4.700031,3.41338 4.258843,1.8607 -0.131668,-0.46333 -0.369649,-1.49019 -0.528865,-2.2819 -0.353005,-1.7552 -2.393905,-3.56067 -4.464042,-3.94902 -0.843771,-0.15834 -1.770711,-0.57286 -2.059857,-0.92125 -0.421742,-0.50818 -0.38717,-0.58029 0.174814,-0.36464 1.153646,0.44269 0.396759,-1.60875 -1.185346,-3.21276 -1.14107,-1.15687 -1.564163,-1.33199 -2.426283,-1.00421 -1.072197,0.40765 -3.215359,0.0994 -3.215359,-0.46254 0,-0.17304 0.928798,-0.30199 2.063976,-0.28655 1.528307,0.0207 2.194834,-0.18158 2.568129,-0.7797 0.407106,-0.6523 0.334689,-0.93354 -0.376317,-1.4614 -0.484233,-0.3595 -1.137441,-0.55501 -1.451536,-0.43449 -0.696151,0.26714 -1.910988,-0.15614 -1.910988,-0.66578 0,-0.79086 3.3777,0.14788 4.259755,1.18396 0.628224,0.73791 1.378426,1.0689 2.422652,1.0689 h 1.512626 l -0.971117,-1.03369 c -1.529658,-1.62827 -1.132208,-1.97669 0.480435,-0.42121 0.798345,0.77007 1.996623,1.60556 2.66281,1.85664 1.138791,0.4292 1.227431,0.37049 1.481009,-0.98125 0.193551,-1.03175 -0.05267,-2.1304 -0.871944,-3.89051 -0.62792,-1.349 -1.129472,-2.85469 -1.11455,-3.34598 0.01688,-0.55308 0.262086,-0.25331 0.644091,0.78709 0.339349,0.92418 0.928139,2.12455 1.308423,2.6675 0.39085,0.55801 0.691424,1.91846 0.691424,3.12955 0,1.79316 0.273025,2.49521 1.674864,4.30661 1.863334,2.40779 4.819393,4.51795 6.328997,4.51795 0.543095,0 1.393415,0.21726 1.8896,0.48281 1.23143,0.65905 1.509401,0.23004 0.647889,-0.99993 -0.393534,-0.56185 -0.716626,-1.32853 -0.717994,-1.70374 -0.0068,-1.84504 -1.006667,-4.09813 -1.983624,-4.46956 -0.571506,-0.21729 -1.555199,-0.91116 -2.185971,-1.54193 -0.630773,-0.63078 -1.356988,-1.14687 -1.613791,-1.14687 -0.25682,0 -0.46693,-0.20614 -0.46693,-0.4581 0,-0.67279 2.593009,0.77792 3.238822,1.81204 0.498059,0.79751 1.674088,1.23885 1.674088,0.62824 0,-0.13809 -0.53295,-1.37754 -1.184318,-2.75444 -2.588553,-5.47172 -7.868327,-8.64274 -10.692042,-6.42159 -0.740647,0.5826 -1.843854,0.94104 -2.896267,0.94104 -0.934959,0 -1.824155,0.201 -1.975961,0.44664 -0.151756,0.24565 -0.48977,0.44662 -0.750996,0.44662 -0.29951,0 -0.269564,-0.24748 0.08103,-0.66993 0.325354,-0.39203 1.320745,-0.67581 2.399491,-0.68407 2.445492,-0.0187 4.585987,-1.74328 3.85621,-3.10688 -0.264516,-0.49426 -0.863976,-0.89867 -1.332139,-0.89867 -0.468147,0 -0.975388,-0.20098 -1.127211,-0.44662 -0.459081,-0.74281 1.927649,-0.50388 2.550505,0.25531 1.582207,1.92855 2.220305,2.42446 3.119579,2.42446 0.539264,0 1.575185,0.55271 2.302041,1.22822 0.860938,0.80013 1.228342,0.96554 1.054101,0.47457 -0.147197,-0.41452 -0.475236,-1.52522 -0.729168,-2.46821 -0.253917,-0.94301 -0.968501,-2.4015 -1.58793,-3.24112 -0.619446,-0.8396 -1.118213,-1.83923 -1.108389,-2.22139 0.01013,-0.38216 0.336479,-0.0918 0.725843,0.64507 0.389383,0.73694 0.965631,1.64136 1.280553,2.00982 0.314906,0.36847 0.9921,1.95591 1.504844,3.52765 0.512745,1.57174 1.40481,3.48109 1.982375,4.243 0.577566,0.76188 1.419716,2.16888 1.871438,3.12666 0.702751,1.48999 0.869378,1.61896 1.154101,0.89327 0.241644,-0.61587 0.341374,-0.38947 0.364162,0.8267 0.02718,1.45392 0.170594,1.67487 1.086563,1.67487 0.580334,0 1.813875,0.60293 2.741186,1.33988 1.583389,1.25833 2.456464,1.6499 2.456464,1.10172 0,-0.59648 -2.237405,-4.56891 -2.868246,-5.09247 -0.387643,-0.3217 -0.704793,-0.80595 -0.704793,-1.07611 0,-0.96552 1.801349,1.33434 3.274288,4.18043 1.233018,2.38252 1.887592,3.10983 3.690241,4.1003 1.205266,0.66225 2.648969,1.76764 3.208253,2.45647 l 1.016879,1.25241 -0.263402,-2.00983 c -0.483913,-3.69233 -0.686833,-4.12062 -3.201079,-6.75653 -1.6764,-1.75755 -2.254539,-2.62269 -1.752615,-2.62269 0.411934,0 0.924763,0.45221 1.139617,1.00493 0.214839,0.5527 0.984672,1.56732 1.710753,2.25471 l 1.32012,1.24979 0.24632,-2.38659 c 0.474662,-4.59904 -1.457292,-9.25717 -5.410868,-13.04613 -1.459334,-1.39858 -2.606395,-3.06816 -3.41492,-4.97055 -0.669598,-1.57551 -1.349695,-2.86459 -1.511309,-2.86459 -0.161546,0 -0.740276,1.45714 -1.285937,3.23807 -0.815125,2.66044 -0.987069,4.26144 -0.963859,8.97509 0.0152,3.15537 -0.0866,5.85189 -0.227008,5.99226 -0.140446,0.14045 -0.255267,-0.93389 -0.255267,-2.3873 -1.7e-5,-2.49445 -0.0893,-2.71384 -1.594023,-3.91441 -0.876688,-0.69952 -1.492926,-1.37293 -1.369395,-1.49646 0.123565,-0.12356 0.677751,0.19759 1.231599,0.71358 0.553849,0.516 1.171911,0.93816 1.373446,0.93816 0.201537,0 0.28756,-1.35081 0.191155,-3.00179 -0.156144,-2.67393 -0.320458,-3.12518 -1.504388,-4.13132 -1.26904,-1.0785 -2.349948,-2.66548 -2.346369,-3.44497 9.58e-4,-0.20037 0.374594,0.24721 0.830401,0.99467 0.455824,0.74744 1.361174,1.70786 2.011934,2.13425 1.152733,0.75529 1.193618,0.74906 1.589246,-0.24243 1.118331,-2.8028 1.645661,-5.23581 1.277413,-5.89383 -0.217522,-0.38869 -0.226992,-0.70671 -0.0211,-0.70671 0.511918,0 3.122804,4.41096 3.47775,5.87549 0.158001,0.65223 0.80265,1.65714 1.432375,2.23314 l 1.144953,1.04728 -0.247671,-1.00494 c -0.31845,-1.29205 0.513774,-4.01724 1.321421,-4.32716 0.493686,-0.18945 0.479523,-0.0344 -0.06836,0.74773 -1.222906,1.74595 -0.86136,3.80522 1.207022,6.87508 1.044006,1.54948 2.039819,2.82358 2.212912,2.83137 0.476046,0.0214 0.922517,-2.89165 0.625067,-4.07835 -0.143822,-0.57405 -0.146185,-0.79252 -0.0051,-0.48546 0.762289,1.65972 1.800472,-1.10118 2.141322,-5.69451 0.19291,-2.59968 0.105165,-3.0198 -0.840107,-4.01967 -1.194414,-1.26348 -1.949156,-3.57303 -1.167658,-3.57303 0.272282,0 0.503224,0.45221 0.513201,1.00491 0.01013,0.5527 0.598969,1.68403 1.308844,2.51406 l 1.290698,1.50914 0.31315,-1.73245 c 0.324409,-1.79477 1.033794,-3.49956 1.332105,-3.20125 0.282378,0.28236 -1.581312,6.10454 -2.045998,6.39173 -0.567588,0.35079 -0.555064,2.76333 0.01688,3.11639 0.245645,0.15175 0.446624,0.0657 0.446624,-0.19137 0,-0.25705 0.792842,-0.96787 1.761849,-1.57959 0.977669,-0.61716 2.309978,-2.06089 2.993315,-3.24364 1.263499,-2.18695 1.833569,-2.79325 2.614226,-2.78037 0.245646,0.003 0.09183,0.27659 -0.341734,0.60562 -0.433586,0.32903 -1.252353,1.47831 -1.819508,2.55392 -0.567134,1.0756 -1.820234,2.48931 -2.784672,3.14155 -2.240796,1.51546 -5.029467,6.54512 -5.409902,9.75729 -0.26396,2.22864 0.534401,6.95731 1.249222,7.39908 0.439112,0.27139 2.485515,-1.88015 3.364836,-3.53771 0.550068,-1.03691 0.576601,-1.51382 0.142474,-2.5619 -0.300492,-0.72543 -0.405555,-1.92437 -0.2406,-2.74555 0.16104,-0.80179 0.460568,-2.26172 0.665627,-3.24429 l 0.372824,-1.78652 0.0559,1.70422 c 0.03072,0.93732 -0.154285,2.09713 -0.411377,2.57734 -0.257004,0.48022 -0.328865,1.09712 -0.159684,1.37087 0.1939,0.31376 0.516572,0.10736 0.8729,-0.55853 0.393151,-0.73457 1.199308,-1.19503 2.646999,-1.51188 2.002612,-0.43832 2.132458,-0.56588 3.418255,-3.35871 0.73511,-1.59671 1.229659,-2.38942 1.098991,-1.76162 -0.13066,0.6278 -0.646883,2.06669 -1.147097,3.19755 -0.831753,1.88029 -1.103363,2.10576 -3.176783,2.63716 -2.524022,0.6469 -3.612949,2.00655 -3.2264,4.0286 0.280656,1.46816 -0.635431,3.20318 -2.995341,5.67298 -1.802041,1.886 -1.847432,2.00814 -1.659519,4.46631 0.356195,4.65958 2.925859,14.91407 3.673276,14.65855 0.519815,-0.17772 0.586189,-2.96832 0.121202,-5.09686 -0.188302,-0.86195 -0.140277,-1.45155 0.118333,-1.45155 0.239495,0 0.438534,0.55272 0.442304,1.22824 0.0048,0.95709 0.102464,1.08033 0.439785,0.55829 0.238134,-0.36847 0.436036,-1.08393 0.439786,-1.58991 0.0034,-0.50597 0.911256,-1.97951 2.016679,-3.27453 1.836641,-2.15168 2.009817,-2.5599 2.009817,-4.73735 0,-1.31053 0.173839,-2.44976 0.386315,-2.53165 0.212456,-0.0819 0.821805,-0.9528 1.3541,-1.93539 1.06743,-1.97043 0.859668,-0.49361 -0.251338,1.78653 -0.359078,0.73693 -0.770203,2.34479 -0.913589,3.57302 -0.194564,1.6665 -0.631278,2.6481 -1.721115,3.8685 -1.993498,2.23227 -2.384043,3.07152 -2.375504,5.10475 0.0169,3.90788 0.226153,5.47084 0.832061,6.20093 0.600017,0.72299 0.65467,0.71964 0.937221,-0.0572 0.165089,-0.4537 0.225551,-1.52834 0.134533,-2.3881 l -0.165595,-1.5632 0.457608,1.45154 c 0.251688,0.79834 0.655792,1.45155 0.898024,1.45155 0.242239,0 0.838691,0.65319 1.325453,1.45153 0.63647,1.04388 0.885482,1.21964 0.88668,0.6258 6.84e-4,-0.45417 0.32365,-1.55959 0.717171,-2.45647 0.39352,-0.89689 0.882951,-2.03266 1.087661,-2.52395 0.204704,-0.4913 0.504757,-2.27872 0.666814,-3.97206 0.162052,-1.69333 0.572786,-3.86715 0.912741,-4.83072 0.339955,-0.96355 0.74902,-3.0296 0.909012,-4.59123 0.263743,-2.57421 0.160368,-3.11825 -1.107154,-5.82688 -0.768855,-1.64359 -1.397977,-3.27876 -1.397977,-3.63416 0,-0.35538 -0.200996,-0.52194 -0.446635,-0.37012 -0.245645,0.15176 -0.480419,1.11835 -0.52171,2.14786 l -0.07512,1.8718 -0.176008,-1.68882 c -0.119515,-1.14616 0.10752,-2.15076 0.706312,-3.1264 0.918461,-1.49642 2.022769,-6.38445 1.597735,-7.07216 -0.134198,-0.2172 -0.01184,-0.39492 0.27083,-0.39492 0.55694,0 0.214276,3.78862 -0.517694,5.7236 -0.648834,1.71529 -0.455125,2.94429 0.953902,6.0518 1.495727,3.29877 1.632491,4.11918 1.145489,6.87137 -0.370374,2.09308 0.03715,2.40673 1.305844,1.00493 0.444609,-0.49129 1.064125,-0.89327 1.376685,-0.89327 0.805911,0 2.305217,-2.03526 2.647587,-3.594 0.159348,-0.72541 0.474693,-1.31892 0.700826,-1.31892 0.226112,0 0.411138,-0.67328 0.411138,-1.49619 0,-1.39676 -1.859014,-4.64328 -3.09691,-5.40834 -0.261882,-0.16188 -0.47613,-0.80471 -0.47613,-1.42859 0,-0.6828 -0.529825,-1.62927 -1.331022,-2.3777 -1.358999,-1.2695 -2.257495,-3.04512 -2.222423,-4.392 0.01013,-0.41388 0.300053,0.0344 0.642813,0.99648 0.633221,1.77711 2.591422,4.00419 3.085936,3.50968 0.149222,-0.14922 0.271316,0.43447 0.271316,1.2971 0,1.00119 0.323063,1.86077 0.893269,2.3768 0.713812,0.64599 0.893262,0.67705 0.893262,0.15463 0,-0.35959 0.31256,-1.04394 0.694586,-1.52076 0.67096,-0.83749 0.678541,-0.8338 0.223306,0.10854 -0.607323,1.2572 -0.603157,2.9569 0.0084,3.56882 0.26401,0.26401 0.732408,1.21411 1.040849,2.11134 l 0.560819,1.6313 1.192302,-0.93787 c 1.459945,-1.1484 1.55866,-2.87247 0.29902,-5.22265 -0.491285,-0.91666 -0.872688,-2.17206 -0.84753,-2.78981 0.03968,-0.97382 0.09116,-0.93166 0.38793,0.31716 0.188215,0.7922 0.670105,1.94078 1.070865,2.55242 0.400738,0.61161 0.728624,1.63342 0.728624,2.27067 0,0.65871 0.192723,1.03955 0.446641,0.88263 0.245646,-0.15176 0.446621,-0.59482 0.446621,-0.98442 2e-5,-0.79289 3.026589,-7.27823 3.396607,-7.27823 0.426095,0 -0.326114,1.98237 -1.243603,3.27741 -0.9437,1.33205 -1.768276,3.65788 -1.420199,4.00594 0.384906,0.38492 3.942531,-0.63471 4.843476,-1.38817 0.589043,-0.49262 0.525864,-0.32942 -0.182919,0.47249 -0.747241,0.84542 -1.517149,1.22503 -2.48455,1.22503 -0.970952,0 -1.79186,0.40713 -2.670925,1.32471 l -1.269164,1.3247 1.155417,0.43928 c 1.411346,0.53659 3.31865,0.0444 5.190581,-1.33964 0.755548,-0.55861 1.480347,-0.90905 1.610631,-0.77876 0.423023,0.42301 -3.084841,2.53258 -4.69684,2.82461 -0.862323,0.15614 -2.152191,0.0619 -2.866385,-0.20968 -1.152434,-0.43815 -1.478548,-0.34811 -2.898433,0.80024 -0.879961,0.71167 -1.655548,1.57538 -1.723544,1.9194 -0.136058,0.68865 2.125692,4.41424 2.679875,4.41424 0.190766,0 0.376963,-0.65319 0.413758,-1.45155 l 0.06685,-1.45154 0.183473,1.33989 c 0.370354,2.70495 1.072397,4.6896 1.658846,4.6896 0.637121,0 2.043514,-2.56421 2.043514,-3.72583 0,-0.37826 0.189076,-0.8046 0.420169,-0.94743 0.747844,-0.46218 -0.06397,3.05219 -1.020993,4.42024 -0.527787,0.75442 -0.877163,1.89112 -0.823666,2.67977 0.0817,1.20518 -0.03749,1.09185 -0.992873,-0.94414 -0.597184,-1.27255 -1.905457,-3.35069 -2.907245,-4.61806 -1.001803,-1.26737 -1.821473,-2.48725 -1.821473,-2.71084 0,-0.72584 -0.825875,-0.42914 -1.085903,0.39012 -0.139089,0.43813 -0.805787,1.14111 -1.481633,1.5622 -0.675846,0.42107 -1.905669,1.35312 -2.732947,2.07125 -1.388097,1.20493 -1.531771,1.5796 -1.862086,4.85622 -0.196863,1.95282 -0.789552,4.99985 -1.317085,6.77119 -0.769997,2.58554 -0.921772,4.02807 -0.769662,7.3154 0.104148,2.25215 0.368835,4.71379 0.588084,5.47034 0.413485,1.42689 2.512747,4.20732 3.176564,4.20732 0.749308,0 1.82973,-2.5032 2.120478,-4.9129 0.288641,-2.39221 0.243046,-2.53179 -1.742721,-5.33514 -1.121543,-1.58325 -2.03533,-3.09063 -2.030657,-3.3497 0.0048,-0.2591 0.57672,0.43335 1.271223,1.53875 0.694511,1.10542 1.568834,2.26388 1.942971,2.57438 0.58972,0.48939 0.720914,0.25794 0.98582,-1.73901 0.281333,-2.12072 0.179607,-2.50761 -1.281514,-4.87483 -1.206971,-1.95542 -1.587102,-3.05635 -1.587102,-4.59638 0,-1.11382 -0.202145,-2.59088 -0.449241,-3.28241 -0.419007,-1.17276 -0.404002,-1.19901 0.223327,-0.39033 0.369902,0.47682 0.672535,1.02952 0.672535,1.22822 0,0.1987 0.176603,0.36126 0.392459,0.36126 0.425384,0 1.110651,-1.54539 1.782371,-4.01966 l 0.424391,-1.5632 0.04037,1.4062 c 0.0221,0.77341 -0.56268,2.5524 -1.29961,3.95335 -0.736931,1.40094 -1.339889,2.84708 -1.339889,3.21362 0,0.81305 2.752788,5.49566 3.230758,5.49566 0.188249,0 0.342268,-1.20591 0.342268,-2.67977 0,-1.47389 0.158507,-2.67978 0.352264,-2.67978 0.444157,0 -0.11175,5.47468 -0.781855,7.69954 -0.27664,0.91852 -0.443891,3.12324 -0.371674,4.89937 l 0.131331,3.22934 1.487182,-1.54967 c 3.202823,-3.33735 3.858985,-4.74886 3.86597,-8.31626 0.0034,-1.80302 0.12154,-3.27918 0.262204,-3.28037 0.450944,-0.003 2.200651,-3.86188 2.200651,-4.85236 0,-0.52581 0.201002,-0.95601 0.446648,-0.95601 0.245646,0 0.446621,0.44333 0.446621,0.98516 0,0.85866 0.232242,0.73611 1.808664,-0.95446 2.199222,-2.35843 3.325588,-4.51871 3.731239,-7.15613 0.168305,-1.09408 0.736082,-2.68517 1.261768,-3.53577 0.525706,-0.85061 1.096624,-2.26676 1.268685,-3.14703 l 0.312882,-1.60047 0.04913,1.5632 c 0.0299,0.95112 -0.381766,2.26273 -1.051263,3.34973 -0.605203,0.98258 -1.106634,2.06159 -1.114297,2.3978 -0.01758,0.7674 2.766083,-1.26928 4.768735,-3.48917 0.788129,-0.87364 1.441321,-1.38185 1.451556,-1.12939 0.01013,0.25246 -0.391939,0.81053 -0.893672,1.24014 -1.186295,1.01572 -0.832464,1.50364 1.358876,1.87386 0.980017,0.16561 1.913366,0.51385 2.074124,0.77396 0.18909,0.30597 -0.08593,0.38185 -0.779276,0.21494 -3.406507,-0.82007 -4.35278,-0.83103 -5.523509,-0.064 -1.090562,0.71457 -3.796449,4.78163 -3.806459,5.72127 -0.0084,0.80886 3.309065,-0.18199 4.531813,-1.35346 0.698581,-0.6693 1.270169,-0.99619 1.270169,-0.7264 0,0.84274 -2.694426,2.80303 -3.852792,2.80303 -1.658141,0 -3.308777,1.02357 -5.378837,3.3354 -2.005937,2.24026 -1.739937,3.08367 0.593708,1.88242 0.697686,-0.35914 2.072469,-0.86809 3.055065,-1.131 1.606882,-0.42997 1.699337,-0.41246 0.919549,0.17404 -0.476842,0.35864 -1.140009,0.65205 -1.473738,0.65205 -0.333708,0 -1.2305,0.32256 -1.992856,0.7168 -0.762341,0.39422 -1.871876,0.7701 -2.465639,0.83528 -1.709258,0.18763 -2.093596,0.9262 -2.276064,4.37396 l -0.170925,3.22987 1.719986,-1.61376 c 1.609434,-1.51001 4.24112,-3.07584 5.169543,-3.07584 0.225051,0 1.249343,-0.57483 2.276179,-1.2774 1.074053,-0.73486 2.815434,-1.41653 4.100135,-1.60499 1.228222,-0.18019 2.434133,-0.4918 2.679772,-0.69248 0.245645,-0.20067 1.250561,-0.47358 2.233157,-0.60644 l 1.78651,-0.24158 -1.674863,0.5037 c -1.60849,0.48372 -2.351653,1.68603 -1.042169,1.68603 0.347973,0 1.004881,0.51092 1.459753,1.13539 0.489711,0.67226 1.370281,1.19802 2.158751,1.28896 0.732429,0.0844 1.482407,0.1765 1.666639,0.20451 0.184233,0.028 0.334974,0.22493 0.334974,0.43759 0,0.757 -3.63539,-0.27696 -4.297531,-1.22229 -0.99713,-1.4236 -2.411863,-2.00852 -4.588095,-1.89694 -2.263118,0.11597 -5.406513,1.56271 -5.406513,2.48823 0,0.76126 1.559385,1.33069 2.333659,0.85216 0.854879,-0.52834 3.959438,-0.58771 3.639228,-0.0695 -0.151254,0.24477 -0.831082,0.33381 -1.510704,0.19789 -0.865867,-0.17317 -1.459616,3.2e-4 -1.983995,0.57977 -0.704657,0.77864 -0.688736,0.86865 0.272637,1.54202 0.561531,0.39332 1.579206,0.71513 2.261476,0.71513 0.682298,0 1.240517,0.20098 1.240517,0.44663 0,1.31274 -4.013051,-0.31639 -5.399814,-2.19209 -2.036172,-2.75407 -5.000451,-1.53195 -9.570825,3.94589 -3.160972,3.7886 -3.21011,3.89202 -2.02762,4.26733 1.441177,0.45741 4.089839,-0.71474 6.256335,-2.76867 1.092855,-1.0361 2.09777,-1.77017 2.233151,-1.6313 0.135382,0.13892 -0.444732,0.83167 -1.289115,1.53955 -2.511091,2.10516 -1.586999,2.11616 4.438339,0.0528 0.368465,-0.1261 0.554976,-0.0993 0.414463,0.0601 -0.367001,0.41575 -6.22064,2.49995 -6.22064,2.21487 0,-0.13099 -0.29083,0.003 -0.646303,0.29818 -0.355472,0.29502 -2.105241,0.59889 -3.888371,0.67527 -3.64475,0.15615 -4.267571,0.62092 -6.432946,4.8007 -1.196612,2.30979 -1.38185,3.05211 -0.55542,2.22568 0.294764,-0.29479 1.45042,-0.50084 2.568111,-0.45794 l 2.032176,0.078 -1.943601,0.1732 c -2.438217,0.21724 -4.045017,1.8446 -4.084789,4.13704 -0.01519,0.85976 -0.427921,2.97009 -0.91781,4.68962 -0.489869,1.71951 -1.015862,3.79866 -1.168869,4.62034 l -0.278227,1.49395 1.911813,-0.97533 c 3.583659,-1.82824 4.016158,-2.56987 4.092103,-7.01685 0.05145,-3.01753 0.129128,-3.46233 0.334954,-1.91846 l 0.267896,2.00982 1.339889,-1.91367 c 2.502038,-3.57348 2.510584,-3.58276 2.011876,-2.18713 -0.247363,0.69231 -0.968578,1.93895 -1.602661,2.77028 -1.142232,1.49755 -2.709869,6.32481 -2.214732,6.81994 0.141457,0.14145 0.495034,0.0194 0.78572,-0.27129 0.29068,-0.29069 0.739544,-0.52404 0.997465,-0.51858 1.030114,0.0217 -1.843839,1.7574 -2.925404,1.76665 -1.430387,0.0118 -4.771,2.36508 -5.266862,3.70954 -0.200811,0.5445 -0.493953,3.46851 -0.65142,6.49782 -0.222986,4.29041 -0.16357,5.46694 0.268586,5.32287 0.305185,-0.1018 0.669162,-0.88804 0.808847,-1.74737 0.344025,-2.11651 2.328287,-6.92909 2.564615,-6.22015 0.121711,0.36526 0.842474,-0.0449 2.016118,-1.14735 1.782445,-1.67431 1.773345,-1.651 -0.375889,0.96396 -1.211377,1.47386 -2.372973,2.80153 -2.581309,2.95037 -0.208344,0.14889 -0.48939,1.15374 -0.624566,2.23315 -0.13521,1.07939 -0.643196,2.6229 -1.128987,3.43001 -0.82032,1.36298 -0.860153,1.9594 -0.559519,8.3743 0.245379,5.2358 0.465415,6.90682 0.909436,6.90682 0.322152,0 0.72183,-0.45221 0.888171,-1.00491 0.166266,-0.5527 1.29292,-3.01978 2.503544,-5.48241 l 2.201124,-4.47751 -0.954216,-2.29611 c -0.84151,-2.02488 -0.901876,-2.63029 -0.51099,-5.12504 l 0.443248,-2.8289 -0.01348,3.14353 c -0.0084,2.14141 0.236122,3.62528 0.768465,4.65471 l 0.781472,1.51118 1.535075,-2.64488 1.535076,-2.64488 -0.261649,-4.42389 c -0.186176,-3.14814 -0.06192,-5.40265 0.430617,-7.81789 0.49097,-2.4072 0.579395,-3.99809 0.30409,-5.47169 -0.388266,-2.07834 0.174866,-4.82071 1.200574,-5.8464 0.245645,-0.24566 0.169002,0.33221 -0.17031,1.28415 -0.6988,1.96045 -0.852497,4.63386 -0.26639,4.63386 0.86627,0 4.076531,-4.03692 4.076531,-5.12625 0,-0.61961 0.179826,-1.12655 0.399596,-1.12655 0.92468,0 -0.44478,3.29885 -2.127122,5.12397 -0.998381,1.08312 -1.942033,2.53387 -2.09701,3.22392 -0.154963,0.69005 -0.462172,1.95808 -0.682599,2.81784 -0.560114,2.18455 -0.507041,4.91293 0.09554,4.91293 0.35628,0 0.347317,0.18554 -0.03106,0.64139 -0.387541,0.46694 -0.402408,0.88411 -0.05467,1.53384 0.262695,0.49083 0.477621,1.30761 0.477621,1.81505 0,0.50745 0.173949,0.92263 0.386542,0.92263 0.527451,0 5.572922,-6.15442 6.407665,-7.81601 1.220203,-2.42886 1.310359,-3.59888 0.344648,-4.47283 -0.487323,-0.44102 -0.883088,-1.12241 -0.879462,-1.51423 0.0048,-0.46609 0.197335,-0.34365 0.558295,0.35409 0.758202,1.46562 1.311543,1.41116 1.759621,-0.17322 0.763655,-2.70028 0.507158,-7.49712 -0.504715,-9.43842 -0.969255,-1.85959 -1.592432,-6.41692 -0.877444,-6.41692 0.218655,0 0.397551,1.067 0.397551,2.37111 0,2.2781 1.109843,4.77427 1.606396,3.61301 0.115635,-0.27063 0.69828,-1.15335 1.294602,-1.9616 0.826533,-1.12032 1.048478,-1.90557 0.933896,-3.30432 -0.08272,-1.00911 -0.05939,-1.35987 0.05179,-0.77943 0.187756,0.98061 0.360261,0.87785 2.436403,-1.45155 1.228886,-1.37878 2.407511,-2.50688 2.619145,-2.50688 0.211648,0 -0.457615,0.9196 -1.487251,2.04355 -1.029662,1.12393 -2.657931,3.4855 -3.618421,5.24789 -1.576511,2.89279 -1.751986,3.54091 -1.804689,6.66573 -0.03209,1.90376 0.08913,3.46137 0.269449,3.46137 0.180319,0 0.640698,-0.44667 1.023107,-0.99264 0.382396,-0.54593 0.69527,-0.81613 0.69527,-0.60044 0,0.21572 -0.469342,1.01411 -1.042956,1.77425 -0.912255,1.20886 -2.083456,4.62209 -2.083456,6.07185 0,0.27385 1.133961,-0.46835 2.519917,-1.64933 3.186107,-2.71488 5.861035,-8.03216 6.275943,-12.47543 0.146185,-1.56605 0.398159,-2.84736 0.55982,-2.84736 0.161716,0 0.172253,1.10542 0.02347,2.45646 -0.193161,1.75479 -0.118331,2.45647 0.26195,2.45647 1.097131,0 2.450068,-1.63991 3.252332,-3.94222 0.803167,-2.30483 2.291895,-4.4481 2.291895,-3.29955 0,0.29827 -0.182091,0.54233 -0.404645,0.54233 -0.363703,0 -1.828512,3.64164 -1.828512,4.54586 0,0.85549 0.957227,0.25594 1.894078,-1.18634 0.930455,-1.43245 2.616963,-2.76325 1.845474,-1.45623 -1.02358,1.73406 -2.594932,3.45805 -3.378627,3.70678 -1.266947,0.40212 -3.986279,2.30098 -4.611693,3.22027 -0.288927,0.4247 -0.845395,1.72686 -1.236569,2.89367 l -0.711239,2.12149 h 1.697996 c 1.214223,0 2.17834,-0.38173 3.384025,-1.33989 0.927314,-0.73693 1.809129,-1.35621 1.95959,-1.37616 0.150399,-0.0199 0.822324,-0.0766 1.493059,-0.1261 0.670728,-0.0493 1.518512,-0.48525 1.88398,-0.96864 0.365441,-0.48338 0.670844,-0.64201 0.678658,-0.35249 0.02449,0.9054 -1.337522,1.92946 -2.585818,1.94428 -1.125559,0.0135 -2.759535,0.88119 -2.759535,1.46563 0,0.14567 0.703446,0.59858 1.563203,1.00656 0.85977,0.40798 1.563196,0.91356 1.563196,1.12351 0,0.4422 -1.439213,-0.0118 -1.820199,-0.57444 -0.332655,-0.49108 -2.229847,-0.53258 -5.420963,-0.1185 -2.428324,0.31506 -2.703377,0.48761 -5.69453,3.57238 -1.728628,1.78274 -3.142964,3.43744 -3.142964,3.67714 0,0.55568 2.738407,1.00961 4.35029,0.72112 0.677919,-0.12137 1.845104,-0.81181 2.593734,-1.53442 0.74863,-0.7226 1.75908,-1.3138 2.245425,-1.3138 0.486359,0 1.330974,-0.31289 1.876926,-0.69527 0.545945,-0.3824 0.992614,-0.55531 0.992614,-0.38423 0,0.56049 -1.543191,1.49741 -2.490257,1.51192 -0.926569,0.0135 -2.871791,1.71035 -2.866454,2.49944 0.0034,0.50837 2.351988,1.94816 4.405669,2.70091 1.108994,0.4065 1.78523,0.4243 2.568111,0.0675 1.192199,-0.54319 3.295867,0.13252 3.295867,1.05871 0,0.31077 -0.360303,0.19938 -0.881857,-0.27263 -0.756737,-0.68485 -1.069414,-0.7204 -2.203641,-0.25058 -0.772468,0.31997 -1.907243,0.41891 -2.730525,0.2381 -1.334566,-0.29313 -1.3817,-0.25894 -0.895588,0.64934 0.282209,0.52733 1.053226,1.16413 1.713369,1.41511 1.405025,0.53419 2.765084,1.67915 2.765084,2.32775 0,0.2504 -0.465156,0.0182 -1.033692,-0.51585 -0.568531,-0.5341 -1.33744,-0.9711 -1.708656,-0.9711 -0.915334,0 -2.437745,-1.746 -2.777057,-3.18489 -0.307428,-1.30372 -2.56209,-2.62131 -4.485582,-2.62131 -1.164858,0 -1.548971,0.60062 -0.714112,1.11659 0.245659,0.15175 0.446641,0.85572 0.446641,1.56422 0,0.8249 0.357004,1.53827 0.99264,1.98349 0.744566,0.52151 0.814025,0.69525 0.277981,0.69525 -0.946143,0 -1.546364,-0.79974 -1.923286,-2.56267 -0.613708,-2.87044 -4.312879,-4.31189 -5.744833,-2.23858 -0.381739,0.5527 -1.530252,1.90935 -2.552265,3.01475 -1.406174,1.52095 -4.002495,5.74045 -4.002495,6.50485 0,0.0467 0.904387,-0.017 2.009742,-0.14162 3.296523,-0.37157 5.784297,0.58924 7.819442,3.01998 1.332076,1.59103 2.430247,2.36225 4.426988,3.10898 2.852174,1.06664 3.760953,1.82838 4.278949,3.58649 0.406616,1.38015 1.510431,2.67978 2.276009,2.67978 0.315905,0 0.703562,0.20904 0.86146,0.46453 0.186162,0.30121 -0.118666,0.36272 -0.866893,0.1749 -1.042792,-0.26173 -1.154001,-0.16441 -1.154001,1.00933 0,0.71445 0.241171,1.54018 0.535956,1.83495 0.349862,0.34987 0.368684,0.53595 0.05419,0.53595 -0.638988,0 -1.65236,-2.49169 -1.266961,-3.11528 0.166273,-0.26917 -0.14821,-1.57693 -0.699204,-2.90613 -0.88462,-2.13432 -1.25574,-2.52603 -3.175846,-3.35203 -1.195791,-0.51442 -2.369174,-0.81478 -2.607492,-0.66748 -1.151955,0.71193 0.283707,3.3316 1.834977,3.34832 0.349123,0.003 0.936256,0.22099 1.304728,0.48277 0.50943,0.36188 0.348918,0.40865 -0.669954,0.19525 -0.736938,-0.15429 -1.731986,-0.39796 -2.211229,-0.54134 -0.841674,-0.25181 -0.845115,-0.22065 -0.101452,0.91447 0.855186,1.3052 0.518673,1.62404 -0.415387,0.39356 -0.326333,-0.42989 -0.599716,-1.79554 -0.607536,-3.03479 -0.01348,-2.07031 -0.192313,-2.44591 -2.208958,-4.62803 -1.207108,-1.30616 -2.404165,-2.24543 -2.660122,-2.08724 -0.734241,0.45378 0.121198,2.2035 1.380681,2.82424 1.206547,0.59465 2.499459,1.91057 1.854019,1.88704 -0.214296,-0.008 -0.779795,-0.30929 -1.256616,-0.66996 -1.296655,-0.98073 -1.589503,-0.81355 -1.589503,0.90748 0,1.3482 0.14602,1.5632 1.061901,1.5632 0.584034,0 1.312084,0.30147 1.617877,0.66994 0.350629,0.42247 0.380555,0.66995 0.08103,0.66995 -0.261225,0 -0.599175,-0.201 -0.750984,-0.44664 -0.414696,-0.67099 -2.009837,-0.53715 -2.009837,0.16864 0,0.33838 0.301483,0.86546 0.669948,1.17124 0.368472,0.30581 0.663257,0.78263 0.655088,1.05961 -0.0084,0.27699 -0.410147,0.029 -0.893269,-0.55079 -0.679876,-0.81611 -0.878387,-1.72632 -0.878387,-4.02765 0,-2.44679 -0.200565,-3.26838 -1.132682,-4.64012 -1.292351,-1.90188 -2.715732,-2.16006 -5.248868,-0.9521 -1.592705,0.75953 -1.971317,1.24084 -3.899913,4.95804 l -1.222283,2.35582 1.843872,0.0101 c 1.014111,0.005 2.443534,6.9e-4 3.176462,-0.0101 0.957699,-0.0135 1.196325,0.11698 0.84818,0.46509 -0.552041,0.55204 -1.652921,0.61678 -3.357136,0.19745 -1.502248,-0.36963 -3.344848,1.13773 -3.772852,3.08642 -0.16695,0.76022 -0.656045,2.49119 -1.086834,3.8466 -0.430795,1.3554 -0.920766,3.06731 -1.088845,3.80425 l -0.305567,1.33988 1.928712,-1.84627 c 2.277897,-2.18053 4.23369,-3.11172 7.297882,-3.47465 1.66055,-0.19668 2.505097,-0.0819 3.253173,0.44206 0.931228,0.65227 1.22112,0.63653 3.700458,-0.20076 1.961895,-0.66254 2.985428,-0.79615 3.78124,-0.49358 1.495864,0.56873 1.373175,0.91767 -0.211259,0.60079 -0.736513,-0.14736 -2.297075,0.0699 -3.591622,0.49986 -2.075034,0.68922 -2.423617,0.69656 -3.7263,0.0783 -1.320424,-0.62659 -1.672468,-0.60878 -4.336038,0.21926 -3.437303,1.06857 -5.190629,2.7661 -7.195116,6.96615 l -1.336393,2.80013 -0.08677,12.83634 c -0.08136,12.03136 -0.02819,12.99714 0.847503,15.40061 0.513877,1.41037 0.832088,2.66651 0.707175,2.79145 -3.336549,0.20089 -5.670324,0.20403 -11.791469,0.0792 z m 6.095222,-68.12965 c 0.181112,-0.29304 -0.08862,-1.24114 -0.599388,-2.10685 -0.510791,-0.86572 -0.920855,-1.91426 -0.911228,-2.3301 0.01013,-0.41583 0.301387,-0.10297 0.648375,0.69548 0.63788,1.46757 1.567288,1.96558 1.567288,0.83978 0,-0.33647 0.40106,-1.86716 0.891236,-3.40154 0.890546,-2.78768 0.890546,-2.79133 0,-4.80458 -0.490176,-1.10814 -0.867926,-2.44144 -0.839429,-2.96291 0.04899,-0.8962 0.0626,-0.8992 0.248362,-0.0549 0.341624,1.55252 1.135418,3.34971 1.479505,3.34971 0.182276,0 0.579963,-1.25615 0.883759,-2.79144 0.303802,-1.53528 0.744751,-3.43232 0.979894,-4.21563 0.465716,-1.55128 -0.428373,-3.98133 -1.635248,-4.44444 -0.343753,-0.13185 -0.855714,-0.93898 -1.137738,-1.79347 -0.282011,-0.85451 -0.584369,-1.482 -0.671912,-1.39447 -0.08761,0.0876 -0.694113,2.2616 -1.347894,4.8312 -0.65378,2.56962 -1.551004,5.37546 -1.993813,6.23521 -0.44281,0.85977 -1.02213,2.2464 -1.287378,3.0814 -0.598532,1.88421 -0.626652,15.03204 -0.04303,20.10873 0.376135,3.27174 1.803635,8.73392 2.635285,10.08375 0.151412,0.24564 0.39417,-3.79208 0.539616,-8.97275 0.145507,-5.18065 0.412609,-9.65915 0.593715,-9.95221 z m 0.74031,-16.8426 c 0.02142,-0.5203 0.12728,-0.62612 0.269832,-0.26985 0.12897,0.32242 0.113104,0.70764 -0.0353,0.85605 -0.148374,0.14838 -0.253966,-0.11529 -0.234569,-0.5862 z m -5.70415,4.39185 c 0.418213,-1.16681 0.762471,-2.82493 0.765009,-3.68468 0.0034,-1.14763 0.115964,-1.38704 0.423612,-0.90058 0.331874,0.52488 0.557329,0.33151 1.084452,-0.93008 1.995832,-4.77665 2.031855,-8.54998 0.108712,-11.38021 -0.648533,-0.95439 -1.179138,-2.15201 -1.179138,-2.66138 0,-0.50936 -0.516655,-1.61838 -1.148124,-2.46444 -0.86742,-1.16221 -1.09269,-1.89321 -0.921334,-2.98985 0.376381,-2.40916 -0.511647,-1.62828 -1.015869,0.89324 -2.149626,10.75031 -2.257425,17.97788 -0.349664,23.4442 0.536551,1.5374 1.087258,2.79527 1.223789,2.79527 0.136558,0 0.59039,-0.95466 1.008609,-2.12149 z m -1.510986,-9.81232 c -0.595528,-0.66809 -0.733427,-0.94694 -0.30645,-0.61964 0.855111,0.65548 1.011374,0.45774 1.374106,-1.73868 0.101452,-0.61412 0.211765,-0.0614 0.245222,1.22823 0.03346,1.28965 -0.0048,2.3448 -0.08457,2.3448 -0.08001,0 -0.632714,-0.54661 -1.228235,-1.21471 z m -4.257966,-3.34668 c -0.417337,-0.80747 -1.706971,-2.37252 -2.865867,-3.47794 -1.158894,-1.1054 -2.194951,-2.29664 -2.302344,-2.6472 -0.121033,-0.39481 -0.416003,-0.50092 -0.775303,-0.27886 -0.393856,0.24341 -0.494109,0.89593 -0.312306,2.03283 0.147198,0.9209 0.04659,2.30872 -0.223683,3.08406 -0.768974,2.2059 0.180942,3.95582 2.808083,5.17299 1.184773,0.5489 2.606987,1.57544 3.160481,2.28118 l 1.006364,1.28315 0.131667,-2.99105 c 0.09453,-2.14888 -0.08204,-3.40444 -0.627109,-4.45916 z m 1.325387,-4.03623 c 0.15682,-1.28963 0.406566,-3.25131 0.555149,-4.3593 0.148547,-1.10796 0.05283,-2.82138 -0.212695,-3.80759 -0.433811,-1.61105 -0.690006,-1.85427 -2.523496,-2.39564 -1.167403,-0.34469 -2.366153,-1.0668 -2.801264,-1.68744 -0.418315,-0.59671 -1.413774,-1.89713 -2.212136,-2.88986 -0.798345,-0.99271 -1.451535,-1.93221 -1.451535,-2.08774 0,-0.15564 0.647181,0.51665 1.438166,1.49379 2.738452,3.38291 4.245912,4.67972 5.439919,4.67972 1.561359,0 1.464162,-0.62574 -0.603477,-3.88477 -1.821775,-2.87152 -5.374287,-5.90725 -6.94456,-5.93435 -0.491289,-0.008 -1.775708,-0.7169 -2.854286,-1.57427 -2.147686,-1.70724 -3.830163,-2.08499 -3.461966,-0.77727 0.121033,0.42988 0.358778,1.48505 0.528291,2.34481 0.358896,1.8202 3.774626,7.17378 5.385547,8.44094 1.068163,0.84021 1.837997,2.11031 4.764751,7.86104 0.750101,1.47386 1.798598,3.28271 2.329978,4.01966 0.531381,0.73693 1.095779,1.69159 1.254219,2.12149 0.529102,1.43553 1.081583,0.80488 1.369395,-1.56322 z m -3.3712,0.22333 c -1.966491,-4.13767 -3.041625,-5.51591 -3.041625,-3.89913 0,0.924 2.128442,4.23409 2.722584,4.23409 0.263049,0 0.406617,-0.15074 0.319041,-0.33496 z m 11.534106,-4.86347 c -0.97635,-2.04741 -1.813351,-1.71256 -1.979391,0.79188 -0.102294,1.54276 0.101794,2.29781 0.893269,3.30403 l 1.025831,1.30429 0.404337,-1.91541 c 0.31622,-1.49796 0.24124,-2.25744 -0.344046,-3.48479 z m -27.660496,37.5931 c 0.596421,-0.81949 1.223074,-1.10615 2.440781,-1.11659 0.90108,-0.008 1.989212,-0.14871 2.418078,-0.31325 0.531617,-0.204 0.676975,-0.13285 0.456802,0.22332 -0.177633,0.28738 -1.167167,0.52253 -2.198986,0.52253 -1.392335,0 -2.019883,0.23032 -2.433894,0.89327 -0.306819,0.49129 -0.766508,0.89324 -1.021539,0.89324 -0.25503,0 -0.102633,-0.49613 0.338758,-1.10252 z m 34.558227,-3.17767 c 0.02142,-0.5203 0.127281,-0.62613 0.269839,-0.26984 0.128971,0.32242 0.113097,0.70763 -0.0353,0.85604 -0.148381,0.14838 -0.253986,-0.11529 -0.234589,-0.5862 z m 8.450693,0.10651 c 0,-0.16087 0.401956,-0.69449 0.893262,-1.1858 0.491291,-0.49129 0.893248,-0.72342 0.893248,-0.51585 0,0.20758 -0.401957,0.74118 -0.893248,1.1858 -0.491306,0.44462 -0.893262,0.67674 -0.893262,0.51585 z m 2.715035,-4.12611 c 0.02142,-0.52029 0.12728,-0.62613 0.269839,-0.26983 0.128963,0.32242 0.113097,0.70762 -0.0353,0.85604 -0.148388,0.14837 -0.253965,-0.11546 -0.234575,-0.58621 z m -59.074082,-1.83108 c 0.322418,-0.12896 0.70763,-0.11309 0.856043,0.0353 0.148379,0.14838 -0.115462,0.25397 -0.586192,0.23457 -0.520307,-0.0214 -0.62613,-0.12728 -0.269851,-0.26983 z m 67.725934,-7.51092 c 0.648991,-3.01456 1.226773,-4.65328 1.811887,-5.13888 0.373344,-0.30986 0.666726,-0.35682 0.666726,-0.10669 0,0.24565 -0.301469,0.69683 -0.669934,1.00264 -0.368466,0.30581 -0.679014,0.98361 -0.690091,1.50622 -0.01184,0.52264 -0.31057,1.5532 -0.665516,2.29013 -0.354959,0.73693 -0.558849,0.93791 -0.453072,0.44662 z m -40.316347,-0.89324 c -0.729827,-0.61413 -1.839448,-1.11657 -2.465815,-1.11657 -0.626367,0 -1.612119,-0.45221 -2.190563,-1.00493 -0.578443,-0.55271 -0.740377,-0.77181 -0.359874,-0.48694 1.230029,0.92093 2.48619,0.91433 2.407493,-0.0118 -0.05334,-0.62742 0.390226,-0.38201 1.787001,0.98881 1.164517,1.14288 2.524374,1.97928 3.643887,2.24121 l 1.786039,0.4179 -1.640597,0.0449 c -1.144226,0.0312 -2.042081,-0.29295 -2.967571,-1.0717 z m 27.439583,-5.70111 c 0.52063,-0.30345 1.626046,-0.91489 2.456465,-1.35877 l 1.50987,-0.80708 -1.563196,1.35334 c -0.859771,0.74434 -1.965173,1.35579 -2.456465,1.35878 -0.863992,0.005 -0.862254,-0.0118 0.05337,-0.54627 z m -46.081738,-6.32143 c -0.476451,-0.3484 -0.763082,-0.73662 -0.636984,-0.86271 0.126096,-0.1261 0.728747,0.15445 1.339195,0.62349 1.271353,0.97683 0.613166,1.20105 -0.702211,0.23922 z m 45.618998,-14.14257 c -0.40949,-1.02343 -0.660787,-1.94453 -0.558445,-2.04689 0.1023,-0.1023 0.521136,0.65127 0.930639,1.6747 0.409503,1.02344 0.660807,1.94454 0.558445,2.04689 -0.102301,0.10229 -0.521136,-0.65125 -0.930639,-1.6747 z m -12.42079,-1.63764 c -0.377483,-0.42988 -0.835571,-1.28405 -1.017963,-1.89818 -0.396723,-1.33576 -0.243901,-1.19333 1.07809,1.00493 1.078575,1.79345 1.05378,2.16177 -0.06007,0.89325 z m -46.124871,-6.60066 c 2.229438,-0.80318 2.457899,-0.79864 1.366187,0.027 -0.476839,0.36066 -1.381261,0.64692 -2.00984,0.63614 -0.946707,-0.0169 -0.836224,-0.12998 0.643653,-0.66322 z m 39.837282,-2.6725 c -0.408512,-0.85668 -0.650675,-1.55759 -0.538132,-1.55759 0.305602,0 1.661426,2.73467 1.457105,2.93897 -0.0969,0.0969 -0.510449,-0.5247 -0.918973,-1.38138 z m 3.123812,-6.0008 c -0.418883,-0.70913 -0.85548,-2.26056 -0.97022,-3.44763 l -0.208624,-2.15832 0.406308,1.86405 c 0.223465,1.02522 0.73572,2.50104 1.138306,3.27956 0.933102,1.80442 0.64336,2.17066 -0.36577,0.46234 z M 41.10284,244.7207 c -0.418264,-0.63835 -1.176585,-1.32906 -1.68516,-1.53489 -0.761512,-0.3082 -0.786749,-0.37923 -0.142978,-0.40254 0.951519,-0.0344 0.955772,0.19164 -0.05385,-2.86883 -0.555823,-1.68483 -0.646218,-2.37545 -0.270036,-2.06325 0.311005,0.25812 0.68879,1.11533 0.839549,1.90493 0.150743,0.78958 0.76548,2.49079 1.36607,3.78044 1.181363,2.53678 1.158895,3.03445 -0.05351,1.18414 z m 2.079776,0.14484 c 0,-0.64055 0.18842,-1.2811 0.418704,-1.42342 0.240057,-0.14837 0.32375,0.2649 0.196168,0.96849 -0.299628,1.65231 -0.614872,1.88555 -0.614872,0.45493 z m 27.41212,-8.64247 c 0.144837,-0.46065 -0.03489,-1.82535 -0.399576,-3.03266 -0.858614,-2.84274 -0.534505,-3.18636 0.404926,-0.4293 0.845478,2.48136 0.907158,3.57271 0.225709,3.99388 -0.322618,0.19938 -0.402921,0.0152 -0.231059,-0.53192 z m 1.65405,-1.76801 c 0.02142,-0.5203 0.12728,-0.62613 0.269839,-0.26985 0.128963,0.32242 0.113097,0.70763 -0.0353,0.85604 -0.148387,0.14838 -0.253972,-0.11546 -0.234575,-0.58619 z m -5.3243,-2.41924 c 0,-0.61413 0.101452,-0.86535 0.225284,-0.55829 0.1239,0.30705 0.1239,0.80951 0,1.11658 -0.123907,0.30706 -0.225284,0.0559 -0.225284,-0.55829 z m -5.805924,-2.5538 c -0.805118,-2.01662 -1.35486,-5.0389 -0.916559,-5.0389 0.219544,0 0.399151,0.49839 0.399151,1.10752 0,0.60915 0.326641,1.92389 0.725861,2.92163 0.399226,0.99775 0.627247,1.91269 0.50674,2.0332 -0.120527,0.12053 -0.442337,-0.34006 -0.715193,-1.02345 z"
       id="JS"
       inkscape:connector-curvature="0"
       sodipodi:nodetypes="cccccccccssccscscccscccsccccscssccscsccccccsccccscccccccccccsccscsccscccccccssccscccsscsccccssssscscccsccccccscscscssccccscccccscsccccccccscccccsccscsccccccccccssccccccccscccssccccscccccccccccccsscccccccccscccsccccccccccccccscccccccscccccccccscsccscscsccccsscccscsccccssscsccscscccsccssccccccsccccscscsscccccscccsccscccscccscccccccsccccccscccscscscccccsccccccsccccccccsccccccsccccscccsscccccccccccssccccsscsccccccsccccscsscsccccscsccccccccccsccsccccscccccccccsccssscccccscccssccscccccscsscsssccssssscccsccssssccccccccccccccccssccscscsccssccssccscccsccsccccsssccccccccsccccccccssccccccccccscscccccccccsscsccscccccccscccssscccsccssccccscssccccssccsscscsscscscssscccsccscccsccssscccsccscsccccscccccscssscscssccsccccsccscscsccccccccccccccsscscscccsccccccccccccscccccccsscscccccccsscccscccccsccccsccccccccccccsscccscccscscccccccccccccccscscssssccccccccccsscccccccccccscsccscccscssscsccccccccccsscscccscccsccccccsccccccccccccccccccccccccscccccscccccccccccsccscacsccccccsccscssccc">
      <title
         id="title1632">jasan ztepilý, úzkolistý</title>
    </path>
  </g>
</svg>
