<?xml version="1.0" encoding="UTF-8" standalone="no"?>
<!-- Created with Inkscape (http://www.inkscape.org/) -->

<svg
   xmlns:dc="http://purl.org/dc/elements/1.1/"
   xmlns:cc="http://creativecommons.org/ns#"
   xmlns:rdf="http://www.w3.org/1999/02/22-rdf-syntax-ns#"
   xmlns:svg="http://www.w3.org/2000/svg"
   xmlns="http://www.w3.org/2000/svg"
   xmlns:sodipodi="http://sodipodi.sourceforge.net/DTD/sodipodi-0.dtd"
   xmlns:inkscape="http://www.inkscape.org/namespaces/inkscape"
   width="40.531616mm"
   height="65.511894mm"
   viewBox="0 0 100 100"
   version="1.1"
   id="svg1660"
   inkscape:version="0.92.5 (2060ec1f9f, 2020-04-08)"
   sodipodi:docname="KL.svg">
  <defs
     id="defs1654" />
  <sodipodi:namedview
     id="base"
     pagecolor="#ffffff"
     bordercolor="#666666"
     borderopacity="1.0"
     inkscape:pageopacity="0.0"
     inkscape:pageshadow="2"
     inkscape:zoom="0.98994949"
     inkscape:cx="153.80239"
     inkscape:cy="276.77495"
     inkscape:document-units="mm"
     inkscape:current-layer="layer1"
     showgrid="false"
     fit-margin-top="0"
     fit-margin-left="0"
     fit-margin-right="0"
     fit-margin-bottom="0"
     inkscape:window-width="960"
     inkscape:window-height="1015"
     inkscape:window-x="0"
     inkscape:window-y="0"
     inkscape:window-maximized="0" />
  <metadata
     id="metadata1657">
    <rdf:RDF>
      <cc:Work
         rdf:about="">
        <dc:format>image/svg+xml</dc:format>
        <dc:type
           rdf:resource="http://purl.org/dc/dcmitype/StillImage" />
        <dc:title></dc:title>
      </cc:Work>
    </rdf:RDF>
  </metadata>
  <g
     inkscape:label="Layer 1"
     inkscape:groupmode="layer"
     id="layer1"
     transform="translate(-4.68061,-235.51787)">
    <path
       style="fill:#000000;stroke-width:0.43886176"
       d="m 50.278029,368.54434 c -0.667686,-0.13253 -0.761204,-0.41167 -0.518487,-1.54694 1.02965,-4.81584 1.630898,-10.17702 1.828709,-16.30646 0.266848,-8.26835 0.05803,-8.85895 -3.927083,-11.10801 -1.337355,-0.75477 -3.147373,-2.00078 -4.022222,-2.76893 -1.287838,-1.13072 -1.990978,-1.40487 -3.69327,-1.43992 -1.790294,-0.0368 -2.104796,-0.17367 -2.117408,-0.92101 -0.03606,-2.13488 -0.15177,-2.41376 -1.002326,-2.41376 -0.76178,0 -0.80943,-0.11528 -0.351032,-0.84933 0.291732,-0.46713 0.691634,-0.74969 0.888683,-0.62793 0.462823,0.28604 2.976957,-2.07884 2.976957,-2.80021 0,-0.60297 -0.573881,-0.67824 -2.084583,-0.27339 -0.543095,0.14547 -0.987444,0.53782 -0.987444,0.87172 0,0.85888 -0.575662,0.75272 -1.181851,-0.21794 -0.471743,-0.75537 -0.332413,-0.8493 1.649888,-1.11228 1.83372,-0.24324 2.172915,-0.43603 2.21604,-1.25952 0.03878,-0.74274 0.0984,-0.79098 0.251609,-0.20432 0.246135,0.94183 1.157358,0.99467 1.891785,0.10964 0.300495,-0.36206 0.867767,-0.6613 1.260602,-0.665 1.739096,-0.0166 1.900792,-0.71414 0.492041,-2.1229 -1.337643,-1.33763 -1.502068,-1.38129 -5.202664,-1.38129 -3.707392,0 -3.842139,0.036 -4.517698,1.20688 -1.269192,2.19979 -1.748592,4.2798 -1.274076,5.5279 0.291573,0.76685 0.292823,1.48987 0.0029,2.14781 -0.405519,0.92305 -0.423749,0.90641 -0.26303,-0.23983 0.0951,-0.67741 -0.08978,-1.49405 -0.410388,-1.81474 -0.60935,-0.60935 -0.397791,-1.69266 0.972073,-4.97775 0.330561,-0.79266 0.600988,-1.63197 0.600988,-1.86515 0,-0.83923 -0.863558,-0.39966 -1.538039,0.78288 -0.558035,0.97845 -0.638165,1.01999 -0.423275,0.21944 0.229185,-0.85388 0.09783,-0.98662 -0.971412,-0.98145 -2.167815,0.01 -3.178647,0.49584 -4.08408,1.96087 -0.485476,0.78553 -0.905591,2.19485 -0.933588,3.13186 -0.02802,0.93701 -0.143984,1.34384 -0.2577,0.90409 -0.200038,-0.77354 -0.226915,-0.77354 -0.824757,0 -0.676162,0.87483 0.219919,-1.59956 1.433287,-3.95788 0.624906,-1.21455 0.615196,-1.23863 -0.377866,-0.93901 -1.371803,0.41388 -3.777982,2.74533 -4.588058,4.44554 -0.362208,0.76024 -1.232445,1.94518 -1.933848,2.63317 -0.701416,0.68801 -1.29637,1.54714 -1.322128,1.9092 -0.03218,0.45309 -0.115784,0.48729 -0.2682,0.10964 -0.369204,-0.91502 -2.126501,-0.61566 -3.220249,0.54858 -0.566884,0.60344 -1.231008,1.09715 -1.475837,1.09715 -0.2448,0 -0.01293,-0.40266 0.515371,-0.89481 0.528271,-0.49215 0.960466,-1.08462 0.960466,-1.31659 0,-0.23196 0.503535,-0.42177 1.118959,-0.42177 1.911308,0 3.482071,-1.15678 4.760672,-3.50601 0.676061,-1.24214 1.154901,-2.33276 1.06407,-2.42357 -0.09093,-0.0909 -1.025154,0.028 -2.076322,0.26428 -1.051141,0.23618 -2.016765,0.32382 -2.145823,0.19476 -0.129001,-0.12905 0.09452,-0.23466 0.496767,-0.23466 1.645162,0 0.277079,-1.72346 -1.440914,-1.81521 -1.034548,-0.0552 -1.044375,-0.0742 -0.13015,-0.25015 0.579655,-0.11163 1.470564,0.1885 2.152803,0.72516 1.307777,1.02869 3.709503,0.88323 5.073564,-0.30729 0.704476,-0.61484 0.664958,-0.74233 -0.594983,-1.91929 -0.996581,-0.93094 -1.825317,-1.27699 -3.168333,-1.32299 l -1.818766,-0.0622 1.658378,-0.26687 1.658363,-0.26686 -1.421896,-1.71942 c -1.77807,-2.15008 -0.570376,-1.50695 1.374518,0.73196 0.813653,0.93666 1.83546,1.64864 2.371588,1.65246 0.775627,0.005 0.82572,0.0846 0.283686,0.44721 -0.575173,0.38485 -0.560736,0.51523 0.114349,1.03244 0.657716,0.50394 1.332184,0.44257 4.537148,-0.41288 2.070519,-0.55264 3.816712,-1.06964 3.880436,-1.14886 0.06364,-0.0793 0.356116,-0.53904 0.649701,-1.02179 0.521204,-0.85706 0.529119,-0.85547 0.336149,0.068 -0.188976,0.90426 -0.02183,0.95337 3.809846,1.12032 2.204101,0.096 4.084983,0.11958 4.179723,0.0522 0.349911,-0.24839 -1.091737,-1.61266 -3.215537,-3.0429 l -2.185212,-1.4716 -1.116085,0.97206 c -0.613832,0.53464 -0.869205,0.68867 -0.567489,0.34228 1.55341,-1.78333 -0.544446,-3.1063 -3.217548,-2.02905 -1.447164,0.58319 -1.584655,0.58901 -0.867738,0.0368 0.468525,-0.36094 1.060995,-0.66063 1.316583,-0.666 0.748534,-0.0149 -1.658104,-1.7252 -2.443903,-1.73593 -0.392835,-0.005 -0.960107,0.28647 -1.260601,0.64853 -0.300466,0.36206 -0.73065,0.65831 -0.955913,0.65831 -0.225291,0 0.121674,-0.45707 0.771188,-1.01569 l 1.180789,-1.01568 -1.924338,-1.4246 c -2.063264,-1.52749 -3.563954,-1.60263 -5.412269,-0.27102 -0.49536,0.35689 -1.394386,0.98684 -1.997817,1.3999 l -1.097167,0.75099 1.030799,-1.15154 c 0.566914,-0.63335 1.603732,-1.38888 2.304014,-1.67894 1.683043,-0.69716 1.605943,-1.20441 -0.304316,-2.00258 -1.419223,-0.59297 -1.685499,-0.58843 -2.65276,0.0453 -0.591364,0.38747 -1.258978,1.1879 -1.483623,1.7787 -0.42497,1.1178 -0.950453,1.48158 -0.75928,0.52563 0.06939,-0.34636 -0.294734,-0.50257 -0.98743,-0.42378 -0.807461,0.0919 -0.618987,-0.0989 0.713871,-0.72233 1.866646,-0.87312 2.657961,-1.66269 2.162716,-2.15794 -0.155921,-0.15592 -0.666652,-0.0439 -1.135149,0.24863 -1.157214,0.72269 -1.523832,0.66906 -0.863716,-0.12639 0.458858,-0.55289 0.383756,-0.65829 -0.468999,-0.65829 -0.984672,0 -0.989614,-0.0189 -0.163391,-0.6248 0.714905,-0.52433 0.957736,-0.52983 1.51017,-0.0342 0.362063,0.32483 1.204993,0.72705 1.873168,0.89382 1.166996,0.29125 1.197379,0.25721 0.771059,-0.86407 -0.244082,-0.642 -1.028329,-1.79271 -1.74276,-2.55715 -1.818536,-1.94584 -1.30124,-2.07013 0.619937,-0.14895 0.868945,0.86895 1.82016,1.58293 2.113858,1.58664 0.395981,0.005 0.388367,0.099 -0.02959,0.36423 -1.007742,0.63942 -0.05832,1.78551 2.596333,3.13459 3.237416,1.64512 3.645692,1.65121 2.813494,0.042 -0.437295,-0.84561 -1.136341,-1.38422 -2.059816,-1.58705 -1.158795,-0.25451 -1.27208,-0.37742 -0.662443,-0.7186 0.404484,-0.22635 0.931347,-0.29048 1.170817,-0.14247 0.820046,0.50682 0.435327,-0.52883 -0.861461,-2.31898 -0.85669,-1.18263 -1.713151,-1.85294 -2.523457,-1.97497 l -1.226628,-0.18476 1.215811,-0.0657 1.215781,-0.0657 -0.904586,-1.77315 c -0.497514,-0.97521 -1.390219,-1.95776 -1.983794,-2.18345 -1.509811,-0.57403 -1.345831,-0.90228 0.287536,-0.5756 1.325691,0.26513 1.350413,0.24172 0.82266,-0.77898 -0.299259,-0.57879 -1.047205,-1.74353 -1.662113,-2.58834 l -1.118011,-1.53603 1.161624,1.05319 c 1.208958,1.09607 1.257441,1.06761 1.794131,-1.05319 0.122248,-0.48275 0.118083,0.13783 -0.0086,1.37897 -0.141929,1.38668 -0.04856,2.36954 0.242459,2.54936 0.260443,0.16089 0.47588,0.8241 0.478768,1.47365 0.0029,0.64952 0.698773,2.36588 1.546414,3.81412 0.847655,1.44825 1.882117,3.3765 2.298784,4.28502 0.587629,1.28119 1.122708,1.75158 2.384819,2.09651 0.89496,0.24457 1.758115,0.65651 1.918116,0.9154 0.201302,0.32572 0.01293,0.32203 -0.6109,-0.0116 -1.282537,-0.6864 -1.839625,-0.59914 -1.821726,0.28536 0.02715,1.34652 1.107712,2.79956 3.053267,4.10622 2.165544,1.45439 2.866214,1.60004 2.414108,0.50182 -0.757484,-1.84004 -0.640564,-2.35688 0.155419,-0.68739 0.844725,1.77149 2.733881,3.21088 4.214172,3.21088 1.068278,0 0.795596,-1.4604 -0.446934,-2.39348 -0.61985,-0.46549 -1.525656,-1.45043 -2.012943,-2.18876 l -0.885939,-1.34241 0.973826,1.09716 c 0.535612,0.60342 1.194564,1.02894 1.464374,0.94557 0.269795,-0.0834 1.172096,-0.23829 2.005098,-0.34427 1.881241,-0.23935 2.049719,-0.4021 1.322833,-1.27793 -0.769695,-0.92745 -2.693084,-1.89583 -5.307374,-2.6722 -1.509754,-0.44835 -2.12788,-0.85564 -2.103416,-1.38594 0.01925,-0.41588 0.129719,-0.51721 0.247788,-0.2271 0.117222,0.28818 0.545983,0.41767 0.952781,0.28776 0.536387,-0.17127 0.585272,-0.12491 0.177843,0.16845 -0.39157,0.28202 0.257082,0.63231 2.140392,1.15592 2.896009,0.80516 3.496508,0.71093 2.571581,-0.40353 -0.412198,-0.49666 -1.041155,-0.63756 -2.147143,-0.48102 -0.860283,0.12175 -1.218554,0.12241 -0.796141,8.4e-4 1.051097,-0.30119 0.963037,-1.15167 -0.248507,-2.3999 -0.559055,-0.576 -1.275885,-1.69311 -1.592928,-2.48247 -0.317043,-0.78935 -1.132348,-1.90294 -1.811742,-2.47464 -0.679438,-0.57171 -1.127392,-1.14739 -0.995475,-1.27931 0.131873,-0.13187 -0.07642,-0.69155 -0.463196,-1.24363 -0.386686,-0.55201 -0.703054,-1.3176 -0.703054,-1.70126 0,-0.38363 -0.59247,-1.13554 -1.316583,-1.67092 -1.565505,-1.15742 -1.744569,-1.94424 -0.285812,-1.25581 0.566928,0.26754 1.465437,1.4339 1.996666,2.59188 0.53123,1.15798 1.252313,2.10542 1.602396,2.10542 0.355513,0 0.636514,0.40987 0.636514,0.92842 0,1.19271 3.732114,6.82376 4.957132,7.47937 l 0.934666,0.50022 -0.828247,-1.27226 c -0.652718,-1.00261 -0.67609,-1.14758 -0.110326,-0.68404 0.394875,0.32351 0.862854,1.01472 1.03995,1.53603 0.297621,0.87601 0.34484,0.84808 0.623369,-0.36879 l 0.301356,-1.31659 0.05186,1.39447 c 0.0352,0.94377 0.425631,1.68839 1.208256,2.30402 1.451975,1.14213 2.578376,1.2172 2.124101,0.14166 -0.178404,-0.42241 -0.523746,-1.75547 -0.76744,-2.96233 -0.24368,-1.20687 -0.752829,-2.55196 -1.131443,-2.98911 -0.524477,-0.60557 -0.560678,-0.87372 -0.151941,-1.1263 0.408852,-0.25268 0.420574,-0.6637 0.04927,-1.72866 -0.267869,-0.76844 -0.636384,-1.39714 -0.818895,-1.39714 -0.549417,0 -2.654327,-2.11415 -2.654327,-2.66596 0,-0.37986 0.153265,-0.38631 0.588965,-0.0247 0.323924,0.26883 0.718899,0.35884 0.877707,0.20002 0.158738,-0.1589 0.288787,-0.0197 0.288787,0.30893 0,0.32874 0.518675,1.13912 1.152617,1.80079 0.739082,0.77144 1.329698,2.08697 1.646123,3.66654 0.555896,2.77505 1.301773,3.21701 1.506651,0.89277 0.07498,-0.84985 0.321769,-1.54517 0.54857,-1.54517 0.604709,0 0.504252,1.12488 -0.264797,2.96548 -0.617063,1.47684 -0.608041,2.00154 0.101708,5.91054 0.428359,2.35941 0.981812,4.28984 1.229902,4.28984 0.797893,0 1.590932,-1.71538 1.171277,-2.53357 -0.637878,-1.24369 -1.009624,-4.48823 -0.514235,-4.48823 0.244224,0 0.463727,-0.93806 0.487789,-2.0846 0.03405,-1.6243 0.11406,-1.84232 0.362667,-0.98743 0.175429,0.60343 0.155749,1.68832 -0.04381,2.41084 -0.487372,1.76537 -0.446977,3.80658 0.09122,4.61094 0.380595,0.56877 0.536918,0.53893 1.149471,-0.21943 0.623973,-0.77244 0.675602,-0.78131 0.430529,-0.0738 -0.153091,0.44215 -0.278472,1.19438 -0.278472,1.67163 0,0.47724 -0.188804,0.75104 -0.419582,0.60841 -0.230751,-0.14264 -0.7525,0.24879 -1.159413,0.8698 -0.593619,0.906 -0.642662,1.34238 -0.248103,2.2083 0.613587,1.34668 1.268057,1.38624 1.517382,0.0917 0.175673,-0.91206 0.194751,-0.90211 0.249956,0.13039 0.03634,0.68023 0.761018,1.7969 1.85116,2.85259 l 1.791401,1.73481 -0.308812,-2.19432 c -0.169827,-1.20686 -0.679724,-3.95776 -1.133094,-6.1131 -0.453371,-2.15533 -0.838189,-4.03148 -0.85514,-4.16918 -0.01695,-0.13768 -0.216586,0.14464 -0.443587,0.62733 -0.314041,0.66782 -0.358042,0.50376 -0.184049,-0.68615 0.322617,-2.20632 -2.10524,-8.87865 -4.199405,-11.54095 -0.759322,-0.96532 -4.61176,-3.3525 -5.410272,-3.3525 -0.111906,0 -0.289074,0.44435 -0.393682,0.98744 -0.170115,0.88325 -0.196489,0.8655 -0.249956,-0.16824 -0.04008,-0.77635 -0.362841,-1.23495 -0.983064,-1.39713 -0.7913,-0.20694 -0.893208,-0.0839 -0.712794,0.85981 0.115785,0.60569 0.05674,0.93818 -0.131155,0.73883 -0.187971,-0.19933 -0.410317,-0.74102 -0.494082,-1.20378 -0.08791,-0.48601 -0.708354,-1.0083 -1.468898,-1.23665 -0.724114,-0.21741 -2.052619,-0.70608 -2.952221,-1.08591 -1.327888,-0.56067 -1.76139,-0.58624 -2.304027,-0.13585 -0.495129,0.41094 -0.821007,0.42802 -1.257326,0.0658 -0.323924,-0.26882 -0.761765,-0.34238 -0.972979,-0.16338 -0.211199,0.17894 -0.145304,0.0116 0.146297,-0.37333 0.29166,-0.38428 0.383885,-0.87589 0.204965,-1.09248 -0.178935,-0.2166 0.106447,-0.0311 0.634445,0.41251 0.538025,0.452 1.193932,0.66162 1.492631,0.477 0.36939,-0.22829 0.07498,-0.72504 -0.959792,-1.61951 -0.945512,-0.8173 -0.485189,-0.60718 1.255875,0.57328 1.511665,1.02492 2.853186,1.75881 2.981108,1.63086 0.59089,-0.59087 -1.30045,-3.30168 -2.6421,-3.78682 -0.784146,-0.28355 -1.799604,-0.93282 -2.256608,-1.44283 -0.679782,-0.75863 -0.520456,-0.71769 0.87607,0.2251 3.150476,2.12686 3.788297,1.15534 1.588562,-2.4197 -0.721902,-1.17322 -1.140838,-2.13312 -0.930974,-2.13312 0.209849,0 0.628727,0.59669 0.930802,1.32599 0.845126,2.04028 1.31269,1.99082 1.31269,-0.13883 0,-2.01118 -0.724961,-3.14843 -3.072889,-4.82043 l -1.096291,-0.78067 1.097153,0.50792 c 0.60343,0.27938 1.44396,0.81049 1.867852,1.1803 1.859378,1.62211 1.182368,-0.47932 -1.228236,-3.81237 -0.593159,-0.82016 -1.075245,-1.70885 -1.071266,-1.97487 0.0029,-0.26602 0.448314,0.22928 0.987445,1.10065 0.539116,0.8714 1.412759,2.23726 1.941389,3.03526 0.528658,0.79801 1.095945,2.24848 1.260644,3.22328 l 0.299431,1.77234 1.262799,-1.41335 c 1.539734,-1.72325 1.696934,-1.105 0.17803,0.70011 -0.59665,0.70906 -1.265256,1.76382 -1.485778,2.34393 -0.45449,1.19536 0.152258,5.94877 0.869749,6.81321 0.54969,0.66235 4.261923,2.12749 4.581264,1.80814 0.125265,-0.12524 -0.288399,-0.84102 -0.919181,-1.59065 -0.736539,-0.87534 -1.078391,-1.71937 -0.955524,-2.35912 0.176923,-0.92109 0.195843,-0.91097 0.251091,0.13418 0.0329,0.62172 0.553497,1.5942 1.156927,2.16112 0.603444,0.56688 1.097899,1.24315 1.098805,1.50278 0.0014,0.50302 3.849464,2.25304 4.194677,1.9078 0.112481,-0.11245 -0.181563,-0.69548 -0.653522,-1.29549 -0.471987,-0.60002 -1.190296,-1.92109 -1.596275,-2.93575 -0.494312,-1.2354 -1.372695,-2.28138 -2.658938,-3.16634 -1.056413,-0.72684 -1.920761,-1.40654 -1.920761,-1.51046 0,-0.36984 2.419913,0.88072 2.76471,1.42874 0.193013,0.30678 0.565463,0.55781 0.827645,0.55781 1.265312,0 -1.279392,-9.21469 -2.848129,-10.31349 -1.476528,-1.03419 -2.203945,-0.84922 -1.871358,0.47587 0.184551,0.73527 0.124116,1.03475 -0.171853,0.85183 -0.251063,-0.15509 -0.456459,-0.5426 -0.456459,-0.86098 0,-0.31837 -0.444348,-0.90833 -0.98743,-1.31101 -0.543096,-0.40268 -0.742127,-0.61356 -0.442337,-0.46863 0.299805,0.14497 0.833318,0.10218 1.1856,-0.0949 0.544087,-0.30449 0.505099,-0.57231 -0.25905,-1.7792 -0.494771,-0.78142 -1.231195,-1.42075 -1.636528,-1.42075 -1.002629,0 -2.575331,-1.15378 -3.171262,-2.32654 -0.3297,-0.64883 -0.04267,-0.4882 0.876098,0.49039 0.905389,0.96428 1.627405,1.37249 2.139917,1.20982 0.52129,-0.16554 1.128857,0.1997 1.863386,1.11992 2.756263,3.45299 3.178847,3.89503 3.723509,3.89503 0.908364,0 1.329469,-3.39888 0.533543,-4.30633 -0.357265,-0.40732 -0.778917,-1.23431 -0.936965,-1.83774 -0.278027,-1.06147 -0.264997,-1.0579 0.400966,0.10963 0.378584,0.66377 0.891182,1.20686 1.139099,1.20686 0.247902,0 0.330073,-0.19522 0.182612,-0.43382 -0.153752,-0.24878 0.02241,-0.32235 0.412961,-0.17248 0.374604,0.14381 0.681074,0.72229 0.681074,1.28566 0,0.56337 0.216817,1.15829 0.481785,1.32206 0.264969,0.16371 1.054918,1.20152 1.755445,2.30612 l 1.273673,2.00838 v -2.32413 c 0,-2.07097 -0.167284,-2.4914 -1.536013,-3.86012 -0.844798,-0.84482 -1.536014,-1.70393 -1.536014,-1.90918 0,-0.20525 -0.304243,-0.54344 -0.676105,-0.75154 -0.410115,-0.22951 -0.564299,-0.66973 -0.3919,-1.11897 0.405001,-1.05542 0.769522,-0.92552 1.667284,0.59428 0.585028,0.99037 1.005846,1.26588 1.630638,1.06757 0.463153,-0.14697 0.84211,-0.0643 0.84211,0.1835 0,0.24791 0.571769,0.40934 1.270571,0.35872 1.186189,-0.0859 1.256895,-0.19409 1.064471,-1.62807 -0.407559,-3.03722 -1.408047,-4.67379 -3.182166,-5.20532 -1.62018,-0.48541 -3.753188,-2.25534 -2.718008,-2.25534 0.286359,0 0.634589,0.29694 0.773861,0.65986 0.260961,0.68008 4.857092,2.24809 5.297792,1.80739 0.135897,-0.13585 -0.37245,-0.82588 -1.129704,-1.53326 -0.75724,-0.70738 -1.364291,-1.65125 -1.348991,-2.09749 0.02543,-0.74155 0.05904,-0.73585 0.390866,0.0663 0.199678,0.48275 0.878354,1.35651 1.508202,1.94166 0.629835,0.58517 1.145133,1.35751 1.145133,1.71632 0,0.55091 2.442395,3.14439 2.961227,3.14439 0.09352,0 0.0599,-0.44434 -0.07441,-0.98745 -0.13446,-0.54309 0.0441,-0.36072 0.396842,0.40526 0.978969,2.12596 1.543944,2.19835 1.543944,0.19779 0,-2.22211 -0.566425,-3.7043 -2.207478,-5.77627 -0.716874,-0.90516 -1.295696,-2.01229 -1.286244,-2.46028 0.01149,-0.57102 0.202077,-0.42091 0.635552,0.50199 1.406251,2.9941 2.85817,3.76121 2.85817,1.51013 0,-0.73838 0.180618,-1.23086 0.401371,-1.09443 0.220762,0.13652 0.501404,-10e-6 0.623654,-0.30324 0.173334,-0.42993 0.22989,-0.42573 0.25691,0.0191 0.01911,0.31371 -0.274017,1.16726 -0.651268,1.8968 -0.838763,1.62198 -0.451847,5.86442 0.637247,6.98725 1.146212,1.18169 2.739283,1.39227 2.999686,0.39651 0.121386,-0.46442 0.395833,-0.73621 0.609778,-0.60399 0.213914,0.1322 0.388954,-0.16624 0.388954,-0.66324 0,-0.49698 -0.148119,-0.90496 -0.329137,-0.90662 -0.370972,-0.003 -2.304028,-2.72134 -2.304028,-3.23957 0,-0.18462 0.538487,0.30429 1.196634,1.08644 l 1.196603,1.42211 0.303568,-1.48425 c 0.166952,-0.81633 0.122247,-1.82311 -0.09955,-2.2373 -0.470337,-0.87881 -0.460926,-3.6238 0.01767,-5.19938 0.222923,-0.73364 0.317475,-0.15194 0.285396,1.75545 -0.02641,1.56893 0.149457,2.95133 0.390897,3.07202 0.241368,0.12076 1.002799,-0.86675 1.692049,-2.1943 0.858573,-1.6537 1.188675,-2.03372 1.048295,-1.20688 -0.266217,1.56811 0.20442,1.52618 1.609264,-0.14331 0.62492,-0.74264 1.136185,-1.15851 1.136185,-0.92414 0,0.45088 -1.74276,2.26678 -3.772855,3.93118 -1.092989,0.89612 -1.269796,1.43616 -1.724143,5.26634 -0.432754,3.64807 -0.407156,4.53871 0.17629,6.133 0.375397,1.02585 0.936175,1.86518 1.246193,1.86518 0.309992,0 0.563625,-0.18145 0.563625,-0.40322 0,-0.22176 0.691203,-1.05517 1.536013,-1.85201 0.8448,-0.79685 1.536015,-1.6232 1.536015,-1.83633 0,-0.21315 -0.888699,-1.37597 -1.974873,-2.58407 -1.086193,-1.2081 -1.974892,-2.41218 -1.974892,-2.67571 0,-0.5493 0.191763,-0.34866 1.91171,2.0004 0.662747,0.90515 1.361176,1.64574 1.552046,1.64574 0.190901,0 0.588391,-0.80545 0.883324,-1.78987 0.453169,-1.51252 0.429927,-1.95214 -0.149942,-2.83717 -0.377423,-0.57601 -0.678491,-1.39985 -0.669037,-1.83074 0.01003,-0.4603 0.279505,-0.17936 0.653191,0.68112 0.792146,1.8241 1.591578,1.60936 2.209645,-0.5935 0.280814,-1.00088 0.571367,-1.43456 0.711459,-1.06199 0.130151,0.34639 0.08045,1.02476 -0.110472,1.5075 -0.401539,1.01483 -0.529907,5.04692 -0.160718,5.04692 0.136473,0 0.616073,-0.19684 1.065593,-0.43742 0.6934,-0.37109 0.780454,-0.7945 0.57424,-2.79259 -0.145636,-1.41096 -0.06177,-2.46723 0.209244,-2.63471 0.294492,-0.18202 0.37258,0.31486 0.223801,1.42413 -0.125698,0.93703 -0.01494,2.07264 0.247829,2.52357 0.261979,0.45092 0.482359,0.573 0.489687,0.27128 0.0072,-0.30172 0.333762,-0.54857 0.725377,-0.54857 0.583143,0 0.613141,0.11909 0.165704,0.65829 -0.749957,0.90364 0.139484,0.87472 1.551453,-0.0504 1.309889,-0.85828 1.383368,-1.90993 0.204003,-2.91972 -0.482761,-0.41335 -0.877719,-0.99491 -0.877719,-1.29236 0,-0.29744 0.309739,-0.0985 0.688313,0.44191 0.378567,0.5405 0.872292,0.86902 1.097163,0.73005 0.547019,-0.33808 0.523676,-2.71126 -0.03005,-3.05348 -0.241383,-0.14911 -0.438859,-0.501 -0.438859,-0.78183 0,-0.28084 0.31753,-0.0572 0.705623,0.49679 l 0.705612,1.00742 1.006827,-0.94585 c 0.553749,-0.52023 1.226492,-1.81833 1.495009,-2.88465 0.588265,-2.33626 0.959519,-2.55682 0.602716,-0.35806 l -0.256522,1.58073 1.490963,-0.76304 1.490991,-0.76305 -0.836018,0.93777 c -0.45982,0.51577 -1.158136,0.93776 -1.551814,0.93776 -0.953009,0 -3.536803,3.40832 -3.536803,4.66543 0,0.97748 0.02888,0.98309 1.645736,0.31827 0.905161,-0.3722 2.188831,-1.18903 2.852608,-1.81517 0.663764,-0.62614 1.206864,-0.92744 1.206864,-0.66955 0,0.54717 -2.354078,2.3619 -3.972466,3.06231 -1.18248,0.51177 -3.466008,4.26214 -2.924707,4.80343 0.174727,0.17475 0.810649,-0.1453 1.413122,-0.71139 0.602495,-0.566 1.095439,-0.79999 1.095439,-0.51997 0,0.28004 -0.804099,1.04128 -1.786891,1.69165 -1.603197,1.06094 -3.851773,4.30911 -3.33843,4.82246 0.423446,0.42345 4.738835,-2.62651 5.327828,-3.76549 0.339521,-0.65659 0.941493,-1.46282 1.337702,-1.79164 0.5162,-0.42841 0.449922,-0.1395 -0.233866,1.0194 -0.947525,1.60596 -0.947956,1.61726 -0.06178,1.61726 0.490877,0 1.399088,-0.19261 2.01823,-0.42801 0.619165,-0.2354 1.125729,-0.28304 1.125729,-0.10584 0,0.17719 -1.368015,0.75319 -3.040023,1.28001 -2.769984,0.87275 -7.931517,3.79695 -7.931517,4.49348 0,0.15841 -0.990804,2.15156 -2.20179,4.42939 -1.210967,2.27783 -2.098688,4.41012 -1.972705,4.73843 0.264123,0.6883 -1.189405,4.20088 -1.927009,4.65674 -0.272668,0.16851 -0.393579,0.47168 -0.268719,0.67371 0.391744,0.63389 3.37363,-0.55967 3.755907,-1.50337 0.20041,-0.49472 0.376886,-0.65262 0.392184,-0.3509 0.05919,1.16611 1.345171,0.46427 2.41253,-1.31659 l 1.11787,-1.86516 0.003,1.43522 0.003,1.43521 1.676306,-0.85518 c 1.484127,-0.75694 4.029294,-3.77816 4.029294,-4.78243 0,-0.84107 -2.952643,0.1083 -4.326212,1.39104 l -1.473637,1.37614 0.319616,-1.536 c 0.402813,-1.93596 1.251705,-3.61332 2.237199,-4.4206 0.519361,-0.42544 0.387878,0.0194 -0.409916,1.3871 -1.402833,2.40483 -1.569916,3.6234 -0.311655,2.2728 0.474586,-0.50941 1.236309,-1.04471 1.692694,-1.18956 0.456403,-0.14481 1.060697,-0.70337 1.342903,-1.24116 l 0.513073,-0.97779 -0.196487,1.01299 c -0.148613,0.76638 -0.01793,0.9792 0.537115,0.87413 0.47897,-0.0907 0.783458,-0.66112 0.877235,-1.64344 0.132019,-1.38299 0.08231,-1.45364 -0.616405,-0.87413 -0.718683,0.59616 -0.720523,0.55405 -0.03406,-0.77405 0.39936,-0.77249 0.749008,-2.15491 0.777008,-3.07204 0.02801,-0.91714 0.146803,-1.29326 0.263893,-0.83581 0.171117,0.66826 0.289163,0.71139 0.600655,0.21943 0.540078,-0.85296 0.536474,0.23824 -0.0072,2.1335 -0.311947,1.08779 -0.272872,1.42341 0.165702,1.42341 0.903018,0 1.422828,-0.93552 1.706902,-3.07203 0.144474,-1.08619 0.476513,-2.86358 0.737962,-3.94976 0.261453,-1.08618 0.64377,-2.86759 0.849579,-3.95871 0.399866,-2.11962 1.680118,-5.41292 1.739758,-4.47528 0.01968,0.30945 -0.250339,1.24753 -0.600097,2.08459 -0.79062,1.89227 -0.484857,1.91211 1.473641,0.0955 1.520168,-1.40995 1.150002,-0.67218 -0.690642,1.37645 -1.907918,2.1235 -3.013803,5.83251 -1.364562,4.57658 1.063655,-0.81001 4.728362,-2.8074 4.728362,-2.57714 0,0.12706 -1.271705,1.03429 -2.826004,2.01592 -2.930181,1.85058 -4.002401,3.54009 -3.675491,5.79155 0.142937,0.98446 0.157249,0.98153 1.348131,-0.27591 2.01794,-2.13084 1.341109,-0.91211 -0.943169,1.69825 -2.199725,2.51375 -3.024075,4.18076 -2.067403,4.18076 0.292104,0 1.201054,-0.69121 2.019879,-1.53601 0.818813,-0.84482 1.684456,-1.53601 1.923639,-1.53601 0.752122,0 -2.070133,2.67601 -3.714676,3.52218 -1.346174,0.69265 -3.914183,3.3923 -3.914183,4.11485 0,0.77681 4.236371,-1.92339 6.443385,-4.10693 0.768058,-0.75987 1.531161,-1.99484 1.695775,-2.74437 0.406073,-1.84887 3.291281,-6.05207 4.154338,-6.05207 0.383255,0 0.888625,-0.14813 1.123022,-0.32916 0.432443,-0.33397 -0.892276,0.82764 -1.896378,1.66287 -1.757028,1.46155 1.300812,1.82285 3.145677,0.3717 0.648697,-0.51028 1.279157,-0.82805 1.401022,-0.70617 0.50286,0.50283 -2.480636,2.07278 -3.93908,2.07278 -1.778123,0 -3.118282,1.14906 -3.490445,2.99271 -0.130581,0.64707 -0.366671,1.51039 -0.524607,1.91849 -0.295924,0.76471 0.07183,0.78248 4.256261,0.2057 1.292939,-0.17823 5.070148,-3.68065 5.949159,-5.51638 l 0.544234,-1.13654 -0.275299,1.09717 c -0.151432,0.60342 -0.362547,1.3296 -0.469182,1.61371 -0.126566,0.33701 0.161397,0.44305 0.828229,0.30506 0.732136,-0.15144 0.636585,-0.032 -0.336703,0.42132 -0.913497,0.42542 -1.596684,1.22727 -2.084598,2.4467 -0.994239,2.48484 -0.931437,2.59068 0.658676,1.11023 1.467579,-1.36637 1.345533,-0.87247 -0.35204,1.42462 -1.726639,2.33643 -1.370064,2.88649 1.052183,1.6231 1.146539,-0.598 1.692151,-0.83095 1.212486,-0.51767 -2.078908,1.35776 -9.441142,9.35037 -9.441142,10.24951 0,1.06538 2.149243,0.45769 3.421652,-0.96749 l 1.007916,-1.1289 -0.29965,1.19397 c -0.271462,1.08154 -0.208451,1.16502 0.669251,0.88643 0.647049,-0.20536 1.247332,-0.0555 1.806979,0.4509 0.684778,0.61972 0.959932,0.65726 1.504546,0.20525 0.45687,-0.37914 0.66654,-0.3982 0.66654,-0.0606 0,0.27092 0.345607,0.51595 0.768004,0.54452 0.422413,0.0286 0.175555,0.17839 -0.54857,0.33295 -0.920981,0.19658 -1.57717,0.76655 -2.183822,1.89688 -1.079165,2.01073 -0.62476,2.56386 1.074296,1.30768 1.592892,-1.17767 2.15952,-1.23876 1.150732,-0.12407 -0.585256,0.64667 -0.624866,0.88354 -0.177745,1.0625 0.316464,0.12671 0.03233,0.2459 -0.631473,0.26494 -0.663787,0.0191 -1.206869,0.23834 -1.206869,0.48729 0,0.95989 1.272775,0.86723 2.857205,-0.20798 0.909638,-0.61732 1.873203,-1.10975 2.141235,-1.0943 0.268041,0.0149 -0.145468,0.34322 -0.918926,0.72841 -0.773442,0.3852 -1.507056,0.96301 -1.630238,1.28404 -0.267231,0.69638 1.575634,1.26389 2.706377,0.83341 0.563889,-0.21469 0.639576,-0.16222 0.28382,0.19648 -0.266855,0.26906 -1.698675,0.66075 -3.181825,0.87039 -1.713645,0.24222 -3.1677,0.75326 -3.988871,1.40193 -1.572139,1.24186 -1.630737,1.59079 -0.353367,2.10424 l 0.987444,0.39689 -1.076039,0.0278 c -1.062013,0.0276 -1.056295,0.0476 0.438859,1.5499 0.887822,0.89202 1.959977,1.52785 2.590117,1.53601 0.809577,0.01 0.950651,0.13849 0.571106,0.51804 -0.379563,0.37956 -0.776919,0.32536 -1.608355,-0.21943 -1.480709,-0.97021 -2.044374,-0.91683 -3.945974,0.37362 -0.889213,0.60343 -2.151077,1.10416 -2.804123,1.1127 -1.753681,0.0229 -3.100833,0.93186 -4.525605,3.05327 -1.946195,2.89783 -1.785045,3.15372 1.05169,1.66996 1.016201,-0.53155 2.018749,-0.91887 2.227858,-0.86073 0.209122,0.0582 0.868101,-0.21393 1.464377,-0.60463 0.596306,-0.39071 1.182714,-0.61186 1.303123,-0.49143 0.120386,0.12041 -0.242315,0.4571 -0.806079,0.74819 -1.290872,0.66652 -2.9999,2.20802 -2.9999,2.70583 0,0.20778 0.381986,0.17337 0.848864,-0.0764 0.466883,-0.24987 1.621194,-0.4543 2.565144,-0.4543 1.111387,0 1.974771,-0.28562 2.449678,-0.81038 0.403366,-0.44571 1.470782,-1.03262 2.372035,-1.30425 0.930785,-0.28052 2.843521,-1.6144 4.427767,-3.08778 2.470028,-2.29721 2.759837,-2.73787 2.533486,-3.85238 -0.150947,-0.74343 0.0025,-1.70749 0.37709,-2.35562 0.728832,-1.26383 0.903922,-0.39094 0.189397,0.94416 -0.823844,1.53936 -0.0776,1.40884 1.973305,-0.34517 1.09077,-0.93289 1.99272,-2.09111 2.00434,-2.57389 0.0261,-1.08262 0.20565,-1.32176 2.63683,-3.51087 l 1.94956,-1.75546 -2.06993,2.28523 c -2.74031,3.02533 -2.70426,3.54618 0.23408,3.38122 l 2.30404,-0.12937 -2.06648,0.32164 c -1.99049,0.3098 -5.60087,2.44144 -5.96004,3.51889 -0.2042,0.61269 1.50706,0.6653 1.88245,0.0579 0.14912,-0.2414 0.50644,-0.43259 0.79392,-0.42491 0.88205,0.0236 -1.12338,1.30262 -2.04236,1.30262 -0.66786,0 -4.237327,3.18633 -4.237327,3.78249 0,0.26395 4.973107,-0.34869 6.000157,-0.73916 0.59333,-0.22558 1.609,-0.39625 2.25708,-0.37924 1.05311,0.0277 0.99669,0.0975 -0.53103,0.65734 -3.47914,1.275 -3.70564,2.10911 -0.81412,2.99823 1.14652,0.35253 1.83773,0.65475 1.53601,0.67157 -0.96831,0.0539 -0.59001,0.98501 1.0155,2.49919 0.86025,0.81131 1.20639,1.33786 0.76921,1.1701 -0.75268,-0.28883 -0.75082,-0.23623 0.0352,0.99044 l 0.8301,1.29546 -1.13432,-1.03938 -1.13427,-1.03938 -1.56216,0.96546 c -1.59208,0.98395 -2.09362,2.21047 -0.90387,2.21047 0.36206,0 0.65827,0.19748 0.65827,0.43885 0,0.56517 -0.0406,0.56049 -1.90717,-0.21943 -2.100995,-0.87784 -3.578214,-0.87784 -2.04257,0 0.60343,0.34496 0.91189,0.63419 0.68545,0.64274 -0.740116,0.028 -3.158247,-1.85162 -3.572349,-2.77677 -0.650134,-1.45241 -3.04313,-2.57529 -5.488213,-2.57529 -2.431977,0 -3.327473,0.57237 -4.799861,3.06788 l -0.900648,1.52648 2.100613,-0.33264 c 1.155347,-0.18295 2.729101,-0.36126 3.497251,-0.39625 0.768163,-0.035 1.80465,-0.43283 2.30333,-0.88413 0.731063,-0.66159 1.09807,-0.72822 1.894808,-0.34397 0.982293,0.47371 0.981316,0.4767 -0.165039,0.50623 -0.634213,0.0166 -1.388894,0.31379 -1.677049,0.661 -0.863847,1.04085 3.142356,3.71788 5.682792,3.79735 1.086185,0.034 1.579905,0.14911 1.097155,0.25602 -2.030139,0.4492 -2.058957,0.52861 -0.806594,2.22339 0.868684,1.17557 0.508454,0.92445 -1.253282,-0.8737 -2.740366,-2.797 -3.841698,-3.28396 -2.778865,-1.22867 0.368235,0.71214 0.669563,1.62689 0.669563,2.0328 0,1.00698 1.647161,3.59372 3.270199,5.13557 l 1.337839,1.27092 -1.567531,-1.12915 c -0.862134,-0.62104 -1.833576,-1.62628 -2.158752,-2.23387 -0.325167,-0.6076 -0.876501,-1.10473 -1.225165,-1.10473 -0.46676,0 -0.577221,-0.37612 -0.418855,-1.42629 0.389544,-2.58309 -2.062362,-6.04276 -4.272596,-6.02869 -1.108406,0.007 -5.991757,1.52066 -7.56417,2.34452 l -1.171249,0.61369 1.483608,0.76723 c 1.89055,0.97763 6.142602,4.98103 6.142602,5.78336 0,0.33544 -0.612923,-0.0882 -1.362058,-0.94138 -0.74913,-0.85322 -1.535645,-1.55129 -1.747846,-1.55129 -0.555327,0 -0.224073,3.98094 0.432234,5.19421 0.304959,0.56377 0.442312,1.13717 0.305233,1.27426 -0.421608,0.4216 -1.577328,-2.83964 -1.577328,-4.45093 0,-2.37122 -0.665413,-3.57223 -2.44781,-4.41803 -1.430816,-0.67897 -1.944564,-0.71216 -3.978335,-0.25701 -2.649757,0.59297 -4.984266,1.64719 -4.984266,2.25078 0,0.45326 0.174605,0.47962 3.291473,0.49685 1.541169,0.008 1.76728,0.0707 0.759679,0.20885 -1.852959,0.2541 -1.394024,1.0176 0.61166,1.0176 1.975167,0 2.824571,0.47395 4.288087,2.39273 1.544715,2.02523 1.16655,1.98865 -0.780903,-0.0755 -1.755013,-1.86024 -2.249955,-1.77425 -1.5383,0.26722 0.270357,0.77558 0.371372,1.53035 0.224447,1.67728 -0.146955,0.14696 -0.391028,-0.35246 -0.542495,-1.10971 -0.351446,-1.7573 -0.890307,-2.18201 -4.26432,-3.36098 l -2.760471,-0.96459 -1.785267,1.93769 c -0.981901,1.0657 -1.562474,2.00166 -1.290164,2.07991 0.272307,0.0783 1.473538,0.39601 2.669364,0.70614 1.195825,0.31014 2.874476,1.18097 3.730332,1.93519 1.821051,1.60484 6.510705,2.75882 8.367111,2.05888 0.660761,-0.24912 1.509164,-0.25341 2.159048,-0.0116 1.46847,0.54793 3.534177,0.0387 3.550824,-0.87551 0.01147,-0.6444 0.06967,-0.63619 0.479081,0.0678 0.696074,1.19699 0.181982,1.40168 -3.287373,1.30887 -4.735163,-0.12671 -5.447295,0.75619 -2.020257,2.50453 0.939525,0.4793 2.242706,0.87146 2.895979,0.87146 0.653279,0 1.061628,0.12623 0.907443,0.28034 -0.421561,0.42155 1.80508,2.9074 3.368613,3.76072 0.755416,0.41229 1.176,0.75716 0.934622,0.76637 -0.756694,0.0289 -3.21519,-1.65059 -3.675639,-2.51097 -0.242129,-0.4524 -1.29153,-1.17444 -2.332041,-1.60456 -1.04051,-0.4301 -2.234758,-0.95923 -2.653878,-1.17582 -1.0273,-0.5309 -1.212822,-0.49865 -1.212822,0.21074 0,0.33249 0.309244,0.8612 0.687224,1.17489 0.952177,0.79024 2.07688,3.04802 1.518352,3.04802 -0.247585,0 -0.450133,-0.28457 -0.450133,-0.63239 0,-0.3478 -0.226111,-0.77213 -0.502488,-0.94294 -0.504752,-0.31196 -0.412943,0.70016 0.242403,2.67249 0.160387,0.48274 0.0086,0.28527 -0.338811,-0.43887 -0.346748,-0.72412 -0.98773,-2.5015 -1.424394,-3.94976 -0.436676,-1.44823 -0.965191,-2.86916 -1.17451,-3.15762 -0.20929,-0.28846 -1.429477,-0.74222 -2.711469,-1.00837 -1.297045,-0.26925 -2.692914,-0.88385 -3.146999,-1.38562 -1.593922,-1.76127 -4.557057,-2.49912 -8.827357,-2.19807 -1.590499,0.11214 -1.132936,0.94733 0.519006,0.94733 1.063997,0 1.579914,0.23151 1.756622,0.78822 0.13762,0.43353 1.146054,1.15769 2.241039,1.60923 1.306767,0.53889 1.802454,0.93745 1.442578,1.15986 -0.417043,0.25776 -0.352355,0.55535 0.270298,1.24339 0.450213,0.49747 1.051328,0.9045 1.335833,0.9045 0.757298,0 4.17467,3.27053 4.171293,3.99207 -0.0018,0.33878 -0.348622,0.0917 -0.771144,-0.54885 -0.422545,-0.64063 -1.807136,-1.86394 -3.076889,-2.7184 -1.269748,-0.85448 -2.816421,-2.15708 -3.437059,-2.89465 -0.620626,-0.73759 -1.393784,-1.34105 -1.718124,-1.34105 -0.324344,0 -0.708688,-0.3749 -0.854122,-0.8331 -0.189822,-0.59807 -0.786259,-0.88646 -2.114174,-1.02227 -2.179021,-0.22283 -3.805822,0.88998 -5.784317,3.95666 -1.20761,1.87183 -1.21387,1.92101 -1.175417,9.2161 0.0408,7.72331 0.992978,16.87219 1.865557,17.92358 0.284302,0.34256 0.373568,0.76618 0.198354,0.94138 -0.325731,0.32574 -8.14588,0.47096 -9.617823,0.1786 z m 1.472935,-30.456 c 0,-2.88253 -0.85126,-5.69066 -2.498892,-8.24334 -2.047492,-3.17216 -3.391714,-4.82746 -3.920214,-4.82746 -1.043915,0 -2.718424,0.83007 -3.614261,1.79164 -0.738651,0.79284 -0.812575,1.13472 -0.409154,1.89204 0.430932,0.80898 0.407646,0.85449 -0.186491,0.36458 -0.563164,-0.46435 -0.729112,-0.42892 -0.973453,0.20785 -0.30384,0.79178 0.880826,2.05653 1.542982,1.6473 0.428877,-0.26506 0.641512,0.105 1.020657,1.77667 l 0.298612,1.31659 -0.889789,-1.42632 c -0.489384,-0.78446 -1.040797,-1.43991 -1.225378,-1.45654 -0.18458,-0.0166 -0.875567,-0.1015 -1.535525,-0.18874 -0.659972,-0.0872 -1.292276,-0.008 -1.405131,0.1735 -0.331695,0.53668 0.254785,2.25236 0.680085,1.98954 0.213914,-0.1322 0.388955,0.14099 0.388955,0.60712 0,0.654 0.414239,0.91377 1.81404,1.13762 0.99773,0.15956 1.918966,0.18515 2.04719,0.0569 0.128282,-0.1282 0.551672,0.29338 0.940929,0.93694 0.585747,0.96838 6.471642,4.78933 7.595686,4.93088 0.181034,0.0229 0.329152,-1.18625 0.329152,-2.68676 z m 7.241209,-2.09927 c 0.693758,-0.72411 1.53439,-1.31659 1.868096,-1.31659 1.009796,0 0.428103,-1.90229 -0.762568,-2.49375 -0.943761,-0.46879 -1.220538,-0.41708 -2.077876,0.38835 -1.454592,1.36653 -1.895707,4.73858 -0.61988,4.73858 0.181981,0 0.898482,-0.59246 1.592228,-1.31659 z m 5.311209,-3.73479 c 0.794373,-0.60588 2.13759,-1.83646 2.984958,-2.73461 l 1.540625,-1.633 -0.935427,-0.99571 c -0.514479,-0.54764 -1.37357,-0.99572 -1.909111,-0.99572 -0.535555,0 -1.087382,-0.29621 -1.226325,-0.65828 -0.483177,-1.25918 -2.107251,-0.66365 -4.488091,1.64574 -1.645534,1.59614 -2.465407,2.77594 -2.668591,3.84003 -0.265944,1.39279 -0.225534,1.4803 0.433332,0.93844 0.93524,-0.76917 2.760282,-0.32442 3.373942,0.82219 0.611948,1.14347 1.151153,1.1008 2.894688,-0.22908 z m -12.823535,-6.24931 c -0.321683,-4.7656 -0.827644,-6.13027 -2.83188,-7.63802 -0.752672,-0.56622 -1.957493,-1.57259 -2.677398,-2.23637 -0.719904,-0.66379 -1.421018,-1.20688 -1.558049,-1.20688 -0.420704,0 0.250761,5.6379 0.796787,6.69022 0.282494,0.54443 1.178719,1.81306 1.991625,2.81918 0.812891,1.00612 1.477992,1.95576 1.477992,2.11033 0,0.31225 2.689893,3.74045 2.934925,3.74045 0.08504,0 0.02486,-1.92551 -0.134029,-4.27891 z m 6.154917,-2.0242 c 3.702551,-7.56102 3.997928,-9.4564 2.459418,-15.78166 -0.480091,-1.97376 -1.050983,-5.22108 -1.268649,-7.21627 -0.584753,-5.35973 -1.889068,-6.45189 -2.978709,-2.49418 -1.710178,6.21149 -2.048369,10.59172 -1.514079,19.61072 0.458083,7.73238 0.719459,9.99018 1.156497,9.99018 0.07355,0 1.038888,-1.84895 2.145522,-4.10879 z m 12.436671,0.0284 0.424571,-2.54448 -1.363287,0.29402 c -0.74981,0.16171 -2.103257,0.66858 -3.007627,1.1264 -1.475777,0.74704 -1.588677,0.92148 -1.101305,1.70188 0.29867,0.47823 0.945342,0.86952 1.437083,0.86952 0.491724,0 1.25135,0.41729 1.688039,0.92732 1.027596,1.20013 1.403467,0.73584 1.922526,-2.37466 z m 8.254485,-0.0638 c 0.550519,-0.36071 1.659065,-1.48174 2.463438,-2.49119 0.804373,-1.00942 1.990406,-2.39796 2.635609,-3.08562 l 1.173111,-1.25031 h -1.304631 c -1.646149,0 -3.553188,0.97154 -6.149413,3.13278 -1.119672,0.93208 -2.430842,1.6947 -2.913702,1.6947 -1.713178,0 -3.131371,2.04145 -2.779162,4.00054 0.07211,0.40132 5.715078,-1.24107 6.87475,-2.00092 z m -17.35886,0.4141 c 0.300479,-0.36206 0.788745,-0.65829 1.085042,-0.65829 0.296286,0 1.311039,-0.55947 2.254986,-1.24327 1.394098,-1.00988 1.868427,-1.75119 2.526806,-3.94908 0.445784,-1.48821 0.708797,-2.97089 0.584468,-3.29487 -0.124404,-0.32397 -0.04971,-0.86736 0.16553,-1.20754 0.284967,-0.45012 0.393382,-0.28995 0.398266,0.58837 0.003,0.66379 0.187738,1.20688 0.408966,1.20688 0.221256,0 0.82463,-0.54309 1.340836,-1.20688 0.892001,-1.14702 0.912915,-1.15245 0.421834,-0.10963 -0.28419,0.60342 -1.002123,1.61819 -1.595412,2.25502 -1.003535,1.07718 -2.099972,4.26029 -1.629547,4.73073 0.114488,0.11445 1.032966,-0.0927 2.041209,-0.46035 1.462986,-0.53342 1.9068,-0.95254 2.197785,-2.07549 0.200539,-0.77391 1.074182,-2.69799 1.941421,-4.27575 1.87707,-3.41489 1.575499,-4.35627 -0.923251,-2.88198 -1.247227,0.73588 -1.563953,0.79244 -1.563953,0.27928 0,-0.35394 0.355487,-0.64349 0.789968,-0.64349 0.434463,0 1.001103,-0.21119 1.259221,-0.46928 0.2581,-0.25811 0.825904,-0.52162 1.261805,-0.5856 0.525627,-0.0771 1.040528,-0.87695 1.528786,-2.37477 0.404961,-1.24215 0.655137,-2.33956 0.555997,-2.4387 -0.520543,-0.52056 -1.873751,0.43092 -2.697607,1.89678 -0.912904,1.62428 -2.259311,3.0801 -2.259311,2.44292 0,-0.17574 0.493725,-0.90628 1.097157,-1.62343 1.253964,-1.49025 1.47427,-2.79176 0.402959,-2.38065 -0.381788,0.14646 -0.874936,0.26639 -1.095877,0.26639 -1.017238,0 -4.040734,3.44828 -5.702244,6.5034 -1.008318,1.85404 -2.081224,3.66721 -2.384259,4.02928 -0.456932,0.54593 -3.728135,7.7376 -3.728135,8.1962 0,0.39108 0.835488,0.0636 1.316597,-0.51614 z m 13.070273,-2.97145 c 1.092121,0.3909 6.402989,-4.69157 5.669179,-5.4254 -0.137906,-0.13783 -0.702177,0.0658 -1.254254,0.45259 -0.552061,0.38666 -1.404149,0.70517 -1.893536,0.70777 -1.037611,0.005 -4.620122,3.27225 -4.620122,4.21289 0,0.46813 0.206892,0.53434 0.768012,0.24574 0.4224,-0.21724 1.02122,-0.30436 1.330721,-0.19359 z m 23.163357,-0.45294 c 0.41934,-1.09278 -2.12519,-5.57226 -3.165286,-5.57226 -0.644354,0 -4.100124,1.52652 -4.10182,1.8119 -5.76e-4,0.15176 0.59751,0.52409 1.329813,0.82742 0.732303,0.30332 1.670383,0.9815 2.084585,1.50701 1.398608,1.77444 3.430408,2.52644 3.852708,1.42593 z m -53.653984,-5.28719 c -0.33803,-3.23402 -1.202723,-4.23486 -3.658793,-4.23486 -2.063782,0 -2.302878,0.39083 -1.848101,3.02075 0.226714,1.31106 0.670086,2.14765 1.392289,2.6272 l 1.059658,0.70356 -0.294417,-1.53002 c -0.206257,-1.07182 -0.165201,-1.33289 0.137189,-0.87173 0.237344,0.36206 0.434537,1.08748 0.438243,1.61205 0.0029,0.52458 0.541373,1.58918 1.194851,2.36577 l 1.188128,1.41202 0.332386,-1.24286 c 0.182813,-0.68356 0.209202,-2.42141 0.05876,-3.86188 z m 55.381894,4.54237 c 0.14912,-0.24137 0.17699,-0.43885 0.0619,-0.43885 -0.11508,0 -0.52407,-0.12076 -0.9086,-0.2683 -0.51173,-0.19637 -0.62643,-0.0788 -0.42782,0.43886 0.3073,0.80076 0.87207,0.91964 1.27462,0.26829 z m 2.23983,-1.4964 c 0.13059,-0.34029 -0.0862,-1.24454 -0.48177,-2.00946 -0.90173,-1.74374 -3.37253,-2.87495 -5.130977,-2.34911 l -1.234563,0.3692 2.12559,2.30402 c 2.17314,2.35556 4.1885,3.07491 4.72172,1.68535 z m -27.116989,-1.02705 c 1.211069,-1.13363 3.504867,-4.39594 4.062389,-5.77766 0.137906,-0.34156 0.532806,-0.67698 0.877719,-0.74535 0.344925,-0.0683 1.417098,-0.26221 2.38258,-0.43071 0.965494,-0.16851 2.249163,-0.64028 2.852608,-1.04839 0.603432,-0.40811 1.442757,-0.86669 1.865151,-1.01909 1.277911,-0.46101 0.872321,-1.18555 -1.169222,-2.08862 l -1.937235,-0.85693 -1.463946,1.42763 c -0.805158,0.78519 -1.828766,1.92251 -2.274666,2.52734 -0.782276,1.06112 -0.802964,1.06508 -0.58965,0.11229 0.265797,-1.18731 -0.0072,-1.24037 -1.133094,-0.22079 -0.835099,0.75575 -0.835977,0.74324 -0.06191,-0.88005 0.484223,-1.01545 0.905318,-1.4524 1.098474,-1.13985 0.35211,0.56971 3.052622,-0.78085 3.350962,-1.67586 0.302659,-0.90799 -1.629271,-1.16157 -2.543812,-0.3339 -0.490424,0.4438 -0.846295,0.55271 -0.846295,0.25899 0,-0.27879 -0.251322,-0.50688 -0.558494,-0.50688 -0.760326,0 -2.158553,2.69753 -2.240243,4.32202 -0.03663,0.72748 -0.211794,1.46797 -0.389351,1.64552 -0.17754,0.17755 -0.322811,0.66482 -0.322811,1.08283 0,0.418 -0.592445,1.88631 -1.316584,3.26289 -1.880266,3.57445 -1.790915,4.09557 0.357408,2.0846 z m 13.466774,-1.63213 c 1.72848,-1.41682 0.820058,-1.42808 -1.097175,-0.0132 -0.817916,0.60343 -1.201887,1.09618 -0.853253,1.09497 0.348605,-8.4e-4 1.226295,-0.4878 1.950428,-1.08137 z m 8.305542,-2.40003 c 0.706073,-0.14812 1.367593,-0.52076 1.470033,-0.8281 0.14064,-0.42172 -0.31879,-0.49816 -1.872892,-0.3116 -2.916423,0.35009 -5.488951,1.83234 -5.488951,3.16268 0,0.43091 0.6428,0.26965 2.304028,-0.57801 1.26719,-0.64662 2.881716,-1.29686 3.587782,-1.44497 z m -31.554176,-0.4837 c 1.357064,-2.14973 4.856029,-9.07771 5.199859,-10.29573 0.136329,-0.48274 0.09683,-1.56894 -0.08763,-2.41374 -0.19591,-0.89722 -0.108025,-2.72234 0.211246,-4.38861 l 0.546599,-2.8526 -0.229256,2.52345 c -0.126126,1.3879 -0.117649,2.52346 0.01898,2.52346 0.136473,0 0.841957,-0.81959 1.567604,-1.82131 0.725623,-1.0017 1.319338,-1.62658 1.319338,-1.3886 0,0.23799 -0.714054,1.3492 -1.586789,2.46939 -1.381459,1.77315 -1.548559,2.24041 -1.291402,3.61109 0.162384,0.86591 0.515886,1.5009 0.785421,1.41104 1.047206,-0.34907 3.936792,-5.85862 4.374649,-8.34109 0.244785,-1.3879 0.63463,-2.52345 0.866314,-2.52345 0.87416,0 3.382565,-2.29516 4.053381,-3.7088 0.383877,-0.80893 0.697955,-2.17254 0.697955,-3.03029 0,-1.41363 -0.134173,-1.58468 -1.433646,-1.82847 -1.15204,-0.21611 -1.944348,0.0387 -4.033655,1.2967 -1.429995,0.8611 -2.907863,1.5712 -3.28413,1.57799 -1.178521,0.0212 -5.850111,2.78831 -6.647518,3.93742 -0.794058,1.14426 -1.420327,5.70521 -0.783399,5.70521 0.201044,0 0.98151,-1.03681 1.734329,-2.30403 0.75283,-1.26721 1.22812,-1.90904 1.056239,-1.42629 -0.171897,0.48273 -0.41987,1.27269 -0.551071,1.75544 -0.235374,0.86613 -0.225994,0.86664 0.710785,0.0393 0.52212,-0.46115 1.073581,-0.71419 1.225478,-0.56228 0.151944,0.15194 -0.39239,0.62794 -1.209549,1.0579 -0.81717,0.42993 -2.818792,2.08069 -4.448053,3.66836 -2.672715,2.60444 -2.961285,3.05494 -2.951529,4.60805 0.0072,0.94677 0.410144,2.90633 0.898261,4.35456 0.488122,1.44826 1.005533,3.86747 1.149831,5.37607 0.144302,1.50857 0.428806,2.74288 0.632233,2.74288 0.203444,0 0.873557,-0.79783 1.489127,-1.77298 z m 11.791252,-23.4975 c 0.146454,-0.38179 0.266392,-0.87552 0.266392,-1.09715 0,-0.22163 0.282915,-0.40296 0.628714,-0.40296 0.345787,0 0.758805,-0.40987 0.917789,-0.91081 0.159065,-0.50092 0.399138,-0.80075 0.533638,-0.66623 0.134465,0.13452 -0.305361,1.03808 -0.977487,2.00795 -1.268188,1.83 -1.829082,2.26806 -1.369046,1.0692 z m 2.460695,-4.08149 c 0,-0.24137 0.197482,-0.56091 0.438865,-0.7101 0.241367,-0.14911 0.438871,-0.0737 0.438871,0.16765 0,0.24137 -0.197504,0.5609 -0.438871,0.71008 -0.241383,0.14911 -0.438865,0.0738 -0.438865,-0.16763 z m -35.500679,24.85361 c -0.38989,-1.0593 -2.802663,-2.70211 -3.585343,-2.4412 -0.635839,0.21194 1.204231,2.51862 2.391958,2.99851 1.430513,0.57801 1.584754,0.50598 1.193385,-0.55731 z m 9.373108,-2.30402 c 0.447324,-3.13275 2.37071,-11.1397 2.924468,-12.17441 0.359677,-0.67206 0.308867,-1.03352 -0.219491,-1.56189 -0.624072,-0.62406 -0.767436,-0.61511 -1.55434,0.097 -0.476787,0.43147 -0.949751,1.20822 -1.05107,1.72611 -0.122394,0.62617 -0.204188,0.46379 -0.243937,-0.4847 -0.04095,-0.97694 0.139487,-1.42629 0.572629,-1.42629 1.107527,0 1.245246,-0.91052 0.291315,-1.92594 -0.508042,-0.54078 -0.923704,-1.34258 -0.923704,-1.78176 0,-1.82524 -1.096391,-4.28775 -2.286287,-5.13504 l -1.254726,-0.89344 -1.515054,1.15561 c -0.833305,0.63557 -1.739643,1.57517 -2.014093,2.08801 -0.868657,1.6231 -0.224687,5.97669 1.343605,9.08344 0.777164,1.53956 1.911293,4.30189 2.520282,6.13851 0.608991,1.83662 1.260387,3.504 1.447538,3.70528 0.187153,0.2013 0.58651,-1.2891 0.887478,-3.31199 0.482546,-3.24345 0.462633,-3.84146 -0.168505,-5.06194 -0.778919,-1.50624 -0.9713,-2.57077 -0.2365,-1.30862 0.248867,0.42747 0.637821,0.66268 0.864378,0.52267 0.584441,-0.3612 0.500044,4.16933 -0.155592,8.35504 -0.575217,3.67208 -0.516563,6.20708 0.116219,5.02659 0.188125,-0.35088 0.483031,-1.62542 0.655357,-2.83228 z m -0.832312,-15.1075 c -0.728051,-0.80447 -0.726083,-0.83886 0.04166,-0.72654 0.443268,0.0649 0.869789,0.44486 0.947823,0.84446 0.184611,0.94525 -0.05287,0.91694 -0.989514,-0.11792 z m 24.643004,11.37714 c 1.378035,0 4.950065,-3.42319 4.950065,-4.74381 0,-0.50028 0.20706,-1.03757 0.460158,-1.19398 0.314573,-0.19444 0.297565,-0.48033 -0.05374,-0.90364 -0.369478,-0.44518 -0.375464,-0.61921 -0.02125,-0.61921 0.270915,0 0.912241,-0.41967 1.425185,-0.93258 0.512916,-0.51293 0.846639,-0.67484 0.741642,-0.35979 -0.111478,0.33431 0.619805,1.00386 1.756404,1.60821 1.071038,0.56947 1.971587,0.97822 2.001235,0.90836 0.02975,-0.0698 0.433543,-0.87309 0.897551,-1.78492 0.646781,-1.27102 0.72316,-1.77833 0.32734,-2.17416 -0.530598,-0.53061 -3.355455,-0.53259 -4.205296,-0.003 -0.262123,0.16338 -0.902127,0.24205 -1.422222,0.17489 -0.967234,-0.12491 -3.223554,1.86341 -3.223554,2.84064 0,0.27836 -0.318263,0.62825 -0.707265,0.77751 -2.700756,1.03649 -9.386567,6.51479 -9.386567,7.6914 0,0.20765 1.202522,0.003 2.672267,-0.45415 1.469763,-0.45744 3.174382,-0.8317 3.78808,-0.8317 z m 10.435823,-0.756 1.755445,-1.62954 -1.316585,-0.29132 c -2.650834,-0.58654 -4.313892,-0.39377 -6.215218,0.72048 -1.047044,0.61362 -1.903721,1.30483 -1.903721,1.53602 0,0.53726 0.291888,0.5299 1.345441,-0.034 0.511682,-0.27385 0.84888,-0.28836 0.84888,-0.0365 0,0.43633 1.936012,1.27568 3.072023,1.33186 0.362048,0.0179 1.448242,-0.70074 2.413735,-1.59698 z M 84.58705,300.2108 c 0.439233,-0.15493 0.35221,-0.52417 -0.359015,-1.523 -1.186667,-1.6665 -1.553316,-1.65565 -2.152678,0.0637 -0.784262,2.2497 -0.659783,2.61102 0.725094,2.10494 0.663759,-0.24256 1.467742,-0.53309 1.786599,-0.64562 z m 4.546828,0.23108 c -0.824368,-0.68713 -1.172973,-0.75097 -1.836767,-0.33641 -1.161065,0.72507 -0.655544,1.21613 1.234429,1.1991 l 1.619841,-0.0149 -1.017503,-0.84809 z m -27.673496,-3.9502 c 0.07326,-1.68285 0.112482,-1.76002 0.264982,-0.52194 0.402044,3.26342 2.245085,-0.11511 2.288957,-4.19583 0.02802,-2.60298 -0.276403,-2.77404 -2.797101,-1.57199 -1.341795,0.63985 -1.568336,0.98524 -1.799104,2.74288 -0.312804,2.38238 -0.323131,2.61526 -0.254868,5.7412 l 0.05272,2.41374 1.079195,-1.31659 c 0.741625,-0.90476 1.106102,-1.93433 1.165216,-3.29147 z m 15.7323,1.51041 c 2.026486,-1.4918 2.943466,-2.52399 3.606371,-4.05945 0.48891,-1.13246 2.141976,-3.34268 3.673475,-4.9116 2.758288,-2.8257 2.788483,-2.88367 3.201171,-6.14407 0.229138,-1.81031 0.551286,-3.68644 0.715883,-4.16919 0.28359,-0.83181 0.255578,-0.82866 -0.535828,0.0602 -0.459285,0.51591 -1.654138,1.35588 -2.65523,1.86659 -1.913909,0.97641 -2.978064,2.35914 -2.460304,3.1969 0.188544,0.30506 0.111472,0.37644 -0.199118,0.18446 -0.553412,-0.34203 -0.676697,0.54037 -0.235986,1.68885 0.209505,0.54597 0.407878,0.59154 0.877713,0.20159 0.431704,-0.35828 0.607048,-0.36375 0.607048,-0.0189 0,0.70553 -3.396091,4.00429 -5.814916,5.64831 -1.446316,0.98301 -2.087787,1.72195 -2.095012,2.41331 -0.0041,0.54808 -0.477405,2.13204 -1.048167,3.51994 -0.570762,1.38791 -0.884031,2.52346 -0.696173,2.52346 0.187885,0 1.564471,-0.90022 3.059073,-2.00048 z m 9.664882,0.90333 c -0.06895,-0.62151 -2.093934,-1.78034 -2.4641,-1.41015 -0.438749,0.43873 1.196443,2.12594 1.914048,1.97496 0.329316,-0.0693 0.576842,-0.32344 0.550052,-0.56481 z m -28.084809,-4.57228 c 0,-0.70439 0.11995,-1.59309 0.266377,-1.97488 0.146469,-0.3818 0.07169,-0.69419 -0.166179,-0.69419 -0.612911,0 -1.567428,2.48534 -1.261104,3.28358 0.431694,1.12498 1.160906,0.73898 1.160906,-0.61451 z m -1.381168,-3.73221 c 1.014106,-2.2243 1.380279,-3.54952 1.178128,-4.26387 -0.205869,-0.72745 -0.167958,-0.85525 0.126989,-0.42862 0.338795,0.48982 0.522656,0.41686 0.946851,-0.37573 0.734974,-1.3733 -0.142505,-4.68912 -1.668981,-6.30667 -0.976699,-1.03499 -3.95604,-2.92214 -4.613328,-2.92214 -0.09897,0 -0.710679,1.49482 -1.35926,3.3218 -1.157,3.25907 -1.16569,3.36263 -0.460497,5.48577 0.395305,1.1902 0.854624,2.16397 1.020686,2.16397 0.166077,0 0.638653,-0.54308 1.050222,-1.20685 0.411538,-0.66378 0.753506,-0.96003 0.759941,-0.65831 0.01912,0.89948 1.292537,0.6242 2.445354,-0.52862 0.621531,-0.62152 1.077212,-0.83641 1.077212,-0.50797 0,0.53215 -1.869764,1.66872 -3.624416,2.20319 -0.424481,0.12921 -0.998421,0.73245 -1.275399,1.34037 -0.407833,0.89511 -0.352713,1.43989 0.289878,2.86492 0.91177,2.02191 1.225132,2.13509 2.171306,0.78425 0.375739,-0.53645 0.683188,-0.77788 0.683188,-0.53651 0,0.24138 -0.289262,0.85183 -0.642792,1.35657 -0.580763,0.82915 -0.504108,1.49633 0.167358,1.45685 0.140779,-0.008 0.918143,-1.46736 1.727446,-3.2424 z m -12.279921,-5.51978 c 1.264192,-3.89136 1.552534,-6.48052 0.964733,-8.66341 -0.470925,-1.74894 -0.548109,-1.81465 -1.579469,-1.34473 -0.596391,0.27172 -1.093259,0.80796 -1.104134,1.19163 -0.01149,0.38366 -0.299015,1.29002 -0.640263,2.01413 -0.593763,1.25993 -0.610167,1.26625 -0.380825,0.14697 0.280713,-1.37013 -0.743033,-3.74519 -2.371674,-5.50221 l -1.137921,-1.22763 -0.537809,2.10783 c -0.495188,1.94072 -0.442841,2.36843 0.660388,5.39445 1.17089,3.21158 1.210423,3.25983 1.732331,2.11434 0.29377,-0.64473 0.629,-1.07735 0.744972,-0.96139 0.115927,0.11594 -0.08777,0.78333 -0.452595,1.48301 -1.27942,2.45336 -0.703183,6.09674 1.378426,8.71526 l 1.244181,1.56513 0.276462,-2.09037 c 0.152099,-1.1497 0.693487,-3.37404 1.203197,-4.94296 z m 36.701178,2.91443 c 0.644621,-0.98383 0.515012,-2.47557 -0.215078,-2.47557 -0.187409,0 -0.437107,0.44434 -0.55489,0.98743 -0.117795,0.54309 -0.359435,1.33304 -0.536992,1.75544 -0.48243,1.14773 0.513219,0.9441 1.30696,-0.2673 z m -19.779659,-3.3533 0.287077,-1.09716 -0.661066,1.09716 c -0.736711,1.22277 -0.928904,2.18443 -0.302603,1.51407 0.214256,-0.22931 0.518718,-0.91064 0.676592,-1.51407 z m -14.349047,-0.47744 c 0.119232,-0.45611 0.40055,-0.71574 0.625051,-0.577 1.033945,0.63902 3.213052,-2.84637 3.705651,-5.92708 0.380497,-2.37937 -0.333602,-2.36178 -3.02518,0.0745 -1.620237,1.46657 -2.06618,2.16541 -2.06618,3.23787 0,0.7522 -0.296227,2.07663 -0.658306,2.94317 -0.855902,2.04845 -0.83523,2.16815 0.271921,1.57562 0.511607,-0.2738 1.027769,-0.871 1.147043,-1.32709 z m 3.005875,-0.24476 c -0.222289,-0.5793 -0.379891,-0.59873 -0.958756,-0.11827 -0.626702,0.52012 -0.61623,0.63085 0.10975,1.16179 0.88525,0.6473 1.301414,0.13567 0.84892,-1.04346 z m 31.693494,-1.55988 c 0.901684,-0.90166 0.588835,-1.2288 -1.175086,-1.2288 -2.014523,0 -3.364895,1.12907 -1.725056,1.44236 1.857076,0.35479 2.369532,0.31705 2.900142,-0.21356 z m -19.931862,-1.52577 c 0.90012,-1.88754 1.527497,-6.31757 0.797019,-5.6277 -0.255587,0.24137 -0.795696,1.32756 -1.200252,2.41374 -1.534019,4.11878 -1.220378,6.61872 0.403233,3.21396 z m -0.991278,-3.10424 c 0.626874,-1.60435 1.303265,-6.95257 0.984357,-7.7836 -0.215697,-0.5621 -0.431063,-0.53202 -1.46558,0.20463 -1.895853,1.34996 -2.406769,3.03927 -1.756911,5.80903 0.299201,1.27519 0.628354,2.46663 0.73144,2.64766 0.385765,0.67732 1.050335,0.29017 1.506694,-0.87772 z m 14.147849,0.54857 c 0.139053,-0.36206 0.06134,-0.65829 -0.172487,-0.65829 -0.233796,0 -0.4251,0.29623 -0.4251,0.65829 0,0.36208 0.07757,0.6583 0.172497,0.6583 0.09481,0 0.28613,-0.29622 0.42509,-0.6583 z m -26.365999,-1.43872 1.619131,-1.65814 -1.960681,-1.07105 c -2.610412,-1.42602 -3.165703,-0.93187 -2.424567,2.15754 0.294216,1.22641 0.672628,2.22981 0.840961,2.22981 0.168304,0 1.03462,-0.74618 1.925156,-1.65816 z m 8.20357,-3.24778 c -1.579856,-4.58113 -1.846477,-5.02923 -2.510284,-4.21905 -0.361421,0.4411 -1.53761,6.25068 -1.271217,6.27891 0.03391,0.003 1.147732,0.52377 2.475289,1.15596 1.327557,0.63217 2.481972,1.08765 2.565347,1.01216 0.08346,-0.0755 -0.483219,-1.97808 -1.259135,-4.22798 z m 8.50175,0.80609 c 0.881344,-1.65147 1.602452,-3.07732 1.602452,-3.16853 0,-0.0912 -0.729052,0.32891 -1.620122,0.93362 -1.468666,0.99666 -1.63265,1.30982 -1.754178,3.35012 -0.07384,1.23788 -0.0658,2.16895 0.01768,2.06907 0.08346,-0.0998 0.872836,-1.53281 1.75418,-3.18428 z m -12.679982,-2.47349 c -0.193025,-1.45877 -0.139772,-1.81008 0.200828,-1.32618 0.411957,0.58514 0.464849,0.58514 0.476153,0 0.0072,-0.36207 0.131873,-1.10264 0.277354,-1.64573 0.215279,-0.80337 0.0859,-0.98744 -0.693875,-0.98744 -0.777581,0 -0.902617,0.17603 -0.662459,0.93269 0.199206,0.62763 0.137192,0.83445 -0.189851,0.63239 -0.26724,-0.16521 -0.485878,-0.68361 -0.485878,-1.15213 0,-0.46849 -0.18135,-0.85182 -0.402964,-0.85182 -0.221641,0 -0.715366,-0.11992 -1.097166,-0.26638 -0.516132,-0.19805 -0.69419,0.008 -0.69419,0.80458 0,0.6594 -0.252988,1.07097 -0.658277,1.07097 -0.362065,0 -0.658306,-0.26332 -0.658306,-0.58516 0,-0.32182 0.197494,-0.58514 0.438875,-0.58514 0.828995,0 0.438301,-1.28599 -0.548583,-1.80572 -0.543082,-0.28599 -1.086192,-0.65415 -1.206875,-0.81813 -1.308582,-1.7779 -2.2577,-2.72538 -2.493693,-2.4894 -0.157904,0.1579 -0.07183,0.73115 0.191446,1.27387 0.263188,0.54272 0.606203,1.56893 0.762254,2.28048 0.222375,1.01403 0.374935,1.15634 0.705755,0.65829 0.292478,-0.44033 0.333304,-0.23119 0.133022,0.68117 -0.158895,0.72413 -0.287105,1.41534 -0.284734,1.53603 0.04065,2.07306 0.14279,2.28763 0.984585,2.06751 0.706171,-0.18468 0.798914,-0.0909 0.477633,0.48326 -0.307102,0.54876 -0.06005,0.94248 1.075274,1.71399 1.254525,0.85248 2.410419,1.28319 2.393483,0.89186 -0.003,-0.0604 -0.29919,-1.08034 -0.659084,-2.26666 -0.35988,-1.18634 -0.564112,-2.24717 -0.453858,-2.35742 0.110326,-0.1103 0.426779,0.69841 0.703414,1.79703 0.376617,1.4957 0.670013,1.93337 1.167956,1.74228 0.545355,-0.20927 0.579642,-0.0957 0.190543,0.63138 -0.615898,1.1508 -0.04439,1.72685 0.701344,0.70694 0.37916,-0.51852 0.483812,-1.45311 0.309889,-2.76741 z m -8.221237,2.13088 c 0.587413,-0.58743 -0.09151,-2.39888 -1.034879,-2.76085 -0.443903,-0.17033 -0.598862,0.22085 -0.598862,1.51188 0,1.77486 0.627851,2.25485 1.633741,1.24897 z m 21.830096,-3.06366 c 1.60843,-1.41222 1.889657,-2.45203 1.074916,-3.97441 -0.472549,-0.88293 -0.485377,-0.88182 -1.59257,0.1385 -1.150507,1.0603 -2.319673,3.34127 -2.319673,4.5255 0,1.06739 1.156266,0.78634 2.837327,-0.68967 z m -23.024961,-1.4592 c 0,-0.13801 -0.307878,-0.25078 -0.684192,-0.25078 -0.376301,0 -0.562145,0.19749 -0.412961,0.43886 0.149112,0.24136 0.05042,0.43886 -0.219431,0.43886 -0.269866,0 -0.367681,0.199 -0.217361,0.44223 0.257958,0.4174 1.533945,-0.47198 1.533945,-1.06917 z m 1.755444,0.84636 c 0,-0.36206 -0.296227,-0.65828 -0.658307,-0.65828 -0.362049,0 -0.658276,0.29622 -0.658276,0.65828 0,0.36208 0.296227,0.6583 0.658276,0.6583 0.36208,0 0.658307,-0.29622 0.658307,-0.6583 z m 19.397571,-2.58208 c 0.651655,-0.8167 1.059614,-1.61013 0.906596,-1.76316 -0.377365,-0.37735 -3.21387,2.41323 -2.926147,2.87877 0.394169,0.63777 0.798941,0.41418 2.019551,-1.11561 z m 5.090513,-1.2891 c 0.722753,-1.99869 0.674671,-2.16207 -0.460391,-1.56433 -1.380254,0.72687 -1.644993,1.27943 -1.06104,2.2145 0.698007,1.11769 0.915832,1.02459 1.521431,-0.65017 z m -6.582525,0.49195 c 0.289646,-0.28964 0.510642,-1.32645 0.491106,-2.30402 l -0.03547,-1.77738 -0.83069,1.75544 c -1.203817,2.54392 -1.014798,3.71587 0.375123,2.32596 z m -0.460797,101.61306 c 0.301714,-0.12175 0.795422,-0.12175 1.097151,0 0.301714,0.12174 0.05488,0.22137 -0.54857,0.22137 -0.603457,0 -0.850298,-0.0997 -0.548581,-0.22137 z M 33.005293,337.61261 c 0.534477,-0.55529 1.052836,-0.95147 1.151928,-0.88039 0.256105,0.18365 -1.340559,1.89003 -1.768517,1.89003 -0.195339,0 0.08217,-0.45433 0.616589,-1.00964 z m 57.767446,-0.92926 c -1.101625,-1.8671 -3.001455,-3.21427 -3.468111,-2.45921 -0.229558,0.37145 -0.403453,0.31117 -0.603089,-0.20904 -0.386265,-1.00663 -0.361903,-1.09805 0.29254,-1.09805 0.31516,0 1.253229,0.51513 2.084584,1.14474 0.831374,0.62962 2.301526,1.52803 3.267004,1.99649 1.704338,0.8269 1.713911,0.84367 0.329152,0.57581 -1.57982,-0.3056 -1.829049,0.0496 -0.658279,0.93837 0.492964,0.37422 0.566236,0.588 0.204608,0.59696 -0.309831,0.008 -0.961627,-0.66105 -1.448409,-1.48607 z m 4.644985,0.62231 c -0.553272,-0.23774 -0.634372,-0.37717 -0.219435,-0.37717 0.362055,0 1.053271,0.16973 1.536021,0.37717 0.55323,0.23774 0.63435,0.37717 0.21943,0.37717 -0.36207,0 -1.053285,-0.16972 -1.536016,-0.37717 z m -8.084309,-1.57258 c 0.02113,-0.51125 0.125119,-0.61525 0.265156,-0.26515 0.126703,0.3168 0.111187,0.69532 -0.03465,0.84116 -0.145813,0.1458 -0.249558,-0.11346 -0.230495,-0.57601 z m -54.453517,-0.21548 -1.535998,-0.29071 1.342412,-0.0577 c 0.738335,-0.0317 1.725765,-0.35399 2.194305,-0.71605 0.842038,-0.65069 0.841751,-0.6665 -0.02586,-1.36695 -0.482747,-0.38976 -0.581481,-0.58737 -0.219431,-0.43916 0.362064,0.1483 1.003893,0.39143 1.426291,0.54042 0.81121,0.28613 1.062761,1.04625 0.346262,1.04625 -0.231985,0 -0.775082,0.35431 -1.20689,0.78734 -0.596577,0.59827 -1.153923,0.71753 -2.321121,0.49663 z m -16.494149,-0.51596 c 0.140637,-0.30172 0.377621,-0.89418 0.526619,-1.31659 0.148954,-0.4224 0.450411,-0.768 0.669841,-0.768 0.21943,0 0.09251,0.59247 -0.281891,1.31658 -0.645678,1.24862 -1.455682,1.92881 -0.914569,0.76801 z m 75.803816,-1.97489 c -0.478888,-1.1191 -0.468054,-1.14493 0.148952,-0.35498 0.36598,0.46854 0.665428,1.01164 0.665428,1.20687 0,0.66705 -0.297702,0.35564 -0.814421,-0.85189 z m -66.26213,-3.6206 c 0,-0.60343 0.09955,-0.8503 0.221341,-0.54858 0.121818,0.30171 0.121818,0.79544 0,1.09716 -0.121674,0.30171 -0.221341,0.0549 -0.221341,-0.54858 z m 4.319312,0.49066 c 0,-0.24138 0.197494,-0.56091 0.438875,-0.71009 0.241367,-0.14912 0.438847,-0.0738 0.438847,0.16762 0,0.24137 -0.19748,0.56092 -0.438847,0.7101 -0.241381,0.14912 -0.438875,0.0737 -0.438875,-0.16763 z m 67.474993,-0.34244 c 0.30172,-0.12175 0.79543,-0.12175 1.09715,0 0.30171,0.12174 0.0549,0.22135 -0.54858,0.22135 -0.60342,0 -0.85029,-0.0997 -0.54857,-0.22135 z m -67.913853,-4.26366 c 0,-0.0912 0.3456,-0.43674 0.768012,-0.76803 0.696044,-0.54587 0.711574,-0.53035 0.165691,0.16571 -0.573321,0.73103 -0.933703,0.96351 -0.933703,0.60232 z m -4.001825,-6.50056 c 0.752743,-0.76993 1.368658,-1.55295 1.368658,-1.74 0,-0.18707 0.427081,-0.56866 0.949045,-0.84802 0.628212,-0.33622 0.308266,0.25202 -0.946417,1.74 -1.042521,1.23635 -2.085487,2.24792 -2.317718,2.24792 -0.232229,0 0.193674,-0.62996 0.946432,-1.3999 z m 5.148695,-9.51672 c -0.409556,-0.45253 -0.713009,-0.99563 -0.674338,-1.20686 0.184336,-1.0075 -0.126128,-1.93626 -1.171349,-3.50459 -0.878182,-1.31761 -0.930343,-1.50609 -0.228654,-0.82627 0.741783,0.71867 3.347598,6.36053 2.937755,6.36053 -0.06536,0 -0.453887,-0.37028 -0.863414,-0.82281 z m -11.6138,-7.16052 c -0.0362,-0.64954 -0.263245,-1.30303 -0.504611,-1.45222 -0.241366,-0.14912 -0.438876,-0.49938 -0.438876,-0.77822 0,-0.30487 0.276376,-0.23064 0.693172,0.18613 0.428618,0.42865 0.621199,1.17632 0.50461,1.95922 l -0.188531,1.26604 z m 18.502654,-0.61776 c -0.528487,-0.81055 -0.781345,-1.5847 -0.561844,-1.72035 0.343993,-0.21261 1.95202,2.82508 1.638252,3.0948 -0.06349,0.0546 -0.547893,-0.5639 -1.076408,-1.37445 z m -2.825375,-2.69962 c -0.545897,-0.69606 -0.530368,-0.71158 0.165705,-0.16571 0.422398,0.33129 0.767999,0.67689 0.767999,0.76802 0,0.36119 -0.360398,0.12871 -0.933704,-0.60233 z m 2.148982,-0.5294 c -0.303324,-1.0801 -0.121961,-1.70522 0.356203,-1.22715 0.140206,0.14015 0.185501,0.71621 0.100701,1.28 l -0.154254,1.02513 z m -8.785638,-0.74869 c 0.30173,-0.12174 0.795437,-0.12174 1.097152,0 0.301716,0.12175 0.05488,0.22137 -0.548568,0.22137 -0.603445,0 -0.850299,-0.0997 -0.548584,-0.22137 z m -2.82467,-0.91621 c -0.460525,-0.4224 -0.619865,-0.62787 -0.354106,-0.45656 0.265745,0.17129 0.96627,0.50438 1.556686,0.74018 0.67869,0.27106 0.808926,0.43898 0.354134,0.45658 -0.395664,0.0149 -1.096176,-0.3178 -1.556714,-0.7402 z m 5.234269,-1.42035 c -0.299431,-0.47948 -0.521707,-1.51627 -0.493967,-2.30402 l 0.05042,-1.43226 0.329138,1.53602 c 0.181032,0.84482 0.47568,1.88163 0.654787,2.30403 0.437698,1.03232 0.132592,0.97372 -0.540439,-0.10384 z m 56.068726,-5.58429 c 0,-0.25203 0.3456,-0.7293 0.767999,-1.06057 0.710422,-0.55714 0.719732,-0.53649 0.124259,0.2754 -0.354102,0.48277 -0.699702,0.96002 -0.768012,1.06059 -0.06838,0.10052 -0.124264,-0.0234 -0.124264,-0.27542 z m -49.556747,-7.84352 c 0.02112,-0.51125 0.125121,-0.61524 0.265155,-0.26514 0.126702,0.3168 0.111188,0.69531 -0.03462,0.84116 -0.145793,0.14579 -0.249554,-0.11346 -0.230506,-0.57602 z m 46.923579,-4.05611 c 0,-0.1993 0.528788,-0.84114 1.175074,-1.42631 l 1.175079,-1.06393 -0.985516,1.4263 c -0.994571,1.43937 -1.364637,1.7279 -1.364637,1.06394 z m -0.43886,-6.70579 c 0,-0.26688 0.493725,-1.07198 1.097151,-1.78913 1.334815,-1.58632 1.422159,-1.20769 0.18363,0.79625 -0.958139,1.55029 -1.280781,1.80043 -1.280781,0.99288 z m -52.783086,-3.36562 -0.777969,-1.63493 0.887677,1.03606 c 0.488235,0.56983 0.887706,1.3104 0.887706,1.64573 0,0.90202 -0.140062,0.75518 -0.997414,-1.04686 z m 10.254265,-1.82916 c -0.335949,-0.20763 -0.446576,-0.6014 -0.255704,-0.91022 0.251753,-0.40733 0.441662,-0.35618 0.754755,0.20328 0.507685,0.90721 0.300322,1.20098 -0.499051,0.70694 z m 27.855159,-3.22587 c 0.164876,-0.43282 0.410207,-0.67639 0.545313,-0.54127 0.135175,0.13518 2.85e-4,0.48924 -0.299632,0.78693 -0.433433,0.4302 -0.483838,0.3798 -0.245681,-0.24566 z m -4.798305,-5.74643 c -0.697266,-1.29472 -0.738034,-1.88483 -0.340676,-4.92937 l 0.451387,-3.45857 -0.221498,3.59287 c -0.201029,3.26065 -0.133743,3.68065 0.727832,4.54221 0.548384,0.54838 0.785844,1.11288 0.562204,1.33652 -0.223641,0.22363 -0.721717,-0.23406 -1.179249,-1.08366 z m 1.478621,-0.51022 c 0,-0.63348 1.3352,-2.70659 2.247844,-3.49013 0.873858,-0.75027 0.8423,-0.6352 -0.21881,0.79785 -0.681982,0.92101 -1.170632,1.73715 -1.08592,1.81365 0.409658,0.36989 3.533397,-2.12621 3.914153,-3.12768 0.542739,-1.42747 0.990531,-1.08143 0.602297,0.46541 -0.15857,0.63192 -0.546732,1.14895 -0.86251,1.14895 -0.315795,0 -0.63998,0.15658 -0.720436,0.34784 -0.161243,0.38324 -3.15684,2.28533 -3.599264,2.28533 -0.152603,0 -0.277354,-0.10847 -0.277354,-0.24122 z"
       id="KL"
       inkscape:connector-curvature="0"
       inkscape:label="#KL">
      <title
         id="title1636">javor klen</title>
    </path>
  </g>
</svg>
