<?xml version="1.0" encoding="UTF-8" standalone="no"?>
<!-- Created with Inkscape (http://www.inkscape.org/) -->

<svg
   xmlns:dc="http://purl.org/dc/elements/1.1/"
   xmlns:cc="http://creativecommons.org/ns#"
   xmlns:rdf="http://www.w3.org/1999/02/22-rdf-syntax-ns#"
   xmlns:svg="http://www.w3.org/2000/svg"
   xmlns="http://www.w3.org/2000/svg"
   xmlns:sodipodi="http://sodipodi.sourceforge.net/DTD/sodipodi-0.dtd"
   xmlns:inkscape="http://www.inkscape.org/namespaces/inkscape"
   width="40.531616mm"
   height="65.511894mm"
   viewBox="0 0 100 100"
   version="1.1"
   id="svg1660"
   inkscape:version="0.92.5 (2060ec1f9f, 2020-04-08)"
   sodipodi:docname="MD.svg">
  <defs
     id="defs1654" />
  <sodipodi:namedview
     id="base"
     pagecolor="#ffffff"
     bordercolor="#666666"
     borderopacity="1.0"
     inkscape:pageopacity="0.0"
     inkscape:pageshadow="2"
     inkscape:zoom="0.35"
     inkscape:cx="320.88093"
     inkscape:cy="575.23059"
     inkscape:document-units="mm"
     inkscape:current-layer="layer1"
     showgrid="false"
     fit-margin-top="0"
     fit-margin-left="0"
     fit-margin-right="0"
     fit-margin-bottom="0"
     inkscape:window-width="960"
     inkscape:window-height="1015"
     inkscape:window-x="0"
     inkscape:window-y="0"
     inkscape:window-maximized="0" />
  <metadata
     id="metadata1657">
    <rdf:RDF>
      <cc:Work
         rdf:about="">
        <dc:format>image/svg+xml</dc:format>
        <dc:type
           rdf:resource="http://purl.org/dc/dcmitype/StillImage" />
        <dc:title></dc:title>
      </cc:Work>
    </rdf:RDF>
  </metadata>
  <g
     inkscape:label="Layer 1"
     inkscape:groupmode="layer"
     id="layer1"
     transform="translate(-4.68061,-235.51787)">
    <path
       style="fill:#000000;stroke-width:0.65278268"
       d="m 58.642726,378.06455 c 0,-0.24852 0.45582,-1.54279 1.01294,-2.87617 1.45338,-3.47845 1.43673,-29.48896 -0.0197,-32.30731 -1.44214,-2.78881 -2.24546,-2.98147 -3.03134,-0.72704 -0.38486,1.10402 -1.11402,2.00731 -1.62037,2.00731 -0.50632,0 -1.39562,1.18719 -1.97621,2.63821 -1.26342,3.15766 -1.85116,2.86114 -1.72612,-0.87087 0.0506,-1.51058 -0.0563,-2.23245 -0.2376,-1.60415 -0.18134,0.62831 -0.56852,1.14237 -0.86049,1.14237 -0.29194,0 -0.68238,0.80782 -0.86764,1.79516 -0.18529,0.98733 -0.66499,3.6272 -1.06611,5.86636 -1.04866,5.85389 -1.82354,7.6664 -2.8967,6.77576 -0.66738,-0.55388 -1.04254,-0.33097 -1.6363,0.97223 -0.46672,1.02432 -1.12914,1.55321 -1.68039,1.3417 -0.5005,-0.19195 -1.07196,0.0728 -1.26993,0.58875 -0.50422,1.31401 -1.70289,1.17185 -1.72381,-0.20454 -0.0123,-0.84637 -0.30332,-0.68124 -1.12103,0.63739 -1.84673,2.97804 -2.7783,2.80528 -2.7783,-0.51516 0,-1.91739 -0.31777,-3.05946 -0.91501,-3.28864 -0.50326,-0.19318 -1.13514,-1.43234 -1.40419,-2.75384 l -0.48917,-2.40272 -0.6486,2.12155 c -0.78053,2.55301 -1.76532,2.78155 -1.76532,0.40966 0,-1.35485 -0.18203,-1.56083 -0.8727,-0.98761 -0.67585,0.5609 -1.30167,0.19925 -2.77433,-1.60325 -1.84412,-2.25716 -2.00525,-2.31594 -5.32873,-1.94421 -1.884911,0.21082 -3.42711,0.12316 -3.42711,-0.19479 0,-0.74292 5.52721,-3.12863 11.6251,-5.01774 9.9059,-3.06881 30.15301,-16.62342 30.15301,-20.18619 0,-1.67886 -1.14928,-1.6556 -2.26411,0.0458 -0.60575,0.92448 -2.09814,2.09735 -3.31643,2.60638 -1.21828,0.50903 -2.8663,1.80638 -3.66227,2.883 -2.17775,2.94556 -3.21931,2.57199 -2.73246,-0.98003 0.2733,-1.9938 0.16432,-2.93752 -0.33887,-2.93752 -0.40783,1e-5 -0.74152,0.52215 -0.74152,1.16032 0,1.54511 -1.88867,4.18205 -2.65578,3.70795 -0.33448,-0.2067 -0.60812,-0.0648 -0.60812,0.31547 0,0.97017 -1.78855,0.86572 -2.13497,-0.12467 -0.20922,-0.59792 -0.63035,-0.51032 -1.57613,0.32782 -1.56068,1.38302 -2.28071,0.85426 -1.74473,-1.28127 0.23981,-0.95497 -0.0678,-2.43607 -0.78093,-3.76002 l -1.17636,-2.18441 -1.23706,1.57265 c -0.92824,1.18006 -1.63253,1.47339 -2.82128,1.17503 -1.14474,-0.28731 -1.58422,-0.12851 -1.58422,0.5724 0,1.35206 -1.59378,2.53436 -2.79501,2.0734 -0.55119,-0.21151 -1.35414,-1.23435 -1.78436,-2.27298 -0.68692,-1.65837 -0.89868,-1.77193 -1.73835,-0.93226 -1.30942,1.30942 -2.168454,1.19904 -2.168454,-0.27865 0,-1.59621 -2.336979,-2.27449 -7.993585,-2.32005 -5.5008472,-0.0443 -6.0010962,-1.18233 -0.796963,-1.81303 2.142073,-0.2596 6.538449,-1.14086 9.769722,-1.95835 5.525,-1.39779 5.70975,-1.4983 3.10072,-1.68707 -4.122969,-0.2983 -3.35867,-1.4286 0.97917,-1.44807 8.5406,-0.0383 16.88396,-1.28734 24.10127,-3.60801 4.01066,-1.28959 7.4369,-2.72208 7.6139,-3.18331 0.1769,-0.46123 -0.22155,-1.6671 -0.88595,-2.67972 l -1.20777,-1.84112 -0.43754,1.74329 c -0.63239,2.51967 -1.40794,1.60647 -1.97734,-2.3283 -0.41738,-2.88411 -0.57173,-3.1681 -0.97527,-1.79442 -0.26369,0.89757 -0.50871,2.62262 -0.54448,3.83342 -0.0555,1.87983 -0.20824,2.08275 -1.04425,1.38884 -0.53854,-0.44696 -0.98367,-1.14387 -0.98917,-1.54869 -0.005,-0.40483 -0.28132,-1.165 -0.61293,-1.68927 -0.51659,-0.81668 -0.79326,-0.78096 -1.93176,0.24935 -1.30125,1.17762 -1.34248,1.16667 -1.98684,-0.52817 -0.58463,-1.53767 -0.80493,-1.63898 -1.97495,-0.9083 -0.7243,0.45233 -1.31692,1.04552 -1.31692,1.31819 0,0.27267 -0.44062,0.49576 -0.97917,0.49576 -0.54399,0 -0.97918,0.58025 -0.97918,1.30556 0,1.4448 -1.00986,1.76879 -1.52602,0.4896 -0.18109,-0.4488 -0.35244,-0.17239 -0.38079,0.61424 -0.0878,2.43641 -1.24456,2.31738 -2.5844,-0.26593 l -1.281,-2.46986 0.36093,2.77432 c 0.37553,2.88651 -0.29716,3.56901 -1.76931,1.79515 -0.44699,-0.53854 -1.18592,-0.97917 -1.64208,-0.97917 -0.45617,0 -0.99849,-0.44063 -1.20515,-0.97917 -0.20665,-0.53855 -0.8058,-0.97918 -1.33142,-0.97918 -0.52562,0 -1.13197,-0.55548 -1.34745,-1.23439 -0.21549,-0.67892 -1.3245,-1.68612 -2.46448,-2.23824 -2.05755,-0.9965 -2.06097,-1.00631 -0.46818,-1.34334 0.88248,-0.18674 3.66077,-0.52122 6.17399,-0.74331 10.79341,-0.9538 25.21239,-5.24479 26.19067,-7.79416 0.18948,-0.49362 0.24906,-1.73013 0.13249,-2.74779 l -0.21194,-1.85028 -1.48442,2.51177 c -0.94928,1.60627 -1.81971,2.38309 -2.41451,2.15485 -0.5456,-0.20937 -1.08912,0.14411 -1.31477,0.85503 -0.21169,0.66657 -0.81198,1.37594 -1.33429,1.57637 -0.97598,0.3745 -3.56759,-1.90369 -3.57338,-3.14122 -0.002,-0.3811 -0.73491,0.18837 -1.62915,1.26545 -1.44226,1.73715 -1.71839,1.84153 -2.44469,0.92411 -0.45034,-0.56883 -1.60911,-1.23098 -2.57505,-1.47143 -1.37757,-0.34294 -1.97732,-0.12162 -2.78143,1.02642 -0.86397,1.2335 -1.20366,1.3359 -2.16044,0.65131 -2.08176,-1.48956 -2.93038,-1.66896 -4.18583,-0.88492 -1.60541,1.0026 -2.237,0.57042 -2.72386,-1.86386 -0.43805,-2.19024 -1.21756,-2.37956 -5.22091,-1.26793 -1.38003,0.38321 -2.635395,0.57049 -2.789694,0.41618 -0.631372,-0.63137 0.640004,-2.4714 1.625704,-2.35285 0.5841,0.0703 1.50263,-0.0398 2.04118,-0.24462 0.53854,-0.2048 3.03544,-0.52317 5.54865,-0.70747 10.5982,-0.77719 27.15137,-5.95778 27.64346,-8.65147 0.17246,-0.94388 0.041,-1.062 -0.55007,-0.49434 -0.58334,0.56026 -1.19975,0.52636 -2.4769,-0.13624 -1.95107,-1.01222 -3.40102,-0.26401 -3.40102,1.755 0,1.46504 -1.01195,1.62682 -1.54164,0.24647 -0.54599,-1.42282 -1.72228,-1.1999 -1.72228,0.32639 0,0.71806 -0.32126,1.30557 -0.71389,1.30557 -0.39266,0 -0.86755,-0.58751 -1.05533,-1.30557 -0.42088,-1.60943 -1.94248,-1.71479 -2.35682,-0.1632 -0.25834,0.96746 -0.37729,0.91749 -0.77678,-0.32639 -0.26858,-0.83628 -1.00114,-1.46876 -1.70114,-1.46876 -0.72815,0 -1.23753,-0.46579 -1.2493,-1.14237 -0.0197,-1.0795 -0.057,-1.07874 -0.69289,0.0138 -0.37018,0.63585 -0.92673,0.99931 -1.23681,0.80769 -0.31005,-0.19163 -1.3281,-1.5e-4 -2.26231,0.42551 -1.19144,0.54285 -1.90422,0.5683 -2.38727,0.0852 -0.4831,-0.48306 -1.25672,-0.47429 -2.5911,0.0294 -1.55928,0.58856 -2.09779,0.52267 -2.98579,-0.36533 -1.00934,-1.00934 -0.97603,-1.10598 0.48725,-1.41377 0.86384,-0.18168 4.65502,-0.95416 8.42486,-1.71659 4.50683,-0.91149 7.74847,-1.97122 9.46536,-3.09431 1.43611,-0.93944 3.09338,-1.67349 3.68282,-1.6312 0.58945,0.0423 1.73877,-0.63318 2.55406,-1.50104 1.13217,-1.20513 1.68863,-1.40673 2.35542,-0.85335 0.65751,0.54568 0.86172,0.50337 0.82715,-0.17135 -0.12385,-2.41827 -2.25165,-4.09147 -3.21694,-2.52962 -0.24475,0.39597 -1.1529,0.7572 -2.01815,0.80273 -0.86528,0.0456 -1.8865,0.31578 -2.26937,0.60055 -0.38288,0.28477 -1.70476,0.24137 -2.93753,-0.0964 -1.23274,-0.33781 -3.53166,-0.54934 -5.10868,-0.47005 -3.84174,0.19315 -4.2381,-1.16751 -0.59415,-2.03961 6.63719,-1.58845 8.40943,-2.12182 13.46501,-4.05236 4.61245,-1.76133 5.33682,-2.24857 5.33682,-3.58979 0,-1.86413 -2.04119,-3.21215 -3.1639,-2.08945 -0.52642,0.52643 -0.95917,0.54639 -1.43917,0.0664 -0.92863,-0.92862 -3.88309,-0.29881 -3.88309,0.82777 0,0.49669 -0.29374,0.90308 -0.65277,0.90308 -0.35905,0 -0.6528,-0.58751 -0.6528,-1.30557 0,-0.71806 -0.29375,-1.30556 -0.65277,-1.30556 -0.35903,0 -0.65932,0.95469 -0.66731,2.12154 l -0.0148,2.12154 -1.19766,-1.55756 c -0.82937,-1.07862 -1.34458,-1.31978 -1.67555,-0.78428 -0.36547,0.59137 -0.69457,0.59346 -1.39896,0.009 -0.74794,-0.62072 -0.92106,-0.47943 -0.92106,0.75164 0,1.17915 -0.17418,1.34197 -0.78334,0.73271 -1.08557,-1.08557 -2.04354,-0.98158 -1.60021,0.17372 0.29266,0.76269 -0.0577,0.87773 -1.72532,0.56646 -1.1509,-0.21486 -2.37162,-0.64554 -2.71271,-0.9571 -0.34107,-0.31155 -1.90775,-0.56646 -3.48152,-0.56646 -4.18042,0 -3.2007,-1.49214 1.47187,-2.2417 2.34758,-0.37659 4.38994,-1.15554 5.34117,-2.03712 0.89088,-0.82564 2.71798,-1.56014 4.33405,-1.74229 1.53663,-0.1732 5.07675,-1.39824 7.86694,-2.7223 3.93382,-1.86675 5.39359,-2.95058 6.50018,-4.82614 2.20053,-3.72962 1.01025,-6.3985 -2.44189,-5.47525 -1.45356,0.38874 -2.1373,1.1545 -2.90094,3.24889 -0.54952,1.50714 -1.18254,2.74026 -1.40671,2.74026 -0.22427,0 -0.78862,-0.712 -1.25433,-1.58221 -0.64919,-1.21302 -1.58185,-1.68331 -3.99693,-2.01547 -1.73257,-0.23828 -3.49554,-0.21978 -3.9177,0.0411 -0.47465,0.29334 -0.65606,0.13994 -0.47541,-0.402 0.16061,-0.482 1.74096,-1.43748 3.51178,-2.12328 5.35202,-2.07271 10.40027,-4.88396 10.40027,-5.79165 0,-0.86999 -0.58416,-0.88486 -5.22224,-0.13298 -3.66336,0.59388 -2.18121,-0.6608 1.95835,-1.65778 3.7575,-0.90498 9.46534,-4.31863 9.46534,-5.6609 0,-1.74 -0.0908,-1.88926 -1.03072,-1.69648 -0.51982,0.10661 -1.11947,-0.26059 -1.33259,-0.81598 -0.21317,-0.55539 -1.09046,-1.0098 -1.94962,-1.0098 -1.81142,0 -2.09737,-1.1716 -0.41974,-1.7199 0.6283,-0.20534 2.01127,-0.7627 3.07325,-1.23857 l 1.93092,-0.86521 -1.76771,-0.44366 c -2.52206,-0.63299 -2.18361,-1.49447 0.68023,-1.73149 2.5638,-0.21218 2.45858,-0.0318 2.70999,-4.64741 0.0353,-0.64949 0.36287,-0.99638 0.72777,-0.77087 0.36488,0.2255 0.48999,0.69065 0.27801,1.03363 -0.21193,0.34298 -0.19664,1.48279 0.0341,2.53291 0.37314,1.69888 0.59176,1.84376 1.98361,1.31458 0.91045,-0.34615 1.71429,-0.35196 1.92324,-0.0138 0.19738,0.31947 -0.20576,0.76005 -0.89577,0.97908 -2.19431,0.69646 -2.0465,2.03797 0.31879,2.89327 2.40587,0.86998 2.97444,2.02475 0.99692,2.02475 -0.67409,0 -1.5913,0.4406 -2.03823,0.97911 -0.68325,0.82328 -0.45646,1.1279 1.42498,1.91402 1.23067,0.5142 3.01708,1.13056 3.9698,1.36968 2.17664,0.5463 3.54244,2.07505 2.65062,2.96686 -0.71799,0.71798 -2.82318,0.14256 -2.82318,-0.77168 0,-0.32062 -0.29375,-0.58295 -0.65278,-0.58295 -0.35902,0 -0.6528,0.88126 -0.6528,1.95835 0,2.32933 -0.77704,2.50762 -2.13376,0.48959 -1.34261,-1.99708 -1.91229,-1.20212 -1.40626,1.96238 0.30857,1.92974 0.84667,2.82069 2.02891,3.35935 0.88494,0.4032 1.83726,0.592 2.11627,0.41955 0.27902,-0.17243 1.59604,0.24152 2.92673,0.91995 1.33067,0.67841 3.65068,1.41993 5.15561,1.64781 1.50491,0.22787 3.32372,0.6648 4.04178,0.97092 0.71805,0.30612 1.83824,0.72802 2.48929,0.93756 0.65107,0.20954 1.00092,0.6768 0.77747,1.03837 -0.54987,0.8897 -4.71018,0.83781 -5.26858,-0.0657 -0.27349,-0.44251 -1.39874,-0.5709 -2.89983,-0.33086 -1.77926,0.28452 -2.68186,0.1164 -3.2865,-0.61217 -0.45848,-0.55242 -1.2771,-0.83421 -1.81918,-0.6262 -0.54209,0.20801 -1.25176,0.001 -1.57709,-0.45988 -0.47111,-0.66756 -0.65911,-0.67123 -0.92392,-0.018 -0.18282,0.45103 -0.67453,0.64896 -1.09265,0.43985 -0.41814,-0.20909 -0.0669,0.2297 0.78085,0.97511 0.84758,0.74542 2.03897,1.3553 2.64749,1.3553 0.60853,0 2.00256,0.66094 3.0978,1.46876 1.09524,0.80782 5.55569,2.64377 9.91206,4.07989 4.35638,1.43612 7.92362,2.85479 7.9272,3.15259 0.003,0.2978 -0.80132,0.37264 -1.78865,0.16631 -2.33889,-0.48876 -7.61016,-1.11683 -11.05017,-1.31662 -1.49996,-0.0871 -3.44541,-0.62899 -4.32321,-1.20415 -1.59881,-1.04759 -4.37331,-0.85999 -4.37331,0.2957 0,1.02627 -1.34976,-0.14594 -1.93229,-1.67809 -0.40366,-1.06175 -1.03191,-1.40784 -2.40768,-1.32633 -2.81089,0.16653 -2.84062,0.18311 -2.84062,1.58419 0,1.27252 0.55697,1.55714 2.65968,1.35913 0.56526,-0.0532 1.36678,0.64732 1.78117,1.55678 0.41437,0.90947 1.1269,1.68746 1.58339,1.72887 0.90677,0.0823 1.95023,0.30082 2.46193,0.51567 0.17961,0.0754 1.47169,0.25687 2.87151,0.40333 1.39982,0.14645 3.16232,0.82748 3.91669,1.51337 0.75438,0.68589 2.89922,1.60308 4.76635,2.03819 1.86714,0.43511 3.73906,1.20593 4.15982,1.71293 0.455,0.54823 1.97607,0.92182 3.75319,0.92182 4.30114,0 2.60578,1.29512 -2.23904,1.71045 -2.11556,0.18136 -4.57364,0.48043 -5.4624,0.66459 l -1.61595,0.33484 1.60618,1.21154 c 3.50327,2.64251 -0.0148,1.91902 -6.64163,-1.36594 -0.67456,-0.33437 -1.33982,-0.23367 -1.75409,0.2655 -1.31364,1.58284 -3.83819,1.16603 -5.59689,-0.92404 -0.92424,-1.09841 -1.68044,-1.68082 -1.68044,-1.29424 0,0.38658 -0.44062,0.70287 -0.97919,0.70287 -0.53854,0 -0.97916,0.32518 -0.97916,0.72262 0,0.39744 -0.44062,0.55354 -0.97918,0.34688 -0.59157,-0.22701 -0.97916,-0.003 -0.97916,0.56617 0,1.16163 2.22411,2.31495 8.15977,4.23126 6.00102,1.93742 6.84538,2.80296 2.45466,2.51623 -2.28711,-0.14937 -3.52259,0.0433 -3.7288,0.58159 -0.16949,0.44274 -0.76014,0.63162 -1.31228,0.41975 -0.70192,-0.26936 -1.00389,0.017 -1.00389,0.95165 0,2.00313 -1.06275,2.27273 -2.57221,0.65253 -0.73945,-0.79371 -1.34448,-1.63253 -1.34448,-1.86402 0,-0.2315 -0.3672,-0.42104 -0.81598,-0.4212 -0.56149,-2.2e-4 -0.74515,0.87485 -0.58887,2.80573 0.22032,2.721 0.32902,2.84397 3.5903,4.05783 1.84977,0.68848 5.56635,1.75681 8.25908,2.37406 2.69272,0.61724 6.21774,1.53206 7.83339,2.03292 1.61564,0.50087 5.09176,1.18098 7.72472,1.51136 6.24579,0.78372 7.30422,1.69061 2.6726,2.28995 -1.23064,0.15925 -2.34476,0.30936 -2.47582,0.33359 -0.131,0.0242 0.25963,0.80392 0.86814,1.73264 1.60734,2.45309 0.9556,2.48269 -1.94858,0.0885 -3.08975,-2.54717 -5.41594,-2.80714 -5.9535,-0.66536 -0.50975,2.03099 -1.38176,1.8848 -2.71307,-0.45484 -1.1621,-2.04226 -2.42741,-2.53736 -2.93005,-1.1465 -0.20084,0.55587 -0.89452,0.27911 -2.17596,-0.8682 -1.03458,-0.92631 -2.61544,-1.72107 -3.51301,-1.76613 -0.89757,-0.0451 -2.24829,-0.23629 -3.00161,-0.42493 -0.99342,-0.24876 -1.55964,0.074 -2.06135,1.17519 -0.65495,1.43748 -0.42606,1.64412 4.30718,3.88857 7.11978,3.37612 18.66269,7.53655 23.43998,8.44852 6.149104,1.17384 5.250984,2.09814 -2.54259,2.6167 -2.36208,0.15715 -4.09128,0.65151 -4.81683,1.37706 -0.62256,0.62255 -1.53466,0.97734 -2.02689,0.78845 -0.52122,-0.20002 -0.89501,0.0796 -0.89501,0.66964 0,1.67722 -1.53934,0.63903 -3.08998,-2.08398 -1.19501,-2.09853 -1.45997,-2.29544 -1.46875,-1.09163 -0.0123,1.74996 -0.48004,1.83718 -2.0809,0.38842 -1.11848,-1.01221 -1.19376,-0.99849 -1.19376,0.2176 0,2.29821 -0.78358,2.19096 -3.35555,-0.45926 -2.38095,-2.45342 -4.30471,-3.203 -5.40262,-2.1051 -0.26927,0.26928 -0.80781,0.48959 -1.19677,0.48959 -1.47169,0 -1.12036,1.49622 0.6189,2.63583 7.31762,4.79469 22.38411,10.77559 32.346634,12.84055 2.06441,0.4279 3.75349,1.03632 3.75349,1.35205 0,0.31572 -0.95469,0.38162 -2.12153,0.14643 -4.934554,-0.99459 -10.691784,-2.49377 -11.806004,-3.07429 -0.65907,-0.34337 -1.35242,-0.47017 -1.5408,-0.28178 -0.58275,0.58274 13.996514,7.4538 16.832304,7.9329 1.58724,0.26816 2.43862,0.69175 2.09035,1.04003 -0.82706,0.82704 -6.89984,-1.05353 -11.614104,-3.59658 -4.45255,-2.40188 -7.96524,-2.76219 -7.62114,-0.78174 0.16407,0.94439 -0.0881,1.14308 -1.11108,0.87556 -0.72783,-0.19033 -1.44576,-0.0101 -1.59543,0.40062 -0.14975,0.41067 -0.67779,-0.12583 -1.17365,-1.19223 l -0.90156,-1.93893 -0.33537,2.59171 c -0.20429,1.57907 -0.65068,2.52793 -1.14237,2.4285 -0.44385,-0.0898 -0.807,0.40697 -0.807,1.10384 0,2.31717 -1.27833,2.09925 -2.44192,-0.41626 -1.42946,-3.09035 -2.43289,-4.19056 -3.18134,-3.48815 -0.81431,0.76421 -3.5157,-0.39493 -3.5157,-1.50854 0,-1.2624 -2.13991,-1.72793 -3.11999,-0.67876 -0.4382,0.46908 -0.79192,1.96684 -0.78608,3.32836 l 0.01,2.47549 11.57627,5.70017 c 6.36694,3.1351 14.51379,6.64262 18.10409,7.79448 3.590314,1.15186 6.799104,2.32433 7.130624,2.60546 0.73658,0.62458 -5.77318,0.006 -8.297414,-0.78887 -1.06904,-0.33651 -2.4731,-0.32428 -3.40401,0.0296 -0.9912,0.37686 -1.72969,0.36733 -1.97244,-0.0255 -0.59691,-0.96576 -1.61656,-0.74415 -1.61656,0.35137 0,1.43897 -1.33168,1.19478 -3.22819,-0.59196 -1.96227,-1.84867 -6.33637,-3.24126 -6.96844,-2.21854 -0.22846,0.36945 -0.15124,0.85921 0.17147,1.08833 0.32259,0.22913 0.96791,1.28254 1.43404,2.34091 0.67185,1.52534 0.97152,1.72836 1.44549,0.97918 0.5155,-0.81484 0.59931,-0.80929 0.60794,0.0402 0.01,0.91017 2.2709,2.82688 2.8859,2.44574 0.14828,-0.0919 0.85153,0.57242 1.56258,1.47638 0.71105,0.90394 2.64702,2.31988 4.3022,3.14651 1.65518,0.82663 3.0094,1.78106 3.0094,2.12095 0,0.33989 -1.45901,-0.12134 -3.24223,-1.02497 -4.27758,-2.16762 -4.8492,-2.11711 -4.34892,0.38425 0.33309,1.66542 0.22278,1.95714 -0.61782,1.63455 -0.88405,-0.33924 -0.96228,0.0956 -0.57503,3.19505 0.55083,4.40869 -0.53445,4.85182 -1.59244,0.65019 -0.40682,-1.61563 -1.0292,-2.93752 -1.38304,-2.93752 -0.35388,0 -0.66659,-0.95469 -0.69494,-2.12154 -0.0284,-1.16685 -0.1996,-1.75435 -0.38079,-1.30557 -0.51616,1.2792 -1.52602,0.95521 -1.52602,-0.48958 0,-0.71806 -0.27278,-1.30557 -0.60615,-1.30557 -0.33339,0 -1.06778,-0.46161 -1.63195,-1.0258 -0.93256,-0.93255 -1.0258,-0.90288 -1.0258,0.32639 0,0.74371 -0.31479,1.35219 -0.6995,1.35219 -0.38474,0 -0.64597,0.66095 -0.58053,1.46876 0.18972,2.34312 1.4e-4,2.84501 -0.67832,1.79516 -0.49709,-0.7692 -0.63493,-0.61172 -0.6428,0.73438 -0.0172,2.82222 -0.78231,5.79661 -1.39503,5.41793 -0.31531,-0.19489 -0.57331,-1.36512 -0.57331,-2.60054 0,-1.23541 -0.29375,-2.24621 -0.65277,-2.24621 -0.35903,0 -0.65278,0.58751 -0.65278,1.30557 0,2.32625 -1.27809,1.38092 -1.69998,-1.25739 -0.2255,-1.40961 -1.02821,-3.53932 -1.78401,-4.73267 l -1.37419,-2.16973 -0.367,3.46554 c -0.20182,1.90604 -0.15494,5.57794 0.10412,8.15978 0.25903,2.58184 0.49423,7.19115 0.52265,10.24289 0.0427,4.58006 0.85632,10.3651 2.08904,14.853 0.16481,0.59983 -1.29966,0.87236 -5.48713,1.02118 -3.14152,0.11176 -5.71183,-3.5e-4 -5.71183,-0.24887 z m 18.42196,-49.20872 c -1.04405,-1.32731 -1.38718,-1.46556 -1.68851,-0.68031 -0.6467,1.68526 -0.53597,1.93954 1.01635,2.33423 2.07937,0.52871 2.18486,0.26915 0.67216,-1.65392 z"
       id="MD"
       inkscape:connector-curvature="0"
       sodipodi:nodetypes="csccscccsccccccccsccccscssssscccccscscccccccscccscccccccccccccccccccsssccccccscscscsccccscccsccccccccccscccscsscccsccccccscccsccccccccccsccsssscccccsccccsccsccscsccccsscssccscccccccccccccsccccssscccccccccscccccccscsccccsccsccccccscscscscccssscsccccscsccsscccccssccccsccssccscccsccscsscccccsccccccssccsccccsccccscccccccccssccscsccsscssccccssscccccccccccccc">
      <title
         id="title1432">modřín evropský</title>
    </path>
  </g>
</svg>
