<?xml version="1.0" encoding="UTF-8" standalone="no"?>
<!-- Created with Inkscape (http://www.inkscape.org/) -->

<svg
   xmlns:dc="http://purl.org/dc/elements/1.1/"
   xmlns:cc="http://creativecommons.org/ns#"
   xmlns:rdf="http://www.w3.org/1999/02/22-rdf-syntax-ns#"
   xmlns:svg="http://www.w3.org/2000/svg"
   xmlns="http://www.w3.org/2000/svg"
   xmlns:sodipodi="http://sodipodi.sourceforge.net/DTD/sodipodi-0.dtd"
   xmlns:inkscape="http://www.inkscape.org/namespaces/inkscape"
   width="40.531616mm"
   height="65.511894mm"
   viewBox="0 0 100 100"
   version="1.1"
   id="svg1660"
   inkscape:version="0.92.5 (2060ec1f9f, 2020-04-08)"
   sodipodi:docname="OS.svg">
  <defs
     id="defs1654" />
  <sodipodi:namedview
     id="base"
     pagecolor="#ffffff"
     bordercolor="#666666"
     borderopacity="1.0"
     inkscape:pageopacity="0.0"
     inkscape:pageshadow="2"
     inkscape:zoom="0.98994949"
     inkscape:cx="153.80239"
     inkscape:cy="276.77495"
     inkscape:document-units="mm"
     inkscape:current-layer="layer1"
     showgrid="false"
     fit-margin-top="0"
     fit-margin-left="0"
     fit-margin-right="0"
     fit-margin-bottom="0"
     inkscape:window-width="960"
     inkscape:window-height="1015"
     inkscape:window-x="0"
     inkscape:window-y="0"
     inkscape:window-maximized="0" />
  <metadata
     id="metadata1657">
    <rdf:RDF>
      <cc:Work
         rdf:about="">
        <dc:format>image/svg+xml</dc:format>
        <dc:type
           rdf:resource="http://purl.org/dc/dcmitype/StillImage" />
        <dc:title></dc:title>
      </cc:Work>
    </rdf:RDF>
  </metadata>
  <g
     inkscape:label="Layer 1"
     inkscape:groupmode="layer"
     id="layer1"
     transform="translate(-4.68061,-235.51787)">
    <path
       style="fill:#000000;stroke-width:0.45169076"
       d="m 54.979289,369.24699 c -0.569943,-0.31902 -1.487248,-0.26748 -0.289564,-0.97086 0.516664,-0.31845 0.747126,-2.17592 1.047544,-8.44336 0.766342,-15.98702 0.468504,-19.82956 -2.221172,-28.65717 -1.8243,-5.9874 -2.516606,-6.81463 -5.535228,-6.61392 -2.570013,0.1709 -3.502205,1.35685 -4.108064,5.22634 -0.251355,1.60541 -0.884169,3.45205 -1.460197,4.261 -0.597313,0.83885 -0.97536,1.96869 -0.916626,2.73948 0.07483,0.98192 -0.539123,2.16093 -2.441316,4.68837 -1.39771,1.85712 -2.65785,3.26002 -2.800331,3.11753 -0.142466,-0.14254 0.252944,-0.81591 0.878729,-1.49649 2.623763,-2.85355 4.111011,-5.43964 3.812446,-6.62925 -0.378542,-1.50828 -0.704812,-1.4651 -3.17472,0.42022 -1.136962,0.86787 -2.067206,1.38635 -2.067206,1.15222 0,-0.61353 2.779686,-2.64393 4.38643,-3.20405 1.428929,-0.49812 3.148636,-3.37528 2.7304,-4.56816 -0.116453,-0.33224 -0.04273,-1.06141 0.16395,-1.62038 0.465892,-1.26046 -0.256931,-1.33555 -2.51068,-0.26082 -1.284787,0.61268 -1.803431,0.65564 -2.743506,0.22732 -0.917633,-0.4181 -1.484948,-0.39208 -2.722111,0.12479 -1.940337,0.81073 -2.047398,0.52118 -0.166697,-0.45128 0.936386,-0.48421 1.942367,-0.62961 3.055353,-0.44158 1.837598,0.31047 5.797916,-1.13217 6.235025,-2.27124 0.385914,-1.00572 3.067924,-2.46044 4.536179,-2.46044 0.73668,0 1.448968,-0.1096 1.582864,-0.24345 0.40763,-0.40764 -2.333161,-5.44468 -4.060966,-7.46323 -2.178595,-2.54519 -4.939425,-4.48899 -6.375662,-4.48888 -1.344095,1.2e-4 -5.165335,1.94636 -7.094603,3.61344 -3.263732,2.82017 -5.211833,8.9039 -4.090756,12.77492 0.303436,1.04777 0.434984,2.61644 0.292319,3.48595 -0.244767,1.49174 -0.277129,1.44078 -0.573665,-0.9034 -0.565973,-4.47418 -0.867045,-5.87197 -1.26478,-5.87197 -0.667108,0 -1.685955,1.94529 -2.010908,3.83938 -0.427197,2.49026 -1.298779,3.71659 -3.208576,4.51454 -2.40536,1.00504 -2.939929,0.82462 -0.757508,-0.25565 2.097051,-1.03805 3.023725,-2.20244 3.437329,-4.31912 0.152121,-0.77843 0.410018,-1.94718 0.573169,-2.59724 l 0.296672,-1.18191 h -2.938189 c -3.118015,0 -3.481136,0.23743 -6.193582,4.04997 -0.74949,1.0535 -4.065223,1.85095 -4.065223,0.97772 0,-0.28131 0.700779,-0.51079 1.559846,-0.51079 1.161689,0 1.76698,-0.29542 2.371385,-1.15743 0.446349,-0.63659 1.267839,-1.73183 1.825562,-2.43385 l 1.014,-1.27643 -1.014,-0.66224 c -0.642317,-0.41951 -1.345182,-0.53242 -1.917408,-0.30805 -1.434584,0.56252 -2.69371,0.47173 -3.640111,-0.26246 -0.817648,-0.63429 -0.790908,-0.64946 0.396697,-0.22511 0.700444,0.25029 1.77368,0.32954 2.385018,0.1761 l 1.11154,-0.27897 -1.142872,-1.49839 c -1.621799,-2.12628 -1.421598,-2.5543 0.247594,-0.52929 0.764753,0.92778 1.748163,1.8783 2.185328,2.11227 1.026459,0.54934 7.968589,1.4235 8.792858,1.10719 0.346836,-0.13316 1.087045,-1.4938 1.644904,-3.02379 0.557867,-1.52998 1.42972,-3.34371 1.937487,-4.03047 0.50775,-0.68678 0.83168,-1.3402 0.719811,-1.45206 -0.31068,-0.31067 -7.082143,-0.35738 -10.005732,-0.0689 -1.740225,0.17165 -2.892913,0.55428 -3.500608,1.16198 -0.50073,0.50073 -1.461754,0.88783 -2.148222,0.86531 l -1.24213,-0.0408 1.411175,-0.40916 c 2.161568,-0.62671 2.745639,-1.56852 1.70006,-2.74138 -0.469047,-0.52614 -1.462577,-1.22579 -2.207866,-1.55476 -1.050108,-0.46354 -1.149517,-0.60212 -0.441685,-0.61584 0.502375,-0.0103 1.630839,0.57372 2.50774,1.29652 1.501049,1.23728 2.892354,1.62276 5.284328,1.46406 1.011324,-0.0671 1.014718,-0.0866 0.225838,-1.29843 l -0.80086,-1.23034 1.116803,0.77864 c 0.614261,0.42824 1.514507,0.77864 2.000541,0.77864 0.486059,0 1.560869,0.24486 2.388469,0.54411 1.839514,0.66519 4.947307,-0.0303 7.367378,-1.64838 0.86949,-0.58141 2.343129,-1.29797 3.274762,-1.59237 0.931601,-0.29438 1.689941,-0.67194 1.685189,-0.83899 -0.0056,-0.16714 -1.329041,-1.07588 -2.942837,-2.0196 -2.266041,-1.32514 -3.421173,-1.71757 -5.072865,-1.72335 -1.176289,-0.003 -3.61774,-0.11268 -5.425452,-0.24137 -2.786307,-0.19825 -3.529591,-0.0906 -4.881489,0.70705 -0.877117,0.5175 -1.837191,0.93987 -2.133551,0.93861 -0.849427,-0.003 2.982347,-2.2263 3.865198,-2.24204 0.940251,-0.0172 0.978243,-0.40617 0.146602,-1.50276 -0.447866,-0.59053 -0.940618,-0.72942 -1.812,-0.51072 -0.72831,0.18279 -1.992067,-0.003 -3.228183,-0.4754 -1.188452,-0.45387 -2.539193,-0.66109 -3.255187,-0.49938 -1.040507,0.23503 -1.099305,0.20105 -0.392551,-0.22675 0.826138,-0.50006 1.740257,-0.42637 4.867433,0.3924 2.277845,0.5964 3.156208,0.0303 2.656412,-1.71254 -0.462938,-1.61417 -0.148967,-1.80462 0.436502,-0.26475 l 0.412973,1.0862 1.767571,-0.87455 c 1.387742,-0.68657 2.026178,-0.77621 2.970782,-0.41708 l 1.203211,0.45745 -0.745489,-1.45956 c -0.410018,-0.80275 -1.124687,-1.99908 -1.588159,-2.65852 -0.463481,-0.65941 -0.842678,-1.51805 -0.842678,-1.90807 0,-0.92054 -2.27656,-2.08742 -4.072467,-2.08742 -1.578511,0 -3.154587,-0.69776 -3.154587,-1.39658 0,-0.25377 0.451748,-0.14495 1.003897,0.24174 0.552124,0.38674 1.683431,0.70315 2.513986,0.70315 0.830546,0 1.923334,0.22117 2.428409,0.49147 0.860561,0.46055 0.898233,0.39665 0.599078,-1.0163 -0.17557,-0.82926 -0.703815,-1.92739 -1.173844,-2.44026 -0.470038,-0.51287 -0.861104,-1.32591 -0.868979,-1.80678 -0.02835,-1.7242 -1.018384,-2.40741 -3.174297,-2.19053 l -2.005796,0.20179 2.055569,-0.59224 c 2.335524,-0.67291 6.40423,-3.4065 6.012837,-4.03978 -0.148768,-0.24084 -1.63342,-0.29247 -3.486296,-0.12119 -3.202882,0.29598 -3.237168,0.28743 -4.58211,-1.14447 l -1.355077,-1.44265 1.705499,1.14366 c 1.43305,0.96095 1.93767,1.07705 3.158843,0.72682 0.799367,-0.22925 2.020843,-0.41682 2.714403,-0.41682 1.137776,0 1.211804,-0.092 0.757508,-0.94081 -0.276904,-0.51745 -1.554439,-1.43014 -2.838954,-2.02819 -2.509258,-1.16831 -2.431676,-1.3688 0.242306,-0.62616 1.053893,0.29271 2.045826,1.00315 2.676794,1.91717 0.551334,0.79868 1.082102,1.55071 1.179499,1.67116 0.09754,0.12054 1.065314,0.24893 2.150906,0.28548 l 1.973802,0.0664 -1.173709,-1.86636 c -0.645568,-1.02651 -2.055793,-2.95213 -3.133877,-4.27916 -1.07806,-1.32704 -1.949443,-2.64823 -1.936424,-2.93601 0.01382,-0.28776 0.368735,-0.0246 0.790477,0.58502 0.421703,0.60951 1.630608,2.12184 2.686442,3.36068 1.055818,1.23887 1.919692,2.49381 1.919692,2.78878 0,0.29496 0.304874,0.78933 0.677531,1.0986 0.803024,0.66645 0.872069,0.15159 0.22321,-1.66443 -0.423771,-1.18604 -0.408572,-1.21259 0.225839,-0.39477 0.374094,0.48223 0.680166,1.22195 0.680166,1.64381 0,1.29497 1.469206,2.52915 3.924251,3.2965 3.33554,1.04255 3.665891,0.92459 2.060185,-0.73558 -0.780894,-0.80739 -1.694341,-2.07777 -2.02986,-2.82305 -1.249398,-2.7753 -2.390633,-4.23956 -3.844784,-4.93298 -1.934172,-0.92236 -2.026905,-0.90598 -1.716672,0.30315 0.143448,0.55896 -0.09695,0.30488 -0.534178,-0.56462 -0.437205,-0.86952 -1.125573,-1.82899 -1.529713,-2.13214 -0.769217,-0.57707 -3.556267,-4.71035 -3.556267,-5.27405 0,-0.64507 0.952798,0.2893 3.321484,3.25718 1.325558,1.66089 3.000652,3.3159 3.72246,3.67782 0.721761,0.36194 1.695036,0.97173 2.162806,1.35508 0.800365,0.65593 0.830275,0.63044 0.507399,-0.4322 -0.188772,-0.62108 -0.58586,-1.63738 -0.88258,-2.25847 -0.315767,-0.66093 -0.407861,-1.69116 -0.222068,-2.48428 l 0.317421,-1.35508 0.05343,1.38877 c 0.02939,0.76385 0.761014,3.39463 1.62584,5.84622 1.82422,5.17127 3.742259,7.50209 8.086376,9.82661 1.461682,0.78215 3.240203,2.0047 3.952292,2.71679 l 1.294722,1.29473 -0.0056,-1.2769 c -0.01182,-3.12708 -2.608053,-8.86893 -4.606414,-10.18817 -1.877403,-1.23938 -3.531492,-3.17774 -4.698428,-5.5059 -0.632781,-1.26246 -1.490147,-2.67346 -1.905292,-3.13556 -1.347482,-1.4999 -6.98648,-4.89441 -9.244742,-5.56504 -1.226317,-0.36419 -2.934068,-1.34534 -3.856684,-2.2158 l -1.655766,-1.56218 2.416765,1.59098 c 1.329216,0.87505 2.701241,1.59101 3.048907,1.59101 1.090009,0 0.691819,-1.47462 -0.835834,-3.09528 -0.842925,-0.89426 -1.143854,-1.44313 -0.706729,-1.28904 0.418707,0.14766 0.859993,0.0258 0.980663,-0.2709 0.126109,-0.31026 0.234488,-0.22388 0.255021,0.20346 0.05319,1.10967 2.520847,3.54837 3.590378,3.54837 0.548147,0 0.854674,-0.23318 0.742174,-0.56461 -0.105415,-0.31054 -0.290737,-1.55606 -0.411863,-2.76781 -0.151338,-1.51449 -0.722399,-2.95959 -1.826768,-4.62289 -2.057406,-3.0987 -2.070711,-3.62304 -0.02388,-0.94241 1.894295,2.48086 2.482559,3.90756 2.482559,6.02084 0,1.96873 0.767005,3.47755 1.604492,3.15619 0.347499,-0.13332 1.341675,0.0541 2.209296,0.41666 2.27124,0.94898 2.460683,0.86284 2.055298,-0.93462 -0.387608,-1.71866 -0.675574,-2.16722 -3.220772,-5.01707 -1.66079,-1.85961 -3.324798,-4.60726 -2.991827,-4.94023 0.09616,-0.0961 0.731951,0.7066 1.412908,1.78389 0.680933,1.07728 1.938453,2.63751 2.794461,3.46722 l 1.556436,1.50853 v -2.19524 c 0,-1.71542 -0.447235,-3.06761 -2.046153,-6.18644 -2.385377,-4.65284 -2.387406,-5.3185 -0.004,-1.05518 0.903041,1.61478 1.744833,2.93598 1.870623,2.93598 0.626296,0 2.499818,-5.10936 2.245315,-6.12332 -0.153103,-0.6105 -0.121972,-1.08452 0.06956,-1.05338 2.272902,0.36964 5.036366,-2.54817 5.158594,-5.4467 0.06206,-1.47237 0.08375,-1.4965 0.262641,-0.2922 0.259038,1.74387 -1.112427,4.69873 -2.918997,6.28909 -1.427324,1.25652 -1.442243,1.30846 -0.677523,2.36053 1.02011,1.40346 1.35856,1.37404 1.587608,-0.13793 0.149558,-0.98776 0.20203,-0.89144 0.255844,0.4702 0.06166,1.56076 0.237643,1.78561 1.987364,2.53951 1.055833,0.45494 2.011674,0.7442 2.124102,0.64281 0.112516,-0.1014 0.33583,-1.75232 0.496466,-3.66874 l 0.291999,-3.48438 0.106406,3.83937 0.106406,3.83937 1.742158,1.49656 1.742173,1.49657 0.661405,-1.27903 c 0.559297,-1.08159 0.566884,-1.40832 0.04904,-2.11644 -0.336756,-0.46056 -1.229519,-2.54311 -1.983873,-4.62789 -0.754354,-2.08477 -1.708262,-4.34659 -2.119789,-5.02627 -0.710596,-1.17364 -0.690198,-1.16764 0.405721,0.11933 0.634682,0.74529 1.398325,2.16811 1.696969,3.16184 0.807321,2.68618 2.364325,6.09783 2.782936,6.09783 0.39208,0 0.565582,-1.32001 0.415553,-3.16183 -0.05048,-0.62108 -0.737255,-3.11728 -1.525919,-5.5471 -1.169731,-3.60387 -1.789934,-4.78413 -3.365953,-6.40564 -1.062598,-1.09326 -1.931241,-2.35739 -1.930315,-2.80918 0.0016,-0.587 0.248848,-0.41609 0.867733,0.59888 0.476323,0.78115 1.593502,2.00073 2.482598,2.71014 1.090991,0.87051 1.61656,1.66264 1.61656,2.43648 1.6e-5,0.63067 0.377265,1.88656 0.838293,2.7909 1.082422,2.12308 1.98742,6.73708 1.613581,8.22657 -0.165523,0.65936 -0.09872,1.16078 0.154486,1.16078 0.734139,0 1.424968,-2.26528 1.859688,-6.09783 0.365685,-3.22399 2.476945,-9.24258 3.043477,-8.67606 0.104233,0.10432 -0.434489,1.58107 -1.197437,3.28156 -0.822592,1.83341 -1.332339,3.65233 -1.252417,4.469 l 0.134783,1.3772 1.129239,-1.69189 c 0.621073,-0.93055 1.484923,-1.80811 1.919692,-1.95012 0.545703,-0.17829 0.80951,-0.77333 0.851951,-1.92165 0.04393,-1.18721 0.120398,-1.35149 0.266881,-0.57388 0.163942,0.86971 0.296792,0.96084 0.658635,0.45169 0.337004,-0.47423 0.367648,-0.40611 0.119408,0.26555 -0.183653,0.49686 -0.463337,1.71644 -0.621608,2.71015 -0.236732,1.48634 -0.337795,1.62651 -0.569855,0.79045 -0.155276,-0.55896 -0.486945,-1.0163 -0.73731,-1.0163 -0.709965,0 -3.152838,4.25517 -3.497437,6.09202 -0.170443,0.9082 -0.79666,2.22991 -1.39172,2.93711 l -1.08195,1.28581 1.702903,1.61397 c 0.936569,0.88769 1.922192,1.61574 2.19028,1.6179 0.268063,0.002 0.979481,-1.04823 1.580907,-2.33422 0.882795,-1.88754 1.081471,-2.99734 1.031027,-5.75904 l -0.06245,-3.42095 0.382376,2.71015 c 0.465597,3.30008 0.201103,4.83252 -1.270403,7.36037 -0.621153,1.06706 -1.053853,2.01006 -0.961551,2.09553 0.990239,0.91728 4.587964,3.43875 4.719241,3.30748 0.09439,-0.0944 0.20445,-2.19171 0.244615,-4.66074 0.04017,-2.46901 0.197046,-4.59164 0.348608,-4.71697 0.151531,-0.1253 0.930835,-1.47321 1.731639,-2.99529 1.323738,-2.51609 1.438139,-3.04928 1.259398,-5.86997 l -0.196647,-3.10253 0.443434,2.71014 c 0.525584,3.21237 0.311495,4.36866 -1.25074,6.75516 -1.026379,1.56794 -1.225062,2.52382 -1.623684,7.81171 -0.338098,4.48488 -0.320775,6.15863 0.06781,6.54715 1.317987,1.31798 2.450277,-2.72378 2.515991,-8.98075 0.03155,-3.00652 0.203076,-3.85799 0.941968,-4.67595 0.628836,-0.69614 0.984745,-1.91261 1.171073,-4.00284 l 0.267704,-3.00279 0.06932,2.71014 c 0.05423,2.11364 -0.152712,3.0581 -0.940443,4.29107 -0.813455,1.27345 -1.010781,2.23978 -1.014622,4.9686 -0.004,1.86323 -0.172416,4.20074 -0.377345,5.19444 -0.270404,1.31132 -0.241324,1.62097 0.106015,1.12923 0.680933,-0.96402 0.650472,0.21738 -0.03866,1.4977 -0.292039,0.54262 -0.487121,1.74798 -0.433498,2.67852 0.08768,1.52334 1.485099,6.58293 2.086964,7.55675 0.270013,0.43692 4.79989,-4.1956 5.591622,-5.71837 0.282152,-0.54263 0.510314,-1.55895 0.507063,-2.25847 -0.0056,-1.07714 -1.045475,-6.47971 -2.028206,-10.53149 -0.198452,-0.8182 -0.0871,-0.72616 0.404699,0.33415 0.373199,0.80487 0.891716,2.61649 1.152248,4.02583 0.26054,1.40936 0.566117,2.65487 0.679064,2.76783 0.383438,0.38343 2.959609,-5.47331 3.021465,-6.86908 0.05207,-1.17572 0.0928,-1.22173 0.266522,-0.30095 0.286824,1.52081 -0.301264,5.08069 -0.789471,4.77894 -0.708032,-0.43758 -1.961303,2.62048 -2.280265,5.56391 -0.243297,2.24518 -0.610235,3.22309 -1.734171,4.62169 -1.287886,1.60258 -1.45023,2.15652 -1.680637,5.73438 -0.360876,5.60376 -0.352418,10.02357 0.01973,10.39586 0.577562,0.57755 5.233278,-2.18309 5.233278,-3.1031 0,-0.4664 0.162759,-0.84801 0.361619,-0.84801 0.198875,0 0.939779,-0.91467 1.646405,-2.03262 1.892283,-2.99364 1.92978,-2.47172 0.06605,0.91894 -1.191351,2.1674 -1.62239,3.49712 -1.62239,5.00517 v 2.05363 l 2.267878,-2.63379 c 1.388533,-1.61258 2.460899,-3.38111 2.765693,-4.56116 0.273814,-1.06005 0.676109,-2.03753 0.893976,-2.17219 0.941417,-0.58182 0.315616,-1.14899 -0.958939,-0.86904 -1.621863,0.35622 -1.681667,0.0794 -0.33877,-1.56813 0.558961,-0.68577 1.273278,-1.62979 1.587353,-2.09781 0.314074,-0.46805 0.248265,-0.17149 -0.146411,0.659 -0.394484,0.83048 -0.601498,1.62573 -0.460007,1.7672 0.433643,0.43366 2.527572,-0.73634 2.826687,-1.57943 0.155077,-0.4369 0.528005,-1.09925 0.828902,-1.4719 0.300864,-0.37265 0.909095,-1.64755 1.351603,-2.83314 1.133272,-3.03628 1.3171,-2.38109 0.223625,0.79713 -0.497503,1.44602 -0.904542,2.70167 -0.904542,2.79032 0,0.59654 3.618514,-1.48335 4.629838,-2.66118 0.683161,-0.79569 1.242121,-1.22518 1.242121,-0.95444 0,0.27073 -0.30487,0.74527 -0.67753,1.05454 -0.372648,0.30928 -0.677538,0.83174 -0.677538,1.16104 0,0.47482 0.303844,0.49739 1.468018,0.10909 1.6776,-0.55959 3.68908,-2.28492 4.7555,-4.07904 0.40142,-0.67539 1.00245,-1.33257 1.33562,-1.46042 0.631953,-0.2425 -1.07469,2.27047 -2.94682,4.3391 -1.01188,1.11807 -1.03535,1.25524 -0.34793,2.0326 0.40547,0.4585 1.27074,1.51172 1.92281,2.34051 0.65209,0.82878 1.68917,1.69831 2.304613,1.93232 0.61545,0.23399 0.99875,0.54568 0.85177,0.69265 -0.48661,0.48662 -3.225343,-1.44481 -4.291003,-3.02616 -0.57657,-0.85557 -1.33088,-1.71371 -1.67622,-1.90698 -1.51884,-0.84999 -9.700019,1.49463 -9.700019,2.7799 0,0.1697 0.905613,0.57586 2.012506,0.90269 1.339071,0.39538 2.404761,1.10852 3.1848,2.13121 0.644793,0.84535 1.364669,1.537 1.599739,1.537 0.235074,0 1.284724,-0.76222 2.332564,-1.69385 l 1.90517,-1.69383 -1.56509,1.91153 c -0.86081,1.05137 -1.68938,1.91522 -1.84125,1.91969 -0.767644,0.0227 0.29691,2.38272 1.23582,2.7397 1.39422,0.53008 3.41028,1.85702 3.17656,2.09075 -0.10069,0.10072 -0.92003,-0.25185 -1.82087,-0.78335 l -1.63782,-0.96634 v 1.1108 c 0,0.61096 0.49954,1.84694 1.11011,2.74665 0.93824,1.3826 0.97526,1.55163 0.23906,1.09186 -0.93032,-0.58097 -1.47896,-1.72943 -2.22421,-4.65563 -0.55771,-2.18998 -3.082721,-5.62474 -4.134913,-5.62474 -0.413292,0 -0.984113,0.28039 -1.268557,0.6231 -0.284413,0.3427 -1.166273,0.75293 -1.95969,0.91162 -0.925763,0.18515 -2.2167,1.11304 -3.603396,2.59008 -1.188452,1.26585 -2.160825,2.43653 -2.160825,2.60151 0,0.16491 1.023129,0.1927 2.273613,0.0617 2.297492,-0.24088 3.255905,-1.04757 5.727921,-4.82115 0.301759,-0.46063 0.231469,-0.0244 -0.156259,0.96925 -0.387687,0.99372 -1.072429,2.21329 -1.521654,2.71015 -0.449232,0.49685 -1.18128,1.71643 -1.626742,2.71014 -0.445447,0.99372 -0.888394,1.95921 -0.984306,2.14553 -0.315935,0.61376 1.724931,0.35302 3.19809,-0.40856 1.338209,-0.69183 1.399706,-0.69207 0.828326,-0.003 -0.339472,0.40925 -1.457402,0.96869 -2.484292,1.2432 -1.02689,0.2745 -3.734632,1.39957 -6.017213,2.50016 l -4.150145,2.00105 -0.72446,3.26214 c -0.472697,2.12844 -0.678649,4.83191 -0.592625,7.77904 l 0.131828,4.51693 1.205751,-2.57119 c 1.037097,-2.21144 1.541557,-2.74133 3.605663,-3.78729 1.319944,-0.66885 3.304584,-1.44282 4.41031,-1.71987 2.305216,-0.57764 2.862907,-1.71461 2.573439,-5.24654 -0.09162,-1.11792 -0.07252,-1.62608 0.04241,-1.12923 0.404995,1.75187 1.008649,1.80418 2.374955,0.20577 0.73382,-0.85845 1.342458,-1.33165 1.352569,-1.05154 0.0098,0.28013 -0.314194,0.78529 -0.720618,1.12261 -1.014367,0.84174 -2.874567,3.85126 -2.874567,4.65044 0,1.06308 -1.323642,2.07386 -2.715761,2.07386 -2.467568,0 -1.927248,1.53453 0.726193,2.06239 1.048023,0.20848 1.55313,0.006 2.510265,-1.01362 0.659025,-0.70105 1.296039,-1.68115 1.415583,-2.178 0.199139,-0.82755 0.221757,-0.81942 0.269781,0.0971 0.02875,0.55032 -0.57733,1.71779 -1.346994,2.59439 -1.192981,1.35873 -1.289539,1.63596 -0.654553,1.87963 0.45142,0.17322 1.155091,-0.0995 1.786291,-0.69261 0.572818,-0.53812 1.83287,-1.06841 2.8001,-1.17839 1.756492,-0.19976 1.756022,-0.19917 -0.386921,0.49582 -1.180034,0.3827 -2.145531,0.9141 -2.145531,1.18086 0,0.99578 1.901611,3.51221 3.297532,4.36367 4.308592,2.62811 4.570142,2.71426 6.221232,2.04911 l 1.54764,-0.62351 -1.06635,0.90181 c -0.58646,0.496 -1.46403,0.90181 -1.95011,0.90181 -0.70294,0 -0.8233,0.20794 -0.58824,1.01631 0.29858,1.02678 0.93871,1.71436 2.95169,3.17048 0.92998,0.6727 0.81429,0.66013 -0.73125,-0.0794 -1.31673,-0.63003 -2.06751,-1.39195 -2.65463,-2.694 -0.85754,-1.90164 -2.19132,-3.34483 -3.526906,-3.8162 -2.093769,-0.73896 -0.02955,3.75892 2.216666,4.83007 0.89189,0.4253 1.51372,0.8812 1.38182,1.01309 -0.13202,0.13178 -0.85835,-0.0801 -1.61441,-0.47106 -1.774842,-0.91782 -1.864628,-0.90343 -1.905655,0.30545 -0.01973,0.55899 -0.393206,-0.65167 -0.831601,-2.69034 -0.758587,-3.52761 -2.436723,-6.89834 -3.437721,-6.90498 -0.255412,-0.002 -1.974417,-0.72675 -3.819953,-1.61118 l -3.355539,-1.60811 -1.656812,0.80589 c -1.322499,0.64327 -1.891515,1.35508 -2.820058,3.52778 -1.824635,4.26937 -2.980047,7.88852 -3.308265,10.36272 l -0.301935,2.27609 1.088155,-0.78488 c 1.947079,-1.40444 3.306924,-1.82934 5.605023,-1.75136 3.46478,0.11762 6.247085,-0.7172 8.429378,-2.52899 l 1.959522,-1.62682 -1.705427,1.80616 c -2.001387,2.1196 -6.106432,3.61582 -8.48633,3.0931 -1.304195,-0.28645 -1.936145,-0.12958 -4.461305,1.10722 -1.227307,0.60115 -0.953884,1.23554 0.891093,2.06752 1.015869,0.45809 2.034093,1.18235 2.262647,1.60945 0.228578,0.42711 2.166296,1.41003 4.306036,2.18429 5.226177,1.89106 5.396149,2.0023 6.22513,4.07408 0.70411,1.75973 2.022417,2.77706 4.804607,3.70766 1.04545,0.3497 1.02839,0.36497 -0.22291,0.19958 -0.745291,-0.0985 -1.793873,-0.31857 -2.3302,-0.48906 -0.732934,-0.23301 -1.018695,-0.1033 -1.150595,0.52239 -0.107188,0.50884 -0.53183,-0.22101 -1.092308,-1.87779 -0.681173,-2.01348 -1.302422,-2.9714 -2.416805,-3.72645 -1.93065,-1.3081 -2.42591,-1.28221 -2.159204,0.11285 0.299635,1.56755 -0.204123,1.39438 -1.013944,-0.34856 -0.48419,-1.04207 -1.179107,-1.62196 -2.435206,-2.03207 -0.966734,-0.31563 -2.447425,-1.17948 -3.290471,-1.91968 -1.73096,-1.5198 -1.962629,-1.56417 -4.110659,-0.78745 -1.158662,0.41899 -2.096972,1.40044 -3.758496,3.93139 -2.430957,3.70293 -2.672434,4.54404 -1.304594,4.54404 1.223745,0 3.488149,2.55269 4.054657,4.57087 0.620466,2.21029 1.863754,3.69165 4.293441,5.11554 1.118936,0.65575 2.034421,1.41844 2.034421,1.69492 0,0.30135 -0.316559,0.23014 -0.790462,-0.1778 -0.434744,-0.37424 -1.607646,-1.12836 -2.606415,-1.67581 -1.439824,-0.7892 -2.188347,-1.71234 -3.613555,-4.45664 -1.569303,-3.02174 -1.99666,-3.51105 -3.365466,-3.85329 -1.97004,-0.49257 -2.589196,0.18399 -4.364866,4.76952 -1.078635,2.78554 -1.258622,3.87711 -1.209832,7.33756 0.03155,2.23588 0.307174,4.67501 0.612559,5.42029 0.388503,0.94812 0.527119,4.11884 0.46162,10.5578 -0.08276,1.44245 1.587097,7.10031 1.373894,9.95993 -3.782025,0.003 -6.149425,0.003 -9.228881,0.0937 z m 5.115578,-35.21763 c 0,-0.95863 2.697048,-4.90094 6.192208,-9.05126 1.333913,-1.58396 2.735288,-3.61657 3.114151,-4.5169 1.089417,-2.58887 1.941328,-7.49318 2.362959,-13.60283 0.331685,-4.80683 0.265731,-6.20779 -0.445551,-9.46264 -0.459176,-2.10124 -0.834883,-4.48444 -0.834883,-5.296 0,-1.41622 -1.248416,-4.68422 -1.777491,-4.65296 -0.536694,0.0318 -4.984461,6.25991 -5.983134,8.37814 -0.576029,1.22183 -1.182813,2.32465 -1.348377,2.4507 -0.165515,0.126 -0.937176,1.02964 -1.714667,2.00797 -0.777443,0.97833 -2.679014,3.12768 -4.225651,4.77631 -1.546668,1.64864 -3.309391,3.93491 -3.917182,5.08061 -1.028743,1.93921 -1.068725,2.25648 -0.578728,4.59255 0.289499,1.38019 1.400984,4.43827 2.469972,6.79574 l 1.943628,4.28632 0.489741,-4.62468 c 0.269349,-2.54358 0.623125,-5.03275 0.786141,-5.53151 0.162959,-0.49877 0.132809,-2.26599 -0.06717,-3.92719 -0.199986,-1.66118 -0.203947,-2.92167 -0.008,-2.80105 0.195074,0.12069 0.488854,1.22969 0.652676,2.46465 l 0.297862,2.24533 1.409083,-1.8978 c 0.774983,-1.0438 1.917232,-2.41827 2.538297,-3.05438 1.029614,-1.05452 1.129223,-1.50374 1.129223,-5.092 0,-2.16449 0.138129,-3.58731 0.307015,-3.16183 0.168877,0.42548 0.321326,1.87957 0.338785,3.23132 0.02899,2.2522 0.0865,2.38439 0.686811,1.58091 0.623613,-0.83468 0.642333,-0.82255 0.389524,0.25244 -0.146211,0.62107 -0.745744,1.77627 -1.33261,2.56708 -1.289739,1.73794 -1.312732,1.94984 -0.211431,1.94984 0.470565,0 1.508389,-0.60979 2.306214,-1.35508 2.000877,-1.86911 2.325102,-1.707 0.451692,0.22585 -1.207444,1.24576 -1.886547,1.58091 -3.203353,1.58091 -1.502941,0 -1.806881,0.21586 -3.021129,2.14553 -1.27442,2.02538 -1.963755,4.28766 -2.586338,8.48804 -0.339104,2.2876 0.87203,10.58955 1.809206,12.40185 0.785981,1.51994 1.581322,1.7845 1.581322,0.52602 z M 48.350922,309.10379 c 0,-4.46417 -0.110743,-5.15321 -1.074898,-6.68031 -2.0109,-3.18548 -6.575464,-5.89779 -10.190057,-6.05505 -2.756684,-0.12002 -3.337345,0.33425 -2.746597,2.14845 0.239296,0.73492 0.534881,1.84935 0.656837,2.47648 0.37106,1.90808 4.918492,7.15539 7.998635,9.22967 1.57947,1.06367 3.25898,2.36693 3.732228,2.89614 0.473249,0.52921 1.032233,0.96219 1.242146,0.96219 0.209937,0 0.381706,-2.23991 0.381706,-4.97757 z m 9.485491,-10.66411 c 0,-0.54778 -0.381833,-1.88681 -0.848541,-2.97558 -0.466707,-1.08878 -1.005533,-3.08743 -1.197356,-4.44142 l -0.348817,-2.46184 -0.652404,1.57021 c -0.35884,0.86363 -1.245732,2.31934 -1.970887,3.23491 -2.205015,2.78407 -2.744649,4.6223 -2.621495,8.92983 0.06086,2.13454 0.216263,4.0746 0.344911,4.31125 0.380995,0.70073 7.294589,-7.04006 7.294589,-8.16736 z m -21.623202,6.04325 c -0.744306,-1.05581 -1.573479,-2.73273 -1.842629,-3.72644 -0.623773,-2.30293 -1.81216,-3.70978 -3.463087,-4.09968 -0.71597,-0.16901 -1.973027,-0.71103 -2.793494,-1.20431 -0.820468,-0.4933 -1.600618,-0.78802 -1.73366,-0.65498 -0.825155,0.82516 4.488084,7.09008 8.645696,10.19426 2.487487,1.85724 2.769815,1.73623 1.187174,-0.50885 z m -4.461935,0.57079 c 0.434745,-0.003 0.790454,-0.17998 0.790454,-0.39242 0,-0.70278 -5.317656,-4.13065 -6.40788,-4.13065 -1.271226,0 -3.07762,1.16695 -3.07762,1.98821 0,1.58845 4.23208,3.22636 7.001208,2.7096 0.496872,-0.0927 1.259093,-0.17135 1.693838,-0.17474 z m 16.488392,-8.7933 c -0.283869,-5.56179 -0.885351,-6.84205 -4.538591,-9.66051 -2.118472,-1.63439 -6.878621,-3.94828 -10.368894,-5.04029 -1.445182,-0.45215 -1.68653,0.1821 -0.342898,0.90116 1.450461,0.77628 4.552432,5.31604 5.51499,8.07122 1.663592,4.76192 2.119166,5.40279 4.890833,6.88006 1.440311,0.76768 3.078402,1.88505 3.640191,2.48304 0.561756,0.59797 1.116779,1.08723 1.233376,1.08723 0.116645,0 0.103443,-2.12487 -0.02899,-4.72191 z m 23.607961,-2.20217 c -0.80007,-2.67046 -1.048446,-1.65039 -0.382983,1.5728 0.46507,2.25248 0.625609,2.5783 0.749019,1.52007 0.0863,-0.7408 -0.07843,-2.13259 -0.366036,-3.09287 z m -10.764727,0.25769 c 4.466416,-6.95417 5.83293,-13.28362 3.63178,-16.82154 -2.444942,-3.92973 -2.466346,-4.10733 -0.142074,-1.18003 0.766829,0.96576 1.394227,2.27681 1.394227,2.9134 0,2.19386 0.849643,0.3448 0.958932,-2.08689 0.103251,-2.29718 0.0242,-2.47353 -2.119678,-4.72968 -1.224823,-1.28894 -2.349094,-2.45103 -2.49838,-2.58245 -0.149167,-0.13145 -0.384182,-0.84485 -0.521919,-1.5854 -0.231884,-1.24652 -0.203356,-1.28203 0.384365,-0.47829 0.34916,0.47752 0.634842,1.05659 0.634842,1.28685 0,0.50726 2.599786,3.55184 3.477231,4.07217 1.089201,0.64588 0.226053,-4.10891 -1.315743,-7.24794 l -1.380315,-2.81033 -1.310839,0.9334 c -0.982197,0.6994 -1.244566,1.17746 -1.046553,1.90693 0.231868,0.85405 0.203451,0.87652 -0.231413,0.18309 -0.702297,-1.11988 -2.555725,-0.99486 -3.348383,0.22584 -0.36296,0.55897 -1.090008,2.6287 -1.615665,4.59941 -0.525664,1.97072 -1.064315,3.7588 -1.197005,3.97351 -0.13261,0.21473 0.205049,1.33993 0.750552,2.50046 0.545528,1.16053 1.185217,2.61863 1.421558,3.24023 l 0.429681,1.13018 0.914694,-1.44468 c 0.503102,-0.79457 1.297613,-2.92282 1.765582,-4.72944 0.467985,-1.80662 0.743357,-2.47173 0.611945,-1.47801 -0.411448,3.11131 -1.04732,5.00999 -2.28616,6.82632 -2.405336,3.52662 -2.662242,7.99091 -0.744347,12.93515 0.65048,1.67691 1.303037,3.04714 1.450095,3.04496 0.147193,-0.002 1.016922,-1.17092 1.932974,-2.59722 z m -28.089464,-0.80068 c 0,-1.73357 -0.195074,-2.57331 -0.63703,-2.74292 -0.73763,-0.28306 -4.33157,-4.96281 -4.33157,-5.64022 0,-0.25054 -0.303628,-1.04267 -0.674727,-1.7603 -0.821674,-1.58892 -1.900445,-1.59604 -3.798581,-0.0252 l -1.388238,1.14892 0.698416,2.00191 c 0.384141,1.10103 0.958245,2.21896 1.275801,2.4843 0.317541,0.26531 0.821434,1.344 1.119743,2.3971 0.390291,1.37769 1.010557,2.23283 2.21154,3.04891 2.161424,1.46874 3.338431,1.53655 2.046289,0.11797 -1.291048,-1.41746 -1.948125,-2.80843 -1.906291,-4.03552 0.03866,-1.13002 0.173598,-0.87798 0.630489,1.1773 0.306392,1.37797 3.144675,4.32621 4.164889,4.32621 0.413524,0 0.58927,-0.74507 0.58927,-2.49848 z m -5.83634,-4.99207 c 0.02164,-0.5262 0.128672,-0.63322 0.272895,-0.27288 0.130446,0.32605 0.114481,0.71562 -0.0357,0.86572 -0.150149,0.15006 -0.25685,-0.11677 -0.237251,-0.59284 z m 9.353831,6.81861 c 0.35023,-0.30942 -1.073787,-2.56059 -2.006195,-3.17152 l -1.05962,-0.69428 v 2.30476 2.30475 l 1.468,-0.3145 c 0.807402,-0.17298 1.526407,-0.36611 1.597815,-0.42921 z m 2.802719,-0.11848 c -0.01382,-1.3357 -1.939579,-6.19043 -3.270312,-8.24337 -2.018416,-3.11379 -5.522625,-6.32366 -6.903531,-6.32366 -2.272934,0 -2.527755,0.37456 -1.553713,2.28381 0.489741,0.95999 0.890414,1.96987 0.890414,2.24419 0,0.56357 3.673511,4.95694 4.14505,4.95728 0.168079,1.2e-4 0.398605,-0.35548 0.512199,-0.79023 0.167296,-0.64016 0.216534,-0.6114 0.258959,0.1511 0.02899,0.51791 0.654018,1.47768 1.389324,2.13283 0.735282,0.65517 1.655175,1.80669 2.044204,2.55897 0.424993,0.82188 1.063205,1.36777 1.599077,1.36777 0.490491,0 0.890222,-0.15246 0.888329,-0.33877 z m 15.385677,-6.73742 c 0.471571,-1.4289 0.376418,-1.74746 -1.339471,-4.48413 -1.015908,-1.62027 -1.847118,-3.15239 -1.847118,-3.40468 0,-1.16759 -1.560693,0.0259 -2.144796,1.64012 -0.636032,1.75776 -0.458864,4.91392 0.63977,11.39683 l 0.24737,1.45962 1.968291,-2.53479 c 1.082573,-1.39413 2.196741,-3.22697 2.475954,-4.07297 z m 19.993033,2.34997 c 1.972428,-5.91086 2.173707,-10.39461 0.368991,-8.22008 -0.275907,0.33243 -1.315128,0.84816 -2.309393,1.14605 -2.189018,0.65585 -2.643506,1.89084 -1.926122,5.23391 0.564584,2.6309 1.777075,5.66503 2.261217,5.6584 0.183062,-0.003 0.905374,-1.72073 1.605307,-3.81828 z m 5.507602,-1.80992 c 1.024845,-0.59626 2.264076,-1.85905 2.853402,-2.90761 0.92677,-1.649 0.960585,-1.88476 0.306296,-2.13584 -0.404523,-0.15516 -1.789981,-0.10328 -3.078745,0.11542 l -2.343264,0.3977 -0.989944,2.71015 c -0.544489,1.49057 -1.002044,2.88462 -1.016803,3.09788 -0.04065,0.5874 2.232992,-0.0931 4.269058,-1.27774 z m -12.426363,-2.79354 c 0,-1.22114 -1.257417,-0.57425 -1.451269,0.74663 -0.188772,1.28625 -0.15744,1.31672 0.626273,0.60754 0.453745,-0.41064 0.824996,-1.02002 0.824996,-1.35417 z m 2.258477,0.29586 c 0,-0.24843 -0.203252,-0.45169 -0.451684,-0.45169 -0.24844,0 -0.451716,0.20326 -0.451716,0.45169 0,0.24843 0.203276,0.45168 0.451716,0.45168 0.248432,0 0.451684,-0.20325 0.451684,-0.45168 z m -0.56511,-2.15714 c 0.966103,-0.74371 0.990926,-0.91456 0.507183,-3.49057 -0.468328,-2.49405 -1.28517,-4.90373 -1.566803,-4.6221 -0.06461,0.0647 -0.239751,1.23319 -0.388933,2.59653 -0.149166,1.36336 -0.387017,3.12624 -0.528596,3.91752 -0.251275,1.40426 0.02204,2.41082 0.649234,2.39065 0.171625,-0.006 0.769225,-0.36194 1.327915,-0.79203 z M 56.31265,282.42408 c 0.174388,-1.07451 -0.0802,-2.29508 -0.839755,-4.02624 l -1.089969,-2.48431 -1.454582,1.45274 c -1.453265,1.45142 -1.453896,1.45409 -0.690589,2.93599 1.250812,2.42846 2.993576,4.49486 3.426116,4.06233 0.219218,-0.21922 0.511177,-1.09245 0.648779,-1.94051 z m -6.925542,-2.78409 c 0.728845,-1.3544 0.736288,-1.64278 0.09616,-3.72646 -0.821801,-2.67508 -2.891602,-5.80697 -3.975677,-6.01574 -1.197772,-0.23067 -1.016156,3.42353 0.315329,6.34451 0.597033,1.30976 1.304082,2.94034 1.571235,3.62354 0.630098,1.61138 1.028631,1.56622 1.992994,-0.22585 z m 36.002466,-2.27709 c 2.417005,-1.18636 2.585954,-1.84805 0.52235,-2.04573 -1.634282,-0.15656 -2.98412,0.72696 -3.37104,2.20654 -0.292359,1.11798 0.313012,1.08382 2.84869,-0.16081 z m -32.7207,-1.42702 c 0.623341,-0.95134 0.64306,-1.3342 0.140293,-2.72429 l -0.584853,-1.6174 -0.843972,1.64501 c -0.835419,1.62843 -0.7608,3.80356 0.130445,3.80356 0.237994,0 0.759043,-0.4981 1.157951,-1.10688 z m 17.976646,-0.58697 c 0.153895,-0.9316 0.282208,-2.5513 0.284955,-3.59933 0.004,-1.52974 -0.132027,-1.85298 -0.689271,-1.6391 -0.856231,0.32856 -2.015891,2.49379 -2.015891,3.76392 0,1.00262 1.230102,3.16836 1.799613,3.16836 0.187391,0 0.466604,-0.76222 0.620594,-1.69385 z m -27.263206,-0.57748 c 0,-0.69757 -2.703757,-5.96369 -3.551323,-6.91691 -0.406855,-0.45757 -1.261338,-1.77877 -1.898839,-2.93598 -0.90904,-1.6501 -1.563041,-2.24589 -3.031297,-2.76156 -1.02967,-0.36166 -2.004894,-0.52479 -2.167143,-0.36254 -0.443003,0.44299 1.505737,3.36521 2.911825,4.36641 0.678353,0.48303 1.809541,1.96031 2.513771,3.28285 1.821105,3.42006 5.223006,6.89016 5.223006,5.32773 z m 7.869866,-2.71379 c 0.597057,-1.24611 0.85243,-2.69208 0.816762,-4.62467 -0.03642,-1.97827 0.05455,-2.47699 0.307333,-1.68247 l 0.359255,1.12923 0.249072,-1.35508 c 0.137146,-0.74529 0.145029,0.39616 0.01773,2.53653 -0.220519,3.71006 0.205321,5.81975 1.174675,5.81975 0.20576,0 0.624579,-1.27038 0.930731,-2.82307 0.306176,-1.55268 0.854514,-3.62043 1.218561,-4.59501 0.835123,-2.23582 0.418907,-7.48771 -0.593463,-7.48771 -0.713039,0 -3.251848,-1.67811 -4.033356,-2.66597 -0.422142,-0.53359 -0.638931,-0.49543 -1.376697,0.24234 -0.481618,0.48161 -1.308843,1.57965 -1.838293,2.4401 -0.90261,1.46693 -0.918336,1.64845 -0.252394,2.91243 0.639714,1.21423 0.740721,1.26104 1.01761,0.47167 0.169069,-0.48197 0.440208,1.59398 0.602568,4.61323 0.162368,3.01924 0.173997,5.8051 0.0262,6.19077 -0.580868,1.5137 0.555615,0.58542 1.373758,-1.12207 z m -1.978274,-4.32177 c -0.350326,-3.19138 -1.626703,-6.4745 -2.240756,-5.76373 -0.406456,0.47045 -1.844067,5.00118 -1.844067,5.81162 0,0.31597 0.858628,1.51419 1.908088,2.66271 1.64599,1.80138 1.950209,1.97433 2.214783,1.25911 0.168678,-0.45601 0.15153,-2.24238 -0.03802,-3.96971 z m -5.587764,-0.57806 c -0.15685,-1.5424 -0.109362,-2.18247 0.120989,-1.63316 0.348258,0.83012 0.420297,0.79348 0.888114,-0.4517 0.27998,-0.74528 0.82629,-2.08376 1.213961,-2.9744 0.688409,-1.58149 0.673178,-1.66634 -0.65254,-3.63065 -0.746591,-1.10623 -1.496768,-2.6134 -1.667059,-3.34928 -0.180298,-0.77891 0.297271,-0.1492 1.142912,1.50732 0.798911,1.5649 1.682489,2.76863 1.963523,2.67496 0.281002,-0.0937 0.676772,-1.00891 0.879457,-2.03385 0.485468,-2.45473 -0.377481,-4.11025 -3.100302,-5.94786 l -2.084065,-1.40652 -2.223816,2.15726 c -2.875038,2.789 -3.226514,4.09748 -2.237904,8.33087 0.426055,1.8244 1.048366,3.82524 1.382935,4.44631 1.199305,2.22628 3.785515,5.3702 4.20455,5.11122 0.237842,-0.14698 0.312812,-1.38819 0.169268,-2.80052 z m 16.096862,-2.96672 c 0.360797,-0.36083 0.76421,-0.54783 0.896445,-0.41561 0.404164,0.40416 2.588805,-1.25442 2.289729,-1.73835 -0.244479,-0.39553 -4.801998,-2.61031 -5.371486,-2.61031 -0.303787,0 -0.263215,2.34592 0.0694,4.00876 0.30485,1.52426 1.072957,1.79851 2.115972,0.75551 z m -27.255618,-0.58612 c -0.03882,-0.91339 -1.352905,-1.91969 -2.50699,-1.91969 h -1.292534 l 1.56816,1.10707 c 1.639665,1.15755 2.255499,1.38183 2.231364,0.81262 z m 32.809,-0.89398 c -0.459184,-0.45915 -0.838006,0.23213 -0.461292,0.84167 0.28458,0.46046 0.390986,0.46082 0.54397,0.002 0.104633,-0.31383 0.06741,-0.69341 -0.08256,-0.8435 z m -4.659421,-4.19884 c -2.171416,-2.0496 -3.29222,-2.30342 -3.29222,-0.74554 0,0.85125 0.405976,1.18495 2.145522,1.76357 3.142375,1.04523 3.240403,0.9582 1.146698,-1.01803 z m -3.818316,-1.32064 c 0.104633,-0.71508 -0.377824,-1.57738 -1.559647,-2.78768 -1.941999,-1.98878 -2.43551,-2.12074 -3.221922,-0.86149 -0.784544,1.25626 -0.0056,2.74302 2.058588,3.92308 2.002578,1.14551 2.522995,1.09315 2.722981,-0.27391 z m -7.000617,-1.3749 c 0.764841,-1.2948 0.764194,-1.3987 -0.01573,-2.4651 -1.154828,-1.57943 -2.129326,-1.9049 -1.778034,-0.59384 0.15074,0.56266 0.276889,1.78524 0.280299,2.71687 0.0056,2.04582 0.448011,2.14541 1.513261,0.34207 z M 41.25092,249.7887 c 0.194091,-0.49821 0.166697,-1.02339 -0.0607,-1.16706 -0.227451,-0.14375 -0.487888,-0.65092 -0.578752,-1.12718 -0.33547,-1.75879 -1.31139,-1.24068 -2.430773,1.29049 -1.122003,2.53703 -1.378246,3.91146 -0.831226,4.45849 0.39335,0.39335 3.460292,-2.32246 3.901418,-3.45474 z m 5.744925,1.97098 c 0,-0.24206 -0.60978,-0.75542 -1.355069,-1.14082 -1.698271,-0.87822 -1.790253,-0.26361 -0.112125,0.74916 1.552539,0.93697 1.467178,0.9142 1.467178,0.39166 z m 45.829402,90.29861 c -0.16296,-0.26377 -0.78844,-0.66665 -1.389827,-0.89529 -0.60141,-0.22864 -1.273757,-0.88993 -1.494117,-1.46951 -0.51612,-1.3575 -1.145987,-6.50403 -0.750672,-6.13357 0.165323,0.15501 0.396601,1.17126 0.51386,2.25844 0.360501,3.34233 0.621624,3.96957 1.935259,4.64887 1.448947,0.74929 2.701107,2.07062 1.962217,2.07062 -0.2642,0 -0.61372,-0.21581 -0.77672,-0.47956 z m -2.353176,-24.1376 c 0.0056,-0.99371 0.09754,-1.34705 0.205544,-0.78518 0.107972,0.56187 0.104042,1.37491 -0.008,1.80675 -0.112907,0.43187 -0.201463,-0.0279 -0.196456,-1.02157 z m -70.846429,-21.11654 -0.860481,-1.0163 1.016308,0.86047 c 0.955082,0.80862 1.221948,1.17214 0.860464,1.17214 -0.08571,0 -0.543043,-0.45734 -1.016291,-1.01631 z m 65.799584,-5.57084 c 0.02172,-0.52621 0.128665,-0.63323 0.272888,-0.2729 0.130446,0.32606 0.11448,0.71564 -0.0357,0.86573 -0.150157,0.15005 -0.256851,-0.11659 -0.237228,-0.59283 z m -7.705317,-16.78784 c 0.0056,-0.43475 0.198843,-2.10359 0.430807,-3.70852 0.365836,-2.53135 0.300713,-3.18979 -0.491402,-4.96861 -0.532102,-1.19485 -0.986302,-3.36996 -1.088467,-5.21237 l -0.17537,-3.16183 0.41009,2.87491 c 0.225566,1.58121 0.855776,3.95019 1.400497,5.2644 l 0.990375,2.3895 1.143527,-1.359 c 1.186024,-1.40951 2.229374,-5.51032 2.390481,-9.39567 0.05694,-1.37468 0.145021,-1.63054 0.272432,-0.79045 0.230566,1.52195 0.346436,1.52741 2.212211,0.10431 1.022026,-0.77954 1.591905,-1.66849 1.80978,-2.82307 0.17498,-0.92688 0.402982,-1.43292 0.506864,-1.12456 0.366491,1.08789 -0.868427,3.72674 -2.181574,4.66178 -1.655287,1.17867 -2.528322,2.82719 -2.736151,5.16643 -0.151131,1.70124 -0.09458,1.79782 0.968724,1.65346 1.279723,-0.17376 3.077244,-1.66178 3.634296,-3.00853 0.297526,-0.71928 0.379493,-0.74936 0.402295,-0.14749 0.04472,1.17887 -2.111244,3.43743 -3.5916,3.76256 -2.720177,0.59747 -5.413575,5.19078 -5.413575,9.23237 0,0.75949 -0.203276,1.3809 -0.451708,1.3809 -0.248425,0 -0.447596,-0.3557 -0.442588,-0.79045 z M 23.05623,269.69973 c 0,-0.0636 -0.199706,-0.81227 -0.443809,-1.66338 -0.24408,-0.8511 -0.270348,-1.35791 -0.0583,-1.12625 0.461844,0.50466 1.070481,2.90553 0.736584,2.90553 -0.128864,0 -0.234464,-0.0522 -0.234464,-0.11591 z m -0.361339,-6.97564 c -0.668426,-2.17788 -0.344935,-2.50137 0.361339,-0.36136 0.297958,0.90281 0.453881,1.72929 0.346532,1.83665 -0.107396,0.10739 -0.425903,-0.55652 -0.707871,-1.47529 z m 2.693182,-7.60774 C 25.099276,254.48252 24.863,253.73861 24.863,253.46323 c 0,-0.2754 -0.471755,-1.12969 -1.048311,-1.89843 -1.652699,-2.20355 -1.874336,-2.9102 -0.367577,-1.17188 0.753691,0.86952 1.672898,2.49123 2.042711,3.60383 0.753396,2.26671 0.698104,2.87511 -0.101678,1.1196 z m 42.45686,-1.1099 c 0,-0.62106 0.10266,-0.87514 0.227819,-0.56461 0.125326,0.31053 0.125326,0.81869 0,1.12923 -0.125318,0.31053 -0.227819,0.0565 -0.227819,-0.56462 z m 14.418447,0.18821 c 0.02172,-0.5262 0.128673,-0.63323 0.272895,-0.2729 0.130446,0.32607 0.114289,0.71565 -0.03562,0.86574 -0.150149,0.15006 -0.25685,-0.11658 -0.237251,-0.59284 z m -0.451684,-1.80677 c 0.02172,-0.52618 0.128664,-0.63322 0.272887,-0.27288 0.130446,0.32604 0.114489,0.71564 -0.03562,0.86574 -0.150149,0.15005 -0.256859,-0.11677 -0.237251,-0.59286 z m -13.579467,-0.45168 c 0.004,-0.47616 0.21322,-1.17063 0.465406,-1.54329 0.33484,-0.4948 0.376729,-0.31207 0.155268,0.67755 -0.371491,1.66083 -0.630034,2.02137 -0.620793,0.86574 z m 3.226227,-1.99497 c 0,-0.62107 0.102668,-0.87516 0.227827,-0.56462 0.125326,0.31054 0.125326,0.81869 0,1.12923 -0.125318,0.31054 -0.227827,0.0566 -0.227827,-0.56461 z m 16.277616,-0.22584 c 0.008,-0.74529 0.110344,-0.99551 0.224968,-0.55602 0.114489,0.43948 0.106997,1.04926 -0.01773,1.35507 -0.123745,0.30581 -0.217397,-0.0538 -0.208196,-0.79905 z m -10.892984,-0.0377 c 0.02172,-0.52618 0.128673,-0.63323 0.272887,-0.2729 0.130454,0.32606 0.114489,0.71566 -0.03562,0.86575 -0.150149,0.15005 -0.256866,-0.11677 -0.237259,-0.59285 z m -30.263291,-7.67875 c 0.02164,-0.52619 0.128672,-0.63321 0.272911,-0.27289 0.130446,0.32607 0.114289,0.71565 -0.0357,0.86574 -0.150149,0.15006 -0.256851,-0.11677 -0.237243,-0.59285 z m 5.872935,-1.21578 c -0.02013,-0.44096 0.369917,-1.95838 0.866789,-3.37204 0.496857,-1.41364 0.93014,-3.69525 0.96283,-5.07023 0.05143,-2.15993 0.09852,-2.28493 0.346708,-0.91904 0.26633,1.4658 0.326765,1.51513 0.830179,0.67754 0.76738,-1.27681 0.700444,-0.41272 -0.09971,1.2868 -0.36856,0.78285 -1.165123,2.94781 -1.770159,4.81102 -0.605028,1.86323 -1.11654,3.02691 -1.136682,2.58595 z m -6.152995,-2.16431 c -0.16375,-0.26495 -0.200872,-0.57862 -0.08237,-0.697 0.118426,-0.11849 0.33563,0.0983 0.482728,0.48173 0.305441,0.79594 0.04512,0.93593 -0.400282,0.21527 z m -1.89102,-4.03516 c 0,-1.11794 0.08808,-1.57527 0.195664,-1.01631 0.107788,0.55898 0.107788,1.47365 0,2.03261 -0.107779,0.55897 -0.195664,0.10159 -0.195664,-1.0163 z m 15.116998,-3.93267 c 0.253584,-3.56817 0.491857,-4.03692 0.526591,-1.03593 0.01573,1.36636 -0.138129,2.74721 -0.341892,3.06855 -0.206862,0.32606 -0.288478,-0.57216 -0.184635,-2.03262 z m 3.314966,1.41073 c 0.02164,-0.52618 0.128673,-0.63323 0.272896,-0.27289 0.130445,0.32605 0.11428,0.71565 -0.0357,0.86574 -0.150157,0.15005 -0.256874,-0.11677 -0.237267,-0.59285 z m -6.52486,-1.64085 c 0.1866,-0.3021 0.480204,-1.2676 0.652245,-2.14553 l 0.312772,-1.59626 0.05183,1.43105 c 0.06086,1.67944 -0.321463,2.86 -0.926419,2.86 -0.236516,0 -0.277264,-0.24716 -0.09044,-0.54926 z"
       id="OS"
       inkscape:connector-curvature="0"
       sodipodi:nodetypes="ccsscssccccccscccscccccscscsscssscccccsssssccccccccscccscccccccccccccccsccccccccccccccccccccccccssscsccsccccccccccscccccccsccccscccscscccccsscccccccscscccscccccscccssccccsccsccsccsscsccssccccscccccccccscccscccccscccssccccccccccccsccccccccccccsccscccscccsccccccscccccccccccscscssccscscccccccccccscscscccccccsccsccscccccsccscccscccscccsccccccccccccccccccssccsccccccsccccscccccccccccccscscccccccccsccccccccccccccsscscccccccccccscscscsccsccscscccccccssccccscsscscccsccccscssscscscscscccsccccssscccscccccscccsccccsscccscscccccccscccccsccccccscssccsccccccssssccscccccccccscscccccsccccscscccccsccccccccccccssssssssscscccccccccccccccsccccccccccccsccccsscsccccccscccccssccscccccccccccscscccscsccccscccscccccccsccccsccccccccssssccsccccccccccsccccccccccccccsccscccsccssccccccccccsccccsccccccccsscccccsccsccscsccccscssccccccccccccccscsscccccccscccccccccsccccccccccsccsccccccccccsccscc">
      <title
         id="title1628">topol osika</title>
    </path>
  </g>
</svg>
