<?xml version="1.0" encoding="UTF-8" standalone="no"?>
<!-- Created with Inkscape (http://www.inkscape.org/) -->

<svg
   xmlns:dc="http://purl.org/dc/elements/1.1/"
   xmlns:cc="http://creativecommons.org/ns#"
   xmlns:rdf="http://www.w3.org/1999/02/22-rdf-syntax-ns#"
   xmlns:svg="http://www.w3.org/2000/svg"
   xmlns="http://www.w3.org/2000/svg"
   xmlns:sodipodi="http://sodipodi.sourceforge.net/DTD/sodipodi-0.dtd"
   xmlns:inkscape="http://www.inkscape.org/namespaces/inkscape"
   width="40.531616mm"
   height="65.511894mm"
   viewBox="0 0 100 100"
   version="1.1"
   id="svg1660"
   inkscape:version="0.92.5 (2060ec1f9f, 2020-04-08)"
   sodipodi:docname="SM.svg">
  <defs
     id="defs1654" />
  <sodipodi:namedview
     id="base"
     pagecolor="#ffffff"
     bordercolor="#666666"
     borderopacity="1.0"
     inkscape:pageopacity="0.0"
     inkscape:pageshadow="2"
     inkscape:zoom="0.35"
     inkscape:cx="320.88093"
     inkscape:cy="575.23059"
     inkscape:document-units="mm"
     inkscape:current-layer="layer1"
     showgrid="false"
     fit-margin-top="0"
     fit-margin-left="0"
     fit-margin-right="0"
     fit-margin-bottom="0"
     inkscape:window-width="960"
     inkscape:window-height="1015"
     inkscape:window-x="0"
     inkscape:window-y="0"
     inkscape:window-maximized="0" />
  <metadata
     id="metadata1657">
    <rdf:RDF>
      <cc:Work
         rdf:about="">
        <dc:format>image/svg+xml</dc:format>
        <dc:type
           rdf:resource="http://purl.org/dc/dcmitype/StillImage" />
        <dc:title></dc:title>
      </cc:Work>
    </rdf:RDF>
  </metadata>
  <g
     inkscape:label="Layer 1"
     inkscape:groupmode="layer"
     id="layer1"
     transform="translate(-4.68061,-235.51787)">
    <path
       style="fill:#000000;stroke-width:0.53181881"
       d="m 52.034838,373.76841 c 0,-0.20635 0.658142,-1.78104 1.462513,-3.49931 l 1.462494,-3.12414 -0.144118,-13.02957 c -0.155375,-14.05138 -0.333544,-15.95456 -1.49363,-15.95456 -0.455934,0 -0.755467,-0.53958 -0.755467,-1.36094 0,-0.84662 -0.219032,-1.22555 -0.57959,-1.00273 -0.349181,0.21583 -0.445301,1.07392 -0.241805,2.15867 0.388095,2.06874 -0.528034,2.49782 -1.289311,0.60387 -0.436558,-1.08611 -0.484094,-1.03701 -0.514686,0.53182 -0.01809,0.95062 -0.229605,1.72839 -0.469039,1.72839 -0.239435,0 -0.835125,-0.77777 -1.323742,-1.72839 l -0.888411,-1.72842 0.313142,2.47709 c 0.33099,2.61836 -0.122612,5.7661 -0.830864,5.7661 -0.231876,0 -0.568193,-0.9169 -0.747406,-2.03755 -0.179295,-1.12065 -0.839889,-2.49673 -1.468203,-3.05797 -1.134879,-1.01371 -1.139925,-1.01254 -0.76994,0.17609 0.270993,0.87068 0.157386,1.1966 -0.416818,1.1966 -0.434086,0 -0.909958,-0.29915 -1.057494,-0.66477 -0.147535,-0.36563 -0.287132,-0.12624 -0.310227,0.53181 -0.02311,0.65814 -0.38102,1.19658 -0.795407,1.19658 -0.414365,0 -0.859406,0.29916 -0.988971,0.66478 -0.152159,0.42912 -0.765639,0.10172 -1.730853,-0.92338 -1.550752,-1.6471 -2.378903,-1.20097 -1.34762,0.72598 0.802382,1.49925 0.720091,4.31899 -0.126029,4.31899 -0.430948,0 -0.712915,-0.72652 -0.746884,-1.92445 -0.03055,-1.07971 -0.460176,-2.30532 -0.978621,-2.79207 -0.985856,-0.92555 -0.981795,-0.83623 0.08161,1.79154 0.207215,0.51206 0.01608,0.79772 -0.531812,0.79772 -0.470043,0 -0.854641,-0.34484 -0.854641,-0.76635 0,-0.42148 -0.236581,-0.91255 -0.525723,-1.09126 -0.301463,-0.18633 -0.390628,0.0272 -0.209002,0.50043 0.509562,1.32795 -0.804613,0.94991 -2.154866,-0.61986 -1.022661,-1.18891 -1.38346,-1.32875 -2.034366,-0.78855 -0.43517,0.36116 -1.180547,0.50726 -1.656361,0.32468 -0.630282,-0.24186 -0.865134,-0.0277 -0.865134,0.78855 0,1.61693 -1.339983,1.37763 -2.6591,-0.47492 -0.624836,-0.87751 -1.478755,-1.59545 -1.897583,-1.59545 -0.418829,0 -0.761519,-0.35897 -0.761519,-0.79774 0,-0.49067 -0.498426,-0.79772 -1.294918,-0.79772 -1.726369,0 -4.023263,-0.90334 -4.023263,-1.58231 0,-0.29973 1.138336,-0.54497 2.529654,-0.54497 1.3913,0 3.302631,-0.22169 4.247383,-0.49264 1.097855,-0.31486 1.834408,-0.30382 2.041098,0.0306 0.360318,0.58302 7.375322,0.33095 8.881252,-0.31913 0.520898,-0.22487 1.68454,-0.26135 2.585876,-0.081 1.193452,0.2387 2.525816,-0.0881 4.90293,-1.20233 2.931178,-1.37403 5.194526,-2.10518 7.119808,-2.29995 0.365622,-0.037 0.664774,-0.26669 0.664774,-0.51045 0,-0.24375 0.418808,-0.44475 0.930682,-0.44669 1.346374,-0.006 4.085072,-1.91923 3.374367,-2.35846 -0.320277,-0.19798 -0.791769,-0.23047 -1.047744,-0.0722 -0.628534,0.38846 -5.384593,-1.26354 -5.384593,-1.8703 0,-0.26501 -0.179496,-0.47761 -0.39885,-0.47245 -0.478385,0.0121 -2.792064,4.78483 -2.792064,5.76054 0,1.39602 -2.359065,0.38355 -2.911278,-1.24948 -0.827607,-2.44744 -1.951674,-3.113 -2.988645,-1.76958 -0.68383,0.88591 -1.052026,0.98877 -1.9051,0.53223 -0.5816,-0.31125 -1.338435,-0.90449 -1.681868,-1.3183 -0.364316,-0.43898 -1.178557,-0.64644 -1.954747,-0.49805 -0.73169,0.1399 -2.060899,-0.0483 -2.953792,-0.41814 -0.892913,-0.36987 -2.50644,-0.69727 -3.585622,-0.72757 -1.731635,-0.0486 -1.982003,-0.22786 -2.131188,-1.52558 -0.126229,-1.09801 -0.631348,-1.66359 -1.994326,-2.23307 -1.830951,-0.76503 -2.684186,-2.32398 -0.89649,-1.63795 0.510847,0.19598 3.322831,0.72356 6.248884,1.17232 5.594097,0.85796 13.631782,0.70073 19.742716,-0.38618 4.437691,-0.7893 4.9688,-0.99376 4.661487,-1.79459 -0.214349,-0.55861 -0.605138,-0.58602 -1.819394,-0.12764 -1.324706,0.50001 -1.783252,0.40856 -3.198832,-0.63802 -1.142558,-0.84471 -2.053058,-1.12115 -2.950755,-0.89585 -0.714082,0.1793 -1.735395,0.0918 -2.269578,-0.19397 -0.655188,-0.35065 -1.161955,-0.3291 -1.557226,0.0661 -0.426768,0.42677 -0.918541,0.37062 -1.809886,-0.20666 -0.673158,-0.43596 -1.900538,-0.95939 -2.727522,-1.16315 -1.9167,-0.47227 -5.876969,-4.3932 -4.839415,-4.79135 0.398689,-0.15296 0.845195,-0.0835 0.992248,0.15457 1.052469,1.70295 17.151677,2.60449 21.208025,1.18763 1.116468,-0.38999 1.893523,-0.8455 1.726751,-1.01225 -0.166831,-0.16684 -1.917844,-0.39887 -3.891306,-0.51577 -2.558016,-0.15156 -3.876009,-0.49408 -4.590895,-1.19315 -0.9747,-0.95315 -1.060508,-0.95049 -3.066411,0.0951 -2.22972,1.16221 -3.270993,0.83951 -3.923346,-1.21587 -0.177284,-0.55858 -0.674725,-1.0156 -1.105433,-1.0156 -1.236446,0 -4.995252,-2.08329 -4.995252,-2.7686 0,-0.34083 -0.520355,-1.17356 -1.156326,-1.85056 -1.122237,-1.19454 -1.125171,-1.23085 -0.0999,-1.23085 0.581037,0 2.076876,0.49301 3.324096,1.0956 2.389477,1.15448 7.848019,2.25841 14.285563,2.88914 3.620053,0.35467 3.855688,0.31314 3.855688,-0.6795 0,-1.40717 -3.04573,-1.95163 -4.373892,-0.78183 -0.821296,0.72336 -1.053132,0.71851 -2.220494,-0.0465 -0.884893,-0.57982 -1.367621,-0.66152 -1.503317,-0.25445 -0.307855,0.92355 -2.871439,-0.97725 -4.185432,-3.10334 -0.62351,-1.00888 -0.999927,-1.96805 -0.836452,-2.13152 0.163415,-0.16342 3.280499,-0.25875 6.926744,-0.21176 4.215542,0.0544 6.757278,-0.1212 6.98037,-0.48225 0.192963,-0.31222 -0.180298,-1.4271 -0.829436,-2.47747 -0.983887,-1.59196 -1.260023,-1.76735 -1.659275,-1.05394 -0.600776,1.07351 -2.214664,1.10704 -3.080341,0.0638 -0.361443,-0.43553 -0.841256,-0.67811 -1.066237,-0.53905 -0.224982,0.1391 -1.063665,-0.26212 -1.863754,-0.89146 -1.325532,-1.04269 -1.498695,-1.06566 -1.950288,-0.25867 -0.272599,0.4871 -0.76403,0.88562 -1.092085,0.88562 -0.328056,0 -1.056951,0.41673 -1.619758,0.92607 -0.978199,0.88526 -1.067926,0.87092 -2.036195,-0.32482 -0.557098,-0.68799 -1.020469,-1.52354 -1.029715,-1.85677 -0.02693,-0.96963 -2.511987,-3.53084 -3.425904,-3.53084 -0.856894,0 -2.286804,-2.42505 -1.747757,-2.9641 0.165225,-0.16522 0.742624,-0.0501 1.282999,0.25602 2.345658,1.32872 9.423132,3.21067 14.41945,3.83422 2.977448,0.37158 5.525193,0.56397 5.661634,0.42753 0.136481,-0.13647 0.366447,-0.90074 0.511089,-1.69845 0.23877,-1.31667 0.164017,-1.39745 -0.809618,-0.87633 -1.425851,0.76309 -3.29057,-0.81776 -2.966192,-2.51467 0.175474,-0.91845 -0.01809,-1.16036 -0.891245,-1.11734 -0.613459,0.0301 -1.396364,0.26614 -1.739816,0.52432 -0.769115,0.57811 -4.427822,-0.0491 -4.427822,-0.75902 0,-0.29504 -0.679006,-0.36576 -1.590351,-0.16562 -1.500824,0.32963 -1.715816,0.15236 -3.820373,-3.14866 -1.603496,-2.51518 -2.548066,-3.49796 -3.361925,-3.49796 -0.987464,0 -3.875548,-2.95576 -3.373062,-3.45212 0.0989,-0.0977 2.333638,0.406 4.966147,1.11931 5.099692,1.38178 13.718775,2.18915 16.933105,1.58614 1.697726,-0.31851 1.946468,-0.55804 1.946468,-1.87449 0,-1.61062 -0.956512,-2.14363 -3.872372,-2.15794 -0.813558,-0.005 -1.607618,-0.34193 -1.76458,-0.75096 -0.156984,-0.40904 -1.346054,-1.01079 -2.642399,-1.33721 -1.882166,-0.47395 -2.357033,-0.82612 -2.357033,-1.74816 0,-0.63507 -0.477582,-1.66305 -1.061314,-2.28439 -0.923606,-0.98314 -0.975364,-1.31486 -0.398869,-2.55627 0.639691,-1.37753 1.992015,-1.99054 1.992015,-0.90303 0,0.29251 0.45736,0.53184 1.016348,0.53184 0.559008,0 1.610673,0.70629 2.337035,1.56951 1.087423,1.29232 1.6924,1.55469 3.425563,1.48558 1.702249,-0.068 2.059471,-0.25778 1.867292,-0.99267 -0.130651,-0.49979 -0.809678,-1.05228 -1.508844,-1.22777 -0.737418,-0.18511 -1.402173,-0.8409 -1.583115,-1.56184 -0.229183,-0.9131 -0.667408,-1.22839 -1.651978,-1.18849 -1.1306,0.0459 -1.466815,-0.31977 -2.150968,-2.33888 -0.445984,-1.31624 -1.030599,-2.53196 -1.299119,-2.70162 -0.548534,-0.3465 -0.03759,-2.08475 0.612877,-2.08475 0.230711,0 1.187322,1.19659 2.125821,2.6591 0.938481,1.4625 2.052235,2.65908 2.475023,2.65908 0.422789,0 1.474775,0.36512 2.337759,0.81139 0.862964,0.44627 1.569045,0.60486 1.569045,0.35244 0,-0.57477 -4.608563,-4.92927 -5.170625,-4.88561 -0.227416,0.0181 -0.489201,-0.57362 -0.581762,-1.31395 -0.09266,-0.74036 0.02714,-1.33847 0.265905,-1.32918 0.748091,0.0291 2.295569,1.40168 2.295569,2.03605 0,0.33337 0.35897,0.60614 0.797719,0.60614 0.438747,0 0.797737,0.2137 0.797737,0.47492 0,0.26121 0.331654,0.60219 0.737016,0.75774 0.612956,0.23522 0.606383,0.0209 -0.039,-1.27264 -0.426789,-0.85551 -0.98067,-1.55548 -1.230858,-1.55548 -0.250189,0 -0.873677,-0.41881 -1.385571,-0.93068 -0.511872,-0.51188 -1.092367,-0.93068 -1.289992,-0.93068 -0.197586,0 -1.025917,-0.79223 -1.84066,-1.76051 -1.098417,-1.30538 -1.326515,-1.91537 -0.882319,-2.35954 0.444194,-0.44419 0.919063,-0.29841 1.83696,0.56389 0.680856,0.63964 1.519618,1.16296 1.863915,1.16296 0.344298,0 0.924893,0.47865 1.290235,1.06365 0.365342,0.585 1.085332,1.06364 1.599958,1.06364 1.40147,0 1.131704,-0.71854 -0.669116,-1.78231 -0.882662,-0.5214 -1.477047,-1.15475 -1.320868,-1.40748 0.15618,-0.25269 0.0408,-0.60978 -0.256538,-0.79349 -0.297263,-0.18372 -0.540496,-0.79856 -0.540496,-1.36629 0,-0.56773 -0.239314,-1.03226 -0.531813,-1.03226 -0.292498,0 -0.531832,-0.47863 -0.531832,-1.06364 0,-1.61278 0.974279,-1.2759 2.169721,0.75024 1.157553,1.9619 2.616648,2.88624 2.616648,1.65765 0,-0.41231 -0.250931,-0.90475 -0.55764,-1.0943 -0.381201,-0.23559 -0.360598,-0.58206 0.06513,-1.09501 0.408074,-0.49171 0.428356,-0.75039 0.05889,-0.75039 -0.310126,0 -0.546807,-0.41882 -0.525923,-0.93069 0.0209,-0.51189 -0.133064,-1.33333 -0.342066,-1.82541 -0.28096,-0.66151 0.05126,-1.11772 1.274155,-1.75015 0.909797,-0.47046 1.852035,-0.73313 2.093842,-0.58369 0.241826,0.14934 0.321704,1.53532 0.177485,3.0797 l -0.262127,2.80796 1.136407,-1.01312 c 0.624996,-0.55719 1.136386,-1.30938 1.136386,-1.67149 0,-0.78992 1.448666,-1.43995 1.830851,-0.82155 0.148139,0.23981 0.235575,1.33829 0.194169,2.44106 -0.05648,1.50423 -0.518124,2.44782 -1.847895,3.77758 -1.775737,1.77574 -2.245478,2.87163 -1.230918,2.87163 1.077452,0 5.886414,-2.81114 6.63342,-3.87766 0.686683,-0.98037 0.800431,-1.00048 1.109111,-0.19618 0.189143,0.493 0.01809,1.30459 -0.380297,1.80352 -2.078305,2.60312 -2.840907,3.33383 -3.479291,3.33383 -0.385985,0 -0.70182,0.23932 -0.70182,0.53182 0,0.29251 -0.459049,0.53184 -1.020128,0.53184 -1.389469,0 -2.702597,0.54443 -2.702597,1.12052 0,0.86974 2.496892,0.48968 3.867849,-0.58871 0.743709,-0.585 1.5843,-1.06365 1.867976,-1.06365 0.283674,0 0.813697,-0.35897 1.177813,-0.79772 0.823025,-0.99166 2.659101,-1.04858 2.659101,-0.0824 0,0.83466 -1.67843,2.4756 -2.532167,2.4756 -0.322891,0 -0.742102,0.48848 -0.931586,1.08549 -0.205847,0.64855 -0.977114,1.21201 -1.916097,1.39981 -1.590994,0.31819 -2.904685,1.90548 -2.337114,2.82382 0.463732,0.75036 2.98569,-0.45634 4.540924,-2.17276 0.921255,-1.01673 1.575679,-1.3408 2.079191,-1.02961 1.19721,0.73993 -0.217224,3.31827 -2.6427,4.81731 -1.160748,0.71737 -2.110465,1.60681 -2.110465,1.9765 0,1.01742 1.117473,0.80703 2.471927,-0.46543 0.666023,-0.62568 1.672642,-1.40348 2.236936,-1.72842 0.564314,-0.32494 2.130867,-1.38145 3.481241,-2.34783 1.350375,-0.96636 2.692527,-1.61037 2.982575,-1.43111 0.892108,0.55134 0.584815,1.7687 -0.536295,2.12451 -0.584998,0.18572 -1.063645,0.68637 -1.063645,1.11264 0,0.42627 -0.598283,1.00253 -1.32953,1.28056 -0.919144,0.34944 -1.32955,0.90789 -1.32955,1.80919 0,0.79445 -0.363574,1.39873 -0.930682,1.54695 -0.734121,0.19175 -0.689981,0.25623 0.209002,0.30489 0.626826,0.034 1.277451,-0.29728 1.44581,-0.73605 0.168441,-0.43874 0.882623,-0.79772 1.587236,-0.79772 0.704614,0 1.579055,-0.35896 1.943171,-0.79773 0.364136,-0.43876 0.882079,-0.79773 1.151,-0.79773 0.268921,0 1.0027,-0.47863 1.630612,-1.06363 1.059182,-0.98676 2.53659,-1.43907 2.53659,-0.77654 0,0.58898 -2.282865,4.80132 -3.11992,5.75689 -0.477802,0.54546 -1.398313,1.19428 -2.045601,1.44185 -0.647288,0.24757 -1.787052,1.41671 -2.532811,2.59806 -0.973755,1.54253 -1.718089,2.14793 -2.64083,2.14793 -1.5321,0 -3.130733,1.4375 -2.737693,2.46176 0.197184,0.5139 -0.173464,0.72915 -1.255461,0.72915 -2.930153,0 -3.217706,0.36155 -3.217706,4.04556 0,3.09732 0.09929,3.39991 1.114739,3.39991 1.449407,0 6.515373,-1.47727 8.352212,-2.43554 0.789437,-0.41186 1.944497,-0.75029 2.566801,-0.75209 0.622323,-10e-4 1.404484,-0.33224 1.738148,-0.73428 0.333684,-0.40205 1.8448,-0.84996 3.358027,-0.99537 2.09551,-0.20134 3.012282,-0.58184 3.845959,-1.59619 0.805538,-0.98016 1.568825,-1.31403 2.890495,-1.26429 1.003042,0.0378 1.908619,-0.22619 2.051209,-0.59781 0.408337,-1.06408 1.736983,-0.76766 1.736983,0.38753 0,0.71608 -0.893114,1.55546 -2.792044,2.62401 -1.535638,0.86415 -3.081105,1.82625 -3.434388,2.13804 -0.353281,0.3118 -0.982358,0.56688 -1.39797,0.56688 -0.415613,0 -1.058218,0.73045 -1.428003,1.6232 -0.479672,1.15801 -0.917274,1.52775 -1.527015,1.29013 -1.584039,-0.61724 -1.892437,-0.52428 -2.068696,0.62346 -0.174873,1.13914 -1.609808,1.5941 -6.104865,1.93569 -0.807868,0.0616 -1.56006,0.47062 -1.671536,0.90935 -1.665527,6.55512 -1.763354,6.67458 -3.856331,4.70833 -1.005595,-0.94471 -1.355601,-1.02524 -2.028597,-0.46671 -0.447331,0.37126 -0.813317,1.12433 -0.813317,1.67353 0,0.81323 0.419413,1.00674 2.260233,1.04282 1.24312,0.0242 2.798697,0.10409 3.456818,0.17708 0.658123,0.073 1.196589,-0.052 1.196589,-0.27762 0,-0.22571 1.136768,-0.565 2.526157,-0.754 1.389368,-0.18895 4.219221,-1.16094 6.288521,-2.15988 3.6333,-1.75388 7.671719,-2.43001 7.671719,-1.2844 0,0.29251 -0.449342,0.53183 -0.99852,0.53183 -0.549199,0 -1.294254,0.35634 -1.655718,0.79187 -0.361462,0.43553 -0.871083,0.65967 -1.132507,0.49811 -0.261424,-0.16161 -0.62968,0.14029 -0.818321,0.67064 -0.596113,1.67612 -1.898065,2.82575 -3.200138,2.82575 -0.692193,0 -2.150847,0.58021 -3.241446,1.28938 -1.61807,1.05215 -2.494661,1.25059 -4.764219,1.07854 -2.411445,-0.1827 -2.861872,-0.0603 -3.386971,0.92082 -0.603449,1.12757 -0.58751,1.1304 4.385451,0.78084 2.745109,-0.19297 6.599471,-0.81081 8.565235,-1.37295 1.965783,-0.56216 3.698524,-0.82085 3.850562,-0.57487 0.38498,0.6229 -2.316332,3.72823 -3.243154,3.72823 -1.60004,0 -4.996638,1.35336 -4.996638,1.99087 0,0.42339 -0.76791,0.66824 -2.095892,0.66824 -1.152728,0 -2.256674,0.26017 -2.453194,0.57816 -0.196581,0.31796 -0.80015,0.46234 -1.34139,0.32079 -1.026198,-0.26834 -2.336593,0.80126 -1.727656,1.4102 0.19236,0.19256 -0.151556,0.34994 -0.76433,0.34994 -0.612878,0 -1.481409,-0.36713 -1.930127,-0.81583 -0.733216,-0.73321 -0.86419,-0.63896 -1.293631,0.93069 -0.262791,0.96058 -0.288196,1.95742 -0.05648,2.21518 0.231757,0.25779 3.010494,0.35091 6.174975,0.20695 5.327609,-0.24236 8.774518,-0.87775 16.003147,-2.94996 1.542251,-0.44212 2.941852,-0.66608 3.110232,-0.49773 0.517842,0.51785 -1.590393,3.01775 -2.828366,3.3538 -0.642745,0.17448 -1.55799,0.91154 -2.033902,1.63788 -0.475934,0.72634 -1.179,1.20024 -1.562412,1.05313 -0.383393,-0.14713 -1.263019,0.12904 -1.954729,0.61374 -1.097855,0.76926 -3.766081,1.30579 -6.309928,1.26881 -0.438747,-0.006 -1.696439,-0.24658 -2.794878,-0.53377 -1.165532,-0.30472 -2.119771,-0.32374 -2.291608,-0.0456 -0.162007,0.26205 -0.729679,0.47646 -1.261591,0.47646 -0.531932,0 -1.274114,0.36985 -1.649286,0.82194 -0.37517,0.45205 -1.015845,0.69385 -1.423699,0.53735 -0.407874,-0.15657 -1.457186,0.24452 -2.331829,0.89117 -1.403621,1.03775 -1.478232,1.21994 -0.635731,1.55252 2.75301,1.08679 16.423243,-0.14311 26.988251,-2.42819 7.122437,-1.54047 7.391036,-1.57435 6.960592,-0.87786 -0.168842,0.27333 -1.645084,0.8859 -3.28038,1.36129 -1.981863,0.57613 -3.058954,1.19205 -3.230248,1.84707 -0.141305,0.54052 -0.714504,1.10238 -1.273652,1.24861 -0.669076,0.17487 -0.905556,0.55543 -0.691669,1.11279 0.388236,1.01172 0.15638,1.03256 -2.530861,0.22743 -1.882167,-0.56391 -2.166645,-0.51336 -3.169547,0.56313 -0.849799,0.91215 -1.455278,1.105 -2.647362,0.84317 -2.250907,-0.49439 -1.896981,0.0753 0.98055,1.57854 3.122472,1.63106 5.459063,3.45667 4.444987,3.47287 -0.407151,0.006 -2.223911,-0.9252 -4.037255,-2.07042 -3.367654,-2.12686 -4.785383,-2.41879 -6.02981,-1.24164 -0.386507,0.36565 -1.04465,0.66478 -1.462514,0.66478 -0.417844,0 -0.759728,0.22318 -0.759728,0.49599 0,0.72481 -2.050706,1.29594 -4.78637,1.33297 -2.479063,0.0336 -2.980664,0.65454 -1.299359,1.60856 0.534224,0.3031 2.181881,1.28732 3.661459,2.18713 5.218324,3.17348 18.3717,7.8382 25.979579,9.21345 4.681696,0.84628 5.341446,1.41602 2.519567,2.17587 -1.76846,0.4762 -3.805981,0.48394 -8.433317,0.0321 -3.355837,-0.32767 -6.322491,-0.73236 -6.592597,-0.8993 -0.270108,-0.16704 -0.191557,0.17608 0.174469,0.76238 0.366106,0.58622 1.460705,1.44503 2.432431,1.90842 0.971745,0.46337 1.766791,1.07415 1.766791,1.35727 0,0.75842 -3.197546,-0.71536 -4.709185,-2.17049 -1.34748,-1.2971 -1.913523,-1.42693 -7.256729,-1.6643 -1.755012,-0.0779 -3.490065,-0.33036 -3.855689,-0.56092 -0.377221,-0.23785 -0.664774,-0.17547 -0.664774,0.14412 0,0.89527 -1.567579,0.65549 -3.168845,-0.48471 -0.809416,-0.57636 -1.603396,-0.91622 -1.764377,-0.75523 -0.161004,0.161 -0.937899,-0.13005 -1.72649,-0.64678 -1.389268,-0.91029 -1.427861,-0.90747 -1.242719,0.0904 0.113969,0.61414 1.264547,1.5538 2.850155,2.32762 1.722227,0.84048 2.343767,1.36707 1.764098,1.49462 -0.492235,0.10838 -1.667035,-0.20233 -2.61066,-0.6903 l -1.715696,-0.88721 0.362326,5.77442 c 1.121875,17.87829 2.185941,23.25131 4.914007,24.81338 0.408497,0.23391 0.741759,1.33222 0.741759,1.33222 l -14.889936,0.0794 z M 62.095089,269.75605 c 0.121807,-0.10996 0.111358,-0.31001 -0.02331,-0.44467 -0.406246,-0.40625 -2.591565,0.33118 -2.591565,0.8745 0,0.44279 2.014366,0.11154 2.61478,-0.42983 z m -2.251488,-3.49048 c -0.169848,-0.42425 -0.295795,-0.29822 -0.321303,0.32131 -0.02311,0.56063 0.102516,0.87473 0.279314,0.69802 0.176681,-0.17669 0.195574,-0.63543 0.04201,-1.01933 z"
       id="SM"
       inkscape:connector-curvature="0"
       sodipodi:nodetypes="cccssscsscsscsscscsccscccscccssccsccsssssssccscscscccscsscsccccsscsscsscccccccsccsccsscscsscccsscccsccccsccssscscsscccscsscssscccssssssscccccsssscscccssscsscscssscssccsssssccsccccccsscccscccsssscscsscccccssccsccscscscscscscscscssscccccccssssccccccssccsccsscssssscsscssscccscccsccccsccscsscccscsccccscccccsscccscscccscccscccccccccccccccsccccccc">
      <title
         id="title1417">smrk ztepilý</title>
    </path>
  </g>
</svg>
